<svg width="24" height="24" viewBox="0 0 24 24" fill="none" xmlns="http://www.w3.org/2000/svg">
<g id="ic_Alert">
<path id="Polygon 4" d="M10.2679 4C11.0377 2.66667 12.9623 2.66667 13.7321 4L20.6603 16C21.4301 17.3333 20.4678 19 18.9282 19H5.0718C3.5322 19 2.56995 17.3333 3.33975 16L10.2679 4Z" stroke="#ED4348" stroke-width="1.5" stroke-linecap="round" stroke-linejoin="round"/>
<path id="Vector" d="M11.3395 8.54266C11.1695 8.70825 11.0735 8.9334 11.0735 9.16874V12.7703C11.0735 13.0057 11.1695 13.2308 11.3395 13.3964C11.5094 13.5619 11.7393 13.6544 11.9785 13.6544C12.2177 13.6544 12.4476 13.5619 12.6175 13.3964C12.7875 13.2308 12.8835 13.0057 12.8835 12.7703V9.16874C12.8835 8.9334 12.7875 8.70825 12.6175 8.54266C12.4476 8.37717 12.2177 8.28464 11.9785 8.28464C11.7393 8.28464 11.5094 8.37717 11.3395 8.54266ZM11.4326 16.1631C11.6008 16.2725 11.7982 16.3308 12 16.3308C12.2705 16.3308 12.5304 16.2262 12.7225 16.0391C12.9146 15.8519 13.0231 15.5975 13.0231 15.3317C13.0231 15.1335 12.9627 14.94 12.85 14.7756C12.7372 14.6113 12.5773 14.4836 12.3906 14.4083C12.204 14.333 11.9988 14.3134 11.8009 14.3517C11.6029 14.3901 11.4207 14.4848 11.2775 14.6243C11.1342 14.7639 11.0363 14.942 10.9967 15.1363C10.957 15.3306 10.9774 15.532 11.0551 15.7149C11.1329 15.8978 11.2644 16.0536 11.4326 16.1631Z" fill="#ED4348" stroke="#ED4348" stroke-width="0.2"/>
</g>
</svg>
