<svg width="201" height="140" viewBox="0 0 201 140" fill="none" xmlns="http://www.w3.org/2000/svg">
<mask id="mask0_325_575" style="mask-type:alpha" maskUnits="userSpaceOnUse" x="0" y="0" width="201" height="140">
<rect x="0.5" width="200" height="140" fill="#D9D9D9"/>
</mask>
<g mask="url(#mask0_325_575)">
<path d="M191.461 123.37C192.722 120.252 193.374 116.891 193.461 113.473C193.634 106.109 191.215 98.483 186.766 92.4399C177.513 79.8938 162.282 72.8196 148.77 65.9187C135.109 58.9176 123.304 48.3118 114.901 35.4517V35.4436C107.167 24.9758 94.1579 15.485 81.6929 12.9005C68.0155 10.0698 53.1988 13.3552 41.9949 21.6904C30.8018 30.0284 23.4138 43.2917 22.2095 57.2019C21.7142 62.9635 22.2257 68.7927 21.541 74.5354C20.8564 80.2808 19.2786 86.5133 15.6225 91.2844C12.5022 96.2287 8.73778 100.867 7.36841 106.507C5.90433 112.509 7.30346 118.255 10.1802 123.37H191.461Z" fill="#ECFFF7"/>
<path d="M48.4858 36.8142H8.22221C8.10043 36.8142 8.0003 36.7168 8.0003 36.595C7.97594 34.2649 9.44002 31.9619 11.559 30.9958C13.5725 30.0757 16.1082 30.3923 17.8538 31.7508C19.0607 27.7185 22.8874 24.5685 27.0875 24.2031C31.3282 23.8323 35.6771 26.3248 37.5336 30.146C39.5606 29.1258 42.2073 29.1366 44.5076 30.1893C46.6239 31.1582 48.0772 32.8415 48.4912 34.8062C48.5832 35.2419 48.7023 36.5165 48.7077 36.5707C48.7131 36.6329 48.6915 36.6952 48.6509 36.7412C48.6103 36.7872 48.548 36.8142 48.4858 36.8142ZM8.44683 36.3704H48.2395C48.1989 35.9726 48.1177 35.2013 48.0555 34.9009C47.6685 33.0742 46.3073 31.5073 44.3209 30.5953C42.0666 29.5642 39.4686 29.5831 37.5363 30.6467C37.4822 30.6765 37.4172 30.6819 37.3604 30.6629C37.3009 30.644 37.2549 30.6007 37.2278 30.5439C35.5093 26.7686 31.2632 24.2897 27.1254 24.6469C22.9902 25.0069 19.2339 28.1813 18.1893 32.1974C18.1704 32.2731 18.1136 32.3327 18.0405 32.3543C17.9674 32.376 17.8862 32.3597 17.8294 32.3083C16.2111 30.8767 13.7105 30.506 11.7457 31.4017C9.84867 32.2677 8.51719 34.2893 8.44954 36.3731L8.44683 36.3704Z" fill="#48F0AC" fill-opacity="0.6"/>
<path d="M176.742 69.7902H142.389C142.311 69.7902 142.238 69.7469 142.197 69.6793C142.157 69.6116 142.157 69.525 142.197 69.4574C144.086 66.1855 149.155 64.6565 152.573 66.2721C154.197 62.5294 157.349 59.999 161.26 59.3116C165.452 58.5755 169.833 60.7053 171.546 64.2857C172.862 63.8689 174.272 64.1017 175.351 64.9271C176.493 65.7985 177.154 67.2869 177.029 68.7213L176.962 69.5873C176.953 69.7036 176.856 69.7929 176.74 69.7929L176.742 69.7902ZM142.79 69.3464H176.537L176.588 68.6834C176.699 67.3952 176.109 66.061 175.083 65.2789C174.071 64.5076 172.734 64.3155 171.509 64.7701C171.4 64.8107 171.276 64.7593 171.23 64.6511C169.66 61.141 165.409 59.0356 161.341 59.75C157.506 60.4239 154.429 62.9434 152.895 66.6618C152.871 66.7186 152.825 66.7646 152.765 66.7863C152.705 66.8079 152.641 66.8025 152.586 66.7755C149.477 65.149 144.76 66.4264 142.795 69.3464H142.79Z" fill="#48F0AC" fill-opacity="0.6"/>
<path d="M39.5629 100.015C39.5196 99.9903 39.4763 99.9659 39.4357 99.9497C39.3735 99.9172 39.2923 99.8793 39.2111 99.8604C38.9919 99.7846 38.7538 99.7467 38.5075 99.7467C38.0285 99.7467 37.4926 99.8874 36.8675 100.174C34.8351 101.105 33.0625 102.918 31.6065 105.562C31.3197 106.082 31.0464 106.637 30.7676 107.257C29.4821 110.133 28.5972 113.254 28.0695 116.769C27.9342 115.695 27.7718 114.628 27.5851 113.595C26.9599 110.187 26.0127 107.024 24.7651 104.196C24.4187 103.416 24.0588 102.667 23.6745 101.941C22.0914 98.943 20.3296 96.8483 18.2864 95.5358C17.691 95.1542 17.0605 94.8376 16.411 94.5994C16.0131 94.4533 15.4854 94.2855 14.9388 94.2855C14.8765 94.2855 14.8116 94.2855 14.7493 94.2909C14.4868 94.3071 14.2297 94.3721 13.9916 94.4749C13.9158 94.502 13.8373 94.5399 13.7642 94.5832C13.3394 94.8159 12.9794 95.1894 12.725 95.6576C11.6967 97.5303 12.1621 99.744 12.725 101.849C13.4422 104.534 14.5247 107.389 16.0321 110.583C16.5679 111.716 17.166 112.915 17.9589 114.434C17.4177 114.084 16.7925 113.765 16.1999 113.54C15.9049 113.432 15.6045 113.34 15.323 113.259L15.277 113.245C14.7845 113.097 14.2757 112.942 13.8265 112.68C13.1202 112.271 12.5356 111.6 11.97 110.953C11.1798 110.044 10.3598 109.105 9.19879 108.853C8.99312 108.81 8.78203 108.788 8.55741 108.788C8.03511 108.788 7.53716 108.902 7.02297 109.021C6.54667 109.129 6.09473 109.229 5.64008 109.229C5.39922 109.229 5.1746 109.2 4.9581 109.143C4.77678 109.094 4.59546 109.037 4.41956 108.978C4.08128 108.869 3.73488 108.759 3.37494 108.704C3.25587 108.688 3.12868 108.68 2.99878 108.68C2.17608 108.68 1.13146 109.013 0.568563 109.348L0.262756 109.535L0.5848 109.695C1.36961 110.093 2.84452 111.316 3.52108 112.685C3.71052 113.07 3.85124 113.489 4.01362 113.995C4.24636 114.707 4.48721 115.443 4.98787 116.014C5.73479 116.866 6.84436 117.099 7.82673 117.305C8.6386 117.475 9.48024 117.651 10.1433 118.147C11.1094 118.866 11.5262 120.09 11.9646 121.389C12.1973 122.065 12.4355 122.766 12.771 123.407L12.7954 123.456H13.2501L13.177 123.324C12.8279 122.685 12.5816 121.96 12.3462 121.261C11.9078 119.968 11.4531 118.631 10.3814 117.83C9.65074 117.28 8.76309 117.096 7.9025 116.915C6.89307 116.701 5.94047 116.498 5.28556 115.754C4.83361 115.232 4.61441 114.555 4.37626 113.817C4.23553 113.378 4.08939 112.926 3.88101 112.512C3.28293 111.311 2.11924 110.201 1.20994 109.606C1.41562 109.573 1.624 109.557 1.83779 109.557C3.30999 109.557 4.70101 110.358 5.61031 111.032C6.1705 111.446 6.70904 111.914 7.23135 112.366C8.07029 113.094 8.93899 113.844 9.92136 114.406C10.6115 114.799 11.3611 115.08 12.0864 115.354C12.8441 115.638 13.6289 115.933 14.3271 116.352C15.7236 117.194 18.2512 119.229 19.5015 123.397L19.5204 123.459H19.9372L19.9047 123.345C18.6247 119.007 15.9915 116.888 14.5382 116.009C13.8075 115.567 13.0038 115.267 12.2298 114.977C11.5208 114.712 10.7874 114.436 10.1243 114.06C9.17714 113.519 8.32468 112.78 7.49927 112.066C6.97155 111.608 6.42489 111.135 5.85387 110.712C4.97704 110.063 3.66451 109.3 2.23291 109.178C2.50894 109.121 2.77145 109.091 3.00419 109.091C3.11514 109.091 3.22339 109.097 3.32353 109.113C3.64016 109.159 3.9622 109.262 4.29778 109.367C4.48721 109.43 4.67394 109.489 4.86338 109.538C5.11506 109.606 5.37216 109.638 5.6509 109.638C6.1705 109.638 6.66845 109.524 7.17993 109.408C7.65623 109.3 8.10547 109.197 8.56012 109.197C8.75768 109.197 8.93899 109.216 9.12031 109.254C10.1514 109.478 10.8929 110.328 11.675 111.224C12.2623 111.898 12.8712 112.593 13.6343 113.037C14.1215 113.319 14.6573 113.481 15.1715 113.635L15.3285 113.681C15.572 113.754 15.8237 113.83 16.0646 113.922C16.7249 114.171 17.6829 114.653 18.3973 115.248C18.5814 115.402 18.7464 115.562 18.898 115.741L18.9657 115.684L18.9251 115.779C19.0956 115.992 19.2363 116.252 19.3445 116.544L19.3499 116.642H19.3743C19.4636 116.904 19.5286 117.18 19.5989 117.47L19.6233 117.57C19.7451 118.1 19.8641 118.577 20.0779 119.01C20.3025 119.478 20.63 119.897 20.9196 120.265L20.9683 120.33C21.1794 120.604 21.3986 120.885 21.5961 121.221C21.6475 121.307 21.6908 121.394 21.7477 121.51C21.975 122 22.1455 122.647 22.2429 123.378L22.2537 123.456H22.657L22.6434 123.356C22.6056 123.061 22.5623 122.807 22.5135 122.579C22.408 122.098 22.2754 121.684 22.1184 121.348C22.1076 121.324 22.0995 121.305 22.0751 121.256C22.04 121.188 22.0048 121.121 21.9561 121.037C21.9479 121.018 21.9371 120.996 21.9263 120.985C21.7206 120.636 21.4662 120.309 21.2389 120.019C21.1469 119.9 21.0522 119.781 20.9629 119.659C20.7301 119.356 20.5623 119.094 20.4351 118.837C20.354 118.669 20.2917 118.501 20.2403 118.322C20.151 118.06 20.086 117.781 20.0157 117.483L19.9291 117.502L19.9967 117.41C19.8533 116.801 19.672 116.044 19.1876 115.462C19.0495 115.297 18.8818 115.134 18.714 115.002C18.3324 114.287 17.9589 113.562 17.5909 112.84C15.9915 109.695 14.8467 107.07 13.9834 104.577C13.4693 103.089 13.0687 101.693 12.7602 100.31C12.5194 99.2325 12.4652 98.3259 12.587 97.4518C12.7305 96.4099 13.0714 95.6413 13.6019 95.1704C13.7128 95.0757 13.8238 94.9945 13.9456 94.9269C17.7397 98.648 20.7599 103.203 22.6895 108.101C23.8125 110.948 24.619 113.9 25.3253 116.666C25.9126 118.966 26.4051 121.229 26.7921 123.383L26.8057 123.456H27.2116L27.1927 123.351C26.8544 121.467 26.443 119.521 25.964 117.567C25.3199 114.942 24.5135 111.857 23.4066 108.853C22.454 106.263 21.2281 103.784 19.764 101.481C18.2241 99.0593 16.4055 96.7996 14.3569 94.7645C14.5328 94.7185 14.725 94.6941 14.9252 94.6941C15.3285 94.6941 15.7912 94.7889 16.2946 94.9783C18.5435 95.8091 20.5705 97.6277 22.3187 100.391C22.6705 100.943 23.0169 101.541 23.3471 102.166C25.7069 106.672 27.1845 111.982 27.8611 118.406C27.8963 118.75 27.9315 119.094 27.9639 119.448L28.0451 120.385C28.1101 121.256 28.1696 122.203 28.2264 123.37L28.2319 123.453H28.5431L28.6351 123.429L28.6297 123.334C28.535 121.481 28.4132 119.843 28.2562 118.355C28.6324 115.08 29.2954 112.182 30.2805 109.497C30.5457 108.777 30.8299 108.087 31.1221 107.441C32.3589 104.686 33.7878 102.729 35.4927 101.454C35.9717 101.097 36.4724 100.797 36.9785 100.559C37.4466 100.339 37.9554 100.136 38.5129 100.136C38.6293 100.136 38.7429 100.147 38.8566 100.172C35.6795 103.752 33.2141 108.028 31.7229 112.545C30.8434 115.213 30.2615 118.006 29.7636 120.625C29.6093 121.437 29.4524 122.328 29.29 123.348L29.2738 123.451H29.6716L29.6824 123.375C29.7717 122.828 29.8637 122.284 29.9611 121.74C30.3941 119.337 30.9489 116.507 31.7662 113.746C32.4671 111.359 33.4333 109.035 34.6348 106.842C35.9257 104.491 37.4818 102.293 39.2625 100.315C39.6576 100.51 39.9959 100.862 40.2422 101.335C41.1461 103.097 40.6833 105.2 40.2747 107.056L40.2611 107.113C39.7307 109.503 38.9378 111.968 37.7687 114.869C36.7971 117.278 35.6876 119.676 34.6132 121.995L33.942 123.448H34.375L35.0002 122.098C35.8283 120.309 36.6862 118.458 37.4737 116.615C38.8025 113.497 39.7118 110.918 40.3396 108.499C40.6454 107.316 40.9756 105.92 41.1244 104.539C41.2219 103.638 41.1434 102.729 40.8998 101.909C40.7104 101.278 40.3261 100.437 39.5656 100.004L39.5629 100.015Z" fill="#48F0AC" fill-opacity="0.6"/>
<path d="M199.66 109.34C199.124 109.018 198.079 108.685 197.259 108.685C197.129 108.685 197.002 108.694 196.883 108.71C196.526 108.764 196.18 108.875 195.839 108.983C195.663 109.04 195.481 109.097 195.3 109.146C195.081 109.205 194.859 109.232 194.618 109.232C194.161 109.232 193.711 109.129 193.203 109.016C192.721 108.905 192.223 108.791 191.701 108.791C191.473 108.791 191.265 108.813 191.059 108.856C189.896 109.108 189.078 110.047 188.288 110.956C187.723 111.605 187.138 112.274 186.432 112.683C185.985 112.945 185.474 113.099 184.981 113.245L184.935 113.259C184.654 113.34 184.351 113.432 184.058 113.54C183.466 113.765 182.843 114.084 182.302 114.434C183.095 112.915 183.693 111.716 184.229 110.583C185.736 107.392 186.819 104.537 187.536 101.849C188.099 99.744 188.564 97.5303 187.536 95.6576C187.281 95.1867 186.921 94.8159 186.499 94.5832C186.429 94.5399 186.35 94.502 186.275 94.4749C186.031 94.3694 185.774 94.3071 185.512 94.2909C185.447 94.2855 185.384 94.2855 185.322 94.2855C184.773 94.2855 184.248 94.4533 183.847 94.5994C183.2 94.8403 182.57 95.1542 181.972 95.5358C179.929 96.8483 178.164 98.943 176.597 101.92L176.57 101.955L176.565 101.966C176.197 102.667 175.837 103.414 175.49 104.193C174.245 107.021 173.296 110.185 172.67 113.592C172.484 114.626 172.321 115.692 172.186 116.766C171.661 113.251 170.776 110.131 169.491 107.254C169.212 106.637 168.938 106.082 168.652 105.56C167.193 102.916 165.423 101.103 163.391 100.172C162.763 99.8847 162.227 99.744 161.751 99.744C161.502 99.744 161.266 99.7819 161.052 99.855C160.985 99.8712 160.914 99.901 160.828 99.9443C160.779 99.9632 160.736 99.9876 160.692 100.012C159.932 100.445 159.548 101.287 159.358 101.917C159.112 102.737 159.036 103.646 159.134 104.548C159.283 105.922 159.599 107.262 159.919 108.507C160.546 110.926 161.456 113.505 162.784 116.623C163.572 118.466 164.43 120.317 165.261 122.108L165.883 123.453H166.316L165.645 122.003C164.571 119.684 163.461 117.286 162.489 114.875C161.32 111.974 160.527 109.508 159.997 107.119L159.986 107.062C159.578 105.205 159.112 103.1 160.016 101.338C160.262 100.864 160.598 100.513 160.996 100.318C162.776 102.296 164.332 104.493 165.623 106.845C166.825 109.037 167.788 111.359 168.492 113.752C169.312 116.509 169.864 119.34 170.297 121.743C170.394 122.287 170.486 122.831 170.576 123.378L170.587 123.453H170.984L170.968 123.351C170.806 122.338 170.652 121.448 170.495 120.628C169.999 118.011 169.417 115.218 168.538 112.547C167.047 108.031 164.584 103.755 161.404 100.174C161.518 100.15 161.637 100.139 161.764 100.139C162.305 100.139 162.814 100.342 163.282 100.561C163.788 100.799 164.289 101.103 164.768 101.457C166.473 102.732 167.902 104.688 169.139 107.443C169.431 108.09 169.715 108.78 169.98 109.5C170.968 112.185 171.631 115.08 172.005 118.339C171.848 119.846 171.726 121.481 171.631 123.361L171.626 123.456H172.032L172.037 123.372C172.094 122.217 172.151 121.267 172.218 120.387L172.3 119.445C172.332 119.094 172.367 118.75 172.402 118.398C173.079 111.982 174.557 106.675 176.916 102.169C177.247 101.544 177.59 100.946 177.945 100.393C179.693 97.6331 181.723 95.8118 183.972 94.981C184.478 94.7916 184.938 94.6968 185.341 94.6968C185.541 94.6968 185.731 94.7212 185.909 94.7672C183.858 96.8023 182.039 99.062 180.502 101.484C179.038 103.784 177.812 106.263 176.86 108.853C175.753 111.857 174.946 114.945 174.302 117.567C173.823 119.524 173.412 121.47 173.074 123.351L173.055 123.456H173.461L173.474 123.383C173.858 121.232 174.354 118.972 174.938 116.666C175.645 113.9 176.451 110.948 177.574 108.101C179.504 103.203 182.527 98.648 186.318 94.9269C186.44 94.9945 186.551 95.073 186.662 95.1677C187.192 95.6413 187.533 96.4072 187.677 97.4518C187.798 98.3259 187.744 99.2325 187.503 100.31C187.195 101.693 186.794 103.089 186.28 104.577C185.417 107.073 184.269 109.698 182.673 112.84C182.305 113.562 181.931 114.287 181.571 114.975C181.379 115.134 181.214 115.297 181.076 115.462C180.589 116.044 180.41 116.799 180.259 117.44L180.242 117.511C180.18 117.781 180.113 118.06 180.023 118.325C179.972 118.501 179.91 118.669 179.828 118.834C179.701 119.094 179.533 119.356 179.298 119.659C179.209 119.778 179.117 119.897 179.025 120.017C178.8 120.303 178.546 120.631 178.345 120.972C178.329 120.993 178.316 121.018 178.297 121.056C178.256 121.126 178.215 121.205 178.169 121.291C178.161 121.307 178.153 121.326 178.148 121.343C177.988 121.681 177.856 122.098 177.75 122.579C177.699 122.812 177.655 123.066 177.62 123.356L177.607 123.456H178.01L178.021 123.378C178.115 122.647 178.289 122 178.529 121.483C178.573 121.391 178.616 121.307 178.665 121.224L178.689 121.183C178.862 120.885 179.081 120.604 179.293 120.33L179.344 120.263C179.634 119.895 179.961 119.475 180.186 119.007C180.399 118.571 180.518 118.098 180.638 117.575L180.662 117.47C180.732 117.172 180.8 116.894 180.889 116.626L180.911 116.566C181.027 116.244 181.165 115.984 181.336 115.77L181.379 115.716C181.52 115.554 181.682 115.394 181.866 115.243C182.581 114.645 183.541 114.166 184.202 113.917C184.443 113.825 184.694 113.749 184.938 113.676L185.097 113.627C185.612 113.47 186.147 113.31 186.635 113.029C187.398 112.585 188.007 111.89 188.594 111.216C189.379 110.317 190.118 109.47 191.149 109.246C191.327 109.208 191.511 109.189 191.709 109.189C192.163 109.189 192.613 109.292 193.119 109.405C193.6 109.516 194.098 109.63 194.618 109.63C194.897 109.63 195.154 109.597 195.406 109.53C195.595 109.481 195.782 109.422 195.996 109.351C196.307 109.254 196.629 109.151 196.945 109.105C197.046 109.089 197.154 109.083 197.265 109.083C197.498 109.083 197.76 109.113 198.033 109.17C196.602 109.292 195.289 110.055 194.412 110.704C193.841 111.126 193.295 111.6 192.764 112.06C191.939 112.775 191.086 113.513 190.139 114.055C189.479 114.431 188.745 114.707 188.036 114.972C187.26 115.262 186.459 115.562 185.728 116.003C184.272 116.88 181.642 119.002 180.362 123.34L180.326 123.453H180.743L180.762 123.391C182.012 119.224 184.54 117.188 185.936 116.347C186.632 115.927 187.417 115.632 188.18 115.348C188.902 115.078 189.652 114.796 190.342 114.404C191.325 113.844 192.193 113.091 193.032 112.363C193.554 111.911 194.093 111.443 194.653 111.029C195.563 110.355 196.956 109.554 198.426 109.554C198.637 109.554 198.848 109.57 199.054 109.603C198.144 110.198 196.981 111.308 196.385 112.509C196.177 112.926 196.031 113.381 195.882 113.838C195.649 114.555 195.43 115.232 194.981 115.754C194.326 116.498 193.373 116.701 192.358 116.915C191.5 117.094 190.615 117.28 189.885 117.83C188.813 118.634 188.358 119.971 187.92 121.261C187.682 121.962 187.436 122.688 187.087 123.324L187.013 123.456H187.468L187.492 123.407C187.825 122.769 188.066 122.068 188.302 121.386C188.74 120.092 189.154 118.869 190.123 118.149C190.786 117.654 191.625 117.478 192.44 117.308C193.422 117.102 194.531 116.869 195.278 116.017C195.779 115.446 196.02 114.712 196.25 114.003L196.263 113.96C196.412 113.492 196.553 113.072 196.742 112.688C197.422 111.319 198.897 110.093 199.679 109.698L200.001 109.538L199.665 109.338L199.66 109.34Z" fill="#48F0AC" fill-opacity="0.6"/>
<path d="M200.128 123.37C200.128 123.47 200.05 123.549 199.955 123.549H0.301679C0.20696 123.549 0.128479 123.468 0.128479 123.37C0.128479 123.322 0.147423 123.276 0.179898 123.243C0.212373 123.211 0.255673 123.192 0.301679 123.192H199.955C200.05 123.192 200.128 123.273 200.128 123.37Z" fill="#48F0AC" fill-opacity="0.6"/>
<path d="M138.14 110.067L62.4627 103.853C56.7169 103.381 53.5785 96.9317 56.7652 92.1426L100.191 26.857C103.485 21.9029 110.962 22.5191 113.408 27.9435L145.659 99.4437C148.026 104.69 143.886 110.541 138.137 110.069L138.14 110.067Z" fill="#48F0AC"/>
<path d="M137.533 113.328L62.4351 107.218C58.7414 106.916 55.5733 104.737 53.9586 101.381C52.3435 98.029 52.6069 94.1723 54.6599 91.0641L97.8526 25.6587C99.9762 22.4442 103.523 20.7118 107.341 21.0226C111.16 21.3335 114.375 23.6179 115.943 27.1309L147.848 98.6466C149.364 102.045 148.99 105.895 146.851 108.941C144.708 111.987 141.227 113.63 137.533 113.328ZM106.869 26.7388C105.151 26.5991 103.553 27.3778 102.6 28.8259L59.4071 94.2314C58.4828 95.6311 58.3656 97.3669 59.0913 98.8743C59.8166 100.385 61.2441 101.365 62.9069 101.501L138.005 107.612C139.668 107.748 141.236 107.009 142.2 105.636C143.164 104.264 143.333 102.534 142.649 101.004L110.744 29.4881C110.039 27.9074 108.59 26.8789 106.872 26.7393L106.869 26.7388Z" fill="#40CE94"/>
<path d="M94.6195 92.0934C94.6993 91.1277 94.9428 90.248 95.3553 89.4582C95.7649 88.6679 96.3094 87.9968 96.9882 87.4479C97.6641 86.8986 98.4564 86.4918 99.3678 86.228C100.276 85.9638 101.284 85.8773 102.39 85.9657C103.496 86.057 104.482 86.3069 105.351 86.7161C106.22 87.1253 106.943 87.6566 107.52 88.3072C108.098 88.9578 108.524 89.7092 108.803 90.5561C109.079 91.4025 109.178 92.3102 109.098 93.2759C109.018 94.2416 108.774 95.1122 108.363 95.8906C107.952 96.6691 107.409 97.3316 106.734 97.8781C106.058 98.4275 105.257 98.8328 104.331 99.0971C103.408 99.3589 102.392 99.4468 101.286 99.3556C100.18 99.2643 99.1995 99.0153 98.3476 98.609C97.4929 98.2021 96.7785 97.6722 96.1988 97.0183C95.6214 96.3677 95.1938 95.6249 94.9154 94.7928C94.6371 93.9606 94.5397 93.0591 94.6195 92.0934ZM108.242 80.6278L97.4845 79.7514L98.9931 42.7388L112.798 43.8643L108.242 80.6278Z" fill="#40CE94"/>
<path d="M53.8344 50.8248L53.1927 51.222L49.3789 45.9484L51.0139 44.9395L53.8344 50.8248Z" fill="#DADADA"/>
<path d="M55.1888 50.1969L54.4329 50.1773L54.1234 43.6759L56.0422 43.7259L55.1888 50.1969Z" fill="#DADADA"/>
<path d="M52.2379 51.7007L52.0225 52.4227L45.6719 51.0239L46.2251 49.1824L52.2379 51.7007Z" fill="#DADADA"/>
<path d="M51.2739 124.602V124.69L51.3497 124.733L58.1206 128.588V129.826L46.1287 129.634V121.793H51.2739V124.602Z" fill="white" stroke="#333333" stroke-width="0.3"/>
<path d="M58.7058 129.979V129.276C58.7058 128.558 58.3121 127.899 57.6826 127.559L52.499 124.758C50.9447 125.183 49.7453 125.124 48.9241 124.984C47.5615 124.753 46.2585 124.133 45.8207 124.652C45.6963 124.799 45.6808 124.994 45.686 125.129V129.432C45.686 129.732 45.9295 129.979 46.2326 129.979H58.7084H58.7058Z" fill="#EDF719"/>
<path d="M58.7058 129.509H45.6834" stroke="#2B62DC" stroke-width="0.73" stroke-linecap="round" stroke-linejoin="round"/>
<path d="M55.8382 126.623L55.1077 127.588" stroke="#2B62DC" stroke-width="0.73" stroke-linecap="round" stroke-linejoin="round"/>
<path d="M55.3019 126.319L54.574 127.284" stroke="#2B62DC" stroke-width="0.73" stroke-linecap="round" stroke-linejoin="round"/>
<path d="M54.7449 126.039L54.0144 127.004" stroke="#2B62DC" stroke-width="0.73" stroke-linecap="round" stroke-linejoin="round"/>
<path d="M53.9212 125.528C53.0378 125.865 51.5794 126.299 49.7401 126.288C47.9656 126.278 46.5538 125.86 45.6834 125.528" stroke="#2B62DC" stroke-width="0.73" stroke-linecap="round" stroke-linejoin="round"/>
<path d="M66.7911 124.602V124.69L66.8669 124.733L73.6403 128.588V129.826L61.6484 129.634V121.793H66.7911V124.602Z" fill="white" stroke="#333333" stroke-width="0.3"/>
<path d="M74.2255 129.979V129.276C74.2255 128.558 73.8318 127.899 73.2023 127.559L68.0187 124.758C66.4644 125.183 65.265 125.124 64.4438 124.984C63.0812 124.753 61.7782 124.133 61.3404 124.652C61.216 124.799 61.2005 124.994 61.2057 125.129V129.432C61.2057 129.732 61.4492 129.979 61.7523 129.979H74.2281H74.2255Z" fill="#EDF719"/>
<path d="M74.2255 129.509H61.2031" stroke="#2B62DC" stroke-width="0.73" stroke-linecap="round" stroke-linejoin="round"/>
<path d="M71.3552 126.623L70.6273 127.588" stroke="#2B62DC" stroke-width="0.73" stroke-linecap="round" stroke-linejoin="round"/>
<path d="M70.8216 126.319L70.0911 127.284" stroke="#2B62DC" stroke-width="0.73" stroke-linecap="round" stroke-linejoin="round"/>
<path d="M70.262 126.039L69.5341 127.004" stroke="#2B62DC" stroke-width="0.73" stroke-linecap="round" stroke-linejoin="round"/>
<path d="M69.4408 125.528C68.5575 125.865 67.099 126.299 65.2598 126.288C63.4853 126.278 62.0735 125.86 61.2031 125.528" stroke="#2B62DC" stroke-width="0.73" stroke-linecap="round" stroke-linejoin="round"/>
<path d="M63.8143 82.4573C63.8143 82.4573 68.2984 96.7114 68.9875 98.6851C69.6766 100.659 70.3164 103.421 70.1688 105.838C70.0211 108.255 67.7052 123.15 67.7052 123.15H60.957C60.957 123.15 60.4803 107.415 60.2498 106.183C60.0192 104.951 58.0504 97.9745 58.0504 97.9745C58.0504 97.9745 57.4106 106.134 56.8692 108.302C56.3277 110.473 51.9912 123.394 51.9912 123.394H45.686L48.3464 82.4547H63.8143V82.4573Z" fill="#333333"/>
<path d="M74.1038 73.7664C74.1038 73.7664 76.2435 71.9483 76.7849 70.7579C77.2486 69.7412 77.8963 67.9517 78.075 67.4563C78.1009 67.3811 78.1786 67.3396 78.2563 67.3578L78.3859 67.3889C78.7822 67.4822 79.0283 67.8817 78.9324 68.2811L78.7174 69.1732L80.9789 67.6871C81.1732 67.5601 81.4349 67.6223 81.5489 67.8246C81.6499 68.0035 81.6007 68.2292 81.4375 68.3485L79.9453 69.4378L82.4244 68.2733C82.6161 68.1825 82.8441 68.2551 82.9503 68.4393V68.4444C83.0643 68.639 82.9969 68.8879 82.8027 68.9995L82.8312 68.9917C83.0462 68.9294 83.2741 69.0332 83.3674 69.2381C83.4762 69.4741 83.3674 69.7516 83.1265 69.8501L82.9684 69.915C83.1731 69.8501 83.3907 69.9798 83.4321 70.1899C83.4943 70.4985 83.3441 70.8098 83.0669 70.955C82.4011 71.3025 81.9659 71.3933 81.3338 71.8679C80.8313 72.244 81.0074 72.4826 80.4738 73.1699C79.821 74.005 79.2666 74.0283 78.1449 74.8557C77.7175 75.1695 77.1295 75.6597 76.5077 76.3859L74.1089 73.7664H74.1038Z" fill="white" stroke="#333333" stroke-width="0.3"/>
<path d="M81.5852 67.9128C81.5852 67.9128 81.6991 68.1436 81.4841 68.307C81.2691 68.4704 79.5827 69.7205 79.5827 69.7205" stroke="#262626" stroke-width="0.41" stroke-linecap="round" stroke-linejoin="round"/>
<path d="M82.8001 68.9994L80.4816 70.0783" stroke="#262626" stroke-width="0.41" stroke-linecap="round" stroke-linejoin="round"/>
<path d="M83.041 69.8994L80.707 70.9757" stroke="#262626" stroke-width="0.41" stroke-linecap="round" stroke-linejoin="round"/>
<path d="M78.5465 67.4511C78.5465 67.4511 78.9532 67.7104 78.9428 67.9957C78.9325 68.281 78.5206 70.1224 78.5206 70.1224" stroke="#262626" stroke-width="0.41" stroke-linecap="round" stroke-linejoin="round"/>
<path d="M57.1308 107.314L58.7758 89.4858" stroke="white" stroke-width="0.41" stroke-linecap="round" stroke-linejoin="round"/>
<path d="M67.9643 121.778H60.9052L60.957 123.147H67.7052L67.9643 121.778Z" fill="#262626"/>
<path d="M52.398 122.172H45.7637L45.6834 123.394H51.9913L52.398 122.172Z" fill="#262626"/>
<path d="M68.3762 100.093C69.2699 102.91 69.4124 105.96 68.7829 108.847" stroke="white" stroke-width="0.41" stroke-linecap="round" stroke-linejoin="round"/>
<path d="M50.9167 56.25L52.8254 55.749C52.8254 55.749 53.0378 54.8361 53.3254 54.6416C53.6129 54.4471 55.1439 53.8531 55.1439 53.8531L55.3667 54.0606C55.3667 54.0606 54.1699 55.1551 53.9212 55.6401C53.6725 56.1251 53.6259 57.4789 53.6259 57.4789L52.4549 58.9935L51.3334 59.5833L50.9167 56.6667V56.25Z" fill="white" stroke="#333333" stroke-width="0.3" stroke-linejoin="round"/>
<path d="M75.8827 71.9314C75.8827 71.9314 74.7403 72.8132 73.4373 73.0415C71.9115 73.3086 70.5877 72.4061 70.2328 72.1623C69.2666 71.5009 68.9091 70.7177 68.2692 69.7996C66.3756 67.0841 65.1969 65.3983 63.5494 64.4413C62.6971 63.9485 61.2749 63.3909 59.0289 63.5621C58.5264 63.3805 57.7233 63.5258 57.1845 63.5258H55.8426C54.9619 63.6321 48.4701 64.3868 47.3665 63.3728C46.9313 62.9734 46.9235 62.5791 46.9235 62.5791C46.9184 62.2524 47.123 61.9152 47.6618 61.5054C48.9752 60.5043 51.387 59.7548 52.1952 59.5162L51.703 55.8333H50.6202C49.5374 55.8333 45.6931 56.474 43.6258 57.1975C40.7245 58.2116 39.1702 58.9534 38.4034 60.6366C37.4423 62.7451 38.4656 65.0119 38.7324 65.6006C40.0639 68.5495 43.0171 69.7451 44.8019 70.4661C46.3744 71.1015 47.7758 71.3583 48.7498 71.4698L47.9131 84.8862L63.3162 85.7239H65.6295C65.8057 83.675 64.9197 77.3053 65.0363 75.2252C67.0025 77.964 70.2613 79.349 73.3518 78.755C76.7738 78.0963 78.4965 75.3004 78.7763 74.831C77.5821 72.4709 75.8853 71.9366 75.8853 71.9366L75.8827 71.9314Z" fill="#07BE87"/>
<path d="M56.5972 64.4763H57.5686V70.0576C57.5686 70.5115 57.2008 70.8798 56.7474 70.8798H56.5998V64.4763H56.5972Z" fill="white"/>
<path opacity="0.1" d="M65.6511 84.9342C65.12 85.0327 57.8303 86.2569 52.6778 80.8105C48.331 76.2147 48.8439 70.4 48.9346 69.5415C48.6652 73.5745 48.3931 77.6074 48.1237 81.643H48.1082L47.9113 84.8045L50.3257 84.9368V84.9186C53.9239 85.2039 57.6412 85.4166 61.4674 85.5437C62.8689 85.5904 64.2548 85.6241 65.6277 85.6448C65.6355 85.4088 65.6433 85.1728 65.6511 84.9368V84.9342Z" fill="black"/>
<path d="M61.5657 58.5994C61.83 57.243 61.7885 56.1822 61.7108 55.5053C61.6538 54.9892 61.5631 54.6002 61.2885 54.2293C61.2316 54.1515 60.7756 53.5524 59.9959 53.3968C59.0633 53.21 58.8276 53.8869 57.5012 54.0529C56.3562 54.1956 56.1309 53.7391 55.3615 54.0659C54.5222 54.4238 54.1051 55.2563 53.9807 55.5079C53.9263 55.6194 53.6518 56.1822 53.6233 56.9758C53.6025 57.6035 53.745 58.0755 53.802 58.2674C54.0403 59.0792 54.3201 60.3137 54.6646 62.29C54.8434 62.2822 55.0221 62.277 55.2009 62.2693C57.3199 61.0477 59.4415 59.8236 61.5631 58.602L61.5657 58.5994Z" fill="#262626"/>
<path d="M57.0298 65.27C56.0273 65.2726 55.2139 64.4634 55.2087 63.4597L55.1932 59.5512L58.8225 59.5383L58.838 63.4467C58.8406 64.4504 58.0324 65.2648 57.0298 65.27Z" fill="white"/>
<path opacity="0.25" d="M58.8328 62.3522L56.4703 61.1359C56.4936 61.3408 56.6283 62.3004 57.4702 62.9617C58.009 63.3845 58.5738 63.4804 58.8354 63.5089V62.3496L58.8328 62.3522Z" fill="#333333"/>
<path d="M55.105 58.3401C55.0947 58.2804 54.9392 58.1922 54.89 58.1611C54.8097 58.1092 54.7216 58.0677 54.631 58.0392C54.4548 57.9821 54.2605 57.9692 54.0766 58.0107C53.7139 58.0937 53.3953 58.3971 53.3331 58.7706C53.2968 58.9858 53.3487 59.2115 53.4419 59.4086C53.5818 59.7069 53.8175 59.9584 54.1025 60.1218C54.3382 60.2593 54.6076 60.3345 54.8796 60.3526C54.934 60.3552 55.491 60.3423 55.4884 60.3215C55.3615 59.6602 55.2319 58.9988 55.105 58.3401Z" fill="white"/>
<path d="M54.6076 58.379C54.6517 58.6694 54.9055 60.2074 56.2915 61.2967C56.5453 61.4964 58.2421 62.8269 59.7938 62.1785C61.7885 61.3434 61.5709 58.0651 61.5554 57.8888C61.5087 57.2897 61.3688 55.5209 59.9052 54.5768C58.711 53.8065 57.4183 54.0892 57.2344 54.1333C57.0401 54.18 55.8096 54.4887 55.0558 55.6972C54.3719 56.7943 54.5351 57.9017 54.605 58.379H54.6076Z" fill="white"/>
<path d="M60.4259 57.8888C60.457 58.1455 60.6539 58.3297 60.8663 58.3037C61.0762 58.2778 61.2212 58.047 61.1901 57.7928C61.1591 57.536 60.9622 57.3519 60.7498 57.3778C60.5399 57.4038 60.3949 57.6346 60.4259 57.8888Z" fill="#262626"/>
<path d="M58.123 58.1766C58.1541 58.4334 58.3509 58.6175 58.5634 58.5916C58.7732 58.5657 58.9183 58.3348 58.8872 58.0807C58.8561 57.8239 58.6592 57.6398 58.4468 57.6657C58.237 57.6916 58.0919 57.9225 58.123 58.1766Z" fill="#262626"/>
<path d="M59.7291 58.27L60.0814 58.7472C60.1462 58.8354 60.1229 58.9598 60.0296 59.0169L59.7058 59.214" stroke="#262626" stroke-width="0.3" stroke-linecap="round" stroke-linejoin="round"/>
<path d="M57.3484 59.3827C57.3847 59.6706 57.6464 59.8729 57.9339 59.8366C58.2214 59.8002 58.4235 59.5383 58.3872 59.2504C58.351 58.9625 58.0893 58.7602 57.8018 58.7965C57.5142 58.8329 57.3122 59.0948 57.3484 59.3827Z" fill="#F90CF4"/>
<path d="M54.8616 59.655C54.8616 59.5979 54.8693 59.2063 54.5559 58.9262C54.3098 58.7057 54.0248 58.6902 53.9497 58.6902" stroke="#262626" stroke-width="0.3" stroke-linecap="round" stroke-linejoin="round"/>
<path d="M54.587 59.0014C54.5689 58.9988 54.3591 58.9703 54.214 59.1285C54.0948 59.2582 54.1052 59.419 54.1078 59.4475" stroke="#262626" stroke-width="0.3" stroke-linecap="round" stroke-linejoin="round"/>
<path d="M54.5637 58.021C54.5637 58.021 54.8228 58.0443 55.0171 58.2363C55.2113 58.4282 55.2813 58.7602 55.2813 58.7602C55.7787 58.7005 56.9159 58.4904 57.9469 57.5931C58.5065 57.1081 58.8484 56.5816 59.0479 56.2029C59.237 56.3715 59.5582 56.6257 60.0115 56.8228C60.6048 57.0795 61.343 57.2014 61.4415 57.0017C61.4596 56.9654 61.4415 56.8591 61.4 56.6438C61.3845 56.566 61.369 56.4519 61.3327 56.343C61.2601 56.1277 61.1643 55.9228 61.0503 55.7257C60.8224 55.3341 60.5193 54.9866 60.1618 54.7065C59.9286 54.5249 59.6748 54.3745 59.4054 54.2578C58.5453 53.8921 57.3511 53.8921 56.3227 54.4393C56.3227 54.4393 55.1751 55.0514 54.6699 56.2522C54.4964 56.6646 54.4523 57.0769 54.442 57.2196C54.4212 57.5023 54.4523 57.6864 54.4938 57.8291C54.5171 57.9095 54.5456 57.9743 54.5663 58.0184L54.5637 58.021Z" fill="#262626"/>
<path d="M61.286 58.5553C61.3844 58.5423 61.4803 58.5605 61.5658 58.5994C61.5554 58.8821 61.5295 59.2218 61.4673 59.5849C61.4518 59.5875 61.4337 59.5953 61.4181 59.5953C61.1306 59.6316 60.8689 59.4267 60.8327 59.1414C60.7964 58.8561 61.001 58.5916 61.286 58.5553Z" fill="#F90CF4"/>
<path d="M57.4443 54.1981C57.2733 54.1307 57.0246 54.0399 56.7164 53.9517C56.0429 53.7572 55.7061 53.6612 55.3978 53.7001C54.4989 53.8169 53.9834 54.9995 53.7684 55.4975C53.6052 55.8735 53.3358 56.5115 53.4783 57.3104C53.5404 57.6657 53.6674 57.9458 53.7658 58.1273" stroke="#262626" stroke-width="0.25" stroke-linecap="round" stroke-linejoin="round"/>
<path d="M57.4443 54.0892C57.7474 53.9569 58.0738 53.848 58.3639 53.6976C58.6722 53.5368 58.939 53.3293 59.268 53.2074C59.6125 53.0777 59.9985 53.0258 60.3508 53.1348C60.6539 53.2281 60.9155 53.4304 61.128 53.6638C61.4155 53.9802 61.6357 54.3615 61.7523 54.7739C61.9725 55.5701 61.7756 56.3974 61.6461 57.191" stroke="#262626" stroke-width="0.25" stroke-linecap="round" stroke-linejoin="round"/>
<path d="M59.9702 60.3111C59.9702 60.4625 59.8137 60.6279 59.5581 60.6279C59.3031 60.6279 59.146 60.4604 59.146 60.3111C59.146 60.1618 59.3031 59.9943 59.5581 59.9943C59.8131 59.9943 59.9702 60.1618 59.9702 60.3111Z" fill="white" stroke="#333333" stroke-width="0.3"/>
<path d="M48.9344 70.1225L48.3904 77.1328" stroke="#333333" stroke-width="0.41" stroke-linecap="round" stroke-linejoin="round"/>
<path d="M64.765 70.6956L65.1821 78.4321" stroke="#333333" stroke-width="0.41" stroke-linecap="round" stroke-linejoin="round"/>
<path d="M40.8366 59.655C40.619 59.8287 39.4999 60.7546 39.3186 62.3937C39.1217 64.1781 40.1942 65.4022 40.3626 65.5864" stroke="#333333" stroke-width="0.41" stroke-linecap="round" stroke-linejoin="round"/>
<path d="M67.4487 75.657C67.7363 75.9786 68.858 77.1457 70.7387 77.3999C72.5235 77.6411 73.855 76.9071 74.2384 76.6763" stroke="#333333" stroke-width="0.41" stroke-linecap="round" stroke-linejoin="round"/>
</g>
</svg>
