<svg width="24" height="24" viewBox="0 0 24 24" fill="none" xmlns="http://www.w3.org/2000/svg">
<mask id="mask0_593_801" style="mask-type:alpha" maskUnits="userSpaceOnUse" x="0" y="0" width="24" height="24">
<rect width="24" height="24" fill="#D9D9D9"/>
</mask>
<g mask="url(#mask0_593_801)">
<path fill-rule="evenodd" clip-rule="evenodd" d="M12 20.2C16.5287 20.2 20.2 16.5287 20.2 12C20.2 7.47126 16.5287 3.8 12 3.8C7.47126 3.8 3.8 7.47126 3.8 12C3.8 16.5287 7.47126 20.2 12 20.2ZM12 22C17.5228 22 22 17.5228 22 12C22 6.47715 17.5228 2 12 2C6.47715 2 2 6.47715 2 12C2 17.5228 6.47715 22 12 22Z" fill="#444444"/>
<path d="M12.8953 15.1006C12.8953 15.3391 12.8035 15.5679 12.6399 15.7366C12.4764 15.9052 12.2545 16 12.0233 16C11.792 16 11.5701 15.9052 11.4066 15.7366C11.243 15.5679 11.1512 15.3391 11.1512 15.1006L11.1512 10.9694C11.1512 10.7308 11.243 10.5021 11.4066 10.3334C11.5701 10.1647 11.792 10.07 12.0233 10.07C12.2545 10.07 12.4764 10.1647 12.6399 10.3334C12.8035 10.5021 12.8953 10.7308 12.8953 10.9694L12.8953 15.1006ZM12 7C12.1978 7 12.3911 7.06049 12.5556 7.17381C12.72 7.28713 12.8482 7.4482 12.9239 7.63665C12.9996 7.8251 13.0194 8.03246 12.9808 8.23251C12.9422 8.43257 12.847 8.61633 12.7071 8.76056C12.5673 8.90479 12.3891 9.00302 12.1951 9.04281C12.0011 9.0826 11.8 9.06218 11.6173 8.98412C11.4346 8.90606 11.2784 8.77388 11.1685 8.60428C11.0586 8.43468 11 8.23529 11 8.03131C11 7.75779 11.1054 7.49547 11.2929 7.30206C11.4804 7.10865 11.7348 7 12 7Z" fill="#444444"/>
</g>
</svg>
