<svg width="200" height="140" viewBox="0 0 200 140" fill="none" xmlns="http://www.w3.org/2000/svg">
<mask id="mask0_1503_51973" style="mask-type:alpha" maskUnits="userSpaceOnUse" x="0" y="0" width="200" height="140">
<rect width="200" height="140" fill="#D9D9D9"/>
</mask>
<g mask="url(#mask0_1503_51973)">
<path d="M190.961 123.37C192.222 120.252 192.874 116.891 192.961 113.473C193.134 106.109 190.715 98.483 186.266 92.4399C177.013 79.8938 161.782 72.8196 148.27 65.9187C134.609 58.9176 122.804 48.3118 114.401 35.4517V35.4436C106.667 24.9758 93.6579 15.485 81.1929 12.9005C67.5155 10.0698 52.6988 13.3552 41.4949 21.6904C30.3019 30.0284 22.9138 43.2917 21.7095 57.2019C21.2143 62.9635 21.7257 68.7927 21.0411 74.5354C20.3564 80.2808 18.7786 86.5133 15.1225 91.2844C12.0022 96.2287 8.2378 100.867 6.86843 106.507C5.40435 112.509 6.80348 118.255 9.68023 123.37H190.961Z" fill="#ECFFF7"/>
<path d="M122.247 22.6476H81.9837C81.8619 22.6476 81.7618 22.5501 81.7618 22.4284C81.7374 20.0983 83.2015 17.7953 85.3205 16.8291C87.3339 15.909 89.8697 16.2256 91.6152 17.5842C92.8222 13.5519 96.6489 10.4018 100.849 10.0364C105.09 9.66568 109.439 12.1581 111.295 15.9794C113.322 14.9591 115.969 14.9699 118.269 16.0227C120.385 16.9915 121.839 18.6748 122.253 20.6395C122.345 21.0752 122.464 22.3499 122.469 22.404C122.475 22.4662 122.453 22.5285 122.412 22.5745C122.372 22.6205 122.31 22.6476 122.247 22.6476ZM82.2083 22.2037H122.001C121.96 21.8059 121.879 21.0346 121.817 20.7342C121.43 18.9075 120.069 17.3406 118.082 16.4286C115.828 15.3975 113.23 15.4165 111.298 16.48C111.244 16.5098 111.179 16.5152 111.122 16.4963C111.062 16.4773 111.016 16.434 110.989 16.3772C109.271 12.602 105.025 10.123 100.887 10.4803C96.7517 10.8402 92.9954 14.0146 91.9508 18.0307C91.9319 18.1065 91.875 18.166 91.802 18.1877C91.7289 18.2093 91.6477 18.1931 91.5909 18.1417C89.9725 16.71 87.472 16.3393 85.5072 17.2351C83.6101 18.1011 82.2787 20.1226 82.211 22.2064L82.2083 22.2037Z" fill="#48F0AC" fill-opacity="0.6"/>
<path d="M182.845 70.2818H148.492C148.414 70.2818 148.34 70.2385 148.3 70.1708C148.259 70.1031 148.259 70.0165 148.3 69.9489C150.189 66.677 155.258 65.148 158.676 66.7636C160.299 63.0209 163.452 60.4905 167.363 59.8032C171.555 59.0671 175.936 61.1969 177.649 64.7772C178.964 64.3605 180.374 64.5932 181.454 65.4186C182.596 66.29 183.257 67.7785 183.132 69.2128L183.064 70.0788C183.056 70.1952 182.959 70.2845 182.842 70.2845L182.845 70.2818ZM148.893 69.8379H182.639L182.691 69.1749C182.802 67.8867 182.212 66.5525 181.186 65.7704C180.174 64.9992 178.837 64.807 177.611 65.2617C177.503 65.3023 177.379 65.2508 177.333 65.1426C175.763 61.6326 171.511 59.5271 167.444 60.2416C163.609 60.9154 160.532 63.4349 158.998 67.1533C158.973 67.2102 158.927 67.2562 158.868 67.2778C158.808 67.2995 158.743 67.2941 158.689 67.267C155.58 65.6405 150.863 66.9179 148.898 69.8379H148.893Z" fill="#48F0AC" fill-opacity="0.6"/>
<path d="M39.0629 100.015C39.0196 99.9903 38.9763 99.9659 38.9357 99.9497C38.8735 99.9172 38.7923 99.8793 38.7111 99.8604C38.4919 99.7846 38.2538 99.7467 38.0075 99.7467C37.5285 99.7467 36.9927 99.8875 36.3675 100.174C34.3351 101.105 32.5625 102.918 31.1066 105.562C30.8197 106.082 30.5464 106.637 30.2676 107.257C28.9822 110.133 28.0972 113.254 27.5695 116.769C27.4342 115.695 27.2718 114.628 27.0851 113.595C26.4599 110.187 25.5127 107.024 24.2652 104.196C23.9188 103.416 23.5588 102.667 23.1745 101.942C21.5914 98.943 19.8296 96.8483 17.7864 95.5358C17.191 95.1542 16.5605 94.8376 15.911 94.5994C15.5131 94.4533 14.9854 94.2855 14.4388 94.2855C14.3765 94.2855 14.3116 94.2855 14.2493 94.2909C13.9868 94.3072 13.7297 94.3721 13.4916 94.475C13.4158 94.502 13.3373 94.5399 13.2643 94.5832C12.8394 94.8159 12.4794 95.1894 12.2251 95.6576C11.1967 97.5303 11.6622 99.744 12.2251 101.849C12.9422 104.534 14.0247 107.389 15.5321 110.583C16.0679 111.716 16.666 112.915 17.4589 114.434C16.9177 114.084 16.2925 113.765 15.6999 113.54C15.4049 113.432 15.1045 113.34 14.8231 113.259L14.7771 113.246C14.2845 113.097 13.7757 112.942 13.3265 112.68C12.6202 112.271 12.0356 111.6 11.47 110.953C10.6798 110.044 9.85979 109.105 8.69881 108.853C8.49314 108.81 8.28205 108.788 8.05743 108.788C7.53513 108.788 7.03718 108.902 6.52299 109.021C6.04669 109.129 5.59474 109.229 5.14009 109.229C4.89924 109.229 4.67462 109.2 4.45812 109.143C4.2768 109.094 4.09548 109.037 3.91958 108.978C3.58129 108.87 3.23489 108.759 2.87496 108.704C2.75589 108.688 2.62869 108.68 2.49879 108.68C1.67609 108.68 0.631482 109.013 0.0685817 109.349L-0.237225 109.535L0.0848192 109.695C0.869632 110.093 2.34454 111.316 3.0211 112.685C3.21054 113.07 3.35126 113.489 3.51364 113.995C3.74638 114.707 3.98723 115.443 4.48789 116.014C5.23481 116.866 6.34438 117.099 7.32674 117.305C8.13862 117.475 8.98026 117.651 9.64329 118.147C10.6094 118.866 11.0262 120.09 11.4646 121.389C11.6973 122.065 11.9355 122.766 12.2711 123.407L12.2954 123.456H12.7501L12.677 123.324C12.3279 122.685 12.0816 121.96 11.8462 121.261C11.4078 119.968 10.9531 118.631 9.88144 117.83C9.15076 117.281 8.26311 117.097 7.40252 116.915C6.39309 116.701 5.44049 116.498 4.78558 115.754C4.33363 115.232 4.11443 114.555 3.87628 113.817C3.73555 113.378 3.58941 112.926 3.38103 112.512C2.78295 111.311 1.61926 110.201 0.709963 109.606C0.915638 109.573 1.12402 109.557 1.33781 109.557C2.81001 109.557 4.20103 110.358 5.11033 111.032C5.67052 111.446 6.20906 111.914 6.73137 112.366C7.57031 113.094 8.43901 113.844 9.42138 114.406C10.1115 114.799 10.8611 115.08 11.5864 115.354C12.3441 115.638 13.1289 115.933 13.8272 116.352C15.2236 117.194 17.7512 119.229 19.0015 123.397L19.0205 123.459H19.4372L19.4047 123.345C18.1247 119.007 15.4915 116.888 14.0382 116.009C13.3076 115.567 12.5038 115.267 11.7298 114.978C11.0208 114.712 10.2874 114.436 9.62435 114.06C8.67716 113.519 7.82469 112.78 6.99929 112.066C6.47157 111.608 5.92491 111.135 5.35389 110.712C4.47706 110.063 3.16453 109.3 1.73293 109.178C2.00896 109.121 2.27147 109.091 2.50421 109.091C2.61516 109.091 2.72341 109.097 2.82354 109.113C3.14018 109.159 3.46222 109.262 3.79779 109.367C3.98723 109.43 4.17396 109.489 4.3634 109.538C4.61508 109.606 4.87218 109.638 5.15092 109.638C5.67052 109.638 6.16847 109.524 6.67995 109.408C7.15625 109.3 7.60549 109.197 8.06014 109.197C8.25769 109.197 8.43901 109.216 8.62033 109.254C9.65141 109.478 10.3929 110.328 11.175 111.224C11.7623 111.898 12.3712 112.593 13.1344 113.037C13.6215 113.319 14.1573 113.481 14.6715 113.635L14.8285 113.681C15.072 113.754 15.3237 113.83 15.5646 113.922C16.2249 114.171 17.1829 114.653 17.8974 115.248C18.0814 115.402 18.2465 115.562 18.398 115.741L18.4657 115.684L18.4251 115.779C18.5956 115.992 18.7363 116.252 18.8445 116.544L18.85 116.642H18.8743C18.9636 116.904 19.0286 117.18 19.0989 117.47L19.1233 117.57C19.2451 118.101 19.3641 118.577 19.5779 119.01C19.8026 119.478 20.13 119.897 20.4196 120.266L20.4683 120.33C20.6794 120.604 20.8986 120.885 21.0961 121.221C21.1476 121.307 21.1909 121.394 21.2477 121.51C21.475 122 21.6455 122.647 21.7429 123.378L21.7538 123.456H22.157L22.1435 123.356C22.1056 123.061 22.0623 122.807 22.0136 122.579C21.908 122.098 21.7754 121.684 21.6185 121.348C21.6076 121.324 21.5995 121.305 21.5751 121.256C21.54 121.188 21.5048 121.121 21.4561 121.037C21.448 121.018 21.4371 120.996 21.4263 120.985C21.2206 120.636 20.9662 120.309 20.7389 120.019C20.6469 119.9 20.5522 119.781 20.4629 119.659C20.2301 119.356 20.0624 119.094 19.9352 118.837C19.854 118.669 19.7917 118.501 19.7403 118.322C19.651 118.06 19.5861 117.781 19.5157 117.483L19.4291 117.502L19.4967 117.41C19.3533 116.802 19.172 116.044 18.6876 115.462C18.5496 115.297 18.3818 115.134 18.214 115.002C17.8324 114.287 17.4589 113.562 17.0909 112.84C15.4915 109.695 14.3468 107.07 13.4835 104.577C12.9693 103.089 12.5688 101.693 12.2602 100.31C12.0194 99.2326 11.9653 98.326 12.087 97.4518C12.2305 96.4099 12.5715 95.6414 13.1019 95.1705C13.2128 95.0758 13.3238 94.9946 13.4456 94.9269C17.2397 98.648 20.2599 103.203 22.1895 108.101C23.3126 110.948 24.119 113.9 24.8254 116.666C25.4126 118.967 25.9051 121.229 26.2921 123.383L26.3057 123.456H26.7116L26.6927 123.351C26.3544 121.467 25.943 119.521 25.464 117.567C24.8199 114.942 24.0135 111.857 22.9066 108.853C21.954 106.263 20.7281 103.784 19.264 101.481C17.7242 99.0593 15.9056 96.7996 13.8569 94.7645C14.0328 94.7185 14.225 94.6942 14.4252 94.6942C14.8285 94.6942 15.2912 94.7889 15.7946 94.9783C18.0435 95.8091 20.0705 97.6277 21.8187 100.391C22.1705 100.943 22.5169 101.541 22.8471 102.166C25.2069 106.672 26.6846 111.982 27.3611 118.406C27.3963 118.75 27.4315 119.094 27.4639 119.448L27.5451 120.385C27.6101 121.256 27.6696 122.203 27.7265 123.37L27.7319 123.453H28.0431L28.1351 123.429L28.1297 123.334C28.035 121.481 27.9132 119.843 27.7562 118.355C28.1324 115.08 28.7954 112.182 29.7805 109.497C30.0457 108.777 30.3299 108.087 30.6221 107.441C31.8589 104.686 33.2878 102.729 34.9927 101.454C35.4717 101.097 35.9724 100.797 36.4785 100.559C36.9466 100.339 37.4554 100.136 38.0129 100.136C38.1293 100.136 38.2429 100.147 38.3566 100.172C35.1795 103.752 32.7141 108.028 31.2229 112.545C30.3434 115.213 29.7616 118.006 29.2636 120.625C29.1094 121.437 28.9524 122.328 28.79 123.348L28.7738 123.451H29.1716L29.1824 123.375C29.2717 122.828 29.3637 122.284 29.4612 121.74C29.8942 119.337 30.4489 116.507 31.2662 113.746C31.9672 111.359 32.9333 109.035 34.1349 106.843C35.4257 104.491 36.9818 102.293 38.7625 100.315C39.1577 100.51 39.4959 100.862 39.7422 101.335C40.6461 103.097 40.1833 105.2 39.7747 107.056L39.7612 107.113C39.2307 109.503 38.4378 111.968 37.2687 114.869C36.2971 117.278 35.1876 119.676 34.1132 121.995L33.4421 123.448H33.8751L34.5002 122.098C35.3283 120.309 36.1862 118.458 36.9737 116.615C38.3025 113.497 39.2118 110.918 39.8396 108.499C40.1454 107.316 40.4756 105.92 40.6244 104.54C40.7219 103.638 40.6434 102.729 40.3998 101.909C40.2104 101.278 39.8261 100.437 39.0656 100.004L39.0629 100.015Z" fill="#48F0AC" fill-opacity="0.6"/>
<path d="M199.16 109.34C198.624 109.018 197.579 108.685 196.759 108.685C196.629 108.685 196.502 108.694 196.383 108.71C196.026 108.764 195.68 108.875 195.339 108.983C195.163 109.04 194.981 109.097 194.8 109.146C194.581 109.205 194.359 109.232 194.118 109.232C193.661 109.232 193.211 109.129 192.703 109.016C192.221 108.905 191.723 108.791 191.201 108.791C190.973 108.791 190.765 108.813 190.559 108.856C189.396 109.108 188.578 110.047 187.788 110.956C187.223 111.606 186.638 112.274 185.932 112.683C185.485 112.945 184.974 113.099 184.481 113.246L184.435 113.259C184.154 113.34 183.851 113.432 183.558 113.54C182.966 113.765 182.343 114.084 181.802 114.434C182.595 112.915 183.193 111.716 183.729 110.583C185.236 107.392 186.319 104.537 187.036 101.849C187.599 99.744 188.064 97.5303 187.036 95.6576C186.781 95.1867 186.421 94.8159 185.999 94.5832C185.929 94.5399 185.85 94.502 185.775 94.475C185.531 94.3694 185.274 94.3072 185.012 94.2909C184.947 94.2855 184.884 94.2855 184.822 94.2855C184.273 94.2855 183.748 94.4533 183.347 94.5994C182.7 94.8403 182.07 95.1542 181.472 95.5358C179.429 96.8483 177.664 98.943 176.097 101.92L176.07 101.955L176.065 101.966C175.697 102.667 175.337 103.414 174.99 104.193C173.745 107.021 172.796 110.185 172.17 113.592C171.984 114.626 171.821 115.692 171.686 116.766C171.161 113.251 170.276 110.131 168.991 107.254C168.712 106.637 168.438 106.082 168.152 105.56C166.693 102.916 164.923 101.103 162.891 100.172C162.263 99.8848 161.727 99.744 161.251 99.744C161.002 99.744 160.766 99.7819 160.552 99.855C160.485 99.8712 160.414 99.901 160.328 99.9443C160.279 99.9632 160.236 99.9876 160.192 100.012C159.432 100.445 159.048 101.287 158.858 101.917C158.612 102.737 158.536 103.646 158.634 104.548C158.783 105.922 159.099 107.262 159.419 108.507C160.046 110.926 160.956 113.505 162.284 116.623C163.072 118.466 163.93 120.317 164.761 122.108L165.383 123.453H165.816L165.145 122.003C164.071 119.684 162.961 117.286 161.989 114.875C160.82 111.974 160.027 109.508 159.497 107.119L159.486 107.062C159.078 105.205 158.612 103.1 159.516 101.338C159.762 100.864 160.098 100.513 160.496 100.318C162.276 102.296 163.832 104.493 165.123 106.845C166.325 109.037 167.288 111.359 167.992 113.752C168.812 116.509 169.364 119.34 169.797 121.743C169.894 122.287 169.986 122.831 170.076 123.378L170.087 123.453H170.484L170.468 123.351C170.306 122.339 170.152 121.448 169.995 120.628C169.499 118.011 168.917 115.218 168.038 112.547C166.547 108.031 164.084 103.755 160.904 100.174C161.018 100.15 161.137 100.139 161.264 100.139C161.805 100.139 162.314 100.342 162.782 100.561C163.288 100.799 163.789 101.103 164.268 101.457C165.973 102.732 167.402 104.688 168.639 107.443C168.931 108.09 169.215 108.78 169.48 109.5C170.468 112.185 171.131 115.08 171.505 118.339C171.348 119.846 171.226 121.481 171.131 123.361L171.126 123.456H171.532L171.537 123.372C171.594 122.217 171.651 121.267 171.718 120.387L171.8 119.446C171.832 119.094 171.867 118.75 171.902 118.398C172.579 111.982 174.057 106.675 176.416 102.169C176.747 101.544 177.09 100.946 177.445 100.394C179.193 97.6332 181.223 95.8118 183.472 94.981C183.978 94.7916 184.438 94.6969 184.841 94.6969C185.041 94.6969 185.231 94.7212 185.409 94.7672C183.358 96.8023 181.539 99.0621 180.002 101.484C178.538 103.784 177.312 106.263 176.36 108.853C175.253 111.857 174.446 114.945 173.802 117.567C173.323 119.524 172.912 121.47 172.574 123.351L172.555 123.456H172.961L172.974 123.383C173.358 121.232 173.854 118.972 174.438 116.666C175.145 113.9 175.951 110.948 177.074 108.101C179.004 103.203 182.027 98.648 185.818 94.9269C185.94 94.9946 186.051 95.073 186.162 95.1678C186.692 95.6414 187.033 96.4072 187.177 97.4518C187.298 98.326 187.244 99.2326 187.003 100.31C186.695 101.693 186.294 103.089 185.78 104.577C184.917 107.073 183.769 109.698 182.173 112.84C181.805 113.562 181.431 114.287 181.071 114.975C180.879 115.134 180.714 115.297 180.576 115.462C180.089 116.044 179.91 116.799 179.759 117.44L179.742 117.511C179.68 117.781 179.613 118.06 179.523 118.325C179.472 118.501 179.41 118.669 179.328 118.834C179.201 119.094 179.033 119.356 178.798 119.659C178.709 119.778 178.617 119.897 178.525 120.017C178.3 120.303 178.046 120.631 177.845 120.972C177.829 120.994 177.816 121.018 177.797 121.056C177.756 121.126 177.715 121.205 177.669 121.291C177.661 121.307 177.653 121.326 177.648 121.343C177.488 121.681 177.356 122.098 177.25 122.579C177.199 122.812 177.155 123.066 177.12 123.356L177.107 123.456H177.51L177.521 123.378C177.615 122.647 177.789 122 178.029 121.483C178.073 121.391 178.116 121.307 178.165 121.224L178.189 121.183C178.362 120.885 178.581 120.604 178.793 120.33L178.844 120.263C179.134 119.895 179.461 119.475 179.686 119.007C179.899 118.571 180.018 118.098 180.138 117.576L180.162 117.47C180.232 117.172 180.3 116.894 180.389 116.626L180.411 116.566C180.527 116.244 180.665 115.984 180.836 115.77L180.879 115.716C181.02 115.554 181.182 115.394 181.366 115.243C182.081 114.645 183.041 114.166 183.702 113.917C183.943 113.825 184.194 113.749 184.438 113.676L184.597 113.627C185.112 113.47 185.647 113.31 186.135 113.029C186.898 112.585 187.507 111.89 188.094 111.216C188.879 110.317 189.618 109.47 190.649 109.246C190.827 109.208 191.011 109.189 191.209 109.189C191.663 109.189 192.113 109.292 192.619 109.405C193.1 109.516 193.598 109.63 194.118 109.63C194.397 109.63 194.654 109.597 194.906 109.53C195.095 109.481 195.282 109.422 195.496 109.351C195.807 109.254 196.129 109.151 196.445 109.105C196.546 109.089 196.654 109.083 196.765 109.083C196.998 109.083 197.26 109.113 197.533 109.17C196.102 109.292 194.789 110.055 193.912 110.704C193.341 111.127 192.795 111.6 192.264 112.06C191.439 112.775 190.586 113.513 189.639 114.055C188.979 114.431 188.245 114.707 187.536 114.972C186.76 115.262 185.959 115.562 185.228 116.003C183.772 116.88 181.142 119.002 179.862 123.34L179.826 123.453H180.243L180.262 123.391C181.512 119.224 184.04 117.189 185.436 116.347C186.132 115.927 186.917 115.632 187.68 115.348C188.402 115.078 189.152 114.796 189.842 114.404C190.825 113.844 191.693 113.091 192.532 112.363C193.054 111.911 193.593 111.443 194.153 111.029C195.063 110.355 196.456 109.554 197.926 109.554C198.137 109.554 198.348 109.57 198.554 109.603C197.644 110.198 196.481 111.308 195.885 112.509C195.677 112.926 195.531 113.381 195.382 113.838C195.149 114.555 194.93 115.232 194.481 115.754C193.826 116.498 192.873 116.701 191.858 116.915C191 117.094 190.115 117.281 189.385 117.83C188.313 118.634 187.858 119.971 187.42 121.261C187.182 121.962 186.936 122.688 186.587 123.324L186.513 123.456H186.968L186.992 123.407C187.325 122.769 187.566 122.068 187.802 121.386C188.24 120.092 188.654 118.869 189.623 118.149C190.286 117.654 191.125 117.478 191.94 117.308C192.922 117.102 194.031 116.869 194.778 116.017C195.279 115.446 195.52 114.712 195.75 114.003L195.763 113.96C195.912 113.492 196.053 113.072 196.242 112.688C196.922 111.319 198.397 110.093 199.179 109.698L199.501 109.538L199.165 109.338L199.16 109.34Z" fill="#48F0AC" fill-opacity="0.6"/>
<path d="M199.628 123.37C199.628 123.471 199.55 123.549 199.455 123.549H-0.198302C-0.293021 123.549 -0.371502 123.468 -0.371502 123.37C-0.371502 123.322 -0.352558 123.276 -0.320083 123.243C-0.287608 123.211 -0.244308 123.192 -0.198302 123.192H199.455C199.55 123.192 199.628 123.273 199.628 123.37Z" fill="#48F0AC" fill-opacity="0.6"/>
<path d="M124.438 79.4557C124.442 79.3383 124.626 79.3225 124.622 79.4417C124.615 79.6372 124.614 79.8328 124.625 80.0279C124.632 80.1443 124.627 80.2975 124.7 80.3938C124.77 80.4865 124.908 80.5228 125.013 80.5512C125.127 80.582 125.094 80.7645 124.979 80.7333C124.783 80.6802 124.581 80.6113 124.497 80.4073C124.383 80.1294 124.427 79.7485 124.437 79.4561L124.438 79.4557Z" fill="#444444"/>
<path d="M160.074 66.4523L101.734 46.2617L92.0093 74.3618L150.349 94.5524L160.074 66.4523Z" fill="#F5F5F5"/>
<path d="M160.073 66.4495L158.307 65.8382L103.502 46.8741L101.732 46.2618L101.121 48.0283L92.6219 72.5927L92.0096 74.3629L93.7761 74.9743L148.584 93.9398L150.347 94.5497L150.351 94.5511L160.077 66.4509L160.073 66.4495ZM149.195 92.1733L94.3884 73.2041L102.891 48.6411L157.694 67.6093L149.195 92.1737V92.1733Z" fill="#DADADA"/>
<path d="M134.096 73.5782C135.918 68.3152 133.736 62.7825 129.223 61.2206C124.71 59.6587 119.575 62.659 117.753 67.922C115.932 73.185 118.114 78.7177 122.627 80.2796C127.14 81.8415 132.275 78.8412 134.096 73.5782Z" fill="#C5C5C5"/>
<path d="M112.539 65.4275C112.12 66.6367 110.8 67.2778 109.591 66.8593C108.382 66.4407 107.741 65.1212 108.16 63.912C108.578 62.7028 109.898 62.0617 111.107 62.4802C112.316 62.8988 112.957 64.2184 112.539 65.4275Z" fill="#C5C5C5"/>
<path d="M144.114 76.3548C143.696 77.5639 142.376 78.2051 141.167 77.7865C139.958 77.3679 139.317 76.0484 139.735 74.8392C140.154 73.6301 141.474 72.9889 142.683 73.4075C143.892 73.8261 144.533 75.1456 144.114 76.3548Z" fill="#C5C5C5"/>
<path d="M98.299 74.5575L94.3893 73.2044L95.741 69.299C97.9 70.0462 99.0463 72.3985 98.299 74.5575Z" fill="#C5C5C5"/>
<path d="M150.547 88.2636L149.194 92.1733L145.288 90.8217C146.036 88.6626 148.388 87.5163 150.547 88.2636Z" fill="#C5C5C5"/>
<path d="M153.786 66.2535L157.696 67.6066L156.344 71.5121C154.185 70.7648 153.039 68.4125 153.786 66.2535H153.786Z" fill="#C5C5C5"/>
<path d="M101.538 52.547L102.891 48.6373L106.797 49.989C106.049 52.148 103.697 53.2943 101.538 52.547Z" fill="#C5C5C5"/>
<path d="M128.507 63.5871C128.721 63.6611 128.839 63.9041 128.765 64.1174L128.538 64.7748C129.687 65.2828 130.405 65.9733 131.065 66.9371C131.173 67.1033 131.22 67.2304 131.164 67.3948C131.084 67.6248 130.824 67.7375 130.594 67.6578C130.496 67.6239 130.419 67.5782 130.338 67.4404C129.755 66.5213 129.08 65.9193 128.243 65.5193L126.651 70.12C128.966 71.5103 129.694 72.8107 129.136 74.4212C128.533 76.1626 126.645 76.8894 124.568 76.2441L124.124 77.5259C124.05 77.7391 123.807 77.8574 123.593 77.7834C123.38 77.7093 123.261 77.4663 123.335 77.253L123.785 75.9549C122.395 75.345 121.41 74.4156 120.639 73.0812C120.558 72.9434 120.526 72.8214 120.578 72.6738C120.652 72.4606 120.917 72.3311 121.131 72.4056C121.279 72.4564 121.354 72.5569 121.387 72.6231C122.011 73.7964 122.837 74.6522 124.073 75.2272L125.694 70.5441C123.417 69.1492 122.711 67.893 123.28 66.2494C123.854 64.59 125.738 63.825 127.76 64.4689L127.976 63.8445C128.05 63.6313 128.293 63.513 128.506 63.5871H128.507ZM125.985 69.7056L127.537 65.2195C125.932 64.7013 124.55 65.2902 124.141 66.4734C123.754 67.5903 124.041 68.4629 125.985 69.7051V69.7056ZM126.361 70.9585L124.791 75.4935C126.446 76.0294 127.844 75.4465 128.276 74.1973C128.669 73.0635 128.332 72.1742 126.361 70.9585Z" fill="#DADADA"/>
<path d="M84.2055 59.3719L24.6105 75.4854L32.3717 104.19L91.9667 88.0765L84.2055 59.3719Z" fill="#F5F5F5"/>
<path d="M84.2028 59.3718L82.3981 59.8598L26.4166 74.9985L24.6082 75.4878L25.0962 77.2925L31.8823 102.384L32.3717 104.192L34.1759 103.704L90.1621 88.5652L91.9626 88.0782L91.9663 88.0773L84.2065 59.3718L84.2028 59.3728V59.3718ZM89.6741 86.7596L33.687 101.895L26.9046 76.8027L82.8875 61.6682L89.6741 86.7596Z" fill="#DADADA"/>
<path d="M61.015 91.8659C65.6252 90.6194 68.1841 85.2506 66.7304 79.8744C65.2768 74.4982 60.3611 71.1504 55.7509 72.3969C51.1407 73.6434 48.5819 79.0122 50.0355 84.3884C51.4891 89.7647 56.4048 93.1125 61.015 91.8659Z" fill="#C5C5C5"/>
<path d="M44.3219 85.2581C44.6557 86.4933 43.9252 87.7654 42.69 88.0992C41.4547 88.433 40.1827 87.7025 39.8488 86.4672C39.515 85.232 40.2455 83.96 41.4808 83.6261C42.716 83.2923 43.9881 84.0228 44.3219 85.2581Z" fill="#C5C5C5"/>
<path d="M76.5767 76.5372C76.9105 77.7725 76.18 79.0445 74.9447 79.3784C73.7095 79.7122 72.4374 78.9817 72.1036 77.7464C71.7698 76.5112 72.5003 75.2391 73.7355 74.9053C74.9708 74.5715 76.2428 75.302 76.5767 76.5372Z" fill="#C5C5C5"/>
<path d="M37.6819 100.816L33.688 101.896L32.6092 97.9062C34.8147 97.3098 37.0855 98.6102 37.6819 100.816Z" fill="#C5C5C5"/>
<path d="M88.593 82.7671L89.6727 86.761L85.6834 87.8398C85.087 85.6343 86.3874 83.3635 88.593 82.7676V82.7671Z" fill="#C5C5C5"/>
<path d="M78.8935 62.7451L82.8875 61.6654L83.9663 65.6547C81.7607 66.2511 79.49 64.9507 78.8935 62.7451Z" fill="#C5C5C5"/>
<path d="M27.9824 80.7938L26.9027 76.7999L30.892 75.7211C31.4884 77.9266 30.1875 80.1974 27.9824 80.7934V80.7938Z" fill="#C5C5C5"/>
<path d="M56.4914 74.7563C56.7098 74.6971 56.944 74.8317 57.0031 75.0501L57.1847 75.7219C58.4204 75.4956 59.4024 75.6628 60.49 76.0888C60.673 76.1657 60.7843 76.2439 60.8295 76.4115C60.8928 76.6462 60.7415 76.8855 60.5068 76.9493C60.4058 76.9767 60.3173 76.9819 60.173 76.9134C59.1738 76.4813 58.277 76.3631 57.3602 76.5032L58.6309 81.203C61.3277 81.0508 62.6602 81.7166 63.1053 83.3616C63.5863 85.1407 62.433 86.8038 60.3527 87.4379L60.7065 88.7472C60.7657 88.9651 60.6306 89.1998 60.4127 89.2589C60.1944 89.3181 59.9602 89.1835 59.901 88.9651L59.5425 87.6391C58.0503 87.9166 56.7135 87.7019 55.3255 87.0319C55.1807 86.9635 55.0862 86.8806 55.0457 86.7293C54.9866 86.5114 55.1337 86.2548 55.3521 86.1966C55.5029 86.1557 55.6221 86.1957 55.6859 86.2325C56.862 86.8513 58.0265 87.0948 59.3721 86.875L58.0787 82.0914C55.4112 82.218 54.121 81.5764 53.6671 79.8979C53.2089 78.2027 54.3361 76.5107 56.3704 75.9063L56.1981 75.2684C56.139 75.0505 56.274 74.8159 56.4919 74.7567L56.4914 74.7563ZM57.8463 81.2342L56.6074 76.6517C54.9884 77.1262 54.1774 78.3898 54.5042 79.5986C54.8124 80.7398 55.5407 81.2999 57.8463 81.2342ZM58.8618 82.0588L60.1143 86.6916C61.7839 86.2041 62.6118 84.9358 62.2668 83.66C61.9539 82.5021 61.1754 81.9559 58.8618 82.0588Z" fill="#DADADA"/>
<path d="M77.9991 56.1238C84.8905 56.1238 90.4768 50.5375 90.4768 43.6461C90.4768 36.7547 84.8905 31.1683 77.9991 31.1683H76.267V56.1238H77.9991Z" fill="#2CA473"/>
<path d="M85.0899 52.4692C89.9628 47.5964 89.9628 39.6959 85.0899 34.823C80.2171 29.9502 72.3166 29.9502 67.4437 34.823C62.5709 39.6959 62.5709 47.5964 67.4437 52.4692C72.3166 57.3421 80.2171 57.3421 85.0899 52.4692Z" fill="#78EDBD"/>
<path d="M83.0641 50.4434C86.8182 46.6894 86.8182 40.6029 83.0641 36.8488C79.3101 33.0947 73.2236 33.0947 69.4695 36.8488C65.7154 40.6029 65.7154 46.6894 69.4695 50.4434C73.2236 54.1975 79.3101 54.1975 83.0641 50.4434Z" fill="#4FCD9A"/>
<path d="M67.6068 43.6461C67.6068 38.4965 71.6557 34.293 76.7434 34.0448C76.5855 34.0369 76.4268 34.0332 76.2671 34.0332C70.9578 34.0332 66.6542 38.3373 66.6542 43.6461C66.6542 48.9549 70.9582 53.2589 76.2671 53.2589C76.4268 53.2589 76.5855 53.2548 76.7434 53.2473C71.6557 52.9991 67.6068 48.7957 67.6068 43.6461Z" fill="#2CA473"/>
<path d="M79.4099 44.3142C79.1561 43.9165 78.8391 43.6283 78.4582 43.4486C78.0778 43.2689 77.6047 43.1171 77.0395 42.9928C77.0158 42.9876 76.9929 42.983 76.9711 42.9783C76.9496 42.9737 76.9268 42.969 76.9026 42.9639C76.8789 42.9592 76.857 42.9541 76.8384 42.9495C76.8193 42.9448 76.7997 42.9397 76.7806 42.935C76.302 42.8298 75.9244 42.7292 75.6492 42.6333C75.3736 42.5374 75.145 42.3879 74.9634 42.184C74.7813 41.9805 74.6905 41.6993 74.6905 41.3399V41.3329C74.6905 40.8109 74.8488 40.4194 75.1645 40.1586C75.4807 39.8974 75.9546 39.7671 76.5869 39.7671C76.9175 39.7671 77.2514 39.8257 77.5889 39.9431C77.9265 40.0604 78.2724 40.2387 78.6267 40.478L79.51 39.2642C79.1939 39.0533 78.8758 38.8778 78.5546 38.7362C78.2338 38.5947 77.9093 38.4894 77.581 38.4201C77.425 38.387 77.2681 38.3633 77.1103 38.3456V37.1522H75.645V38.3893C75.2874 38.4471 74.9652 38.536 74.6859 38.6645C74.1807 38.8968 73.8012 39.2437 73.5475 39.7061C73.2937 40.1684 73.1666 40.749 73.1666 41.4479V41.4549C73.1666 42.1733 73.3077 42.7274 73.5903 43.1175C73.8725 43.5077 74.2128 43.7773 74.6104 43.9258C75.0081 44.0744 75.5272 44.2085 76.1693 44.3281C76.193 44.3332 76.2186 44.3379 76.2447 44.3426C76.2713 44.3472 76.2964 44.3519 76.3201 44.357C76.3346 44.3616 76.3476 44.364 76.3597 44.364C76.3718 44.364 76.3849 44.3663 76.3993 44.371C76.8016 44.4473 77.1322 44.5362 77.3906 44.6368C77.6494 44.7374 77.8599 44.8882 78.0229 45.0894C78.1858 45.2905 78.2673 45.5634 78.2673 45.9084V45.9154C78.2673 46.4564 78.0997 46.8601 77.7644 47.1259C77.4292 47.3913 76.9217 47.5245 76.2415 47.5245C75.7484 47.5245 75.2921 47.4207 74.873 47.2121C74.454 47.0039 74.0722 46.6915 73.7272 46.2748L72.7429 47.4672C73.0591 47.8025 73.3975 48.0814 73.7593 48.3039C74.1211 48.5265 74.5089 48.6946 74.9233 48.8068C75.1552 48.8701 75.3973 48.9106 75.645 48.9385V50.1393H77.1103V48.9185C77.5247 48.8654 77.8957 48.7765 78.2128 48.6419C78.7371 48.4194 79.131 48.0842 79.3945 47.6362C79.6581 47.1883 79.7894 46.6273 79.7894 45.9517V45.9372C79.7894 45.2523 79.6623 44.7113 79.409 44.3137L79.4099 44.3142Z" fill="white"/>
<path d="M77.1149 61.0499C67.5188 61.0499 59.7111 53.2426 59.7111 43.646C59.7111 34.0494 67.5188 26.2422 77.1149 26.2422C86.711 26.2422 94.5192 34.0494 94.5192 43.646C94.5192 53.2426 86.712 61.0499 77.1149 61.0499ZM77.1149 27.8457C68.403 27.8457 61.3151 34.9336 61.3151 43.646C61.3151 52.3584 68.403 59.4459 77.1149 59.4459C85.8269 59.4459 92.9157 52.358 92.9157 43.646C92.9157 34.9341 85.8273 27.8457 77.1149 27.8457Z" fill="#FFCA0D"/>
<path d="M65.871 31.4123L64.7372 32.5461L87.9796 55.7886L89.1135 54.6547L65.871 31.4123Z" fill="#FFCA0D"/>
<path d="M123.363 56.1662C127.781 56.1662 131.362 52.5848 131.362 48.1676C131.362 43.7504 127.781 40.1689 123.363 40.1689H122.253V56.1667H123.363V56.1662Z" fill="#2CA473"/>
<path d="M127.909 53.8234C131.033 50.6997 131.033 45.6353 127.909 42.5116C124.785 39.3879 119.721 39.3879 116.597 42.5116C113.474 45.6353 113.474 50.6997 116.597 53.8234C119.721 56.947 124.785 56.947 127.909 53.8234Z" fill="#78EDBD"/>
<path d="M126.611 52.5249C129.017 50.1183 129.017 46.2166 126.611 43.8101C124.204 41.4036 120.302 41.4036 117.896 43.8101C115.489 46.2166 115.489 50.1183 117.896 52.5249C120.302 54.9314 124.204 54.9314 126.611 52.5249Z" fill="#4FCD9A"/>
<path d="M116.702 48.1675C116.702 44.8664 119.297 42.1719 122.558 42.0127C122.457 42.0076 122.355 42.0052 122.253 42.0052C118.849 42.0052 116.091 44.7644 116.091 48.1675C116.091 51.5706 118.85 54.3298 122.253 54.3298C122.355 54.3298 122.457 54.327 122.558 54.3224C119.297 54.1631 116.702 51.4687 116.702 48.1675Z" fill="#2CA473"/>
<path d="M124.268 48.5959C124.105 48.3412 123.902 48.1563 123.657 48.0409C123.413 47.9259 123.11 47.8281 122.748 47.7485C122.733 47.7452 122.718 47.7424 122.704 47.7392C122.69 47.7364 122.676 47.7331 122.66 47.7298C122.645 47.727 122.631 47.7238 122.619 47.7205C122.607 47.7177 122.594 47.7145 122.582 47.7112C122.275 47.6437 122.033 47.5795 121.857 47.518C121.68 47.4565 121.534 47.3606 121.417 47.2302C121.3 47.0999 121.242 46.9192 121.242 46.6892V46.6846C121.242 46.3498 121.343 46.0988 121.546 45.9317C121.748 45.7641 122.052 45.6807 122.457 45.6807C122.669 45.6807 122.883 45.7184 123.1 45.7934C123.316 45.8684 123.538 45.9829 123.765 46.1365L124.331 45.3585C124.129 45.2235 123.925 45.1108 123.719 45.02C123.513 44.9292 123.305 44.8617 123.095 44.8175C122.995 44.7965 122.895 44.7812 122.794 44.77V44.005H121.854V44.7979C121.625 44.8347 121.419 44.892 121.24 44.9744C120.916 45.1234 120.673 45.3459 120.51 45.6421C120.347 45.9382 120.266 46.3107 120.266 46.7586V46.7632C120.266 47.2237 120.356 47.579 120.538 47.829C120.719 48.079 120.937 48.2518 121.191 48.3472C121.446 48.4422 121.779 48.5284 122.191 48.6052C122.206 48.6084 122.222 48.6112 122.239 48.6145C122.256 48.6173 122.272 48.6205 122.287 48.6238C122.297 48.6266 122.305 48.6285 122.313 48.6285C122.321 48.6285 122.329 48.6299 122.338 48.6331C122.596 48.682 122.808 48.7388 122.974 48.8035C123.139 48.8678 123.275 48.9646 123.379 49.0936C123.483 49.2226 123.535 49.3976 123.535 49.6188V49.6235C123.535 49.9703 123.428 50.2287 123.213 50.3992C122.998 50.5696 122.672 50.6548 122.237 50.6548C121.921 50.6548 121.628 50.5882 121.359 50.4546C121.091 50.3209 120.846 50.1207 120.625 49.8535L119.994 50.618C120.197 50.8331 120.414 51.0114 120.646 51.1544C120.878 51.2973 121.126 51.4049 121.392 51.4766C121.54 51.5171 121.695 51.5431 121.854 51.5608V52.3305H122.794V51.5478C123.059 51.5138 123.297 51.4565 123.5 51.3704C123.836 51.2275 124.089 51.0128 124.258 50.7255C124.427 50.4387 124.511 50.0788 124.511 49.6458V49.6365C124.511 49.1974 124.43 48.8506 124.267 48.5959H124.268Z" fill="white"/>
<path d="M122.797 59.3239C116.645 59.3239 111.64 54.3191 111.64 48.1676C111.64 42.016 116.645 37.0107 122.797 37.0107C128.948 37.0107 133.954 42.0155 133.954 48.1676C133.954 54.3196 128.949 59.3239 122.797 59.3239ZM122.797 38.0388C117.212 38.0388 112.668 42.5826 112.668 48.1676C112.668 53.7525 117.212 58.2959 122.797 58.2959C128.381 58.2959 132.926 53.7525 132.926 48.1676C132.926 42.5826 128.382 38.0388 122.797 38.0388Z" fill="#FFCA0D"/>
<path d="M115.589 40.3247L114.862 41.0516L129.761 55.951L130.488 55.2241L115.589 40.3247Z" fill="#FFCA0D"/>
<path d="M156.916 90.9886H133.377V102.932H156.916V90.9886Z" fill="#2CA473"/>
<path d="M154.29 96.9601C154.29 98.4351 153.094 99.6313 151.619 99.6313C150.143 99.6313 148.947 98.4356 148.947 96.9601C148.947 95.4846 150.143 94.2889 151.619 94.2889C153.094 94.2889 154.29 95.4846 154.29 96.9601Z" fill="#FAFAFA"/>
<path d="M152.178 98.3101C152.923 98.0013 153.277 97.1467 152.968 96.4012C152.66 95.6557 151.805 95.3016 151.06 95.6104C150.314 95.9192 149.96 96.7739 150.269 97.5194C150.578 98.2649 151.432 98.6189 152.178 98.3101Z" fill="#4FCD9A"/>
<path d="M142.686 69.8884H71.4415V123.083H142.686V69.8884Z" fill="#F5F5F5"/>
<path d="M142.686 69.8884H71.4415V123.083H142.686V69.8884Z" fill="#4FCD9A"/>
<path d="M140.457 74.7964H73.6713V114.108H140.457V74.7964Z" fill="#A8A8A8"/>
<path d="M140.457 74.7964H73.6713V114.108H140.457V74.7964Z" fill="#2CA473"/>
<path d="M140.621 87.6903H75.9667V118.173H140.621V87.6903Z" fill="#F5F5F5"/>
<path d="M140.621 87.6903H75.9667V118.173H140.621V87.6903Z" fill="#4FCD9A"/>
<path d="M140.621 93.2748H75.9667V118.173H140.621V93.2748Z" fill="#F5F5F5"/>
<path d="M140.621 93.2748H75.9667V118.173H140.621V93.2748Z" fill="#2CA473"/>
<path d="M136.241 132.309L71.4415 123.083V69.8884L73.52 71.4296C74.5196 72.1708 75.699 72.6313 76.9361 72.764L136.241 79.1144V132.309H136.241Z" fill="#48F0AC"/>
<path d="M71.5331 72.1779L71.3501 72.4119L71.8181 72.7779L72.0011 72.5439L71.5331 72.1779Z" fill="white"/>
<path d="M132.038 81.4969L130.84 81.3628L130.873 81.0676L132.071 81.2017L132.038 81.4969ZM129.941 81.2623L128.743 81.1286L128.776 80.8334L129.974 80.9671L129.941 81.2623ZM127.844 81.0281L126.645 80.894L126.679 80.5988L127.877 80.7329L127.844 81.0281ZM125.747 80.7939L124.548 80.6602L124.581 80.365L125.78 80.4987L125.747 80.7939ZM123.65 80.5597L122.451 80.4256L122.484 80.1304L123.683 80.2645L123.65 80.5597ZM121.553 80.325L120.354 80.1914L120.387 79.8962L121.586 80.0298L121.553 80.325ZM119.456 80.0908L118.257 79.9567L118.29 79.6615L119.489 79.7956L119.456 80.0908ZM117.358 79.8566L116.16 79.723L116.193 79.4278L117.392 79.5614L117.358 79.8566ZM115.261 79.6224L114.063 79.4883L114.096 79.1931L115.294 79.3272L115.261 79.6224ZM113.164 79.3877L111.966 79.2541L111.999 78.9589L113.197 79.0925L113.164 79.3877ZM111.067 79.1535L109.869 79.0194L109.902 78.7242L111.1 78.8583L111.067 79.1535ZM108.97 78.9193L107.772 78.7857L107.805 78.4905L109.003 78.6241L108.97 78.9193ZM106.873 78.6851L105.675 78.551L105.708 78.2558L106.906 78.3899L106.873 78.6851ZM104.776 78.4505L103.578 78.3168L103.611 78.0216L104.809 78.1553L104.776 78.4505ZM102.679 78.2163L101.48 78.0822L101.514 77.787L102.712 77.9211L102.679 78.2163ZM100.582 77.9821L99.3834 77.8484L99.4164 77.5532L100.615 77.6869L100.582 77.9821ZM98.4848 77.7479L97.2863 77.6138L97.3193 77.3186L98.5178 77.4527L98.4848 77.7479ZM96.3877 77.5132L95.1897 77.3796L95.2227 77.0844L96.4207 77.218L96.3877 77.5132ZM94.2906 77.279L93.0926 77.1449L93.1256 76.8497L94.3236 76.9838L94.2906 77.279ZM92.1935 77.0448L90.995 76.9112L91.0281 76.616L92.2266 76.7496L92.1935 77.0448ZM90.0964 76.8106L88.898 76.6765L88.931 76.3813L90.1295 76.5154L90.0964 76.8106ZM87.9993 76.5759L86.8009 76.4423L86.8339 76.1471L88.0324 76.2807L87.9993 76.5759ZM85.9023 76.3417L84.7038 76.2077L84.7368 75.9125L85.9353 76.0466L85.9023 76.3417ZM83.8052 76.1075L82.6072 75.9739L82.6402 75.6787L83.8382 75.8124L83.8052 76.1075ZM81.7081 75.8733L80.5096 75.7392L80.5427 75.4441L81.7411 75.5782L81.7081 75.8733ZM79.611 75.6391L78.4125 75.5051L78.4456 75.2099L79.6436 75.344L79.6105 75.6391H79.611ZM77.5139 75.4049L76.8001 75.3253C76.6349 75.3067 76.471 75.2825 76.308 75.2527L76.3615 74.9603C76.5175 74.9887 76.6749 75.012 76.8332 75.0297L77.547 75.1093L77.5139 75.4045V75.4049ZM75.4126 75.0283C75.0225 74.903 74.6411 74.7433 74.2784 74.5529L74.4167 74.2898C74.7641 74.4723 75.13 74.6255 75.5039 74.7452L75.4131 75.0283H75.4126ZM73.4906 74.0719C73.3915 74.0021 73.2941 73.9299 73.1982 73.8549L72.5296 73.3316L72.7126 73.0974L73.3812 73.6208C73.4729 73.6925 73.5665 73.7618 73.6615 73.8289L73.4906 74.0719Z" fill="white"/>
<path d="M133.693 82.1102H133.396V81.6488L132.938 81.5975L132.971 81.3019L133.693 81.3829V82.1102Z" fill="white"/>
<path d="M133.693 128.409H133.396V127.207H133.693V128.409ZM133.693 126.305H133.396V125.102H133.693V126.305ZM133.693 124.2H133.396V122.998H133.693V124.2ZM133.693 122.096H133.396V120.893H133.693V122.096ZM133.693 119.991H133.396V118.789H133.693V119.991ZM133.693 117.887H133.396V116.684H133.693V117.887ZM133.693 115.782H133.396V114.579H133.693V115.782ZM133.693 113.678H133.396V112.475H133.693V113.678ZM133.693 111.573H133.396V110.37H133.693V111.573ZM133.693 109.469H133.396V108.266H133.693V109.469ZM133.693 107.364H133.396V106.162H133.693V107.364ZM133.693 105.259H133.396V104.057H133.693V105.259ZM133.693 103.155H133.396V101.953H133.693V103.155ZM133.693 101.05H133.396V99.8482H133.693V101.05ZM133.693 98.9459H133.396V97.7437H133.693V98.9459ZM133.693 96.8414H133.396V95.6392H133.693V96.8414ZM133.693 94.7368H133.396V93.5342H133.693V94.7368ZM133.693 92.6323H133.396V91.4296H133.693V92.6323ZM133.693 90.5277H133.396V89.3251H133.693V90.5277ZM133.693 88.4232H133.396V87.221H133.693V88.4232ZM133.693 86.3192H133.396V85.1165H133.693V86.3192ZM133.693 84.2146H133.396V83.012H133.693V84.2146Z" fill="white"/>
<path d="M133.693 130.078L132.935 129.965L132.979 129.671L133.396 129.733V129.311H133.693V130.078Z" fill="white"/>
<path d="M132.048 129.833L130.865 129.657L130.908 129.363L132.091 129.539L132.048 129.833ZM129.978 129.525L128.795 129.35L128.838 129.056L130.021 129.232L129.978 129.525ZM127.907 129.218L126.724 129.042L126.767 128.748L127.951 128.924L127.907 129.218H127.907ZM125.837 128.91L124.654 128.734L124.697 128.441L125.88 128.617L125.837 128.91ZM123.767 128.603L122.584 128.427L122.628 128.133L123.811 128.309L123.768 128.603H123.767ZM121.697 128.295L120.514 128.119L120.557 127.825L121.74 128.001L121.697 128.295H121.697ZM119.626 127.987L118.443 127.812L118.487 127.518L119.67 127.693L119.626 127.987ZM117.556 127.679L116.373 127.504L116.417 127.21L117.6 127.386L117.556 127.679ZM115.486 127.372L114.303 127.196L114.347 126.902L115.53 127.078L115.486 127.372ZM113.416 127.064L112.233 126.888L112.276 126.594L113.46 126.77L113.416 127.064ZM111.346 126.756L110.163 126.58L110.206 126.287L111.389 126.463L111.346 126.756ZM109.276 126.449L108.093 126.273L108.136 125.979L109.319 126.155L109.276 126.449ZM107.206 126.141L106.022 125.965L106.066 125.672L107.249 125.847L107.206 126.141ZM105.135 125.834L103.952 125.658L103.996 125.364L105.179 125.54L105.135 125.834H105.135ZM103.065 125.526L101.882 125.35L101.925 125.056L103.108 125.232L103.064 125.526H103.065ZM100.995 125.218L99.8117 125.042L99.855 124.748L101.038 124.924L100.995 125.218ZM98.9247 124.91L97.7417 124.735L97.785 124.441L98.9681 124.617L98.9247 124.91ZM96.8547 124.603L95.6716 124.427L95.7149 124.133L96.898 124.309L96.8547 124.603ZM94.7841 124.295L93.601 124.119L93.6448 123.825L94.8279 124.001L94.7841 124.295ZM92.714 123.988L91.531 123.812L91.5747 123.518L92.7578 123.694L92.714 123.988ZM90.6435 123.68L89.4604 123.504L89.5042 123.21L90.6873 123.386L90.6435 123.68ZM88.5734 123.372L87.3903 123.196L87.4336 122.903L88.6167 123.078L88.5734 123.372ZM86.5029 123.064L85.3198 122.889L85.3631 122.595L86.5462 122.77L86.5029 123.064ZM84.4323 122.757L83.2492 122.581L83.293 122.287L84.4761 122.463L84.4323 122.757ZM82.3618 122.449L81.1787 122.273L81.2225 121.979L82.4056 122.155L82.3618 122.449ZM80.2917 122.141L79.1086 121.965L79.1524 121.672L80.3355 121.848L80.2917 122.141ZM78.2216 121.834L77.0385 121.658L77.0818 121.364L78.2649 121.54L78.2216 121.834ZM76.1516 121.526L74.9685 121.35L75.0118 121.057L76.1949 121.232L76.1516 121.526ZM74.081 121.219L72.8979 121.043L72.9417 120.749L74.1248 120.925L74.081 121.219Z" fill="white"/>
<path d="M71.4617 120.53L71.4181 120.824L72.0057 120.911L72.0494 120.617L71.4617 120.53Z" fill="white"/>
<path d="M127.886 108.338C129.313 108.338 130.469 107.021 130.469 105.396C130.469 103.771 129.313 102.454 127.886 102.454C126.46 102.454 125.303 103.771 125.303 105.396C125.303 107.021 126.46 108.338 127.886 108.338Z" fill="#FAFAFA"/>
<path d="M129.088 105.396C129.088 106.152 128.55 106.764 127.886 106.764C127.223 106.764 126.685 106.152 126.685 105.396C126.685 104.64 127.223 104.028 127.886 104.028C128.55 104.028 129.088 104.64 129.088 105.396Z" fill="#4FCD9A"/>
<path d="M96.1479 98.2182C95.9207 98.2182 95.6939 98.1316 95.5203 97.9584L90.2645 92.7026C89.9186 92.3562 89.9186 91.7947 90.2645 91.4483C90.6109 91.1019 91.1729 91.1019 91.5193 91.4483L96.7751 96.704C97.121 97.0504 97.121 97.612 96.7751 97.9584C96.6019 98.1316 96.3746 98.2182 96.1474 98.2182H96.1479Z" fill="#2CA473"/>
<path d="M90.8921 98.2182C90.6649 98.2182 90.4382 98.1316 90.2645 97.9584C89.9186 97.612 89.9186 97.0504 90.2645 96.704L95.5203 91.4483C95.8667 91.1019 96.4287 91.1019 96.7751 91.4483C97.121 91.7947 97.121 92.3562 96.7751 92.7026L91.5193 97.9584C91.3461 98.1316 91.1189 98.2182 90.8917 98.2182H90.8921Z" fill="#2CA473"/>
<path d="M112.621 98.2182C112.394 98.2182 112.167 98.1316 111.993 97.9584L106.737 92.7026C106.391 92.3562 106.391 91.7947 106.737 91.4483C107.084 91.1019 107.646 91.1019 107.992 91.4483L113.248 96.704C113.594 97.0504 113.594 97.612 113.248 97.9584C113.075 98.1316 112.848 98.2182 112.621 98.2182H112.621Z" fill="#2CA473"/>
<path d="M107.365 98.2182C107.138 98.2182 106.911 98.1316 106.737 97.9584C106.391 97.612 106.391 97.0504 106.737 96.704L111.993 91.4483C112.34 91.1019 112.902 91.1019 113.248 91.4483C113.594 91.7947 113.594 92.3562 113.248 92.7026L107.992 97.9584C107.819 98.1316 107.592 98.2182 107.364 98.2182H107.365Z" fill="#2CA473"/>
<path d="M93.52 110.913C93.2956 110.913 93.0707 110.828 92.898 110.658C92.5488 110.314 92.5441 109.753 92.8882 109.404L96.1879 106.051C96.3546 105.881 96.5828 105.786 96.8202 105.786C97.0582 105.786 97.2858 105.881 97.4525 106.051L100.12 108.761L102.784 106.051C102.951 105.882 103.179 105.786 103.416 105.786C103.654 105.786 103.883 105.881 104.049 106.051L106.711 108.761L109.374 106.051C109.541 105.882 109.769 105.786 110.007 105.786C110.245 105.786 110.473 105.881 110.64 106.051L113.935 109.404C114.279 109.753 114.274 110.315 113.924 110.659C113.574 111.002 113.013 110.998 112.669 110.647L110.007 107.938L107.344 110.647C107.177 110.817 106.949 110.913 106.711 110.913C106.473 110.913 106.245 110.817 106.078 110.647L103.416 107.938L100.752 110.647C100.419 110.986 99.8206 110.988 99.4872 110.648L96.8202 107.938L94.1528 110.648C93.9796 110.824 93.7496 110.912 93.5205 110.912L93.52 110.913Z" fill="#2CA473"/>
<path d="M57.3751 127.317L57.8505 130.144C57.261 131.699 57.5237 133.667 57.5237 133.667L69.0902 133.665C67.8382 131.324 62.4116 131.153 61.8398 130.033C61.268 128.913 61.0134 125.59 61.0134 125.59L57.3751 127.317V127.317Z" fill="#FAFAFA"/>
<path d="M59.976 130.291C59.9578 129.886 60.2549 128.428 61.3039 127.994C61.4347 128.79 61.6121 129.586 61.8403 130.033C62.412 131.153 67.8387 131.325 69.0907 133.665L57.5241 133.667C57.5241 133.667 57.2615 131.699 57.851 130.144C57.851 130.144 59.9401 131.022 59.9765 130.291H59.976Z" fill="#444444"/>
<path d="M68.7792 133.218C68.8998 133.357 69.0055 133.505 69.0902 133.664L57.5237 133.667C57.5237 133.667 57.5004 133.492 57.4836 133.208L68.7792 133.218Z" fill="white"/>
<path d="M60.9966 130.589C61.0227 130.587 61.0469 130.571 61.0562 130.545C61.0581 130.54 61.2299 130.068 61.5665 129.92C61.7057 129.859 61.8566 129.862 62.0149 129.929C62.0489 129.943 62.0875 129.927 62.102 129.893C62.1164 129.859 62.1001 129.821 62.0666 129.806C61.8729 129.725 61.6866 129.722 61.5125 129.799C61.1233 129.971 60.9384 130.479 60.931 130.501C60.9189 130.535 60.9366 130.574 60.9715 130.586C60.9799 130.588 60.9882 130.59 60.9966 130.589V130.589Z" fill="white"/>
<path d="M62.0908 131.356C62.1169 131.354 62.1411 131.338 62.1504 131.311C62.1523 131.307 62.3241 130.835 62.6607 130.687C62.7999 130.626 62.9508 130.629 63.1091 130.695C63.1431 130.709 63.1817 130.694 63.1961 130.66C63.2106 130.626 63.1943 130.587 63.1608 130.573C62.9671 130.492 62.7808 130.489 62.6067 130.566C62.2174 130.738 62.0331 131.246 62.0251 131.268C62.013 131.302 62.0307 131.34 62.0656 131.352C62.074 131.355 62.0824 131.357 62.0908 131.356V131.356Z" fill="white"/>
<path d="M63.8852 131.865C63.9113 131.864 63.9355 131.847 63.9448 131.821C63.9467 131.816 64.1185 131.345 64.4551 131.197C64.5943 131.136 64.7452 131.138 64.9035 131.205C64.9375 131.219 64.9761 131.203 64.9905 131.17C65.005 131.136 64.9887 131.097 64.9552 131.082C64.7615 131.001 64.5752 130.999 64.4011 131.075C64.0118 131.247 63.827 131.755 63.8196 131.777C63.8074 131.812 63.8251 131.85 63.8601 131.862C63.8684 131.865 63.8768 131.866 63.8852 131.866V131.865Z" fill="white"/>
<path d="M59.5239 85.0532C61.2508 103.143 62.7305 129.127 62.7305 129.127L55.6589 129.374L52.2055 108.406L54.2612 84.6421L59.5239 85.0532Z" fill="#444444"/>
<path d="M44.6092 127.317L45.0846 130.144C44.4951 131.699 44.7577 133.667 44.7577 133.667L56.3243 133.665C55.0723 131.324 49.6457 131.153 49.0739 130.033C48.5021 128.913 48.2474 125.59 48.2474 125.59L44.6092 127.317V127.317Z" fill="#FAFAFA"/>
<path d="M47.2101 130.291C47.1919 129.886 47.489 128.428 48.538 127.994C48.6688 128.79 48.8462 129.586 49.0744 130.033C49.6461 131.153 55.0727 131.325 56.3247 133.665L44.7582 133.667C44.7582 133.667 44.4956 131.699 45.0851 130.144C45.0851 130.144 47.1742 131.022 47.2105 130.291H47.2101Z" fill="#444444"/>
<path d="M56.0133 133.218C56.1339 133.357 56.2395 133.505 56.3243 133.664L44.7577 133.667C44.7577 133.667 44.7345 133.492 44.7177 133.208L56.0133 133.218Z" fill="white"/>
<path d="M48.2307 130.589C48.2567 130.587 48.2809 130.571 48.2903 130.545C48.2921 130.54 48.4639 130.068 48.8006 129.92C48.9398 129.859 49.0906 129.862 49.2489 129.929C49.2829 129.943 49.3216 129.927 49.336 129.893C49.3504 129.859 49.3341 129.821 49.3006 129.806C49.1069 129.725 48.9207 129.722 48.7466 129.799C48.3573 129.971 48.1725 130.479 48.165 130.501C48.1529 130.535 48.1706 130.574 48.2055 130.586C48.2139 130.588 48.2223 130.59 48.2307 130.589V130.589Z" fill="white"/>
<path d="M49.3248 131.356C49.3509 131.354 49.3751 131.338 49.3844 131.311C49.3863 131.307 49.5581 130.835 49.8947 130.687C50.034 130.626 50.1848 130.629 50.3431 130.695C50.3771 130.709 50.4157 130.694 50.4302 130.66C50.4446 130.626 50.4283 130.587 50.3948 130.573C50.2011 130.492 50.0149 130.489 49.8407 130.566C49.4515 130.738 49.2671 131.246 49.2592 131.268C49.2471 131.302 49.2648 131.34 49.2997 131.352C49.3081 131.355 49.3165 131.357 49.3248 131.356V131.356Z" fill="white"/>
<path d="M51.1193 131.865C51.1454 131.864 51.1696 131.847 51.1789 131.821C51.1807 131.816 51.3526 131.345 51.6892 131.197C51.8284 131.136 51.9793 131.138 52.1376 131.205C52.1716 131.219 52.2102 131.203 52.2246 131.17C52.2391 131.136 52.2228 131.097 52.1892 131.082C51.9956 131.001 51.8093 130.999 51.6352 131.075C51.2459 131.247 51.0616 131.755 51.0536 131.777C51.0415 131.812 51.0592 131.85 51.0941 131.862C51.1025 131.865 51.1109 131.866 51.1193 131.866V131.865Z" fill="white"/>
<path d="M46.6146 83.8198C45.1344 90.3159 43.4899 129.374 43.4899 129.374H50.1504C50.1504 129.374 59.2776 88.9177 59.0308 85.0531C58.7841 81.1886 46.6146 83.8198 46.6146 83.8198Z" fill="#7C7C7C"/>
<g style="mix-blend-mode:multiply">
<path d="M45.9566 127.871C45.9566 127.871 45.9534 127.871 45.952 127.871C45.9194 127.868 45.8952 127.84 45.8975 127.807C45.9213 127.501 48.3182 97.0817 51.4084 85.6962C51.4168 85.6646 51.4494 85.6459 51.481 85.6548C51.5127 85.6632 51.5313 85.6958 51.5225 85.7274C48.4351 97.1021 46.0391 127.511 46.0153 127.817C46.013 127.847 45.9869 127.871 45.9566 127.871V127.871Z" fill="#A8A8A8"/>
</g>
<g style="mix-blend-mode:multiply">
<path d="M43.8288 128.282C43.7963 128.282 43.7697 128.256 43.7697 128.223C43.7697 128.191 43.7958 128.164 43.8284 128.164L49.7797 128.133C49.8137 128.132 49.8389 128.159 49.8393 128.191C49.8393 128.224 49.8133 128.251 49.7807 128.251L43.8293 128.282H43.8288Z" fill="#EAEAEA"/>
</g>
<path d="M62.8544 73.7986C63.2683 73.801 63.543 75.0385 63.9644 74.9706C66.9144 74.4938 69.2681 72.7985 69.2681 72.514C69.2681 72.1886 69.9898 69.4317 70.1239 69.2022C70.258 68.9726 71.3484 68.9345 71.4825 68.8386C71.6166 68.7426 71.7889 68.3408 71.7889 68.3408C72.0566 68.3981 72.4393 68.7617 72.2289 69.1826C72.0184 69.6035 71.4443 69.8908 71.4443 69.8908L71.442 73.043C71.5952 74.5357 64.7955 80.4526 62.4228 80.644C61.5465 80.3846 58.2323 76.9396 58.4963 75.4739C58.7976 73.8038 62.8544 73.7986 62.8544 73.7986Z" fill="white"/>
<path d="M57.8962 75.5149C57.2723 76.163 58.0754 77.4052 58.8604 77.6548C59.6454 77.9044 64.2279 74.9236 64.382 73.9961C64.5361 73.0686 63.6855 72.3734 62.7408 72.9266C61.7956 73.4797 57.8966 75.5149 57.8966 75.5149H57.8962Z" fill="#2CA473"/>
<path d="M50.6639 66.9062C50.751 62.4769 56.1957 62.6799 58.0917 65.3641C59.2962 67.0696 63.4783 73.4135 63.4783 73.4135C62.8842 74.3768 59.3418 76.6378 58.1704 76.1568C56.3559 73.1672 50.2863 69.9368 50.6639 66.9062Z" fill="#2CA473"/>
<path d="M46.5 83C45.7 77 48.8333 67.8333 50.5 64H56C60 68.8 60 80.3333 59.5 85.5C53.5 87.1 48.3333 85.8333 46.5 85V83Z" fill="#4FCD9A"/>
<path d="M45.275 79.2484C45.8896 81.3176 50.2155 86.665 50.547 86.6301C50.8786 86.5952 51.6482 85.508 52.3606 85.6156C53.073 85.7231 54.7808 86.8843 54.3934 87.2605C54.0065 87.6368 53.0692 86.5924 52.5538 86.6925C54.0298 87.6801 54.4996 88.5563 54.2146 88.7807C53.9297 89.0052 53.6941 88.9386 53.6941 88.9386C53.1912 89.2659 52.1557 88.7691 51.5574 88.7295C50.9586 88.6899 49.8538 89.3781 48.8853 89.2971C47.9164 89.2166 47.5178 88.2528 47.3474 88.1564C47.177 88.06 39.8451 81.6179 39.7851 78.8806C39.725 76.1433 43.7092 73.6519 43.7092 73.6519L45.275 79.248V79.2484Z" fill="white"/>
<path d="M42.365 73.9159C41.5604 73.5132 40.6134 74.6493 40.6087 75.4729C40.604 76.2966 44.8131 79.7849 45.7443 79.6559C46.6755 79.5269 47.0867 78.5082 46.277 77.7707C45.4678 77.0332 42.365 73.9159 42.365 73.9159Z" fill="#2CA473"/>
<path d="M48.4323 64.4497C53.7346 61.846 53.8929 68.7933 51.894 71.4021C50.6243 73.0597 46.0311 78.6199 46.0311 78.6199C44.9346 78.3392 41.7224 75.6298 41.8332 74.3685C44.1478 71.7467 45.4263 64.9912 48.4323 64.4502V64.4497Z" fill="#2CA473"/>
<g style="mix-blend-mode:multiply">
<path d="M51.3781 86.9971C51.3842 86.9966 51.3903 86.9948 51.3963 86.992C51.4005 86.9901 51.8321 86.795 52.2381 86.7075C52.2693 86.7005 52.2893 86.6698 52.2828 86.6386C52.2758 86.6074 52.2451 86.5874 52.2139 86.5939C51.7953 86.6837 51.3665 86.8779 51.3483 86.8858C51.319 86.8993 51.3064 86.9338 51.3195 86.9626C51.3302 86.9859 51.3544 86.999 51.3786 86.9962L51.3781 86.9971Z" fill="#DADADA"/>
</g>
<g style="mix-blend-mode:multiply">
<path d="M53.4543 88.7594C53.4659 88.758 53.4771 88.7538 53.4864 88.7454C53.5106 88.7245 53.5134 88.6877 53.492 88.6635C53.0646 88.1718 52.4472 87.5828 51.9341 87.5688C51.4675 87.5563 51.2413 87.6564 51.2315 87.6606C51.2021 87.6736 51.1896 87.7081 51.2026 87.7374C51.2156 87.7667 51.2501 87.7798 51.2794 87.7667C51.2813 87.7658 51.4945 87.6731 51.9308 87.6852C52.4015 87.6983 52.9919 88.2659 53.404 88.7398C53.417 88.7547 53.4356 88.7613 53.4538 88.7594H53.4543Z" fill="#DADADA"/>
</g>
<g style="mix-blend-mode:multiply">
<path d="M53.4804 114.425C53.4748 114.425 53.4692 114.425 53.4631 114.424C53.4208 114.414 53.3938 114.372 53.4031 114.329C53.4431 114.149 57.4278 96.1443 58.8907 85.9052C58.8968 85.8619 58.9368 85.8321 58.9796 85.8382C59.0229 85.8442 59.0527 85.8843 59.0467 85.9271C57.5833 96.1723 53.5972 114.182 53.5567 114.363C53.5484 114.4 53.5162 114.425 53.4799 114.425L53.4804 114.425Z" fill="#EAEAEA"/>
</g>
<path d="M50.1271 54.4383C48.4383 55.2387 49.3011 57 49.525 57.8409C50.0526 59.8235 51.2562 60.6159 51.2562 60.6159C51.2562 60.6159 53.8207 59.1292 53.8966 59.0538C53.9725 58.9779 56.0696 55.39 56.0696 55.39C56.6255 54.1519 56.3727 53.318 55.8927 52.9893C56.3727 52.2565 56.7014 51.8272 56.1958 51.7764C55.6906 51.7257 53.2732 52.0963 52.334 52.9726C51.3442 53.495 50.1271 54.4383 50.1271 54.4383Z" fill="#444444"/>
<path d="M52.0686 54.5476C52.2372 54.9015 51.8498 55.0361 51.8498 55.1203C52.0016 56.4343 52.2372 57.5969 51.7153 57.9C51.1928 58.2031 51.2604 59.517 51.2604 59.517C51.2939 62.482 50.8143 63.7303 50.2919 63.8821C51.5583 65.6071 55.1309 65.6351 55.9746 63.7648C54.7449 63.4449 55.0341 62.583 55.0341 62.583C56.5333 62.482 57.14 62.0104 57.0893 60.1908C57.0385 58.3717 56.6176 55.9119 56.348 55.3559C56.0784 54.8 55.0676 53.7556 55.0844 53.8567C55.1179 54.4294 52.0686 54.5476 52.0686 54.5476Z" fill="white"/>
<path d="M54.2593 57.6114C54.3059 57.8465 54.2379 58.0584 54.1066 58.0845C53.9753 58.1105 53.8314 57.9411 53.7844 57.7059C53.7378 57.4708 53.8058 57.2589 53.9371 57.2329C54.0684 57.2068 54.2123 57.3763 54.2593 57.6114Z" fill="#444444"/>
<path d="M56.4071 57.2706C56.4537 57.5057 56.3857 57.7176 56.2544 57.7436C56.1231 57.7697 55.9793 57.6002 55.9322 57.3651C55.8852 57.13 55.9536 56.9181 56.0849 56.8921C56.2162 56.866 56.3601 57.0355 56.4071 57.2706Z" fill="#444444"/>
<g style="mix-blend-mode:multiply">
<path d="M54.1811 58.287C54.1262 58.2982 54.067 58.2964 54.0079 58.2815C53.8663 58.2456 53.7402 58.1418 53.6624 57.9965C53.6526 57.9779 53.6596 57.9546 53.6782 57.9448C53.6969 57.9346 53.7201 57.942 53.7299 57.9602C53.7979 58.0868 53.9059 58.1767 54.027 58.2074C54.1126 58.2288 54.196 58.2167 54.2621 58.1734C54.2798 58.1618 54.3035 58.1664 54.3152 58.1841C54.3268 58.2018 54.3222 58.2256 54.3045 58.2372C54.2672 58.2619 54.2253 58.2787 54.1816 58.2875L54.1811 58.287Z" fill="#DADADA"/>
</g>
<path opacity="0.2" d="M53.735 59.9907C54.2532 59.9907 54.6732 59.6509 54.6732 59.2317C54.6732 58.8126 54.2532 58.4728 53.735 58.4728C53.2169 58.4728 52.7968 58.8126 52.7968 59.2317C52.7968 59.6509 53.2169 59.9907 53.735 59.9907Z" fill="#F696F4"/>
<g style="mix-blend-mode:multiply">
<path d="M55.6463 61.4028C55.5644 61.4028 55.4787 61.394 55.3921 61.3726C55.3749 61.3684 55.3642 61.3507 55.3684 61.3334C55.3726 61.3162 55.3903 61.3055 55.4075 61.3102C55.8032 61.4089 56.186 61.2198 56.2269 61.1891C56.2414 61.1784 56.2614 61.1812 56.2721 61.1956C56.2828 61.2101 56.28 61.2301 56.2656 61.2408C56.2288 61.2683 55.9667 61.4033 55.6463 61.4033V61.4028Z" fill="#DADADA"/>
</g>
<path d="M56.3224 59.0739C56.3098 59.0739 56.2982 59.0669 56.2926 59.0548C56.2856 59.0385 56.2926 59.0194 56.3094 59.0124C56.6074 58.8811 56.9277 58.7098 56.9598 58.6436C56.9268 58.5338 56.132 57.8787 55.7907 57.5974C55.5835 57.4265 55.4913 57.3502 55.4759 57.3311C55.4103 57.2492 55.3954 56.5917 55.4056 56.1731C55.4056 56.1555 55.421 56.1415 55.4387 56.1415C55.4564 56.1415 55.4708 56.1568 55.4703 56.1745C55.4564 56.7333 55.4894 57.2422 55.5267 57.2906C55.5407 57.3074 55.6822 57.4238 55.8321 57.5476C56.7708 58.3214 57.0492 58.5812 57.0227 58.6604C56.9822 58.7815 56.443 59.024 56.3354 59.0715C56.3312 59.0734 56.3266 59.0743 56.3224 59.0743V59.0739Z" fill="#444444"/>
<path fill-rule="evenodd" clip-rule="evenodd" d="M56.9951 58.9755C57.0086 58.9728 57.0218 58.9815 57.0245 58.9951C57.0361 59.0532 57.0486 59.1131 57.0614 59.1745C57.2313 59.9897 57.4579 61.0774 56.5177 62.0177C55.8699 62.6655 54.9406 62.6203 54.0761 62.3141C53.2108 62.0076 52.4014 61.4367 51.9823 61.0177L52.0177 60.9823C52.4319 61.3965 53.2351 61.9631 54.0928 62.2669C54.9513 62.5711 55.8554 62.6092 56.4823 61.9823C57.4027 61.0619 57.182 60.0005 57.0121 59.1833C56.9995 59.1224 56.9871 59.0629 56.9755 59.0049C56.9728 58.9913 56.9816 58.9782 56.9951 58.9755Z" fill="#444444"/>
<path fill-rule="evenodd" clip-rule="evenodd" d="M70.2203 69.3896C70.074 69.5928 70.025 69.8373 70.025 70V70.005L69.5222 72.5166L69.52 72.515C68.9157 73.3207 67.8686 73.9061 66.8089 74.3108C65.7485 74.7158 64.6715 74.9412 64.0031 75.0248L63.9969 74.9752C64.6618 74.8921 65.7348 74.6675 66.7911 74.2641C67.846 73.8613 68.8803 73.2815 69.4766 72.4895L69.975 69.9975C69.9755 69.8268 70.0267 69.5728 70.1797 69.3604C70.3343 69.1456 70.5918 68.975 71 68.975V69.025C70.6081 69.025 70.3656 69.1877 70.2203 69.3896ZM39.9766 79.5088C39.5278 78.3119 40.1449 77.3197 40.4823 76.9823L40.5177 77.0177C40.1884 77.3469 39.5839 78.3193 40.0234 79.4912C40.7717 81.4866 41.9774 82.9837 43.2678 84.2949C43.7845 84.82 44.3145 85.315 44.8343 85.8004C44.9637 85.9212 45.0925 86.0415 45.2202 86.1614C45.8609 86.7631 46.4763 87.3576 47.0189 87.9836L46.9811 88.0163C46.4403 87.3924 45.8266 86.7994 45.186 86.1979C45.0585 86.0781 44.9298 85.958 44.8005 85.8372C44.2807 85.3518 43.7497 84.8559 43.2322 84.33C41.9393 83.0163 40.7283 81.5134 39.9766 79.5088Z" fill="#444444"/>
<path d="M52.9645 56.7029C53.4585 56.4598 54.0163 56.2089 54.2742 56.0939C54.3375 56.0655 54.3324 55.9728 54.2658 55.9533C53.858 55.8327 52.9747 55.9784 52.8569 56.6228C52.8457 56.6833 52.9095 56.7299 52.9645 56.7029Z" fill="#444444"/>
<path d="M56.6255 56.0978C56.0808 56.0191 56.0146 56.0051 55.7343 55.9758C55.6654 55.9683 55.6417 55.8789 55.699 55.8393C56.05 55.5991 56.4174 55.6112 56.7033 55.9883C56.7405 56.0372 56.6865 56.1066 56.6255 56.0978Z" fill="#444444"/>
<path d="M53.9785 55.8072C54.3324 55.8864 54.3701 55.9525 54.3357 56.0535C54.5475 55.7504 53.9785 55.8072 53.9785 55.8072Z" fill="#444444"/>
<path d="M54.4609 60.73C54.3515 60.4855 55.5393 59.4579 56.1287 59.5003C56.7182 59.5422 56.7098 60.0562 56.6679 60.2499C56.626 60.4436 55.9434 61.2016 54.4609 60.73Z" fill="#444444"/>
<path d="M56.416 59.5776C56.341 59.5371 56.2475 59.5091 56.1287 59.5003C55.8047 59.477 55.3009 59.7769 54.9298 60.0921C55.2967 60.0427 56.0729 59.9035 56.4155 59.5771L56.416 59.5776Z" fill="white"/>
<path d="M54.7934 60.2146C54.5647 60.4316 54.419 60.6374 54.4604 60.7301C55.4662 61.0499 56.1031 60.8041 56.422 60.5522C55.8065 60.2626 55.184 60.2104 54.7929 60.2142L54.7934 60.2146Z" fill="#F696F4"/>
<path d="M55 62.4999C53.5 62.4999 52.0351 61.0164 52.0351 61.0164C52.1361 63.4254 54.8487 65.0775 55 62.4999Z" fill="#DADADA"/>
<path d="M50.9172 57.1989C50.0335 57.4303 50.6248 60.081 51.4168 59.5451L51.6971 57.9913C51.6971 57.9913 51.8009 56.9675 50.9172 57.1993V57.1989Z" fill="white"/>
<path d="M51.4987 58.5831C51.5234 58.1375 51.5988 57.6082 51.0885 57.8307C50.5782 58.0533 50.9321 59.1572 51.3255 59.1223C51.6077 59.0976 51.4987 58.5827 51.4987 58.5827V58.5831Z" fill="#EAEAEA"/>
<path d="M38.8501 44.8845L43.0736 46.0927L38.8501 47.301L37.4161 51.7503L35.9815 47.301L31.758 46.0927L35.9815 44.8845L37.4161 40.4352L38.8501 44.8845Z" fill="#F17EEF"/>
<path d="M172.65 73.0815L176.873 74.2898L172.65 75.498L171.215 79.9473L169.781 75.498L165.558 74.2898L169.781 73.0815L171.215 68.6322L172.65 73.0815Z" fill="#F17EEF"/>
<path d="M21.5944 47.5893L23.1397 48.0316L21.5944 48.4735L21.0696 50.1012L20.5449 48.4735L19 48.0316L20.5449 47.5893L21.0696 45.9611L21.5944 47.5893Z" fill="#F17EEF"/>
<path d="M25.1139 37.0792L26.6597 37.5215L25.1139 37.9634L24.5896 39.5911L24.0649 37.9634L22.5195 37.5215L24.0649 37.0792L24.5896 35.4514L25.1139 37.0792Z" fill="#F17EEF"/>
<path d="M179.383 63.0017L180.928 63.444L179.383 63.8858L178.858 65.5136L178.334 63.8858L176.788 63.444L178.334 63.0017L178.858 61.3739L179.383 63.0017Z" fill="#F17EEF"/>
</g>
</svg>
