<svg width="24" height="24" viewBox="0 0 24 24" fill="none" xmlns="http://www.w3.org/2000/svg">
<mask id="path-1-inside-1_193_1920" fill="white">
<path d="M22 9.6V14.35C22 19.1 20.1 21 15.35 21H9.65C4.9 21 3 19.1 3 14.35V8.65C3 3.9 4.9 2 9.65 2H14.4"/>
</mask>
<path d="M23.8 9.6C23.8 8.60589 22.9941 7.8 22 7.8C21.0059 7.8 20.2 8.60589 20.2 9.6H23.8ZM14.4 3.8C15.3941 3.8 16.2 2.99411 16.2 2C16.2 1.00589 15.3941 0.2 14.4 0.2V3.8ZM20.2 9.6V14.35H23.8V9.6H20.2ZM20.2 14.35C20.2 16.5475 19.7495 17.6174 19.1835 18.1835C18.6174 18.7495 17.5475 19.2 15.35 19.2V22.8C17.9025 22.8 20.1576 22.3005 21.729 20.729C23.3005 19.1576 23.8 16.9025 23.8 14.35H20.2ZM15.35 19.2H9.65V22.8H15.35V19.2ZM9.65 19.2C7.45253 19.2 6.38257 18.7495 5.81654 18.1835C5.25052 17.6174 4.8 16.5475 4.8 14.35H1.2C1.2 16.9025 1.69948 19.1576 3.27096 20.729C4.84243 22.3005 7.09747 22.8 9.65 22.8V19.2ZM4.8 14.35V8.65H1.2V14.35H4.8ZM4.8 8.65C4.8 6.45253 5.25052 5.38257 5.81654 4.81654C6.38257 4.25052 7.45253 3.8 9.65 3.8V0.2C7.09747 0.2 4.84243 0.699483 3.27096 2.27096C1.69948 3.84243 1.2 6.09747 1.2 8.65H4.8ZM9.65 3.8H14.4V0.2H9.65V3.8Z" fill="#444444" mask="url(#path-1-inside-1_193_1920)"/>
<path d="M15.3 4.17279L19.8272 8.7H18.2C16.8249 8.7 16.1945 8.4592 15.8677 8.13235C15.5408 7.80551 15.3 7.17514 15.3 5.8V4.17279Z" stroke="#444444" stroke-width="1.8" stroke-linecap="round" stroke-linejoin="round"/>
<path d="M7.75 12.45H13.45" stroke="#444444" stroke-width="1.8" stroke-linecap="round" stroke-linejoin="round"/>
<path d="M7.75 16.25H11.55" stroke="#444444" stroke-width="1.8" stroke-linecap="round" stroke-linejoin="round"/>
</svg>
