<svg width="201" height="140" viewBox="0 0 201 140" fill="none" xmlns="http://www.w3.org/2000/svg">
<mask id="mask0_581_564" style="mask-type:alpha" maskUnits="userSpaceOnUse" x="0" y="0" width="201" height="140">
<rect x="0.5" width="200" height="140" fill="#D9D9D9"/>
</mask>
<g mask="url(#mask0_581_564)">
<path d="M191.461 123.37C192.722 120.252 193.374 116.891 193.461 113.473C193.634 106.109 191.215 98.483 186.766 92.4399C177.513 79.8938 162.282 72.8196 148.77 65.9187C135.109 58.9176 123.304 48.3118 114.901 35.4517V35.4436C107.167 24.9758 94.1578 15.485 81.6928 12.9005C68.0154 10.0698 53.1987 13.3552 41.9948 21.6904C30.8018 30.0284 23.4137 43.2917 22.2094 57.2019C21.7142 62.9635 22.2257 68.7927 21.541 74.5354C20.8563 80.2808 19.2786 86.5133 15.6224 91.2844C12.5021 96.2287 8.73772 100.867 7.36835 106.507C5.90427 112.509 7.3034 118.255 10.1801 123.37H191.461Z" fill="#ECFFF7"/>
<path d="M48.4858 36.8143H8.22221C8.10043 36.8143 8.0003 36.7169 8.0003 36.5951C7.97594 34.265 9.44002 31.962 11.559 30.9959C13.5725 30.0757 16.1082 30.3924 17.8538 31.7509C19.0607 27.7186 22.8874 24.5685 27.0875 24.2032C31.3282 23.8324 35.6771 26.3249 37.5336 30.1461C39.5606 29.1259 42.2073 29.1367 44.5076 30.1894C46.6239 31.1582 48.0772 32.8415 48.4912 34.8063C48.5832 35.242 48.7023 36.5166 48.7077 36.5707C48.7131 36.633 48.6915 36.6952 48.6509 36.7412C48.6103 36.7872 48.548 36.8143 48.4858 36.8143ZM8.44683 36.3705H48.2395C48.1989 35.9727 48.1177 35.2014 48.0555 34.901C47.6685 33.0743 46.3073 31.5074 44.3209 30.5953C42.0666 29.5643 39.4686 29.5832 37.5363 30.6468C37.4822 30.6765 37.4172 30.6819 37.3604 30.663C37.3009 30.6441 37.2549 30.6008 37.2278 30.5439C35.5093 26.7687 31.2632 24.2898 27.1254 24.647C22.9902 25.0069 19.2339 28.1814 18.1893 32.1974C18.1704 32.2732 18.1136 32.3328 18.0405 32.3544C17.9674 32.3761 17.8862 32.3598 17.8294 32.3084C16.2111 30.8768 13.7105 30.506 11.7457 31.4018C9.84867 32.2678 8.51719 34.2894 8.44954 36.3732L8.44683 36.3705Z" fill="#48F0AC" fill-opacity="0.6"/>
<path d="M176.742 69.7903H142.389C142.311 69.7903 142.238 69.747 142.197 69.6793C142.156 69.6117 142.156 69.5251 142.197 69.4574C144.086 66.1856 149.155 64.6565 152.573 66.2722C154.196 62.5294 157.349 59.9991 161.26 59.3117C165.452 58.5756 169.833 60.7054 171.546 64.2858C172.861 63.869 174.271 64.1018 175.351 64.9272C176.493 65.7986 177.154 67.287 177.029 68.7213L176.961 69.5873C176.953 69.7037 176.856 69.793 176.74 69.793L176.742 69.7903ZM142.79 69.3465H176.537L176.588 68.6834C176.699 67.3953 176.109 66.0611 175.083 65.279C174.071 64.5077 172.734 64.3156 171.508 64.7702C171.4 64.8108 171.276 64.7594 171.23 64.6511C169.66 61.1411 165.408 59.0357 161.341 59.7501C157.506 60.424 154.429 62.9435 152.895 66.6619C152.87 66.7187 152.824 66.7647 152.765 66.7864C152.705 66.808 152.64 66.8026 152.586 66.7755C149.477 65.1491 144.76 66.4264 142.795 69.3465H142.79Z" fill="#48F0AC" fill-opacity="0.6"/>
<path d="M39.5629 100.015C39.5196 99.9902 39.4763 99.9658 39.4357 99.9496C39.3734 99.9171 39.2922 99.8792 39.211 99.8603C38.9918 99.7845 38.7537 99.7466 38.5074 99.7466C38.0284 99.7466 37.4926 99.8873 36.8674 100.174C34.835 101.105 33.0624 102.918 31.6065 105.562C31.3196 106.082 31.0463 106.637 30.7675 107.256C29.4821 110.133 28.5971 113.254 28.0694 116.769C27.9341 115.695 27.7717 114.628 27.585 113.594C26.9599 110.187 26.0127 107.024 24.7651 104.196C24.4187 103.416 24.0588 102.667 23.6745 101.941C22.0913 98.9429 20.3295 96.8482 18.2863 95.5357C17.6909 95.1541 17.0604 94.8375 16.4109 94.5993C16.0131 94.4532 15.4854 94.2854 14.9387 94.2854C14.8764 94.2854 14.8115 94.2854 14.7493 94.2908C14.4867 94.3071 14.2297 94.372 13.9915 94.4748C13.9157 94.5019 13.8372 94.5398 13.7642 94.5831C13.3393 94.8158 12.9794 95.1893 12.725 95.6575C11.6966 97.5302 12.1621 99.7439 12.725 101.849C13.4421 104.534 14.5246 107.389 16.032 110.582C16.5679 111.716 17.1659 112.915 17.9589 114.433C17.4176 114.084 16.7925 113.765 16.1998 113.54C15.9048 113.432 15.6044 113.34 15.323 113.259L15.277 113.245C14.7844 113.097 14.2757 112.942 13.8264 112.68C13.1201 112.271 12.5355 111.6 11.9699 110.953C11.1797 110.044 10.3597 109.105 9.19873 108.853C8.99306 108.81 8.78197 108.788 8.55735 108.788C8.03505 108.788 7.5371 108.902 7.02291 109.021C6.54661 109.129 6.09467 109.229 5.64001 109.229C5.39916 109.229 5.17454 109.2 4.95804 109.143C4.77672 109.094 4.5954 109.037 4.4195 108.978C4.08121 108.869 3.73481 108.758 3.37488 108.704C3.25581 108.688 3.12861 108.68 2.99871 108.68C2.17601 108.68 1.1314 109.013 0.568502 109.348L0.262695 109.535L0.584739 109.695C1.36955 110.093 2.84446 111.316 3.52102 112.685C3.71046 113.069 3.85118 113.489 4.01356 113.995C4.2463 114.707 4.48715 115.443 4.98781 116.014C5.73473 116.866 6.8443 117.099 7.82666 117.305C8.63854 117.475 9.48018 117.651 10.1432 118.146C11.1093 118.866 11.5261 120.089 11.9645 121.388C12.1973 122.065 12.4354 122.766 12.771 123.407L12.7953 123.456H13.25L13.1769 123.323C12.8278 122.685 12.5815 121.96 12.3461 121.261C11.9077 119.968 11.453 118.631 10.3814 117.83C9.65068 117.28 8.76303 117.096 7.90244 116.915C6.89301 116.701 5.94041 116.498 5.2855 115.754C4.83355 115.232 4.61435 114.555 4.3762 113.816C4.23547 113.378 4.08933 112.926 3.88095 112.512C3.28287 111.31 2.11918 110.201 1.20988 109.605C1.41556 109.573 1.62394 109.557 1.83773 109.557C3.30993 109.557 4.70095 110.358 5.61025 111.032C6.17044 111.446 6.70898 111.914 7.23129 112.366C8.07023 113.094 8.93893 113.843 9.9213 114.406C10.6114 114.799 11.361 115.08 12.0863 115.354C12.8441 115.638 13.6289 115.933 14.3271 116.352C15.7235 117.194 18.2511 119.229 19.5014 123.397L19.5204 123.459H19.9371L19.9047 123.345C18.6246 119.007 15.9914 116.888 14.5382 116.008C13.8075 115.567 13.0037 115.267 12.2297 114.977C11.5207 114.712 10.7873 114.436 10.1243 114.06C9.17708 113.519 8.32461 112.78 7.49921 112.065C6.97149 111.608 6.42483 111.135 5.85381 110.712C4.97698 110.063 3.66445 109.3 2.23285 109.178C2.50888 109.121 2.77139 109.091 3.00413 109.091C3.11508 109.091 3.22333 109.097 3.32346 109.113C3.6401 109.159 3.96214 109.262 4.29771 109.367C4.48715 109.43 4.67388 109.489 4.86332 109.538C5.115 109.605 5.3721 109.638 5.65084 109.638C6.17044 109.638 6.66839 109.524 7.17987 109.408C7.65617 109.3 8.10541 109.197 8.56006 109.197C8.75762 109.197 8.93893 109.216 9.12025 109.254C10.1513 109.478 10.8928 110.328 11.675 111.224C12.2622 111.898 12.8711 112.593 13.6343 113.037C14.1214 113.318 14.6572 113.481 15.1714 113.635L15.3284 113.681C15.572 113.754 15.8236 113.83 16.0645 113.922C16.7248 114.171 17.6828 114.653 18.3973 115.248C18.5813 115.402 18.7464 115.562 18.8979 115.741L18.9656 115.684L18.925 115.778C19.0955 115.992 19.2362 116.252 19.3445 116.544L19.3499 116.642H19.3742C19.4635 116.904 19.5285 117.18 19.5989 117.47L19.6232 117.57C19.745 118.1 19.8641 118.577 20.0779 119.01C20.3025 119.478 20.6299 119.897 20.9195 120.265L20.9682 120.33C21.1793 120.604 21.3985 120.885 21.5961 121.221C21.6475 121.307 21.6908 121.394 21.7476 121.51C21.9749 122 22.1454 122.647 22.2429 123.378L22.2537 123.456H22.6569L22.6434 123.356C22.6055 123.061 22.5622 122.807 22.5135 122.579C22.4079 122.098 22.2753 121.683 22.1184 121.348C22.1075 121.324 22.0994 121.305 22.0751 121.256C22.0399 121.188 22.0047 121.121 21.956 121.037C21.9479 121.018 21.9371 120.996 21.9262 120.985C21.7206 120.636 21.4662 120.309 21.2388 120.019C21.1468 119.9 21.0521 119.781 20.9628 119.659C20.7301 119.356 20.5623 119.094 20.4351 118.837C20.3539 118.669 20.2917 118.501 20.2402 118.322C20.1509 118.06 20.086 117.781 20.0156 117.483L19.929 117.502L19.9967 117.41C19.8532 116.801 19.6719 116.044 19.1875 115.462C19.0495 115.297 18.8817 115.134 18.7139 115.002C18.3323 114.287 17.9589 113.562 17.5908 112.839C15.9914 109.695 14.8467 107.07 13.9834 104.577C13.4692 103.089 13.0687 101.692 12.7602 100.31C12.5193 99.2324 12.4652 98.3258 12.587 97.4517C12.7304 96.4098 13.0714 95.6412 13.6018 95.1703C13.7128 95.0756 13.8237 94.9944 13.9455 94.9268C17.7397 98.6479 20.7598 103.202 22.6894 108.101C23.8125 110.948 24.6189 113.9 25.3253 116.666C25.9125 118.966 26.4051 121.229 26.7921 123.383L26.8056 123.456H27.2115L27.1926 123.351C26.8543 121.467 26.443 119.521 25.964 117.567C25.3199 114.942 24.5134 111.857 23.4065 108.853C22.4539 106.263 21.228 103.784 19.7639 101.481C18.2241 99.0592 16.4055 96.7995 14.3568 94.7644C14.5328 94.7184 14.7249 94.694 14.9252 94.694C15.3284 94.694 15.7912 94.7888 16.2945 94.9782C18.5434 95.809 20.5704 97.6276 22.3186 100.391C22.6704 100.943 23.0168 101.541 23.347 102.166C25.7069 106.672 27.1845 111.982 27.861 118.406C27.8962 118.75 27.9314 119.094 27.9639 119.448L28.0451 120.384C28.11 121.256 28.1695 122.203 28.2264 123.369L28.2318 123.453H28.543L28.635 123.429L28.6296 123.334C28.5349 121.481 28.4131 119.843 28.2561 118.355C28.6323 115.08 29.2953 112.182 30.2804 109.497C30.5456 108.777 30.8298 108.087 31.1221 107.44C32.3588 104.686 33.7877 102.729 35.4927 101.454C35.9717 101.097 36.4723 100.797 36.9784 100.558C37.4466 100.339 37.9553 100.136 38.5128 100.136C38.6292 100.136 38.7429 100.147 38.8565 100.171C35.6794 103.752 33.214 108.028 31.7229 112.544C30.8433 115.213 30.2615 118.006 29.7635 120.625C29.6093 121.437 29.4523 122.328 29.2899 123.348L29.2737 123.451H29.6715L29.6823 123.375C29.7716 122.828 29.8637 122.284 29.9611 121.74C30.3941 119.337 30.9489 116.506 31.7662 113.746C32.4671 111.359 33.4332 109.034 34.6348 106.842C35.9257 104.491 37.4818 102.293 39.2625 100.315C39.6576 100.51 39.9959 100.862 40.2421 101.335C41.146 103.097 40.6833 105.2 40.2746 107.056L40.2611 107.113C39.7306 109.503 38.9377 111.968 37.7686 114.869C36.7971 117.278 35.6875 119.675 34.6131 121.995L33.942 123.448H34.375L35.0001 122.098C35.8282 120.309 36.6861 118.458 37.4736 116.615C38.8024 113.497 39.7117 110.918 40.3396 108.499C40.6454 107.316 40.9755 105.92 41.1244 104.539C41.2218 103.638 41.1433 102.729 40.8997 101.909C40.7103 101.278 40.326 100.437 39.5656 100.004L39.5629 100.015Z" fill="#48F0AC" fill-opacity="0.6"/>
<path d="M199.66 109.34C199.124 109.018 198.079 108.685 197.259 108.685C197.129 108.685 197.002 108.693 196.883 108.71C196.526 108.764 196.18 108.875 195.839 108.983C195.663 109.04 195.481 109.097 195.3 109.145C195.081 109.205 194.859 109.232 194.618 109.232C194.161 109.232 193.711 109.129 193.203 109.016C192.721 108.905 192.223 108.791 191.701 108.791C191.473 108.791 191.265 108.813 191.059 108.856C189.896 109.108 189.078 110.047 188.288 110.956C187.723 111.605 187.138 112.274 186.432 112.682C185.985 112.945 185.474 113.099 184.981 113.245L184.935 113.259C184.654 113.34 184.351 113.432 184.058 113.54C183.466 113.765 182.843 114.084 182.302 114.433C183.095 112.915 183.693 111.716 184.229 110.582C185.736 107.392 186.819 104.537 187.536 101.849C188.099 99.7439 188.564 97.5302 187.536 95.6575C187.281 95.1866 186.921 94.8158 186.499 94.5831C186.429 94.5398 186.35 94.5019 186.275 94.4748C186.031 94.3693 185.774 94.3071 185.512 94.2908C185.447 94.2854 185.384 94.2854 185.322 94.2854C184.773 94.2854 184.248 94.4532 183.847 94.5993C183.2 94.8402 182.57 95.1541 181.972 95.5357C179.929 96.8482 178.164 98.9429 176.597 101.92L176.57 101.955L176.565 101.966C176.197 102.667 175.837 103.414 175.49 104.193C174.245 107.021 173.296 110.185 172.67 113.592C172.484 114.626 172.321 115.692 172.186 116.766C171.661 113.251 170.776 110.13 169.491 107.254C169.212 106.637 168.938 106.082 168.652 105.56C167.193 102.916 165.423 101.102 163.391 100.171C162.763 99.8846 162.227 99.7439 161.751 99.7439C161.502 99.7439 161.266 99.7818 161.052 99.8549C160.985 99.8711 160.914 99.9009 160.828 99.9442C160.779 99.9631 160.736 99.9875 160.692 100.012C159.932 100.445 159.548 101.286 159.358 101.917C159.112 102.737 159.036 103.646 159.134 104.548C159.283 105.922 159.599 107.262 159.919 108.507C160.546 110.926 161.456 113.505 162.784 116.623C163.572 118.466 164.43 120.317 165.261 122.108L165.883 123.453H166.316L165.645 122.003C164.571 119.684 163.461 117.286 162.489 114.875C161.32 111.973 160.527 109.508 159.997 107.118L159.986 107.062C159.578 105.205 159.112 103.1 160.016 101.338C160.262 100.864 160.598 100.512 160.996 100.318C162.776 102.296 164.332 104.493 165.623 106.845C166.825 109.037 167.788 111.359 168.492 113.751C169.312 116.509 169.864 119.34 170.297 121.743C170.394 122.287 170.486 122.831 170.576 123.378L170.587 123.453H170.984L170.968 123.351C170.806 122.338 170.652 121.448 170.495 120.628C169.999 118.011 169.417 115.218 168.538 112.547C167.047 108.03 164.584 103.755 161.404 100.174C161.518 100.15 161.637 100.139 161.764 100.139C162.305 100.139 162.814 100.342 163.282 100.561C163.788 100.799 164.289 101.102 164.768 101.457C166.473 102.732 167.902 104.688 169.139 107.443C169.431 108.09 169.715 108.78 169.98 109.5C170.968 112.185 171.631 115.08 172.005 118.339C171.848 119.846 171.726 121.481 171.631 123.361L171.626 123.456H172.032L172.037 123.372C172.094 122.217 172.151 121.267 172.218 120.387L172.3 119.445C172.332 119.094 172.367 118.75 172.402 118.398C173.079 111.982 174.557 106.675 176.916 102.169C177.247 101.544 177.59 100.945 177.945 100.393C179.693 97.633 181.723 95.8117 183.972 94.9809C184.478 94.7915 184.938 94.6968 185.341 94.6968C185.541 94.6968 185.731 94.7211 185.909 94.7671C183.858 96.8022 182.039 99.0619 180.502 101.484C179.038 103.784 177.812 106.263 176.86 108.853C175.753 111.857 174.946 114.945 174.302 117.567C173.823 119.524 173.412 121.47 173.074 123.351L173.055 123.456H173.461L173.474 123.383C173.858 121.232 174.354 118.972 174.938 116.666C175.645 113.9 176.451 110.948 177.574 108.101C179.504 103.202 182.527 98.6479 186.318 94.9268C186.44 94.9944 186.551 95.0729 186.662 95.1676C187.192 95.6412 187.533 96.4071 187.677 97.4517C187.798 98.3258 187.744 99.2324 187.503 100.31C187.195 101.692 186.794 103.089 186.28 104.577C185.417 107.072 184.269 109.697 182.673 112.839C182.305 113.562 181.931 114.287 181.571 114.975C181.379 115.134 181.214 115.297 181.076 115.462C180.589 116.044 180.41 116.799 180.259 117.44L180.242 117.51C180.18 117.781 180.113 118.06 180.023 118.325C179.972 118.501 179.91 118.669 179.828 118.834C179.701 119.094 179.533 119.356 179.298 119.659C179.209 119.778 179.117 119.897 179.025 120.016C178.8 120.303 178.546 120.631 178.345 120.972C178.329 120.993 178.316 121.018 178.297 121.056C178.256 121.126 178.215 121.204 178.169 121.291C178.161 121.307 178.153 121.326 178.148 121.342C177.988 121.681 177.856 122.098 177.75 122.579C177.699 122.812 177.655 123.066 177.62 123.356L177.607 123.456H178.01L178.021 123.378C178.115 122.647 178.289 122 178.529 121.483C178.573 121.391 178.616 121.307 178.665 121.223L178.689 121.183C178.862 120.885 179.081 120.604 179.293 120.33L179.344 120.263C179.634 119.895 179.961 119.475 180.186 119.007C180.399 118.571 180.518 118.098 180.638 117.575L180.662 117.47C180.732 117.172 180.8 116.893 180.889 116.625L180.911 116.566C181.027 116.244 181.165 115.984 181.336 115.77L181.379 115.716C181.52 115.554 181.682 115.394 181.866 115.243C182.581 114.645 183.541 114.166 184.202 113.917C184.443 113.825 184.694 113.749 184.938 113.676L185.097 113.627C185.612 113.47 186.147 113.31 186.635 113.029C187.398 112.585 188.007 111.89 188.594 111.216C189.379 110.317 190.118 109.47 191.149 109.246C191.327 109.208 191.511 109.189 191.709 109.189C192.163 109.189 192.613 109.292 193.119 109.405C193.6 109.516 194.098 109.63 194.618 109.63C194.897 109.63 195.154 109.597 195.406 109.53C195.595 109.481 195.782 109.421 195.996 109.351C196.307 109.254 196.629 109.151 196.945 109.105C197.046 109.089 197.154 109.083 197.265 109.083C197.498 109.083 197.76 109.113 198.033 109.17C196.602 109.292 195.289 110.055 194.412 110.704C193.841 111.126 193.295 111.6 192.764 112.06C191.939 112.775 191.086 113.513 190.139 114.055C189.479 114.431 188.745 114.707 188.036 114.972C187.26 115.262 186.459 115.562 185.728 116.003C184.272 116.88 181.642 119.002 180.362 123.34L180.326 123.453H180.743L180.762 123.391C182.012 119.223 184.54 117.188 185.936 116.347C186.632 115.927 187.417 115.632 188.18 115.348C188.902 115.078 189.652 114.796 190.342 114.404C191.325 113.843 192.193 113.091 193.032 112.363C193.554 111.911 194.093 111.443 194.653 111.029C195.563 110.355 196.956 109.554 198.426 109.554C198.637 109.554 198.848 109.57 199.054 109.603C198.144 110.198 196.981 111.308 196.385 112.509C196.177 112.926 196.031 113.381 195.882 113.838C195.649 114.555 195.43 115.232 194.981 115.754C194.326 116.498 193.373 116.701 192.358 116.915C191.5 117.094 190.615 117.28 189.885 117.83C188.813 118.634 188.358 119.97 187.92 121.261C187.682 121.962 187.436 122.687 187.087 123.323L187.013 123.456H187.468L187.492 123.407C187.825 122.769 188.066 122.068 188.302 121.386C188.74 120.092 189.154 118.869 190.123 118.149C190.786 117.654 191.625 117.478 192.44 117.307C193.422 117.102 194.531 116.869 195.278 116.017C195.779 115.446 196.02 114.712 196.25 114.003L196.263 113.96C196.412 113.492 196.553 113.072 196.742 112.688C197.422 111.319 198.897 110.093 199.679 109.697L200.001 109.538L199.665 109.338L199.66 109.34Z" fill="#48F0AC" fill-opacity="0.6"/>
<path d="M200.128 123.37C200.128 123.47 200.05 123.549 199.955 123.549H0.301618C0.206899 123.549 0.128418 123.468 0.128418 123.37C0.128418 123.322 0.147362 123.276 0.179837 123.243C0.212312 123.211 0.255612 123.192 0.301618 123.192H199.955C200.05 123.192 200.128 123.273 200.128 123.37Z" fill="#48F0AC" fill-opacity="0.6"/>
<path opacity="0.4" d="M83.8571 94.9268C83.8571 94.9268 59.9202 109.06 59.9202 122.45H107.797C107.797 109.06 83.8603 94.9268 83.8603 94.9268H83.8571Z" fill="#53DCA5"/>
<path opacity="0.8" d="M83.857 111.789C83.857 111.789 61.7539 117.264 61.7539 122.45H105.96C105.96 117.264 83.857 111.789 83.857 111.789Z" fill="#F90CF4"/>
<path opacity="0.8" d="M86.7627 98.832C91.2543 103.249 99.9933 113.046 99.9933 122.453H94.0034C94.0034 113.046 89.2186 103.252 86.7627 98.832Z" fill="white"/>
<path opacity="0.4" d="M83.8571 94.9268C83.8571 94.9268 59.9202 80.794 59.9202 67.4038H107.797C107.797 80.794 83.8603 94.9268 83.8603 94.9268H83.8571Z" fill="#53DCA5"/>
<path opacity="0.8" d="M83.8571 93.6367C83.8571 93.6367 71.6362 87.7673 71.6362 82.2041H96.0812C96.0812 87.7673 83.8604 93.6367 83.8604 93.6367H83.8571Z" fill="#F90CF4"/>
<path opacity="0.8" d="M81.2482 91.0247C76.7565 86.608 68.0176 76.8105 68.0176 67.4038H74.0075C74.0075 76.8105 78.7923 86.6048 81.2482 91.0247Z" fill="white"/>
<path opacity="0.8" d="M86.7627 91.0247C91.2543 86.608 99.7751 75.6803 99.9933 67.4038H98.394C97.6449 77.488 90.3163 86.7481 86.7627 91.0247Z" fill="white"/>
<path d="M104.547 62.6775H101.833V63.0032H104.547V62.6775Z" fill="#53DCA5"/>
<path d="M113.758 67.1528H113.432C113.432 64.8663 111.573 63.0032 109.283 63.0032H106.42V62.6775H109.283C111.752 62.6775 113.758 64.6839 113.758 67.1528Z" fill="#53DCA5"/>
<path d="M109.283 63.8176H58.4318C56.5897 63.8176 55.0964 65.3109 55.0964 67.153V67.6546C55.0964 69.4966 56.5897 70.9899 58.4318 70.9899H109.283C111.125 70.9899 112.618 69.4966 112.618 67.6546V67.153C112.618 65.3109 111.125 63.8176 109.283 63.8176Z" fill="#53DCA5"/>
<path d="M109.283 118.864H58.4318C56.5897 118.864 55.0964 120.357 55.0964 122.199V122.7C55.0964 124.543 56.5897 126.036 58.4318 126.036H109.283C111.125 126.036 112.618 124.543 112.618 122.7V122.199C112.618 120.357 111.125 118.864 109.283 118.864Z" fill="#53DCA5"/>
<path d="M41.8822 89.6468L39.6738 87.686L43.4391 81.9045L45.6442 83.8654L41.8822 89.6468Z" fill="#FCFCFC"/>
<path d="M40.1299 86.4448L42.9375 88.3926C43.0385 88.4643 43.0678 88.588 43.0059 88.6923L41.6021 91.0081C41.4555 91.2491 41.0875 91.3175 40.8562 91.1482C39.8888 90.4544 39.5175 90.1156 38.3482 89.1711C37.6284 88.5913 35.9118 87.194 35.0259 86.2754C34.1595 85.3765 35.0747 84.5068 35.534 84.8162C36.6186 85.5523 38.5045 86.3601 39.5957 86.2982C39.7911 86.2852 39.9833 86.3406 40.1331 86.4448H40.1299Z" fill="#333333"/>
<path opacity="0.2" d="M45.6441 83.8654L43.4357 81.9045L41.6248 84.6894L43.8885 86.5688L45.6441 83.8654Z" fill="#555555"/>
<path d="M68.1121 54.9841C68.1121 54.9841 53.292 53.9711 51.455 58.9936C47.276 70.41 41.8398 82.5266 41.8398 82.5266L46.2207 85.6861C46.2207 85.6861 55.458 71.5696 58.2625 62.5016C63.9625 63.8859 74.2682 65.0683 77.5872 61.2574C80.4209 58.0067 78.3005 54.9808 78.3005 54.9808H68.1121V54.9841Z" fill="#333333"/>
<path opacity="0.3" d="M55.4158 63.863C55.0705 65.2538 54.5493 69.2504 54.2236 71.8985C54.9402 70.5044 55.6275 69.0908 56.2431 67.7097L55.4158 63.863Z" fill="#555555"/>
<path d="M45.9276 87.1191L40.9702 83.2366L41.9832 81.0608L47.5236 85.2918L45.9276 87.1191Z" fill="#53DCA5"/>
<path d="M38.9409 86.2659C39.1721 86.4255 39.4588 86.5558 39.6705 86.6372C39.6965 86.647 39.7259 86.6404 39.7454 86.6209C39.7649 86.6014 39.7715 86.572 39.7617 86.546C39.7193 86.4352 39.348 85.4614 38.9604 85.3669C38.8692 85.3441 38.7845 85.3669 38.7096 85.4386C38.5891 85.5493 38.5403 85.6731 38.5631 85.8066C38.5956 85.9727 38.7487 86.1291 38.9409 86.2626V86.2659ZM39.5663 86.4418C39.0581 86.2203 38.7389 85.9792 38.6999 85.7806C38.6836 85.6991 38.7194 85.621 38.8041 85.5428C38.8432 85.507 38.8823 85.4939 38.9246 85.507C39.1331 85.5558 39.4034 86.0542 39.5663 86.4418Z" fill="#53DCA5"/>
<path d="M39.6543 86.6306C39.6543 86.6306 39.6739 86.6404 39.6869 86.6437C39.7097 86.6437 39.7357 86.6372 39.752 86.6176C39.7748 86.5883 40.3318 85.9076 40.2471 85.4906C40.2243 85.3766 40.1592 85.2919 40.0549 85.2366C39.9312 85.1714 39.8107 85.1812 39.7227 85.2659C39.4752 85.4971 39.4882 86.2789 39.6315 86.6013C39.638 86.6144 39.6445 86.6241 39.6543 86.6306ZM40.0159 85.3799C40.0647 85.4125 40.094 85.4581 40.1071 85.5167C40.1559 85.7675 39.8921 86.1909 39.7195 86.4254C39.6283 86.09 39.6576 85.5232 39.8172 85.3701C39.8465 85.3408 39.8953 85.3147 39.9865 85.3636C39.9963 85.3701 40.0061 85.3734 40.0159 85.3799Z" fill="#53DCA5"/>
<path d="M61.3535 93.0667L58.5035 93.6367L57.9758 86.002L60.8715 86.0932L61.3535 93.0667Z" fill="#FCFCFC"/>
<path d="M58.1159 92.5912L61.3666 91.22C61.4838 91.1711 61.6076 91.2135 61.663 91.3275L62.9072 93.8322C63.0375 94.0928 62.8909 94.4511 62.6173 94.5618C61.4773 95.0211 60.9106 95.1807 59.4807 95.7865C58.6012 96.1578 56.2333 97.2327 54.9532 97.5519C53.7025 97.8613 53.3963 96.5943 53.9109 96.3467C55.1291 95.7605 57.1453 93.9723 57.6925 92.9854C57.7902 92.8062 57.9433 92.6694 58.1159 92.5978V92.5912Z" fill="#333333"/>
<path d="M57.3016 93.5293C57.5687 93.4153 57.8423 93.2362 58.0279 93.0994C58.0507 93.0831 58.0638 93.0538 58.0572 93.0244C58.0507 92.9951 58.0279 92.9756 58.0019 92.9691C57.8814 92.943 56.826 92.7313 56.5329 93.0179C56.4645 93.0831 56.4384 93.1743 56.458 93.2752C56.4873 93.4414 56.5687 93.5554 56.6957 93.6042C56.8586 93.6694 57.0801 93.6238 57.3016 93.5293ZM57.8032 93.0798C57.3309 93.4023 56.94 93.5456 56.7511 93.4707C56.6729 93.4381 56.6241 93.3664 56.6013 93.2492C56.5915 93.1938 56.6013 93.1547 56.6371 93.1222C56.7967 92.9658 57.3798 93.0082 57.8064 93.0798H57.8032Z" fill="#53DCA5"/>
<path d="M58.015 93.1092C58.015 93.1092 58.0345 93.0961 58.0443 93.0896C58.0606 93.0701 58.0671 93.044 58.0573 93.0212C58.0443 92.9854 57.7577 92.1255 57.3473 91.9691C57.2365 91.9268 57.1258 91.9366 57.0215 91.9952C56.8945 92.0669 56.8391 92.1776 56.8619 92.3014C56.9271 92.6434 57.6143 93.0668 57.9759 93.1157C57.9889 93.1157 58.0019 93.1157 58.015 93.1092ZM57.1258 92.1027C57.1811 92.0799 57.2365 92.0799 57.2951 92.1027C57.5394 92.1971 57.7642 92.6629 57.8717 92.9398C57.5297 92.8323 57.0509 92.4968 57.0053 92.2721C56.9955 92.2297 56.9987 92.1743 57.0932 92.119C57.103 92.1125 57.1127 92.1092 57.1225 92.1027H57.1258Z" fill="#53DCA5"/>
<path opacity="0.2" d="M60.8715 86.0963L57.9758 86.0051L58.2527 89.9919L61.1385 89.9365L60.8715 86.0963Z" fill="#555555"/>
<path d="M75.3103 54.9839C75.3103 54.9839 54.129 56.987 54.901 63.3613C56.0149 72.5563 56.8292 88.6564 56.8292 88.6564L62.2263 88.8681C62.2263 88.8681 64.249 74.7125 63.0667 65.2961C68.5485 65.2961 80.4534 65.5827 82.551 62.7522C85.0395 59.3908 83.8865 54.9839 83.8865 54.9839H75.3136H75.3103Z" fill="#333333"/>
<path d="M62.8225 89.2004L56.3441 88.8812L56.1128 86.0605L63.2167 86.5524L62.8225 89.2004Z" fill="#53DCA5"/>
<path d="M70.6104 36.3172C70.5648 36.9003 70.5127 37.4182 70.4443 37.9621C70.3759 38.4995 70.3009 39.037 70.2195 39.5712C70.0599 40.6428 69.8482 41.7111 69.6072 42.7827C69.3531 43.8511 69.0697 44.9227 68.6952 45.9975C68.3141 47.0724 67.8906 48.157 67.2197 49.258C66.8777 49.8084 66.4803 50.3686 65.907 50.9126C65.7539 51.0592 65.6204 51.1634 65.4901 51.2676C65.3566 51.3784 65.2198 51.4696 65.0862 51.564C64.8159 51.7529 64.5455 51.9191 64.2752 52.0689C63.1906 52.6682 62.1124 53.0753 61.0343 53.3946C60.4969 53.5574 59.9594 53.6942 59.4188 53.8115C58.8813 53.932 58.3439 54.0362 57.8032 54.1209C56.7218 54.2935 55.6632 54.4108 54.5428 54.4466C53.9272 54.4662 53.4126 53.9841 53.3898 53.3685C53.3735 52.8636 53.6959 52.4239 54.1519 52.2741L54.1943 52.2611C56.0965 51.6292 58.0475 50.9452 59.8031 50.1244C60.6793 49.7107 61.5164 49.2612 62.2069 48.7629C62.3795 48.6391 62.5391 48.5121 62.6889 48.385C62.7606 48.3231 62.8388 48.2613 62.8974 48.1961C62.9626 48.131 63.031 48.0658 63.0635 48.03C63.2329 47.8378 63.4348 47.5317 63.614 47.1799C63.982 46.4666 64.3045 45.5871 64.5618 44.6751C64.8256 43.7599 65.0536 42.8055 65.2426 41.8349C65.4445 40.8642 65.6009 39.8773 65.7605 38.8839C65.9135 37.9002 66.0406 36.871 66.1513 35.9264L66.1578 35.8743C66.3044 34.6496 67.4151 33.7734 68.6398 33.9167C69.8352 34.06 70.6983 35.1251 70.6039 36.314L70.6104 36.3172Z" fill="#53DCA5"/>
<path d="M54.6177 51.7008L52.9858 51.805L54.2887 54.8016C54.2887 54.8016 57.1062 54.7364 57.0475 53.3489L56.5394 52.6844C56.1029 52.1144 55.3929 51.7529 54.6177 51.6975V51.7008Z" fill="#FCFCFC"/>
<path d="M51.2041 52.0427L52.6112 54.8015H54.2886L52.9825 51.8049L51.2041 52.0427Z" fill="#FCFCFC"/>
<path d="M70.376 31.6986L73.5257 31.0537L76.0304 30.6922C76.3887 30.6401 76.7535 30.6107 77.1151 30.6433C79.0628 30.8192 80.737 32.1807 81.2679 34.1089C81.8933 36.3857 82.4633 39.1836 82.8998 41.6656C83.5056 45.1084 83.8215 50.2807 83.8867 54.9841H68.9526C68.6399 46.4666 66.8159 40.975 66.2003 37.5746C65.8192 35.4607 66.8973 33.3565 68.8353 32.4315L70.376 31.6986Z" fill="#53DCA5"/>
<path d="M68.9524 33.5715C68.9882 34.9721 69.2716 39.9685 70.7797 42.8023C71.0467 40.1444 74.2029 32.0471 74.2029 32.0471L68.9557 33.5715H68.9524Z" fill="#DADADA"/>
<path opacity="0.3" d="M83.2352 44.0008C83.2287 43.9487 83.2221 43.8966 83.2156 43.8444C83.2059 43.763 83.1961 43.6848 83.1863 43.6067C83.17 43.4796 83.1537 43.3559 83.1375 43.2321C83.1212 43.1148 83.1049 42.9976 83.0886 42.8836C83.0723 42.7696 83.056 42.6588 83.0397 42.5481C83.0267 42.4569 83.0137 42.3624 82.9974 42.2712C82.9648 42.0628 82.9323 41.8608 82.8964 41.6654C82.7889 41.0563 82.6717 40.4244 82.5512 39.7893C82.5479 39.7697 82.5447 39.7534 82.5414 39.7372C82.4176 39.102 82.2906 38.4571 82.1538 37.8219C82.1538 37.8089 82.1473 37.7926 82.144 37.7796C82.0854 37.5093 82.0268 37.2389 81.9681 36.9718C81.9453 36.8709 81.9225 36.7699 81.8997 36.6722C81.8606 36.4995 81.8216 36.3269 81.7792 36.1543C81.7466 36.0175 81.7141 35.8839 81.6848 35.7504C81.6782 35.7243 81.6717 35.695 81.6652 35.6657C81.5349 35.1283 81.4014 34.6071 81.2646 34.112L79.0009 32.9199C79.2614 33.9199 79.509 35.0208 79.7435 36.1478C79.4634 36.2943 79.2223 36.4735 79.0009 36.6787C78.4602 37.164 78.4797 38.19 79.0204 39.4017C80.561 42.8543 81.32 46.6098 81.4828 50.3881C81.548 51.9222 81.5936 53.4759 81.6131 54.9839H83.8833C83.828 51.2545 83.6195 47.2286 83.2352 44.004V44.0008Z" fill="#555555"/>
<path d="M72.353 25.4219L71.0762 27.3729L69.3369 30.0308C69.4574 30.0926 69.7212 30.5096 69.8743 30.819C70.1903 31.4574 70.4541 31.9362 69.1121 32.8547C68.8255 33.0501 68.8157 33.3628 68.8809 33.7048C68.959 34.1185 69.2033 34.555 70.6528 34.3009C72.3335 34.0045 73.4572 33.1153 74.291 32.2815C74.7731 31.7994 74.6623 31.4346 74.1966 30.933C72.8774 29.5161 72.4833 27.2524 72.353 25.4284V25.4219Z" fill="#FCFCFC"/>
<path d="M69.2781 34.3433L70.2031 34.9231L71.7014 34.2879C71.3366 33.959 70.9327 33.6821 70.3823 33.6072C69.9458 33.7342 69.6005 34.0176 69.2813 34.3433H69.2781Z" fill="#333333"/>
<path d="M70.3792 33.6073C71.0664 33.8906 71.4117 34.529 71.7244 35.2684C71.7244 35.2684 75.0173 32.7702 75.089 31.1253C74.9131 30.5683 74.0858 30.6628 74.0858 30.6628C74.0858 30.6628 73.0826 32.3989 70.3792 33.6073Z" fill="#DADADA"/>
<path d="M70.3791 33.6071C69.6918 33.8905 69.3335 34.5028 69.3335 35.2389C69.3335 35.2389 67.8678 33.5192 69.0599 32.2196C69.3335 32.0241 70.0827 31.8352 70.0827 31.8352C70.0827 31.8352 69.7244 32.5485 70.3791 33.6038V33.6071Z" fill="#DADADA"/>
<path d="M70.4899 34.6528H70.0697C69.9362 34.8873 69.744 37.9426 69.6724 39.5679C69.8939 40.5516 70.1805 41.5124 70.5518 42.3332C70.5583 42.343 70.5616 42.356 70.5681 42.3658C70.5909 42.4179 70.6137 42.4668 70.6397 42.5156C70.6853 42.6133 70.7309 42.7111 70.7831 42.8023C70.8547 42.1052 71.1218 41.0304 71.4833 39.8285C71.0436 37.9458 70.4932 34.6528 70.4932 34.6528H70.4899Z" fill="#333333"/>
<path opacity="0.2" d="M69.7634 29.3761L70.8285 27.4836C70.8513 27.5292 70.8774 27.5846 70.9002 27.64C70.9849 27.8419 71.0663 28.096 71.1282 28.3663C71.3236 29.2067 70.6722 30.4086 69.9524 30.9818C69.923 30.9265 69.897 30.8744 69.8677 30.819C69.7341 30.5421 69.5061 30.1806 69.3758 30.0633C69.3628 30.0503 69.3465 30.0373 69.3335 30.0307L69.7602 29.3793L69.7634 29.3761Z" fill="#555555"/>
<path d="M64.5587 25.308C64.3013 24.1485 66.1416 22.5525 66.1416 22.5525L63.9626 21.7903C62.9789 22.5036 63.6173 24.5198 64.5587 25.308Z" fill="#333333"/>
<path d="M71.9003 21.9727C72.4149 24.8618 72.8579 26.5229 71.7895 28.3763C70.1805 31.1644 66.3924 30.8322 65.0342 28.1808C64.5875 27.309 64.2197 26.1776 64.0542 25.0002C63.767 22.9577 64.0884 20.7767 65.6628 19.5722C68.1089 17.7025 71.3856 19.0803 71.9003 21.9694V21.9727Z" fill="#FCFCFC"/>
<path d="M71.9392 24.8944L70.5711 24.5198V22.7577C70.5711 22.7577 68.8416 21.7675 69.1119 20.5591C69.2325 19.7448 69.6689 18.5429 69.6689 18.5429C69.6689 18.5429 72.4114 18.367 73.242 18.7155C73.0987 18.9207 72.5352 19.3735 72.5352 19.3735C72.5352 19.3735 73.6166 20.0966 74.1964 21.0737C73.7827 21.1096 73.2583 21.5265 73.2583 21.5265C73.2583 21.5265 73.6199 23.9335 71.9359 24.8911L71.9392 24.8944Z" fill="#333333"/>
<path d="M68.793 16.6667C69.7994 17.2954 69.2164 18.4582 69.2164 18.4582L71.9101 18.5168C71.7668 17.6667 69.4314 16.6244 68.793 16.67V16.6667Z" fill="#333333"/>
<path d="M69.8417 21.1551C69.6495 21.6991 67.4672 22.3603 65.4803 22.4254C64.1416 22.4678 62.5749 21.8815 62.5749 21.8815C62.5749 21.8815 62.9267 21.4874 63.5619 21.1877C62.36 20.8881 60.8356 19.8327 60.4187 18.9761C61.5066 18.5918 62.3274 18.6504 63.1287 18.7839C62.1124 17.9143 62.0961 16.7612 62.0961 16.7612C62.0961 16.7612 67.1871 18.7807 69.1479 17.9436C71.2813 17.0316 72.8969 18.7416 71.4963 20.0445C70.0957 21.3473 69.8384 21.1519 69.8384 21.1519L69.8417 21.1551Z" fill="#333333"/>
<path d="M73.4572 24.0638C73.4898 24.7575 73.226 25.4025 72.8742 25.8226C72.3433 26.4513 71.5257 25.9497 71.3368 25.1647C71.1674 24.4579 71.3857 23.3667 72.0827 23.028C72.7667 22.6957 73.4214 23.2723 73.4572 24.0638Z" fill="#FCFCFC"/>
<path d="M67.4931 24.6469C67.568 24.8716 67.5094 25.0996 67.3628 25.155C67.2163 25.2104 67.0371 25.067 66.9655 24.8423C66.8906 24.6176 66.9492 24.3895 67.0958 24.3342C67.2423 24.2788 67.4215 24.4221 67.4931 24.6469Z" fill="#333333"/>
<path d="M64.969 25.5719C65.0439 25.7967 64.9852 26.0247 64.8387 26.08C64.6921 26.1354 64.513 25.9921 64.4413 25.7673C64.3664 25.5426 64.425 25.3146 64.5716 25.2592C64.7182 25.2039 64.8973 25.3472 64.969 25.5719Z" fill="#333333"/>
<path d="M65.8322 25.4514C65.8322 25.4514 65.8485 26.7217 65.5977 27.4513C66.0504 27.6174 66.5487 27.2266 66.5487 27.2266L65.8322 25.4514Z" fill="#A02724"/>
<path d="M67.3792 28.0962C68.2651 27.79 68.568 27.0669 68.5811 27.0311C68.5941 26.9952 68.5811 26.9561 68.542 26.9399C68.5062 26.9236 68.4671 26.9399 68.4508 26.9789C68.4475 26.9887 68.1023 27.8128 67.0795 28.0343C67.0404 28.0408 67.0176 28.0799 67.0274 28.119C67.0339 28.158 67.073 28.1808 67.1121 28.1711C67.2065 28.1515 67.2945 28.1255 67.3792 28.0962Z" fill="#333333"/>
<path d="M68.0568 23.3243C68.0763 23.3145 68.0959 23.2982 68.1089 23.2754C68.1512 23.2103 68.1317 23.1223 68.0665 23.0832C67.4249 22.6696 66.8353 22.9432 66.8125 22.953C66.7441 22.979 66.7116 23.0702 66.7474 23.1386C66.78 23.207 66.8646 23.2363 66.933 23.2038C66.9558 23.194 67.4119 22.992 67.9167 23.3145C67.9623 23.3438 68.0144 23.3438 68.06 23.321L68.0568 23.3243Z" fill="#333333"/>
<path d="M64.4706 24.2004C64.4706 24.1776 64.4706 24.1548 64.4609 24.132C64.4315 24.0604 64.3501 24.0278 64.2785 24.0571C63.5717 24.3503 63.4609 24.9887 63.4577 25.0147C63.4381 25.0864 63.4967 25.1613 63.5717 25.1743C63.6466 25.1874 63.7182 25.1352 63.7313 25.0603C63.7345 25.0343 63.829 24.5457 64.3827 24.3144C64.4315 24.2949 64.4609 24.2493 64.4674 24.2004H64.4706Z" fill="#333333"/>
<path d="M80.5708 32.7082C80.9291 33.1512 81.245 33.5485 81.561 33.9785C81.8769 34.4019 82.1863 34.8286 82.486 35.2618C83.0918 36.125 83.6618 37.0174 84.2156 37.9327C84.7562 38.8577 85.2806 39.7958 85.7464 40.799C86.2089 41.8022 86.6389 42.851 86.9353 44.0496C87.0786 44.6522 87.1861 45.3036 87.1893 46.043C87.1828 46.7759 87.0688 47.4208 86.9027 48.0266C86.564 49.235 86.0656 50.2741 85.4956 51.2317C85.2155 51.7137 84.9126 52.1697 84.5966 52.6127C84.284 53.0557 83.955 53.4856 83.613 53.8993C82.9257 54.7331 82.2189 55.4953 81.4014 56.2379C80.9454 56.6516 80.2418 56.619 79.8249 56.163C79.4862 55.7917 79.4471 55.2543 79.6914 54.8439L79.7207 54.795C80.7076 53.1371 81.6847 51.3815 82.3687 49.6682C82.7107 48.8116 82.9843 47.9517 83.0951 47.1765C83.1472 46.7922 83.1733 46.4241 83.1407 46.1375C83.1146 45.8639 83.0397 45.5056 82.9159 45.1277C82.6684 44.3656 82.2971 43.535 81.8574 42.7175C81.4242 41.8966 80.9323 41.0726 80.4144 40.2648C79.8998 39.4473 79.3461 38.646 78.7891 37.8447L77.9357 36.6526C77.6491 36.265 77.3495 35.8514 77.0791 35.4963L77.0596 35.4703C76.3104 34.4899 76.4961 33.086 77.4765 32.3369C78.4373 31.6008 79.8086 31.7701 80.5675 32.7017L80.5708 32.7082Z" fill="#53DCA5"/>
<path d="M49.5398 56.7332L77.2517 55.4792C77.6165 55.4629 77.926 55.7463 77.9422 56.1111L48.9079 57.427C48.8916 57.0622 49.175 56.7527 49.5398 56.7364V56.7332Z" fill="#DADADA"/>
<g opacity="0.6">
<path d="M49.5398 56.7332L77.2517 55.4792C77.6165 55.4629 77.926 55.7463 77.9422 56.1111L48.9079 57.427C48.8916 57.0622 49.175 56.7527 49.5398 56.7364V56.7332Z" fill="white"/>
</g>
<path d="M45.1296 43.877L64.8452 42.9845C65.0862 42.9747 65.3435 43.1571 65.4184 43.3949L69.2032 55.4073C69.2782 55.6451 69.1446 55.847 68.9036 55.8601L49.188 56.7525C48.947 56.7623 48.6896 56.5799 48.6147 56.3421L44.8299 44.3297C44.755 44.0919 44.8885 43.89 45.1296 43.877Z" fill="#DADADA"/>
<path opacity="0.5" d="M65.4184 43.3949L69.2032 55.4073C69.2781 55.6451 69.1446 55.847 68.9036 55.8601L64.8484 42.9845C65.0894 42.9747 65.3467 43.1571 65.4217 43.3949H65.4184Z" fill="#53DCA5"/>
<path opacity="0.5" d="M69.9654 55.8113L77.2517 55.4824C77.6165 55.4661 77.9259 55.7494 77.9422 56.1142L69.3303 56.5051C69.314 56.1403 69.5973 55.8309 69.9621 55.8146L69.9654 55.8113Z" fill="#53DCA5"/>
<path d="M79.1702 54.7168L77.3071 54.9904L79.2158 57.6417C79.2158 57.6417 82.2482 57.1564 81.8965 55.8112L81.2581 55.2705C80.7109 54.808 79.9389 54.6028 79.1702 54.7135V54.7168Z" fill="#FCFCFC"/>
<path d="M75.0271 55.782L77.3625 57.821L79.2158 57.6418L77.3071 54.9905L75.0271 55.782Z" fill="#FCFCFC"/>
<path d="M142.056 132.324L102.106 132.21C99.0732 132.202 97.1591 128.949 98.6314 126.305L118.694 90.2597C120.216 87.5245 124.163 87.537 125.671 90.2803L145.558 126.44C147.017 129.093 145.089 132.334 142.054 132.326L142.056 132.324Z" fill="#48F0AC"/>
<path d="M141.872 134.06L102.232 133.976C100.282 133.971 98.5296 132.96 97.5433 131.267C96.5569 129.576 96.5348 127.542 97.4824 125.827L117.418 89.7283C118.398 87.9541 120.186 86.8982 122.202 86.9025C124.217 86.9068 125.998 87.9713 126.967 89.7487L146.672 125.931C147.609 127.65 147.573 129.685 146.577 131.372C145.58 133.058 143.822 134.064 141.872 134.06ZM122.192 89.9201C121.285 89.9182 120.479 90.3931 120.039 91.1922L100.104 127.291C99.6772 128.063 99.6879 128.979 100.131 129.739C100.574 130.501 101.364 130.956 102.242 130.958L141.882 131.042C142.76 131.044 143.552 130.591 144.001 129.832C144.449 129.072 144.466 128.157 144.044 127.383L124.338 91.201C123.903 90.4013 123.1 89.9221 122.193 89.9202L122.192 89.9201Z" fill="#40CE94"/>
<path d="M118.483 124.706C118.485 124.196 118.576 123.725 118.759 123.293C118.941 122.862 119.199 122.487 119.532 122.171C119.864 121.855 120.262 121.609 120.729 121.433C121.195 121.256 121.72 121.169 122.304 121.169C122.888 121.171 123.415 121.261 123.888 121.44C124.361 121.618 124.762 121.867 125.092 122.184C125.422 122.501 125.676 122.878 125.858 123.31C126.038 123.743 126.128 124.215 126.126 124.725C126.124 125.234 126.032 125.701 125.849 126.126C125.666 126.552 125.409 126.922 125.077 127.237C124.745 127.553 124.342 127.799 123.867 127.976C123.394 128.151 122.865 128.24 122.281 128.238C121.697 128.236 121.173 128.146 120.709 127.968C120.244 127.791 119.847 127.542 119.516 127.223C119.186 126.906 118.931 126.534 118.75 126.11C118.57 125.685 118.481 125.216 118.483 124.706ZM125.151 118.127L119.473 118.114L118.726 98.639L126.013 98.6556L125.151 118.127Z" fill="#40CE94"/>
</g>
</svg>
