<svg width="24" height="24" viewBox="0 0 24 24" fill="none" xmlns="http://www.w3.org/2000/svg">
<path d="M9.84839 10.6118C9.76257 10.6032 9.65959 10.6032 9.56519 10.6118C7.52279 10.5432 5.90088 8.86977 5.90088 6.8102C5.90088 4.70773 7.60002 3 9.71108 3C11.8136 3 13.5213 4.70773 13.5213 6.8102C13.5127 8.86977 11.8908 10.5432 9.84839 10.6118Z" stroke="#444444" stroke-width="1.8" stroke-linecap="round" stroke-linejoin="round"/>
<path d="M16.0701 4.71631C17.7349 4.71631 19.0736 6.06361 19.0736 7.71985C19.0736 9.34176 17.7864 10.6633 16.1816 10.7234C16.113 10.7148 16.0357 10.7148 15.9585 10.7234" stroke="#444444" stroke-width="1.8" stroke-linecap="round" stroke-linejoin="round"/>
<path d="M5.55755 13.7784C3.48082 15.1686 3.48082 17.4341 5.55755 18.8158C7.91747 20.3948 11.7877 20.3948 14.1477 18.8158C16.2244 17.4256 16.2244 15.16 14.1477 13.7784C11.7963 12.208 7.92605 12.208 5.55755 13.7784Z" stroke="#444444" stroke-width="1.8" stroke-linecap="round" stroke-linejoin="round"/>
<path d="M17.7262 18.4468C18.3441 18.318 18.9276 18.0692 19.4082 17.7002C20.7469 16.6961 20.7469 15.0399 19.4082 14.0359C18.9362 13.6754 18.3612 13.4352 17.7519 13.2979" stroke="#444444" stroke-width="1.8" stroke-linecap="round" stroke-linejoin="round"/>
</svg>
