<svg width="200" height="140" viewBox="0 0 200 140" fill="none" xmlns="http://www.w3.org/2000/svg">
<mask id="mask0_777_3275" style="mask-type:alpha" maskUnits="userSpaceOnUse" x="0" y="0" width="200" height="140">
<rect width="200" height="140" fill="#D9D9D9"/>
</mask>
<g mask="url(#mask0_777_3275)">
<path d="M191.333 123.132C192.594 120.014 193.246 116.653 193.333 113.235C193.506 105.872 191.086 98.2453 186.637 92.2023C177.385 79.6561 162.154 72.582 148.642 65.681C134.98 58.68 123.176 48.0742 114.773 35.2141V35.2059C107.038 24.7382 94.0294 15.2473 81.5644 12.6629C67.887 9.83214 53.0703 13.1175 41.8664 21.4528C30.6734 29.7907 23.2853 43.0541 22.081 56.9642C21.5858 62.7258 22.0972 68.5551 21.4126 74.2977C20.7279 80.0431 19.1501 86.2756 15.494 91.0467C12.3737 95.991 8.6093 100.63 7.23993 106.269C5.77585 112.272 7.17498 118.017 10.0517 123.132H191.333Z" fill="#ECFFF7"/>
<path d="M43.4858 53.6476H3.22221C3.10043 53.6476 3.0003 53.5501 3.0003 53.4284C2.97594 51.0983 4.44002 48.7953 6.55902 47.8291C8.57247 46.909 11.1082 47.2256 12.8538 48.5842C14.0607 44.5519 17.8874 41.4018 22.0875 41.0364C26.3282 40.6657 30.6771 43.1581 32.5336 46.9794C34.5606 45.9591 37.2073 45.9699 39.5076 47.0227C41.6239 47.9915 43.0772 49.6748 43.4912 51.6395C43.5832 52.0752 43.7023 53.3499 43.7077 53.404C43.7131 53.4662 43.6915 53.5285 43.6509 53.5745C43.6103 53.6205 43.548 53.6476 43.4858 53.6476ZM3.44683 53.2037H43.2395C43.1989 52.8059 43.1177 52.0346 43.0555 51.7342C42.6685 49.9075 41.3073 48.3406 39.3209 47.4286C37.0666 46.3975 34.4686 46.4165 32.5363 47.48C32.4822 47.5098 32.4172 47.5152 32.3604 47.4963C32.3009 47.4773 32.2549 47.434 32.2278 47.3772C30.5093 43.602 26.2632 41.123 22.1254 41.4803C17.9902 41.8402 14.2339 45.0146 13.1893 49.0307C13.1704 49.1065 13.1136 49.166 13.0405 49.1877C12.9674 49.2093 12.8862 49.1931 12.8294 49.1417C11.2111 47.71 8.71049 47.3393 6.74575 48.2351C4.84867 49.1011 3.51719 51.1226 3.44954 53.2064L3.44683 53.2037Z" fill="#48F0AC" fill-opacity="0.6"/>
<path d="M172.576 24.6235H138.223C138.144 24.6235 138.071 24.5802 138.03 24.5126C137.99 24.4449 137.99 24.3583 138.03 24.2907C139.919 21.0188 144.988 19.4898 148.406 21.1054C150.03 17.3627 153.183 14.8323 157.093 14.1449C161.285 13.4088 165.667 15.5387 167.38 19.119C168.695 18.7023 170.105 18.935 171.185 19.7604C172.327 20.6318 172.987 22.1203 172.863 23.5546L172.795 24.4206C172.787 24.537 172.689 24.6263 172.573 24.6263L172.576 24.6235ZM138.623 24.1797H172.37L172.421 23.5167C172.532 22.2285 171.942 20.8943 170.917 20.1122C169.905 19.341 168.568 19.1488 167.342 19.6035C167.234 19.644 167.109 19.5926 167.063 19.4844C165.493 15.9744 161.242 13.8689 157.174 14.5834C153.34 15.2572 150.263 17.7767 148.728 21.4951C148.704 21.552 148.658 21.598 148.598 21.6196C148.539 21.6413 148.474 21.6358 148.42 21.6088C145.31 19.9823 140.593 21.2597 138.629 24.1797H138.623Z" fill="#48F0AC" fill-opacity="0.6"/>
<path d="M39.4344 99.777C39.3911 99.7526 39.3478 99.7283 39.3072 99.712C39.245 99.6796 39.1638 99.6417 39.0826 99.6227C38.8634 99.547 38.6253 99.5091 38.379 99.5091C37.9 99.5091 37.3642 99.6498 36.739 99.9367C34.7066 100.868 32.934 102.681 31.4781 105.325C31.1912 105.844 30.9179 106.399 30.6391 107.019C29.3537 109.896 28.4687 113.016 27.941 116.531C27.8057 115.457 27.6433 114.391 27.4566 113.357C26.8314 109.95 25.8842 106.786 24.6367 103.958C24.2903 103.179 23.9303 102.429 23.546 101.704C21.9629 98.7053 20.2011 96.6107 18.1579 95.2981C17.5625 94.9166 16.932 94.5999 16.2825 94.3618C15.8847 94.2156 15.3569 94.0479 14.8103 94.0479C14.748 94.0479 14.6831 94.0479 14.6208 94.0533C14.3583 94.0695 14.1012 94.1345 13.8631 94.2373C13.7873 94.2644 13.7088 94.3022 13.6358 94.3455C13.2109 94.5783 12.8509 94.9517 12.5966 95.4199C11.5682 97.2926 12.0337 99.5064 12.5966 101.612C13.3137 104.296 14.3962 107.152 15.9036 110.345C16.4394 111.479 17.0375 112.678 17.8304 114.196C17.2892 113.847 16.6641 113.527 16.0714 113.303C15.7764 113.195 15.476 113.103 15.1946 113.021L15.1486 113.008C14.656 112.859 14.1472 112.705 13.698 112.442C12.9917 112.034 12.4071 111.362 11.8415 110.716C11.0513 109.806 10.2313 108.867 9.07031 108.616C8.86464 108.572 8.65355 108.551 8.42893 108.551C7.90663 108.551 7.40868 108.664 6.89449 108.783C6.41819 108.892 5.96625 108.992 5.5116 108.992C5.27074 108.992 5.04612 108.962 4.82962 108.905C4.6483 108.856 4.46698 108.8 4.29108 108.74C3.9528 108.632 3.6064 108.521 3.24646 108.467C3.12739 108.451 3.0002 108.442 2.8703 108.442C2.0476 108.442 1.00298 108.775 0.440084 109.111L0.134277 109.298L0.456321 109.457C1.24113 109.855 2.71604 111.078 3.3926 112.448C3.58204 112.832 3.72276 113.251 3.88514 113.757C4.11788 114.469 4.35873 115.205 4.85939 115.776C5.60631 116.629 6.71588 116.862 7.69825 117.067C8.51012 117.238 9.35176 117.414 10.0148 117.909C10.9809 118.629 11.3977 119.852 11.8361 121.151C12.0688 121.828 12.307 122.528 12.6426 123.17L12.6669 123.219H13.1216L13.0485 123.086C12.6994 122.447 12.4531 121.722 12.2177 121.024C11.7793 119.73 11.3246 118.393 10.2529 117.592C9.52226 117.043 8.63461 116.859 7.77402 116.678C6.76459 116.464 5.81199 116.261 5.15708 115.517C4.70513 114.994 4.48593 114.318 4.24778 113.579C4.10705 113.14 3.96091 112.689 3.75253 112.274C3.15445 111.073 1.99076 109.963 1.08146 109.368C1.28714 109.335 1.49552 109.319 1.70931 109.319C3.18151 109.319 4.57253 110.12 5.48183 110.794C6.04202 111.208 6.58056 111.676 7.10287 112.128C7.94181 112.856 8.81051 113.606 9.79288 114.169C10.483 114.561 11.2326 114.843 11.9579 115.116C12.7156 115.4 13.5004 115.695 14.1987 116.115C15.5951 116.956 18.1227 118.991 19.373 123.159L19.392 123.221H19.8087L19.7762 123.108C18.4962 118.769 15.863 116.65 14.4097 115.771C13.6791 115.33 12.8753 115.029 12.1013 114.74C11.3923 114.475 10.6589 114.199 9.99585 113.822C9.04866 113.281 8.1962 112.542 7.37079 111.828C6.84307 111.371 6.29641 110.897 5.72539 110.475C4.84856 109.825 3.53603 109.062 2.10443 108.94C2.38046 108.884 2.64297 108.854 2.87571 108.854C2.98666 108.854 3.09491 108.859 3.19505 108.875C3.51168 108.921 3.83372 109.024 4.1693 109.13C4.35873 109.192 4.54546 109.252 4.7349 109.3C4.98658 109.368 5.24368 109.4 5.52242 109.4C6.04202 109.4 6.53997 109.287 7.05145 109.17C7.52775 109.062 7.97699 108.959 8.43164 108.959C8.6292 108.959 8.81051 108.978 8.99183 109.016C10.0229 109.241 10.7644 110.09 11.5465 110.986C12.1338 111.66 12.7427 112.356 13.5059 112.799C13.993 113.081 14.5288 113.243 15.043 113.398L15.2 113.444C15.4435 113.517 15.6952 113.592 15.9361 113.684C16.5964 113.933 17.5544 114.415 18.2689 115.01C18.4529 115.165 18.618 115.324 18.7695 115.503L18.8372 115.446L18.7966 115.541C18.9671 115.755 19.1078 116.014 19.216 116.307L19.2215 116.404H19.2458C19.3351 116.667 19.4001 116.943 19.4704 117.232L19.4948 117.332C19.6166 117.863 19.7356 118.339 19.9494 118.772C20.1741 119.24 20.5015 119.66 20.7911 120.028L20.8398 120.093C21.0509 120.366 21.2701 120.648 21.4676 120.983C21.5191 121.07 21.5624 121.156 21.6192 121.273C21.8465 121.763 22.017 122.409 22.1144 123.14L22.1253 123.219H22.5285L22.515 123.118C22.4771 122.823 22.4338 122.569 22.3851 122.342C22.2795 121.86 22.1469 121.446 21.99 121.11C21.9791 121.086 21.971 121.067 21.9467 121.018C21.9115 120.951 21.8763 120.883 21.8276 120.799C21.8195 120.78 21.8086 120.759 21.7978 120.748C21.5921 120.399 21.3377 120.071 21.1104 119.782C21.0184 119.663 20.9237 119.543 20.8344 119.422C20.6016 119.119 20.4339 118.856 20.3067 118.599C20.2255 118.431 20.1632 118.263 20.1118 118.085C20.0225 117.822 19.9576 117.544 19.8872 117.246L19.8006 117.265L19.8683 117.173C19.7248 116.564 19.5435 115.806 19.0591 115.224C18.9211 115.059 18.7533 114.897 18.5855 114.764C18.2039 114.05 17.8304 113.324 17.4624 112.602C15.863 109.457 14.7183 106.832 13.855 104.34C13.3408 102.851 12.9403 101.455 12.6317 100.072C12.3909 98.9949 12.3368 98.0883 12.4585 97.2142C12.602 96.1723 12.943 95.4037 13.4734 94.9328C13.5843 94.8381 13.6953 94.7569 13.8171 94.6892C17.6112 98.4103 20.6314 102.965 22.561 107.863C23.6841 110.71 24.4905 113.663 25.1969 116.429C25.7841 118.729 26.2767 120.991 26.6636 123.145L26.6772 123.219H27.0831L27.0642 123.113C26.7259 121.229 26.3145 119.284 25.8355 117.33C25.1914 114.705 24.385 111.62 23.2781 108.616C22.3255 106.026 21.0996 103.547 19.6355 101.244C18.0957 98.8217 16.2771 96.562 14.2284 94.5269C14.4043 94.4809 14.5965 94.4565 14.7967 94.4565C15.2 94.4565 15.6627 94.5512 16.1661 94.7407C18.415 95.5715 20.442 97.3901 22.1902 100.153C22.542 100.705 22.8884 101.303 23.2186 101.928C25.5784 106.434 27.0561 111.744 27.7326 118.169C27.7678 118.512 27.803 118.856 27.8355 119.211L27.9166 120.147C27.9816 121.018 28.0411 121.966 28.098 123.132L28.1034 123.216H28.4146L28.5066 123.191L28.5012 123.097C28.4065 121.243 28.2847 119.606 28.1277 118.117C28.5039 114.843 29.1669 111.944 30.152 109.26C30.4172 108.54 30.7014 107.85 30.9936 107.203C32.2304 104.448 33.6593 102.491 35.3642 101.217C35.8432 100.859 36.3439 100.559 36.85 100.321C37.3181 100.102 37.8269 99.8988 38.3844 99.8988C38.5008 99.8988 38.6144 99.9096 38.7281 99.9339C35.551 103.514 33.0856 107.79 31.5944 112.307C30.7149 114.975 30.1331 117.768 29.6351 120.388C29.4809 121.2 29.3239 122.09 29.1615 123.11L29.1453 123.213H29.5431L29.5539 123.137C29.6432 122.591 29.7352 122.047 29.8327 121.503C30.2657 119.1 30.8204 116.269 31.6377 113.508C32.3387 111.122 33.3048 108.797 34.5064 106.605C35.7972 104.253 37.3533 102.056 39.134 100.077C39.5292 100.272 39.8674 100.624 40.1137 101.098C41.0176 102.859 40.5548 104.962 40.1462 106.819L40.1327 106.875C39.6022 109.265 38.8093 111.73 37.6402 114.632C36.6687 117.04 35.5591 119.438 34.4847 121.757L33.8136 123.21H34.2466L34.8717 121.86C35.6998 120.071 36.5577 118.22 37.3452 116.377C38.674 113.26 39.5833 110.68 40.2111 108.261C40.5169 107.078 40.8471 105.682 40.9959 104.302C41.0934 103.401 41.0149 102.491 40.7713 101.671C40.5819 101.041 40.1976 100.199 39.4371 99.7662L39.4344 99.777Z" fill="#48F0AC" fill-opacity="0.6"/>
<path d="M199.531 109.103C198.995 108.781 197.951 108.448 197.131 108.448C197.001 108.448 196.874 108.456 196.755 108.472C196.397 108.526 196.051 108.637 195.71 108.745C195.534 108.802 195.353 108.859 195.172 108.908C194.952 108.967 194.73 108.994 194.49 108.994C194.032 108.994 193.583 108.892 193.074 108.778C192.592 108.667 192.095 108.553 191.572 108.553C191.345 108.553 191.137 108.575 190.931 108.618C189.767 108.87 188.95 109.809 188.16 110.718C187.594 111.368 187.009 112.036 186.303 112.445C185.857 112.707 185.345 112.862 184.853 113.008L184.807 113.021C184.525 113.103 184.222 113.195 183.93 113.303C183.337 113.527 182.715 113.847 182.173 114.196C182.966 112.678 183.564 111.479 184.1 110.345C185.608 107.154 186.69 104.299 187.407 101.612C187.97 99.5064 188.436 97.2926 187.407 95.4199C187.153 94.949 186.793 94.5783 186.371 94.3455C186.3 94.3022 186.222 94.2644 186.146 94.2373C185.903 94.1317 185.646 94.0695 185.383 94.0533C185.318 94.0479 185.256 94.0479 185.194 94.0479C184.644 94.0479 184.119 94.2156 183.719 94.3618C183.072 94.6026 182.441 94.9166 181.843 95.2981C179.8 96.6107 178.036 98.7053 176.469 101.682L176.442 101.717L176.436 101.728C176.068 102.429 175.708 103.176 175.362 103.955C174.117 106.783 173.167 109.947 172.542 113.354C172.355 114.388 172.193 115.454 172.057 116.529C171.532 113.013 170.648 109.893 169.362 107.016C169.083 106.399 168.81 105.844 168.523 105.322C167.064 102.678 165.295 100.865 163.262 99.9339C162.634 99.6471 162.098 99.5064 161.622 99.5064C161.373 99.5064 161.138 99.5443 160.924 99.6173C160.856 99.6336 160.786 99.6633 160.699 99.7066C160.651 99.7256 160.607 99.7499 160.564 99.7743C159.804 100.207 159.419 101.049 159.23 101.679C158.984 102.499 158.908 103.409 159.005 104.31C159.154 105.685 159.471 107.024 159.79 108.269C160.418 110.689 161.327 113.268 162.656 116.385C163.443 118.228 164.301 120.079 165.132 121.871L165.755 123.216H166.188L165.516 121.765C164.442 119.446 163.333 117.048 162.361 114.637C161.192 111.736 160.399 109.271 159.869 106.881L159.858 106.824C159.449 104.968 158.984 102.862 159.887 101.1C160.134 100.627 160.469 100.275 160.867 100.08C162.648 102.058 164.204 104.256 165.495 106.608C166.696 108.8 167.66 111.122 168.363 113.514C169.183 116.272 169.735 119.102 170.168 121.505C170.266 122.049 170.358 122.593 170.447 123.14L170.458 123.216H170.856L170.84 123.113C170.677 122.101 170.523 121.21 170.366 120.39C169.871 117.774 169.289 114.981 168.409 112.31C166.918 107.793 164.456 103.517 161.276 99.9367C161.389 99.9123 161.509 99.9015 161.636 99.9015C162.177 99.9015 162.686 100.104 163.154 100.324C163.66 100.562 164.161 100.865 164.64 101.219C166.345 102.494 167.773 104.451 169.01 107.206C169.303 107.852 169.587 108.543 169.852 109.262C170.84 111.947 171.503 114.843 171.876 118.101C171.719 119.608 171.597 121.243 171.503 123.124L171.497 123.219H171.903L171.909 123.135C171.965 121.979 172.022 121.029 172.09 120.15L172.171 119.208C172.204 118.856 172.239 118.512 172.274 118.161C172.951 111.744 174.428 106.437 176.788 101.931C177.118 101.306 177.462 100.708 177.816 100.156C179.565 97.3955 181.594 95.5742 183.843 94.7434C184.349 94.5539 184.809 94.4592 185.213 94.4592C185.413 94.4592 185.602 94.4836 185.781 94.5296C183.73 96.5647 181.911 98.8244 180.374 101.246C178.91 103.547 177.684 106.026 176.731 108.616C175.624 111.62 174.818 114.707 174.174 117.33C173.695 119.286 173.283 121.232 172.945 123.113L172.926 123.219H173.332L173.346 123.145C173.73 120.994 174.225 118.734 174.81 116.429C175.516 113.663 176.323 110.71 177.446 107.863C179.375 102.965 182.398 98.4103 186.189 94.6892C186.311 94.7569 186.422 94.8354 186.533 94.9301C187.064 95.4037 187.405 96.1696 187.548 97.2142C187.67 98.0883 187.616 98.9949 187.375 100.072C187.066 101.455 186.666 102.851 186.152 104.34C185.288 106.835 184.141 109.46 182.544 112.602C182.176 113.324 181.803 114.05 181.443 114.737C181.251 114.897 181.086 115.059 180.947 115.224C180.46 115.806 180.282 116.561 180.13 117.203L180.114 117.273C180.052 117.544 179.984 117.822 179.895 118.087C179.843 118.263 179.781 118.431 179.7 118.596C179.573 118.856 179.405 119.119 179.169 119.422C179.08 119.541 178.988 119.66 178.896 119.779C178.672 120.066 178.417 120.393 178.217 120.734C178.201 120.756 178.187 120.78 178.168 120.818C178.128 120.888 178.087 120.967 178.041 121.054C178.033 121.07 178.025 121.089 178.019 121.105C177.86 121.443 177.727 121.86 177.622 122.342C177.57 122.574 177.527 122.829 177.492 123.118L177.478 123.219H177.881L177.892 123.14C177.987 122.409 178.16 121.763 178.401 121.246C178.444 121.154 178.488 121.07 178.536 120.986L178.561 120.945C178.734 120.648 178.953 120.366 179.164 120.093L179.215 120.025C179.505 119.657 179.833 119.238 180.057 118.769C180.271 118.334 180.39 117.86 180.509 117.338L180.533 117.232C180.604 116.935 180.671 116.656 180.761 116.388L180.782 116.328C180.899 116.006 181.037 115.747 181.207 115.533L181.251 115.479C181.391 115.316 181.554 115.157 181.738 115.005C182.452 114.407 183.413 113.928 184.073 113.679C184.314 113.587 184.566 113.511 184.809 113.438L184.969 113.389C185.483 113.232 186.019 113.073 186.506 112.791C187.269 112.348 187.878 111.652 188.465 110.978C189.25 110.08 189.989 109.233 191.02 109.008C191.199 108.97 191.383 108.951 191.58 108.951C192.035 108.951 192.484 109.054 192.99 109.168C193.472 109.279 193.97 109.392 194.49 109.392C194.768 109.392 195.025 109.36 195.277 109.292C195.467 109.243 195.653 109.184 195.867 109.114C196.178 109.016 196.5 108.913 196.817 108.867C196.917 108.851 197.025 108.846 197.136 108.846C197.369 108.846 197.632 108.875 197.905 108.932C196.473 109.054 195.161 109.817 194.284 110.467C193.713 110.889 193.166 111.362 192.636 111.823C191.81 112.537 190.958 113.276 190.011 113.817C189.35 114.193 188.617 114.469 187.908 114.734C187.131 115.024 186.33 115.324 185.6 115.766C184.144 116.642 181.513 118.764 180.233 123.102L180.198 123.216H180.615L180.634 123.154C181.884 118.986 184.411 116.951 185.808 116.109C186.503 115.69 187.288 115.395 188.051 115.111C188.774 114.84 189.524 114.559 190.214 114.166C191.196 113.606 192.065 112.854 192.904 112.126C193.426 111.674 193.965 111.205 194.525 110.791C195.434 110.118 196.828 109.317 198.297 109.317C198.508 109.317 198.719 109.333 198.925 109.365C198.016 109.961 196.852 111.07 196.257 112.272C196.048 112.688 195.902 113.143 195.753 113.601C195.521 114.318 195.301 114.994 194.852 115.517C194.197 116.261 193.245 116.464 192.23 116.678C191.372 116.856 190.487 117.043 189.756 117.592C188.685 118.396 188.23 119.733 187.792 121.024C187.553 121.725 187.307 122.45 186.958 123.086L186.885 123.219H187.34L187.364 123.17C187.697 122.531 187.938 121.83 188.173 121.148C188.612 119.855 189.026 118.631 189.994 117.912C190.658 117.416 191.496 117.24 192.311 117.07C193.293 116.864 194.403 116.632 195.15 115.779C195.651 115.208 195.891 114.475 196.121 113.766L196.135 113.722C196.284 113.254 196.425 112.835 196.614 112.45C197.293 111.081 198.768 109.855 199.55 109.46L199.872 109.3L199.537 109.1L199.531 109.103Z" fill="#48F0AC" fill-opacity="0.6"/>
<path d="M200 123.133C200 123.233 199.922 123.311 199.827 123.311H0.1732C0.0784812 123.311 0 123.23 0 123.133C0 123.084 0.0189437 123.038 0.0514187 123.006C0.0838937 122.973 0.127194 122.954 0.1732 122.954H199.827C199.922 122.954 200 123.035 200 123.133Z" fill="#48F0AC" fill-opacity="0.6"/>
<path d="M73.4857 73.6486H40.2862C36.7191 73.6486 33.8274 76.5352 33.8274 80.096V101.73C33.8274 105.291 36.7191 108.177 40.2862 108.177H73.4857C77.0528 108.177 79.9445 105.291 79.9445 101.73V80.096C79.9445 76.5352 77.0528 73.6486 73.4857 73.6486Z" fill="#78EDBD"/>
<path d="M74.2538 91.4712C76.2611 91.4181 77.8451 89.7506 77.7919 87.7468C77.7386 85.743 76.0682 84.1617 74.0609 84.2149C72.0536 84.2681 70.4695 85.9355 70.5228 87.9393C70.5761 89.9431 72.2465 91.5244 74.2538 91.4712Z" fill="white"/>
<path d="M77.0834 96.1658C74.0604 95.6759 72.9666 96.432 71.5289 96.8613C70.0905 97.2906 68.5164 97.9666 66.2434 98.3181C63.9703 98.6697 62.433 97.6787 58.3994 95.2182C54.365 92.7569 53.7889 92.3097 51.8043 92.3097C49.8197 92.3097 47.002 94.1637 44.5686 95.5375C42.2146 96.8673 38.5414 98.9449 38.3054 99.078V104.813C38.3054 108.485 41.3149 111.489 44.9926 111.489H77.736C81.4137 111.489 84.4232 108.485 84.4232 104.813V97.6241C81.664 97.0415 78.5713 96.4066 77.0842 96.165L77.0834 96.1658Z" fill="white"/>
<path d="M77.5547 107.735C77.5547 107.735 70.2029 108.182 65.5924 110.057C60.9819 111.932 56.8913 112.813 53.5364 115.76C50.1816 118.708 49.7178 121.306 49.4376 122.969C49.1574 124.631 49.6834 127.467 53.293 128.259C56.8868 129.048 58.8834 129.143 62.7283 128.929C66.5731 128.715 70.5378 128.425 70.5378 128.425C70.5378 128.425 71.0143 125.026 70.6307 122.948L78.7295 123.519L89.0862 123.863C89.0862 123.863 90.7682 128.476 92.0815 128.465C93.3948 128.453 100.188 128.31 100.188 128.31L108.57 120.255L104.217 114.795C104.217 114.795 100.98 112.415 94.2249 110.298C87.4702 108.182 84.0944 107.894 84.0944 107.894L77.5547 107.734V107.735Z" fill="#444444"/>
<path d="M93.2097 126.978C93.2097 126.978 90.4295 127.449 89.1611 125.705L88.7858 126.341L87.2747 129.149C87.2747 129.149 86.7023 129.917 85.7598 129.646C84.8166 129.375 85.3387 127.829 85.3387 127.829L85.828 126.342L84.3723 128.164C84.3723 128.164 83.4425 129.478 82.554 128.988C81.6647 128.497 82.6836 126.993 82.6836 126.993C82.6836 126.993 81.2699 127.831 80.7252 127.44C80.1806 127.049 80.7679 125.61 81.2092 125.065C81.6505 124.52 83.3849 122.19 84.3468 121.694C85.3088 121.197 88.4164 121.487 89.0375 121.551C89.6586 121.615 92.8261 121.95 92.8261 121.95C92.8261 121.95 93.7439 126.126 93.2097 126.979V126.978Z" fill="white"/>
<path d="M79.6142 123.873C79.6142 123.873 79.1078 121.39 78.4237 120.781C77.7397 120.173 77.0834 119.871 77.0834 119.871L78.2784 123.362L75.7252 121.824L74.5504 119.295C74.5504 119.295 73.1427 119.31 72.2429 119.418C71.3431 119.526 69.8605 120.241 69.8605 120.241C69.8605 120.241 70.6157 122.554 70.6899 123.518C70.7633 124.482 70.7573 126.235 70.7573 126.235C70.7573 126.235 72.84 126.904 73.5877 127.068C74.3354 127.233 76.3957 127.671 77.0842 127.282C77.0842 127.282 78.3308 127.154 78.7998 126.862C79.4007 126.489 79.5423 126.048 79.5423 126.048C79.5423 126.048 79.818 126.115 80.0899 125.551C80.4016 124.905 79.615 123.873 79.615 123.873H79.6142Z" fill="white"/>
<path d="M88.6629 92.1668C87.8305 91.7443 86.8678 91.3472 85.6886 91.567C84.5093 91.7869 83.4365 92.6283 83.4365 92.6283C83.4365 92.6283 82.4603 91.8527 80.6675 92.0591C78.8747 92.2655 78.1809 93.3948 78.0326 94.1165C77.8903 94.8083 77.649 96.5225 78.0513 97.8455C77.2984 98.3084 77.0804 99.1647 77.0894 99.4385C77.1014 99.8274 77.0879 101.355 78.9594 101.598L78.8477 101.979L77.0954 107.734C77.0954 107.734 78.2431 112.903 81.3171 113.242C83.7819 113.514 84.0456 110.289 84.0456 110.289L85.1739 106.97C85.1739 106.97 86.7277 107.134 87.2724 105.692C87.817 104.25 88.9468 99.7384 88.9468 99.7384C88.9468 99.7384 90.8025 98.7362 91.0737 96.5875C91.345 94.4389 89.4952 92.5894 88.6629 92.1668Z" fill="white"/>
<path d="M119.398 100.041L114.488 96.8979L102.715 96.8605C102.715 96.8605 101.557 96.619 100.853 95.7806C100.149 94.943 100.188 93.6319 100.188 93.6319V87.5397C100.188 87.5397 100.529 86.5375 101.143 86.0911C101.756 85.6453 102.406 85.2819 103.182 85.2819H116.925C116.925 85.2819 118.075 85.6364 118.797 86.4859C119.518 87.3355 119.398 89.2531 119.398 89.2531V100.041V100.041Z" fill="#1E54CB"/>
<path d="M75.9768 122.246L74.1705 117.852L75.8015 117.19L78.3533 123.362L75.9768 122.246Z" fill="#EDF719"/>
<path d="M75.6952 117.052L75.4038 116.365L73.835 116.963L74.1474 117.678L75.6952 117.052Z" fill="white"/>
<path d="M101.541 131.248L100.359 129.739C100.359 129.739 100.099 128.947 100.227 128.01C100.356 127.072 107.205 107.842 107.205 107.842C107.205 107.842 108.104 105.948 110.174 105.548H139.245L140.084 105.729L141.593 106.696L141.785 107.065L111.732 106.724L109.797 107.462L108.57 108.779L101.529 128.903L101.487 130.011L101.541 131.246V131.248Z" fill="white"/>
<path d="M80.0486 104.715C80.0486 104.715 81.2818 107.309 84.6502 108.508L85.0517 106.97C85.0517 106.97 80.6383 106.329 80.0494 104.715L80.0486 104.715Z" fill="#CCCCCC"/>
<path d="M82.5068 101.979C82.5068 101.979 83.1721 102.482 83.1511 103.111C83.1302 103.741 82.7631 104.244 82.7631 104.244C82.7631 104.244 83.3137 104.774 84.1079 104.715C84.902 104.657 84.9267 103.857 84.7761 103.661C84.6248 103.464 83.9123 103.586 83.7138 103.312C83.5152 103.039 83.558 102.826 83.5152 102.463C83.4725 102.101 83.25 101.518 82.5076 101.98L82.5068 101.979Z" fill="#1A1A1A"/>
<path d="M86.2804 96.5605C86.2804 96.5605 87.9242 97.4154 89.7649 96.939C90.5246 96.7423 90.9157 97.2277 90.9157 97.2277C90.9157 97.2277 90.0564 99.389 89.1116 99.6366L88.9461 99.5289L89.3619 97.6405C89.3619 97.6405 86.8041 97.5627 86.2797 96.5605H86.2804Z" fill="#CCCCCC"/>
<path d="M77.8753 96.5606C77.8753 96.5606 81.0744 98.0892 83.2231 96.8747C83.2231 96.8747 82.4858 97.8521 81.864 98.0982L81.9037 98.9785C81.9037 98.9785 81.18 99.042 81.1343 99.3659C81.1343 99.3659 80.9058 97.8492 79.8337 97.6734C78.7609 97.4977 78.0521 97.8447 78.0521 97.8447L77.8768 96.5598L77.8753 96.5606Z" fill="#CCCCCC"/>
<path d="M125.585 86.8509L125.787 89.1095L124.173 92.2416V99.7293L124.98 99.5072L125.056 98.1438C125.056 98.1438 126.37 97.6054 126.907 97.6442L128.034 93.5481L127.71 89.4153L129.203 87.2136L127.407 84.2153L125.585 86.8509Z" fill="#2CA473"/>
<path d="M134.654 70.4843C134.654 70.4843 135.66 68.2339 135.51 66.5878C135.358 64.9417 134.035 63.5073 130.559 64.0009C130.559 64.0009 129.438 60.5098 125.675 60.9683C121.912 61.4267 122.344 65.1482 122.985 66.2199C122.985 66.2199 120.695 66.9558 123.42 69.859L123.593 67.7366C123.593 67.7366 127.291 68.5704 129.452 66.1249C129.452 66.1249 129.763 70.0206 131.459 70.6645C131.459 70.6645 132.75 69.2353 134.654 70.4843Z" fill="#444444"/>
<path d="M124.602 80.369V88.1043L124.839 87.776C124.839 87.776 124.386 89.8334 124.174 94.0956C123.961 98.357 124.174 99.7301 124.174 99.7301C124.174 99.7301 121.8 101.182 122.272 105.362L121.976 105.549H110.174C110.174 105.549 107.441 106.252 106.993 108.265C106.993 108.265 104.651 106.635 104.893 103.375C105.135 100.115 107.984 95.6407 109.105 92.9244C110.226 90.2081 114.069 80.7594 124.602 80.3698V80.369Z" fill="#8FFBCE"/>
<path d="M134.516 80.719L130.413 89.2336L129.838 88.553C129.838 88.553 127.356 95.3348 126.907 97.645C126.907 97.645 134.043 97.2194 134.043 98.3428V105.496L139.029 105.549L140.075 105.645L141.933 107.136C141.933 107.136 144.245 108.138 144.242 110.141C144.238 112.143 140.119 123.52 140.119 123.52H142.86L143.13 118.213L146.192 122.838C146.192 122.838 149.059 122.353 150.78 121.326C152.501 120.299 153.902 119.309 153.902 119.309C153.902 119.309 151.529 110.456 151.08 108.779C150.631 107.101 146.885 91.994 146.692 91.1482C146.5 90.3023 145.521 86.8808 144.292 85.4493C143.063 84.0179 139.586 80.8521 134.516 80.7197L134.516 80.719Z" fill="#8FFBCE"/>
<path d="M125.056 98.3413C125.056 98.3413 127.166 99.2358 129.708 99.0862C132.25 98.9374 134.043 98.3413 134.043 98.3413V105.495L130.507 105.548C130.507 105.548 131.053 104.828 130.94 104.013C130.828 103.198 130.3 102.959 130.3 102.959C130.3 102.959 130.668 102.224 130.396 101.425C130.124 100.626 128.986 100.719 128.986 100.719C128.986 100.719 126.057 100.97 125.225 100.718L125.056 100.53V98.3421V98.3413Z" fill="#F90CF4"/>
<path d="M129.387 77.6116C129.387 77.6116 127.632 79.2868 126.287 79.3938L125.94 78.7431L125.962 77.83L129.387 77.6116Z" fill="#CCCCCC"/>
<path d="M105.69 133.813H133.48C135.311 133.813 136.937 132.692 137.513 131.032L144.104 112.03C145.015 109.404 142.969 106.696 140.072 106.696H112.282C110.451 106.696 108.825 107.817 108.249 109.477L101.658 128.479C100.747 131.105 102.794 133.813 105.69 133.813H105.69Z" fill="#2CA473"/>
<path d="M123.16 120.245C122.314 121.709 122.409 123.346 123.374 123.902C124.339 124.459 125.808 123.723 126.654 122.259C127.501 120.796 127.405 119.158 126.44 118.602C125.475 118.046 124.007 118.781 123.16 120.245Z" fill="white"/>
<path d="M124.424 66.2693C122.57 65.2896 123.236 62.4544 124.321 61.3438C122.042 62.4289 122.436 65.3 122.985 66.2192C122.985 66.2192 120.695 66.9551 123.42 69.8584L123.593 67.7359C123.593 67.7359 127.291 68.5698 129.452 66.1242C129.452 66.1242 126.842 67.5467 124.424 66.2685V66.2693Z" fill="white"/>
<path d="M132.171 70.1306C130.478 69.7746 129.56 66.0696 129.56 66.0696L129.471 66.3059C129.557 67.08 129.983 70.1036 131.46 70.6638C131.46 70.6638 131.744 70.3534 132.239 70.1478C132.216 70.1418 132.197 70.1358 132.172 70.1306H132.171Z" fill="white"/>
<path d="M127.974 85.1464L126.426 86.8509L126.689 89.4153L124.174 95.0327L124.415 91.9806L125.787 89.2687L125.444 86.7978L127.407 84.2153L127.974 85.1464Z" fill="white"/>
<path d="M161.26 123.652C161.17 123.652 161.095 123.58 161.092 123.489C161.064 122.664 160.088 122.297 160.078 122.294C159.567 122.081 159.012 121.964 158.215 121.897C155.106 121.639 153.454 119.79 153.385 119.711C153.324 119.641 153.331 119.535 153.401 119.473C153.471 119.413 153.577 119.419 153.639 119.489C153.655 119.508 155.277 121.315 158.242 121.561C159.077 121.631 159.662 121.756 160.2 121.979C160.242 121.994 161.393 122.423 161.429 123.478C161.432 123.571 161.359 123.649 161.265 123.652H161.26V123.652Z" fill="#444444"/>
<path d="M159.5 123.623C159.465 123.623 159.429 123.612 159.398 123.589C159.324 123.533 159.31 123.427 159.366 123.353C159.369 123.349 159.658 122.96 159.537 122.624C159.453 122.392 159.187 122.222 158.747 122.117C157.181 121.745 155.555 121.208 155.539 121.202C155.45 121.173 155.402 121.078 155.431 120.989C155.461 120.902 155.554 120.852 155.645 120.882C155.661 120.888 157.274 121.421 158.825 121.789C159.385 121.922 159.731 122.165 159.855 122.513C160.037 123.021 159.651 123.536 159.634 123.557C159.601 123.601 159.55 123.623 159.5 123.623H159.5Z" fill="#444444"/>
<path d="M152.893 123.688C152.882 123.688 152.87 123.687 152.859 123.684C150.764 123.248 150.885 122.057 150.891 122.007C150.902 121.915 150.984 121.855 151.079 121.86C151.171 121.871 151.237 121.954 151.227 122.046C151.223 122.089 151.16 122.986 152.928 123.353C153.019 123.372 153.077 123.462 153.059 123.553C153.042 123.632 152.972 123.688 152.893 123.688Z" fill="#444444"/>
<path d="M147.878 123.652C147.835 123.652 147.793 123.636 147.76 123.603C147.331 123.181 147.181 122.752 147.174 122.734C147.144 122.646 147.19 122.551 147.279 122.52C147.367 122.49 147.462 122.536 147.494 122.624C147.495 122.628 147.629 123 147.997 123.363C148.063 123.429 148.065 123.536 147.999 123.602C147.966 123.635 147.923 123.652 147.879 123.652H147.878Z" fill="#444444"/>
<path d="M60.3945 129.22C56.0057 129.22 51.6851 128.661 50.186 126.527C49.3147 125.286 49.0944 123.463 49.5822 121.526C50.404 118.26 53.0389 115.298 56.8103 113.4C58.9418 112.327 61.283 111.34 63.7688 110.467C65.8688 109.729 68.3598 108.904 70.9063 108.381C73.1704 107.919 74.9632 107.76 77.0714 107.602C77.1598 107.588 77.2452 107.665 77.252 107.758C77.2587 107.851 77.189 107.931 77.0961 107.938C74.9999 108.096 73.2183 108.252 70.9738 108.711C68.4475 109.23 65.9707 110.051 63.8812 110.785C61.4089 111.654 59.0811 112.635 56.9624 113.701C53.2787 115.555 50.7082 118.438 49.9096 121.609C49.4458 123.451 49.6473 125.173 50.4625 126.333C52.9295 129.846 64.1389 128.828 68.9247 128.394C69.5608 128.336 70.1032 128.287 70.5243 128.256C70.6276 128.241 70.6981 128.319 70.7048 128.412C70.7115 128.505 70.6419 128.586 70.549 128.592C70.1287 128.623 69.5885 128.672 68.9555 128.73C66.7543 128.93 63.5568 129.22 60.3945 129.22Z" fill="#444444"/>
<path d="M104.645 115.28C104.609 115.28 104.573 115.269 104.543 115.245C103.917 114.768 103.343 114.394 102.563 113.953C98.9605 111.924 94.8339 110.607 91.2715 109.587C89.648 109.122 87.2057 108.48 84.7618 108.281C84.6689 108.273 84.6 108.192 84.6075 108.099C84.6157 108.006 84.6869 107.938 84.7895 107.945C87.2641 108.147 89.7275 108.794 91.3652 109.263C94.9463 110.289 99.0961 111.613 102.729 113.661C103.524 114.11 104.109 114.491 104.748 114.979C104.822 115.035 104.836 115.141 104.779 115.215C104.746 115.258 104.696 115.281 104.645 115.281V115.28Z" fill="#444444"/>
<path d="M94.7343 128.633C93.8308 128.633 92.9752 128.619 92.2088 128.589C92.1159 128.585 92.0432 128.507 92.0462 128.414C92.05 128.321 92.1309 128.255 92.2215 128.252C94.4489 128.337 97.4239 128.296 100.179 128.141C100.273 128.145 100.352 128.207 100.357 128.301C100.362 128.393 100.291 128.473 100.197 128.479C98.3806 128.58 96.4672 128.633 94.7343 128.633Z" fill="#444444"/>
<path d="M78.3534 123.53C78.2867 123.53 78.223 123.49 78.1968 123.425L75.7072 117.306L74.2995 117.877L75.9859 122.023C76.0211 122.11 75.9792 122.208 75.893 122.243C75.8076 122.278 75.708 122.236 75.6728 122.15L73.9227 117.847C73.8874 117.76 73.9294 117.662 74.0156 117.627L75.7372 116.929C75.7792 116.912 75.8256 116.913 75.8668 116.93C75.908 116.947 75.9402 116.98 75.9575 117.021L78.51 123.296C78.5452 123.383 78.5032 123.481 78.417 123.516C78.3961 123.525 78.3743 123.529 78.3534 123.529V123.53Z" fill="#444444"/>
<path d="M74.0798 117.954C74.0131 117.954 73.9495 117.914 73.9232 117.849L73.5823 117.011C73.5651 116.969 73.5659 116.923 73.5831 116.882C73.6003 116.841 73.6333 116.809 73.6745 116.791L75.3961 116.094C75.4823 116.058 75.5812 116.1 75.6164 116.186L75.9573 117.024C75.9925 117.111 75.9505 117.209 75.8644 117.244C75.7782 117.279 75.6793 117.237 75.6441 117.151L75.3669 116.47L73.9592 117.04L74.2364 117.721C74.2716 117.808 74.2296 117.906 74.1435 117.941C74.1225 117.949 74.1008 117.954 74.0798 117.954Z" fill="#444444"/>
<path d="M79.5108 128.84C79.4681 128.84 79.4269 128.824 79.3947 128.793L77.7674 127.257C77.7 127.194 77.697 127.087 77.7607 127.019C77.8236 126.951 77.9308 126.949 77.9997 127.013L79.3572 128.294L79.4449 126.209C79.4486 126.116 79.5213 126.041 79.6209 126.048C79.7138 126.052 79.7865 126.13 79.7828 126.224L79.6794 128.677C79.6764 128.743 79.6359 128.802 79.5745 128.827C79.5535 128.835 79.5318 128.84 79.5108 128.84Z" fill="#444444"/>
<path d="M86.2168 129.922C86.04 129.922 85.8609 129.881 85.6864 129.796C85.4414 129.679 85.2496 129.515 85.1305 129.324C85.0039 129.119 84.9462 128.864 84.9627 128.586C84.9821 128.28 85.084 128.001 85.1964 127.717C85.3155 127.418 85.4579 127.096 85.6324 126.734C86.0317 125.904 86.4933 125.053 87.0035 124.204C87.0514 124.124 87.1548 124.098 87.2357 124.147C87.3151 124.195 87.3413 124.299 87.2934 124.379C86.7884 125.217 86.3322 126.058 85.9374 126.88C85.7658 127.235 85.6264 127.55 85.5103 127.841C85.4092 128.098 85.3163 128.349 85.2998 128.606C85.2915 128.752 85.3043 128.962 85.4182 129.146C85.5028 129.283 85.6467 129.402 85.8332 129.492C86.2183 129.677 86.6251 129.576 86.9503 129.213C87.1353 129.006 87.2799 128.749 87.4192 128.499C87.462 128.422 87.5054 128.345 87.5496 128.27C87.7451 127.935 87.9279 127.594 88.1108 127.253L88.1902 127.105C88.2561 126.982 88.3205 126.859 88.3857 126.734C88.6524 126.224 88.9289 125.696 89.287 125.234C89.3447 125.161 89.4511 125.147 89.5245 125.204C89.5979 125.261 89.6114 125.367 89.5544 125.441C89.2143 125.879 88.9453 126.393 88.6854 126.891C88.6202 127.016 88.555 127.141 88.4883 127.264L88.4089 127.412C88.2239 127.758 88.0396 128.102 87.8418 128.44C87.7991 128.514 87.7564 128.589 87.7144 128.664C87.5661 128.929 87.4118 129.203 87.202 129.438C86.9173 129.756 86.5704 129.921 86.2161 129.921L86.2168 129.922Z" fill="#444444"/>
<path d="M83.0724 129.316C82.9361 129.316 82.8207 129.291 82.7338 129.262C82.303 129.12 82.0063 128.733 81.9689 128.44C81.7846 127.03 84.7042 123.756 84.8285 123.618C84.8915 123.549 84.9971 123.543 85.0675 123.605C85.1372 123.667 85.1432 123.774 85.081 123.843C84.2621 124.756 82.1682 127.353 82.3045 128.397C82.3255 128.553 82.5285 128.838 82.8417 128.942C83.1743 129.051 83.5354 128.922 83.8838 128.565C85.2398 127.173 86.9869 124.237 87.0042 124.207C87.0514 124.126 87.1555 124.1 87.2357 124.148C87.3158 124.195 87.3421 124.299 87.2949 124.379C87.2229 124.501 85.5095 127.379 84.1258 128.799C83.7272 129.209 83.3556 129.317 83.0739 129.317L83.0724 129.316Z" fill="#444444"/>
<path d="M81.2624 127.775C80.9702 127.775 80.7005 127.664 80.4593 127.446C79.6194 126.685 81.3815 124.686 81.5853 124.46C82.2176 123.557 83.8463 121.402 85.0375 121.226C86.8026 120.963 92.6029 121.751 92.8486 121.784C92.9407 121.797 93.0052 121.882 92.9932 121.974C92.9805 122.066 92.898 122.129 92.8029 122.119C92.743 122.11 86.8041 121.307 85.087 121.56C84.3498 121.669 83.1391 122.832 81.849 124.67C81.1537 125.441 80.239 126.791 80.6863 127.196C80.8878 127.379 81.1036 127.455 81.344 127.434C82.0041 127.37 82.6087 126.574 82.6147 126.565C82.6701 126.491 82.7757 126.476 82.8514 126.531C82.9263 126.587 82.9413 126.693 82.8859 126.767C82.8574 126.806 82.1876 127.691 81.3778 127.77C81.3388 127.773 81.3006 127.775 81.2624 127.775Z" fill="#444444"/>
<path d="M92.387 127.298C90.2062 127.298 89.0839 126.02 89.0322 125.959C88.9722 125.889 88.9797 125.782 89.0509 125.722C89.1213 125.661 89.2277 125.67 89.2891 125.74C89.3026 125.756 90.6317 127.261 93.164 126.906C93.2606 126.896 93.3415 126.957 93.355 127.049C93.3677 127.142 93.3033 127.227 93.2112 127.24C92.922 127.28 92.647 127.298 92.3878 127.298H92.387Z" fill="#444444"/>
<path d="M79.3805 132.647C79.3385 132.647 79.2981 132.632 79.2666 132.603L73.1854 127.102C73.1165 127.04 73.1113 126.933 73.1742 126.863C73.2379 126.794 73.3435 126.789 73.4132 126.852L79.4397 132.304L94.2047 130.998L88.1093 127.61C88.0276 127.565 87.9984 127.463 88.0441 127.381C88.0898 127.299 88.1917 127.27 88.2741 127.316L94.8498 130.97C94.9142 131.006 94.9487 131.08 94.9329 131.153C94.9172 131.225 94.8565 131.279 94.7823 131.286L79.3962 132.647C79.391 132.647 79.3865 132.647 79.3812 132.647H79.3805Z" fill="#444444"/>
<path d="M98.3184 119.59C95.3006 119.59 91.5712 119.365 91.3329 119.35C91.24 119.344 91.1689 119.264 91.1749 119.171C91.1808 119.078 91.2618 119.009 91.3539 119.013C91.4423 119.019 100.257 119.553 101.798 119.01C101.888 118.98 101.983 119.026 102.014 119.114C102.045 119.202 101.998 119.298 101.911 119.329C101.35 119.526 99.9359 119.591 98.3176 119.591L98.3184 119.59Z" fill="#444444"/>
<path d="M78.9467 126.294C78.0888 126.294 76.5335 125.904 74.0664 123.992C73.993 123.934 73.9795 123.829 74.0365 123.755C74.0934 123.682 74.1998 123.668 74.274 123.725C77.1973 125.991 78.7586 126.023 79.2935 125.929C79.6142 125.874 79.8517 125.737 79.9813 125.534C80.3806 124.908 79.4891 124.185 79.3557 124.083C79.0126 123.947 75.5116 122.546 74.5384 121.294C74.4815 121.221 74.4942 121.115 74.5684 121.057C74.6418 121.001 74.7475 121.013 74.8059 121.087C75.7514 122.303 79.4636 123.762 79.5011 123.776C79.5153 123.781 79.5273 123.789 79.5393 123.797C79.594 123.837 80.8631 124.777 80.266 125.714C80.0839 125.999 79.7678 126.189 79.3512 126.26C79.2388 126.28 79.1047 126.293 78.9467 126.293V126.294Z" fill="#444444"/>
<path d="M77.5636 127.3C75.5146 127.3 72.9681 125.771 72.8452 125.696C72.7658 125.647 72.7403 125.543 72.7882 125.464C72.8369 125.384 72.9411 125.359 73.0205 125.407C73.0542 125.427 76.3889 127.426 78.3532 126.861C78.8649 126.713 79.229 126.411 79.4635 125.938C79.5062 125.854 79.6066 125.821 79.6905 125.862C79.7744 125.904 79.8082 126.005 79.767 126.088C79.4913 126.643 79.0462 127.012 78.4469 127.185C78.1704 127.265 77.873 127.3 77.5636 127.3Z" fill="#444444"/>
<path d="M79.6591 124.29C79.5782 124.29 79.5063 124.232 79.492 124.149C79.489 124.13 79.1759 122.258 78.6417 121.375C78.1173 120.508 76.8414 119.942 76.8279 119.936C76.7425 119.898 76.7035 119.799 76.7417 119.713C76.7785 119.628 76.8781 119.589 76.9643 119.627C77.0204 119.652 78.3518 120.244 78.9301 121.202C79.498 122.14 79.8112 124.015 79.8247 124.094C79.8396 124.186 79.7775 124.273 79.6853 124.288C79.6756 124.29 79.6666 124.29 79.6576 124.29H79.6591Z" fill="#444444"/>
<path d="M69.7698 120.241C69.6814 120.241 69.6073 120.172 69.6013 120.083C69.5953 119.99 69.6657 119.91 69.7586 119.904C69.7631 119.904 70.2201 119.869 71.1379 119.491C72.8423 118.791 74.6725 119.165 74.7505 119.182C74.8419 119.201 74.9003 119.291 74.8808 119.381C74.8613 119.473 74.7737 119.531 74.6808 119.511C74.6621 119.508 72.8722 119.142 71.2667 119.803C70.2868 120.205 69.7998 120.239 69.7803 120.241H69.7698Z" fill="#444444"/>
<path d="M75.9506 127.656C74.6058 127.656 73.0198 127.071 72.368 126.83C72.2646 126.792 72.1859 126.763 72.1365 126.747C71.6765 126.597 70.6868 126.402 70.677 126.4C70.5856 126.382 70.5257 126.293 70.5437 126.202C70.5617 126.111 70.6486 126.052 70.7422 126.069C70.7834 126.077 71.7619 126.27 72.2413 126.426C72.293 126.442 72.3762 126.473 72.4848 126.513C73.3741 126.841 76.0794 127.838 77.2519 126.99C77.3268 126.934 77.4332 126.951 77.4879 127.027C77.5434 127.102 77.5261 127.208 77.4505 127.263C77.0556 127.548 76.5252 127.655 75.9506 127.655V127.656Z" fill="#444444"/>
<path d="M56.886 120.474C56.7976 120.474 56.7227 120.405 56.7175 120.315C56.7122 120.223 56.7834 120.143 56.8763 120.137C65.9153 119.597 69.1046 119.253 69.1353 119.25C69.2342 119.234 69.3113 119.306 69.3218 119.399C69.3323 119.491 69.2649 119.574 69.172 119.585C69.1405 119.589 65.9467 119.933 56.8958 120.473H56.886V120.474Z" fill="#444444"/>
<path d="M70.5369 128.593C70.4231 128.58 70.3579 128.496 70.3691 128.404C71.1408 122.235 69.043 119.55 69.0221 119.523C68.9636 119.451 68.9749 119.345 69.0475 119.286C69.121 119.227 69.2266 119.239 69.285 119.312C69.3757 119.424 71.4929 122.136 70.7047 128.446C70.6935 128.531 70.6208 128.593 70.5369 128.593Z" fill="#444444"/>
<path d="M92.1436 128.593C91.6978 128.593 91.2453 128.214 90.8587 127.513L90.5066 126.898C90.4609 126.817 90.4886 126.714 90.5695 126.668C90.6504 126.623 90.7538 126.65 90.8003 126.731L91.1531 127.348C91.4918 127.962 91.8858 128.292 92.1945 128.253C92.5376 128.212 92.8396 127.766 93.0239 127.027C93.2254 126.224 93.2644 125.179 93.1355 124.085C92.9969 122.91 92.7182 121.674 92.3893 120.78C92.0477 119.848 91.6753 119.316 91.3622 119.349C91.1044 119.38 90.6617 120.403 90.3942 121.585C90.3732 121.674 90.2848 121.733 90.1919 121.712C90.1013 121.692 90.0443 121.601 90.0646 121.51C90.156 121.107 90.6437 119.093 91.3225 119.014C91.8222 118.958 92.2837 119.511 92.7062 120.664C93.0478 121.596 93.3265 122.828 93.4704 124.047C93.6037 125.18 93.5618 126.268 93.3505 127.109C93.1265 128.005 92.7294 128.53 92.2327 128.588C92.202 128.592 92.172 128.594 92.1413 128.594L92.1436 128.593Z" fill="#444444"/>
<path d="M81.5725 124.71H80.0891C79.9962 124.71 79.9206 124.634 79.9206 124.542C79.9206 124.449 79.9962 124.373 80.0891 124.373H81.5725C81.6654 124.373 81.7411 124.449 81.7411 124.542C81.7411 124.634 81.6654 124.71 81.5725 124.71Z" fill="#444444"/>
<path d="M77.6244 128.995C77.536 128.995 77.4611 128.927 77.4558 128.837C77.4506 128.744 77.5218 128.664 77.6147 128.658L80.5035 128.488C80.6077 128.49 80.6766 128.553 80.6826 128.646C80.6878 128.739 80.6167 128.819 80.5238 128.825L77.6349 128.995H77.6252H77.6244Z" fill="#444444"/>
<path d="M87.2755 129.459C87.1833 129.459 87.1084 129.386 87.1069 129.294C87.1046 129.201 87.1788 129.124 87.2725 129.123L88.7251 129.096C88.8203 129.096 88.8952 129.169 88.8967 129.261C88.8989 129.354 88.8248 129.431 88.7311 129.432L87.2785 129.459H87.2755Z" fill="#444444"/>
<path d="M79.9625 130.876C79.8756 130.876 79.8014 130.808 79.794 130.72C79.7865 130.627 79.8554 130.546 79.949 130.538L82.9001 130.303C82.996 130.297 83.0747 130.366 83.0821 130.458C83.0896 130.551 83.0207 130.632 82.9271 130.64L79.976 130.875C79.9715 130.875 79.967 130.875 79.9625 130.875V130.876Z" fill="#444444"/>
<path d="M143.288 76.9886C143.26 76.9886 143.232 76.9818 143.207 76.9676C143.153 76.9377 143.119 76.8816 143.119 76.8195V70.9958C143.119 70.9756 143.123 70.9554 143.13 70.9367C143.123 70.8537 143.119 70.7707 143.119 70.6862V65.0487C143.119 63.3076 144.538 61.8904 146.282 61.8904H159.503C161.247 61.8904 162.666 63.3069 162.666 65.0487V65.7666C162.666 65.8601 162.591 65.9349 162.498 65.9349C162.405 65.9349 162.329 65.8594 162.329 65.7666V65.0487C162.329 63.4931 161.062 62.2277 159.504 62.2277H146.283C144.725 62.2277 143.458 63.4931 143.458 65.0487V70.6862C143.458 70.7879 143.464 70.8881 143.475 70.9868C143.479 71.0197 143.473 71.0519 143.458 71.0811V76.5107L148.107 73.5334C148.134 73.5162 148.165 73.5064 148.198 73.5064H159.504C161.062 73.5064 162.329 72.241 162.329 70.6862V68.3236C162.329 68.2302 162.405 68.1554 162.498 68.1554C162.591 68.1554 162.666 68.2309 162.666 68.3236V70.6862C162.666 72.4272 161.247 73.8437 159.503 73.8437H148.247L143.379 76.9609C143.352 76.9788 143.32 76.9878 143.288 76.9878V76.9886Z" fill="#444444"/>
<path d="M158.741 66.4375H155.657C155.564 66.4375 155.488 66.362 155.488 66.2692C155.488 66.1765 155.564 66.101 155.657 66.101H158.741C158.834 66.101 158.91 66.1765 158.91 66.2692C158.91 66.362 158.834 66.4375 158.741 66.4375Z" fill="#444444"/>
<path d="M151.943 66.4375H146.96C146.867 66.4375 146.791 66.362 146.791 66.2692C146.791 66.1765 146.867 66.101 146.96 66.101H151.943C152.036 66.101 152.112 66.1765 152.112 66.2692C152.112 66.362 152.036 66.4375 151.943 66.4375Z" fill="#444444"/>
<path d="M158.741 69.6085H146.959C146.866 69.6085 146.79 69.533 146.79 69.4402C146.79 69.3475 146.866 69.272 146.959 69.272H158.741C158.834 69.272 158.91 69.3475 158.91 69.4402C158.91 69.533 158.834 69.6085 158.741 69.6085Z" fill="#444444"/>
<path d="M84.3347 98.7997C84.4703 98.814 84.543 98.8925 84.4569 99.3711C84.3602 99.9051 84.1999 99.962 84.0838 99.9261C83.9676 99.8902 83.892 99.698 83.9969 99.3255C84.1017 98.9531 84.1572 98.7811 84.3347 98.799V98.7997Z" fill="#444444"/>
<path d="M87.7669 99.7399C87.9025 99.7548 87.9744 99.8349 87.883 100.313C87.7811 100.846 87.62 100.901 87.5047 100.864C87.3885 100.827 87.3151 100.634 87.4238 100.263C87.5324 99.8917 87.5893 99.7197 87.7669 99.7399Z" fill="#444444"/>
<path d="M81.8468 113.41C79.0418 113.41 77.3494 110.593 76.9163 107.795C76.9126 107.771 76.9141 107.744 76.9216 107.72L78.8006 101.549C78.8275 101.46 78.9219 101.411 79.0111 101.437C79.1002 101.464 79.1504 101.558 79.1235 101.647L77.2557 107.781C77.5734 109.767 78.889 113.072 81.846 113.072C83.3444 113.066 83.9145 110.09 83.9205 110.06L85.0128 106.914C85.0436 106.826 85.1387 106.779 85.2279 106.81C85.3163 106.841 85.3627 106.937 85.332 107.025L84.2464 110.147C84.2277 110.256 83.6231 113.404 81.864 113.41H81.846H81.8468Z" fill="#444444"/>
<path d="M85.3366 107.137C84.8129 107.137 84.278 106.994 83.7768 106.86C83.6569 106.828 83.5378 106.796 83.4194 106.767C82.5841 106.557 81.9188 106.32 81.3247 106.024C80.7643 105.744 80.1297 105.427 79.8765 104.738C79.6188 104.04 79.7259 103.244 79.848 102.629C79.9327 102.203 80.0361 101.827 80.1634 101.479C80.4608 100.698 80.8931 99.5312 80.977 99.3038C80.9328 98.9965 80.8115 98.7025 80.6242 98.452C80.0076 97.6271 78.8336 97.4566 78.0058 98.0721C77.1794 98.6883 77.0086 99.861 77.6252 100.686C78.1488 101.387 79.0748 101.632 79.8735 101.281C79.9566 101.245 80.0585 101.283 80.096 101.368C80.1335 101.453 80.0945 101.553 80.0091 101.59C79.0636 102.004 77.972 101.714 77.354 100.887C76.6257 99.9126 76.8273 98.5283 77.8035 97.8006C78.7797 97.0737 80.1672 97.2756 80.8954 98.2493C81.1261 98.5582 81.2722 98.9224 81.3187 99.3023C81.3217 99.3293 81.3187 99.3562 81.3089 99.3809C81.3089 99.3809 80.8107 100.728 80.4811 101.595C80.3605 101.926 80.2616 102.286 80.1807 102.694C80.0668 103.266 79.9656 104.002 80.1941 104.621C80.4017 105.184 80.9486 105.458 81.4775 105.722C82.0491 106.008 82.6927 106.235 83.5041 106.439C83.6239 106.47 83.7445 106.501 83.8659 106.534C84.8174 106.789 85.8018 107.051 86.569 106.338C87.2935 105.667 87.5564 104.617 87.8104 103.602C87.8666 103.377 87.922 103.156 87.9812 102.945C88.1708 102.268 89.1882 97.6735 89.1987 97.6271C89.2189 97.5359 89.3103 97.476 89.4002 97.4985C89.4916 97.5187 89.5493 97.6084 89.529 97.6996C89.4871 97.8889 88.4997 102.351 88.3071 103.036C88.2479 103.244 88.194 103.462 88.1385 103.684C87.8846 104.698 87.5969 105.846 86.799 106.586C86.351 107.001 85.8505 107.137 85.3381 107.137H85.3366Z" fill="#444444"/>
<path d="M88.9461 99.3868C88.8675 99.3868 88.797 99.3315 88.7806 99.2522C88.7746 99.2245 88.6315 98.6143 87.7107 98.6143C87.7002 98.6143 87.686 98.6143 87.68 98.6143C87.5879 98.6143 87.5122 98.5402 87.5114 98.4482C87.5099 98.3548 87.5849 98.2785 87.6778 98.277C87.689 98.277 87.7002 98.277 87.7115 98.277C88.9207 98.277 89.111 99.1774 89.1132 99.1864C89.1312 99.2776 89.0713 99.3666 88.9799 99.3846C88.9686 99.3868 88.9581 99.3876 88.9476 99.3876L88.9461 99.3868Z" fill="#444444"/>
<path d="M83.5197 98.1169C83.4695 98.1169 83.42 98.0953 83.3863 98.0526C83.3294 97.9793 83.3414 97.8739 83.4155 97.8156C84.6644 96.8388 85.5372 97.7288 85.5462 97.7378C85.6107 97.8051 85.6077 97.912 85.5402 97.9763C85.4728 98.0399 85.3657 98.0384 85.3013 97.9704C85.269 97.9382 84.6225 97.2988 83.6231 98.081C83.5924 98.1057 83.5556 98.1169 83.5189 98.1169H83.5197Z" fill="#444444"/>
<path d="M88.8989 99.9903C88.845 99.9903 88.7925 99.9649 88.7596 99.9171C88.7071 99.8408 88.7258 99.7353 88.803 99.683C88.8217 99.6703 90.6715 98.3787 90.9165 96.491C91.0513 95.4552 90.6812 94.4216 89.8182 93.4195C88.8869 92.338 87.8448 91.7495 86.7218 91.6702C84.9477 91.546 83.5617 92.7419 83.5482 92.7546C83.4838 92.8107 83.3879 92.8107 83.3234 92.7531C83.2702 92.7053 81.9929 91.6029 79.57 92.537C77.1756 93.4599 78.2342 97.7355 78.2454 97.7781C78.2687 97.8686 78.2132 97.9606 78.1233 97.9838C78.0312 98.007 77.9405 97.9516 77.9173 97.8619C77.8693 97.6742 76.7778 93.252 79.4486 92.2229C81.6857 91.3606 83.044 92.1309 83.4343 92.4121C83.8112 92.1182 85.1132 91.2252 86.742 91.3344C87.9602 91.4197 89.0817 92.0471 90.0751 93.2004C91.0049 94.2795 91.4012 95.4021 91.2521 96.5374C90.9869 98.5754 89.0765 99.9058 88.9948 99.9619C88.9656 99.9821 88.9319 99.9911 88.8989 99.9911V99.9903Z" fill="#444444"/>
<path d="M83.9549 104.884C83.3833 104.884 82.8461 104.631 82.4708 104.18C82.0954 103.729 81.9598 103.09 82.1082 102.469C82.2071 102.052 82.4161 101.739 82.6663 101.63C82.9016 101.528 83.1368 101.546 83.3286 101.681C83.5676 101.849 83.7009 102.175 83.6777 102.532C83.6485 102.986 83.6815 103.027 83.7541 103.115C83.8276 103.202 83.8605 103.243 84.3138 103.296C84.6696 103.339 84.9663 103.529 85.0877 103.794C85.1851 104.007 85.1596 104.241 85.0165 104.454C84.8524 104.696 84.4831 104.861 84.0516 104.882C84.0193 104.884 83.9864 104.884 83.9542 104.884H83.9549ZM82.9637 101.902C82.912 101.902 82.8581 101.915 82.8004 101.939C82.679 101.992 82.5195 102.2 82.4371 102.547C82.3134 103.065 82.4228 103.594 82.7307 103.964C83.1967 104.525 83.7968 104.555 84.0358 104.545C84.3999 104.527 84.6547 104.386 84.7371 104.264C84.8142 104.15 84.8292 104.039 84.7813 103.934C84.7093 103.778 84.5108 103.659 84.2748 103.63C83.7384 103.567 83.635 103.497 83.4949 103.33C83.3556 103.161 83.3061 103.048 83.3413 102.509C83.3571 102.273 83.2754 102.056 83.1346 101.957C83.0829 101.921 83.0259 101.903 82.9645 101.903L82.9637 101.902Z" fill="#444444"/>
<path d="M82.763 104.413C82.7218 104.413 82.6806 104.398 82.6477 104.367C82.5802 104.303 82.5757 104.196 82.6394 104.128C83.516 103.192 82.4364 102.146 82.3899 102.102C82.3225 102.037 82.3195 101.93 82.3832 101.863C82.4484 101.795 82.5555 101.793 82.6222 101.856C83.1009 102.308 83.7715 103.413 82.8867 104.359C82.8529 104.394 82.8087 104.412 82.763 104.412V104.413Z" fill="#444444"/>
<path d="M78.2416 100.611C78.1637 100.611 78.094 100.557 78.0768 100.479C78.0566 100.387 78.1143 100.298 78.2057 100.278L79.7055 99.947L78.778 98.3749C78.7308 98.2949 78.7571 98.1917 78.838 98.1438C78.9181 98.0967 79.0215 98.1236 79.0695 98.2036L80.1153 99.9761C80.1431 100.022 80.1461 100.079 80.1251 100.129C80.1034 100.179 80.0592 100.215 80.0067 100.226L78.2798 100.607C78.2678 100.61 78.2551 100.61 78.2431 100.61L78.2416 100.611Z" fill="#444444"/>
<path d="M83.9924 94.0425C83.9288 94.0425 83.8681 94.0066 83.8396 93.9453L83.2815 92.7487C83.2417 92.6642 83.2785 92.5639 83.3631 92.5251C83.447 92.4839 83.5482 92.5213 83.5871 92.6066L84.1453 93.8032C84.185 93.8877 84.1483 93.9879 84.0636 94.0268C84.0404 94.038 84.0164 94.0425 83.9924 94.0425Z" fill="#444444"/>
<path d="M84.5333 102.275C84.4787 102.275 84.4247 102.249 84.3925 102.2C84.0958 101.752 83.2507 101.448 82.6334 101.226C82.3787 101.135 82.1584 101.055 82.0213 100.981C81.5284 100.714 81.7052 98.8558 81.8033 98.0698C81.81 98.0197 81.8378 97.9756 81.8797 97.9486C83.7355 96.7648 84.3273 94.7238 84.3333 94.7036C84.352 94.6363 84.4097 94.5884 84.4802 94.5817C84.5483 94.5757 84.6158 94.6116 84.6472 94.6737C84.6615 94.7021 86.1261 97.5298 89.7627 97.4775C89.8571 97.4775 89.9328 97.5508 89.9343 97.6435C89.9358 97.7363 89.8616 97.8133 89.7679 97.8148C89.7297 97.8148 89.6915 97.8155 89.6526 97.8155C86.6341 97.8155 85.054 95.9137 84.5386 95.1434C84.2839 95.7985 83.5924 97.2269 82.1292 98.1895C81.9816 99.4227 82.0048 100.579 82.1831 100.685C82.297 100.747 82.5068 100.823 82.748 100.909C83.4103 101.147 84.3168 101.472 84.6749 102.013C84.7259 102.091 84.7049 102.196 84.627 102.247C84.5978 102.266 84.5656 102.275 84.5341 102.275H84.5333Z" fill="#444444"/>
<path d="M88.0201 103.602C87.9751 103.602 87.9309 103.585 87.8972 103.55C87.4904 103.121 86.7637 103.129 86.7569 103.127C86.6625 103.127 86.5869 103.053 86.5861 102.96C86.5854 102.867 86.6595 102.79 86.7524 102.79C86.7899 102.79 87.635 102.784 88.1422 103.318C88.2066 103.385 88.2036 103.492 88.1354 103.556C88.1032 103.587 88.0613 103.603 88.0193 103.603L88.0201 103.602Z" fill="#444444"/>
<path d="M102.6 132.709C102.551 132.709 102.503 132.688 102.469 132.648L100.26 129.949C100.247 129.933 100.237 129.915 100.23 129.896C99.9427 129.043 99.9487 128.136 100.248 127.276L106.839 108.275C107.439 106.543 109.124 105.38 111.031 105.38H138.822C139.31 105.38 139.788 105.454 140.242 105.601C140.258 105.606 140.274 105.614 140.288 105.625L142.829 107.452C142.905 107.507 142.922 107.612 142.868 107.688C142.814 107.763 142.707 107.78 142.632 107.726L140.112 105.915C139.7 105.784 139.266 105.718 138.822 105.718H111.031C109.268 105.718 107.711 106.791 107.158 108.387L100.567 127.387C100.297 128.167 100.288 128.987 100.541 129.761L102.732 132.436C102.79 132.508 102.78 132.615 102.708 132.674C102.677 132.7 102.639 132.712 102.601 132.712L102.6 132.709Z" fill="#444444"/>
<path d="M133.48 133.981H105.689C104.228 133.981 102.864 133.292 102.04 132.136C101.257 131.039 101.059 129.686 101.497 128.424L108.088 109.423C108.688 107.691 110.373 106.528 112.28 106.528H140.072C141.532 106.528 142.897 107.218 143.721 108.373C144.504 109.471 144.702 110.824 144.263 112.086L137.673 131.086C137.073 132.819 135.388 133.981 133.48 133.981ZM112.28 106.864C110.517 106.864 108.961 107.937 108.407 109.533L101.816 128.533C101.415 129.691 101.597 130.932 102.315 131.94C103.077 133.006 104.337 133.643 105.69 133.643H133.481C135.245 133.643 136.801 132.571 137.354 130.975L143.945 111.974C144.346 110.817 144.164 109.575 143.446 108.568C142.685 107.501 141.424 106.864 140.072 106.864H112.28Z" fill="#444444"/>
<path d="M164.109 123.688H140.119C140.026 123.688 139.95 123.612 139.95 123.519C139.95 123.427 140.026 123.351 140.119 123.351H164.109C164.202 123.351 164.278 123.427 164.278 123.519C164.278 123.612 164.202 123.688 164.109 123.688Z" fill="#444444"/>
<path d="M49.4376 123.688H22.1686C22.0749 123.688 22 123.612 22 123.519C22 123.427 22.0757 123.351 22.1686 123.351H49.4376C49.5312 123.351 49.6061 123.427 49.6061 123.519C49.6061 123.612 49.5305 123.688 49.4376 123.688Z" fill="#444444"/>
<path d="M82.5016 123.688H79.5408C79.4479 123.688 79.3722 123.612 79.3722 123.519C79.3722 123.427 79.4479 123.351 79.5408 123.351H82.5016C82.5945 123.351 82.6702 123.427 82.6702 123.519C82.6702 123.612 82.5945 123.688 82.5016 123.688Z" fill="#444444"/>
<path d="M151.057 60.109C150.954 60.103 150.882 60.023 150.888 59.9302C150.888 59.9272 150.902 59.7148 150.902 59.3364C150.902 59.2235 150.901 59.0956 150.898 58.955C150.896 58.8623 150.97 58.7852 151.064 58.783C151.167 58.783 151.234 58.8548 151.236 58.9483C151.239 59.0919 151.24 59.222 151.24 59.3372C151.24 59.7313 151.225 59.9519 151.225 59.9519C151.22 60.0409 151.146 60.1097 151.057 60.1097V60.109ZM150.937 57.1788C150.852 57.1788 150.779 57.1152 150.769 57.0285C150.7 56.389 150.604 55.7466 150.482 55.1199C150.465 55.0286 150.525 54.9404 150.616 54.9224C150.712 54.906 150.797 54.9651 150.814 55.0563C150.937 55.692 151.035 56.3434 151.105 56.9926C151.115 57.0853 151.048 57.1683 150.956 57.178C150.949 57.1788 150.943 57.1788 150.937 57.1788ZM150.201 53.3661C150.127 53.3661 150.059 53.3175 150.038 53.2434C149.861 52.619 149.657 52.0042 149.429 51.4156C149.395 51.3289 149.439 51.2309 149.526 51.1972C149.612 51.1643 149.711 51.207 149.744 51.2937C149.975 51.892 150.183 52.5172 150.363 53.1515C150.389 53.2412 150.336 53.3339 150.246 53.3594C150.231 53.3638 150.216 53.3653 150.201 53.3653V53.3661ZM110.783 50.6962C110.748 50.6962 110.713 50.6849 110.682 50.6625C110.607 50.6064 110.592 50.501 110.649 50.4262C110.667 50.4022 111.101 49.8256 111.939 48.9386C112.003 48.8706 112.11 48.8676 112.178 48.9319C112.245 48.9955 112.248 49.1024 112.184 49.1705C111.361 50.0418 110.923 50.6229 110.918 50.6289C110.885 50.673 110.834 50.6962 110.783 50.6962ZM148.796 49.7486C148.734 49.7486 148.674 49.7149 148.645 49.6566C148.352 49.0793 148.027 48.5198 147.681 47.9933C147.63 47.9155 147.652 47.8108 147.73 47.76C147.807 47.7091 147.912 47.7301 147.964 47.8086C148.317 48.3456 148.648 48.9162 148.946 49.504C148.989 49.5871 148.956 49.6888 148.872 49.7307C148.848 49.7434 148.822 49.7486 148.796 49.7486ZM113.445 47.8542C113.4 47.8542 113.355 47.8363 113.321 47.8004C113.258 47.7323 113.262 47.6254 113.33 47.5618C113.806 47.1206 114.302 46.689 114.806 46.2777C114.878 46.2194 114.983 46.2291 115.044 46.3016C115.103 46.3734 115.093 46.4796 115.02 46.5387C114.522 46.9448 114.031 47.3726 113.56 47.8086C113.527 47.8385 113.487 47.8535 113.445 47.8535L113.445 47.8542ZM146.663 46.5125C146.615 46.5125 146.567 46.4923 146.533 46.4527C146.122 45.9636 145.675 45.4962 145.209 45.0639C145.141 45.0003 145.137 44.8941 145.2 44.8253C145.263 44.7573 145.37 44.7535 145.439 44.8163C145.916 45.2583 146.371 45.7362 146.793 46.2358C146.852 46.3069 146.843 46.4131 146.772 46.4736C146.74 46.5006 146.701 46.5133 146.663 46.5133V46.5125ZM116.457 45.3952C116.405 45.3952 116.353 45.3705 116.32 45.3249C116.265 45.2494 116.283 45.1439 116.358 45.0893C116.89 44.7079 117.437 44.3422 117.984 44.0019C118.061 43.9533 118.167 43.9765 118.217 44.0557C118.266 44.135 118.242 44.239 118.163 44.2883C117.622 44.6249 117.082 44.9861 116.556 45.363C116.526 45.3847 116.492 45.3944 116.457 45.3944V45.3952ZM143.821 43.8807C143.787 43.8807 143.752 43.8703 143.722 43.8493C143.207 43.4799 142.661 43.1351 142.098 42.8255C142.016 42.7806 141.987 42.6774 142.032 42.5959C142.078 42.5136 142.181 42.4852 142.262 42.5301C142.837 42.8464 143.394 43.1979 143.92 43.5756C143.996 43.6302 144.013 43.7357 143.958 43.8112C143.925 43.8568 143.874 43.8815 143.821 43.8815V43.8807ZM119.758 43.343C119.697 43.343 119.64 43.3109 119.609 43.254C119.565 43.1718 119.596 43.0693 119.679 43.0259C120.255 42.7193 120.847 42.4314 121.438 42.1688C121.523 42.1307 121.623 42.1696 121.661 42.2541C121.699 42.3394 121.661 42.4388 121.576 42.477C120.993 42.7357 120.408 43.0207 119.837 43.3236C119.813 43.337 119.785 43.343 119.758 43.343ZM140.43 42.0081C140.409 42.0081 140.387 42.0043 140.366 41.9953C139.786 41.7553 139.176 41.5399 138.553 41.3537C138.463 41.3267 138.412 41.2325 138.439 41.1435C138.466 41.0545 138.561 41.0044 138.65 41.0306C139.284 41.2205 139.905 41.4397 140.496 41.6842C140.582 41.7201 140.623 41.8188 140.587 41.9048C140.56 41.9699 140.497 42.0088 140.431 42.0088L140.43 42.0081ZM123.311 41.7695C123.242 41.7695 123.176 41.7269 123.152 41.6573C123.12 41.5698 123.166 41.4733 123.254 41.4419C123.867 41.2228 124.495 41.0253 125.121 40.8556C125.213 40.8294 125.304 40.884 125.328 40.9737C125.353 41.0635 125.3 41.1562 125.21 41.1809C124.593 41.3492 123.973 41.5436 123.368 41.7598C123.349 41.7665 123.329 41.7695 123.311 41.7695ZM136.717 40.8885C136.705 40.8885 136.693 40.8877 136.681 40.8847C136.048 40.7516 135.407 40.6417 134.778 40.5572C134.685 40.5452 134.62 40.4599 134.632 40.368C134.645 40.2752 134.729 40.2102 134.822 40.2229C135.46 40.3081 136.109 40.4196 136.75 40.5542C136.842 40.5736 136.9 40.6626 136.881 40.7539C136.864 40.8331 136.794 40.8877 136.715 40.8877L136.717 40.8885ZM127.06 40.7516C126.98 40.7516 126.908 40.6955 126.894 40.614C126.877 40.522 126.937 40.4345 127.029 40.4166C127.669 40.2962 128.321 40.2012 128.966 40.1331C129.066 40.1264 129.142 40.1915 129.151 40.2834C129.16 40.3762 129.094 40.4592 129 40.4689C128.365 40.5355 127.723 40.6297 127.091 40.7486C127.081 40.7509 127.069 40.7516 127.06 40.7516ZM132.865 40.3754C132.396 40.35 131.94 40.3433 131.478 40.3373C131.293 40.3373 131.108 40.3395 130.925 40.344C130.829 40.335 130.753 40.273 130.752 40.1795C130.749 40.086 130.823 40.009 130.916 40.0067C131.111 40.0022 131.306 40.0007 131.505 40C131.956 40 132.416 40.0127 132.874 40.0381C132.967 40.0434 133.038 40.1227 133.034 40.2154C133.028 40.3051 132.954 40.3747 132.865 40.3747V40.3754Z" fill="#444444"/>
<path d="M72.7074 90.4168C70.6082 90.4168 68.9008 88.7131 68.9008 86.619C68.9008 84.525 70.6082 82.8198 72.7074 82.8198C74.8066 82.8198 76.5118 84.5235 76.5118 86.619C76.5118 88.7146 74.8052 90.4168 72.7074 90.4168ZM72.7074 83.1571C70.7947 83.1571 69.2387 84.7097 69.2387 86.619C69.2387 88.5284 70.7947 90.0795 72.7074 90.0795C74.6201 90.0795 76.1739 88.5269 76.1739 86.619C76.1739 84.7112 74.6186 83.1571 72.7074 83.1571Z" fill="#444444"/>
<path d="M55.1801 111.657H45.0293C41.2287 111.657 38.136 108.571 38.136 104.777V83.6724C38.136 79.8784 41.2279 76.7911 45.0293 76.7911H55.4251C55.518 76.7911 55.5936 76.8667 55.5936 76.9594C55.5936 77.0521 55.518 77.1277 55.4251 77.1277H45.0293C41.4145 77.1277 38.4739 80.0631 38.4739 83.6716V104.776C38.4739 108.384 41.4145 111.319 45.0293 111.319H55.1801C55.273 111.319 55.3486 111.395 55.3486 111.487C55.3486 111.58 55.273 111.656 55.1801 111.656V111.657ZM84.4225 89.0683C84.3296 89.0683 84.2539 88.9928 84.2539 88.9V83.6724C84.2539 80.0639 81.3141 77.1284 77.7007 77.1284H66.3542C66.2613 77.1284 66.1857 77.0529 66.1857 76.9602C66.1857 76.8674 66.2613 76.7919 66.3542 76.7919H77.7007C81.5006 76.7919 84.5918 79.8791 84.5918 83.6731V88.9008C84.5918 88.9935 84.5161 89.0691 84.4232 89.0691L84.4225 89.0683Z" fill="#444444"/>
<path d="M85.8909 103.127C85.8227 103.127 85.7583 103.085 85.7328 103.018C85.7006 102.931 85.7441 102.833 85.8317 102.8C86.6184 102.506 86.5734 102.368 86.3831 101.788C86.3509 101.693 86.3172 101.588 86.2842 101.474C86.0393 100.628 86.4371 99.1445 86.4543 99.0817C86.479 98.992 86.5704 98.9396 86.6618 98.9636C86.7517 98.9882 86.8049 99.0802 86.7802 99.1707C86.7765 99.1849 86.3899 100.627 86.6086 101.381C86.6409 101.49 86.6731 101.591 86.7038 101.684C86.9188 102.337 86.99 102.727 85.9509 103.117C85.9314 103.123 85.9111 103.127 85.8917 103.127H85.8909Z" fill="#444444"/>
<path d="M123.455 123C123.164 123 122.892 122.932 122.649 122.792C122.132 122.493 121.823 121.917 121.779 121.167C121.736 120.444 121.947 119.64 122.373 118.903C122.799 118.168 123.39 117.583 124.039 117.258C124.712 116.921 125.366 116.901 125.883 117.198C126.4 117.497 126.71 118.073 126.754 118.823C126.797 119.546 126.585 120.35 126.16 121.086C125.734 121.822 125.142 122.407 124.494 122.732C124.136 122.911 123.783 123 123.455 123ZM125.078 117.328C124.801 117.328 124.5 117.405 124.191 117.56C123.601 117.856 123.06 118.393 122.666 119.073C122.273 119.752 122.078 120.49 122.116 121.148C122.153 121.78 122.403 122.261 122.819 122.5C123.236 122.74 123.777 122.715 124.343 122.431C124.933 122.135 125.474 121.598 125.868 120.918C126.261 120.239 126.456 119.502 126.418 118.844C126.381 118.212 126.131 117.731 125.715 117.491C125.525 117.382 125.31 117.328 125.079 117.328H125.078Z" fill="#444444"/>
<path d="M45.9598 77.3491C45.8826 77.3491 45.8129 77.2967 45.7957 77.2182C45.789 77.1883 45.6249 76.4681 45.5103 75.2752C45.5013 75.1825 45.5695 75.1002 45.6624 75.0912C45.7568 75.0852 45.8377 75.1503 45.8467 75.243C45.959 76.412 46.1231 77.1352 46.1254 77.1427C46.1463 77.2331 46.0894 77.3236 45.9987 77.3446C45.986 77.3476 45.9733 77.3491 45.9605 77.3491H45.9598ZM45.5747 73.4893C45.4825 73.4893 45.4069 73.4152 45.4061 73.3225L45.4046 73.042C45.4046 72.4811 45.4249 71.9187 45.4646 71.3683C45.4713 71.2748 45.5522 71.2037 45.6451 71.212C45.738 71.2187 45.8084 71.2995 45.8017 71.3922C45.762 71.9344 45.7425 72.4893 45.7425 73.0413L45.744 73.3187C45.7448 73.4115 45.6706 73.4878 45.5769 73.4893H45.5754H45.5747ZM45.8586 69.6205C45.8497 69.6205 45.8407 69.6197 45.8309 69.6182C45.7388 69.6033 45.6758 69.5165 45.6916 69.4245C45.798 68.7731 45.9358 68.1292 46.0999 67.51C46.1239 67.4202 46.216 67.3671 46.3067 67.3903C46.3966 67.4142 46.4505 67.507 46.4265 67.5967C46.2647 68.2055 46.1291 68.839 46.0242 69.4791C46.0107 69.5622 45.9388 69.6205 45.8579 69.6205H45.8586ZM46.8603 65.8751C46.8401 65.8751 46.8199 65.8714 46.7996 65.8639C46.7127 65.831 46.6693 65.733 46.7022 65.6463C46.9375 65.0322 47.2087 64.431 47.5069 63.8588C47.5503 63.7766 47.6522 63.7437 47.7346 63.787C47.8178 63.8304 47.85 63.9321 47.8065 64.0144C47.5144 64.5753 47.2484 65.1646 47.0176 65.7667C46.9922 65.834 46.9277 65.8751 46.8603 65.8751ZM48.6554 62.4416C48.6224 62.4416 48.5894 62.4319 48.5602 62.4124C48.4831 62.3601 48.4636 62.2546 48.516 62.1776C48.8846 61.6399 49.2907 61.1186 49.7222 60.6302C49.7836 60.5599 49.8908 60.554 49.9605 60.6153C50.0301 60.6766 50.0376 60.7836 49.9754 60.8531C49.5529 61.3317 49.1558 61.8411 48.7947 62.3676C48.7618 62.4154 48.7093 62.4409 48.6546 62.4409L48.6554 62.4416ZM51.2183 59.5353C51.1719 59.5353 51.1254 59.5166 51.0925 59.4793C51.0303 59.4097 51.0363 59.3028 51.106 59.2407C51.3352 59.0373 51.5727 58.8368 51.8184 58.6401C52.0912 58.4232 52.3639 58.2161 52.6388 58.0186C52.7137 57.964 52.8201 57.9812 52.8748 58.0568C52.9295 58.1323 52.9123 58.2378 52.8366 58.2924C52.5669 58.4868 52.2979 58.6902 52.0297 58.9034C51.7885 59.0956 51.5555 59.2923 51.3315 59.492C51.2993 59.5211 51.2588 59.5346 51.2191 59.5346L51.2183 59.5353ZM54.3687 57.27C54.3102 57.27 54.2533 57.2401 54.2218 57.1863C54.1754 57.1055 54.2031 57.0023 54.2833 56.9559C54.8504 56.6283 55.4378 56.3284 56.0296 56.0644C56.115 56.0263 56.2139 56.0644 56.2529 56.1497C56.2911 56.235 56.2529 56.3344 56.1675 56.3726C55.5869 56.6321 55.01 56.9267 54.4533 57.2483C54.4264 57.264 54.3979 57.2708 54.3687 57.2708V57.27ZM71.2786 56.0831C71.2584 56.0831 71.2389 56.0801 71.2195 56.0727C70.6463 55.8588 70.0275 55.6628 69.3802 55.4923C69.2903 55.4684 69.2364 55.3756 69.2603 55.2859C69.2843 55.1961 69.3787 55.143 69.4671 55.1662C70.1241 55.3405 70.7542 55.5394 71.3378 55.7571C71.4247 55.79 71.4697 55.8872 71.4367 55.9739C71.4113 56.0413 71.3468 56.0831 71.2786 56.0831ZM57.9131 55.689C57.8419 55.689 57.7753 55.6434 57.7528 55.5723C57.7236 55.4841 57.7723 55.3884 57.8607 55.3599C58.4787 55.1588 59.1163 54.9882 59.7546 54.8529C59.8483 54.8312 59.9359 54.8918 59.9554 54.983C59.9749 55.0742 59.9164 55.1632 59.825 55.1827C59.1972 55.3166 58.5716 55.4841 57.9648 55.6808C57.9476 55.6868 57.9296 55.689 57.9124 55.689H57.9131ZM67.5237 55.0832C67.514 55.0832 67.505 55.0832 67.4945 55.081C66.8584 54.971 66.2141 54.8895 65.5803 54.8372C65.4874 54.8297 65.4185 54.7482 65.426 54.6554C65.4342 54.5627 65.5069 54.4931 65.608 54.5014C66.2516 54.5545 66.9056 54.6382 67.5522 54.7497C67.6436 54.7654 67.7058 54.8529 67.69 54.9441C67.6758 55.0264 67.6046 55.084 67.5237 55.084V55.0832ZM61.7107 54.8798C61.6253 54.8798 61.5519 54.8162 61.5429 54.7295C61.5332 54.6367 61.5999 54.5537 61.6928 54.544C62.3333 54.4744 62.9919 54.4363 63.6496 54.4296C63.7605 54.4258 63.819 54.5036 63.8197 54.5963C63.8205 54.6898 63.7463 54.7654 63.6526 54.7669C63.0061 54.7736 62.358 54.8117 61.728 54.8798C61.722 54.8798 61.716 54.8805 61.71 54.8805L61.7107 54.8798Z" fill="#444444"/>
<path d="M38.3076 99.2656C38.2492 99.2656 38.193 99.2357 38.1615 99.1818C38.1143 99.1011 38.1421 98.9979 38.2222 98.9508C38.6081 98.7264 47.698 93.4449 49.4331 92.7217C51.2244 91.9745 53.3798 91.632 56.9834 94.1539C60.3668 96.5224 63.1628 98.318 66.0059 98.1774C67.0653 98.1228 68.4805 97.6644 69.9774 97.179C72.3965 96.3945 75.1393 95.5045 77.1599 96.0961C77.2498 96.1223 77.3007 96.2158 77.2745 96.3048C77.2483 96.3938 77.1539 96.4469 77.0655 96.4192C75.1445 95.8605 72.4549 96.7303 70.0823 97.4999C68.5629 97.992 67.1275 98.4579 66.0232 98.5147C63.0893 98.6523 60.2274 96.8365 56.7894 94.4306C53.1476 91.8803 51.1495 92.3717 49.5635 93.0335C47.8493 93.7485 38.4874 99.1878 38.393 99.2424C38.3661 99.2581 38.3376 99.2656 38.3084 99.2656H38.3076Z" fill="#444444"/>
<path d="M134.044 105.531C133.951 105.531 133.875 105.455 133.875 105.362V98.2762C133.875 98.1834 133.951 98.1079 134.044 98.1079C134.136 98.1079 134.212 98.1834 134.212 98.2762V105.362C134.212 105.455 134.136 105.531 134.044 105.531Z" fill="#444444"/>
<path d="M125.056 100.124C124.963 100.124 124.888 100.049 124.888 99.9559V98.2755C124.888 98.1827 124.963 98.1072 125.056 98.1072C125.149 98.1072 125.225 98.1827 125.225 98.2755V99.9559C125.225 100.049 125.149 100.124 125.056 100.124Z" fill="#444444"/>
<path d="M125.056 100.794C124.963 100.794 124.888 100.718 124.888 100.625V99.956C124.888 99.8633 124.963 99.7877 125.056 99.7877C125.149 99.7877 125.225 99.8633 125.225 99.956V100.625C125.225 100.718 125.149 100.794 125.056 100.794Z" fill="#444444"/>
<path d="M129.55 99.2552C129.36 99.2552 124.888 99.2447 124.888 98.3413C124.888 97.4378 129.36 97.4274 129.55 97.4274C129.74 97.4274 134.212 97.4378 134.212 98.3413C134.212 99.2447 129.74 99.2552 129.55 99.2552ZM125.231 98.3413C125.387 98.5552 126.911 98.9179 129.55 98.9179C132.188 98.9179 133.775 98.5402 133.876 98.3278C133.774 98.1416 132.242 97.7639 129.55 97.7639C126.858 97.7639 125.387 98.1266 125.231 98.3405V98.3413Z" fill="#444444"/>
<path d="M130.189 103.239C130.119 103.239 130.054 103.196 130.029 103.127C129.999 103.039 130.044 102.943 130.133 102.912C130.193 102.89 130.244 102.801 130.28 102.654C130.412 102.111 130.35 101.21 129.638 100.949C129.361 100.847 129.034 100.88 128.719 100.913L128.667 100.918C127.895 100.996 127.113 101.019 126.342 100.988L126.242 100.984C125.794 100.967 125.287 100.948 124.838 100.785C124.751 100.753 124.705 100.657 124.737 100.569C124.769 100.481 124.869 100.436 124.954 100.468C125.352 100.613 125.811 100.631 126.253 100.647L126.355 100.651C127.11 100.683 127.877 100.657 128.633 100.583L128.685 100.577C129.039 100.541 129.403 100.504 129.755 100.633C130.578 100.935 130.807 101.918 130.609 102.734C130.584 102.834 130.511 103.137 130.246 103.231C130.227 103.238 130.208 103.241 130.19 103.241L130.189 103.239Z" fill="#444444"/>
<path d="M130.397 105.664C130.346 105.664 130.295 105.641 130.262 105.597C130.206 105.522 130.22 105.417 130.295 105.361C130.362 105.309 130.419 105.253 130.468 105.188C130.773 104.785 130.871 104.249 130.727 103.788C130.657 103.564 130.53 103.386 130.378 103.3C130.26 103.235 130.206 103.253 130.047 103.309L129.987 103.331C129.65 103.446 129.278 103.526 128.814 103.581C127.514 103.736 126.239 103.695 124.685 103.446C124.593 103.431 124.53 103.345 124.545 103.253C124.56 103.161 124.638 103.096 124.739 103.113C126.26 103.356 127.505 103.396 128.774 103.245C129.213 103.193 129.563 103.119 129.876 103.011L129.933 102.991C130.117 102.925 130.29 102.864 130.544 103.006C130.77 103.133 130.954 103.381 131.05 103.686C131.226 104.25 131.107 104.902 130.738 105.389C130.671 105.479 130.59 105.559 130.498 105.629C130.468 105.652 130.432 105.663 130.396 105.663L130.397 105.664Z" fill="#444444"/>
<path d="M124.174 99.8984C124.162 99.8984 124.15 99.8977 124.139 99.8947C124.061 99.879 116.285 98.2897 109.517 99.8012C109.422 99.8229 109.334 99.7638 109.315 99.6733C109.295 99.5821 109.352 99.4923 109.443 99.4721C116.283 97.9435 124.13 99.5484 124.208 99.5649C124.3 99.5836 124.358 99.6733 124.339 99.7645C124.323 99.8438 124.252 99.8992 124.174 99.8992V99.8984Z" fill="#444444"/>
<path d="M122.272 105.531C122.179 105.531 122.104 105.455 122.104 105.362C122.104 102.549 122.762 100.481 123.911 99.6897C124.256 99.4519 124.972 99.2096 125.003 99.1991C125.091 99.17 125.188 99.2163 125.217 99.3053C125.246 99.3936 125.199 99.4886 125.11 99.5185C125.103 99.5207 124.409 99.757 124.102 99.9672C123.047 100.694 122.441 102.661 122.441 105.362C122.441 105.455 122.365 105.531 122.272 105.531Z" fill="#444444"/>
<path d="M138.592 105.716C138.518 105.716 138.45 105.667 138.429 105.592C135.265 94.1292 136.428 88.1035 136.44 88.0437C136.458 87.9532 136.549 87.8926 136.639 87.9121C136.73 87.9308 136.79 88.0198 136.771 88.1103C136.759 88.1694 135.615 94.1277 138.754 105.501C138.779 105.591 138.727 105.684 138.636 105.709C138.621 105.712 138.606 105.715 138.591 105.715L138.592 105.716Z" fill="#444444"/>
<path d="M128.626 70.0894C128.491 70.0685 128.401 70.1261 128.362 70.6114C128.318 71.1521 128.459 71.2479 128.58 71.2426C128.702 71.2374 128.824 71.0706 128.818 70.684C128.812 70.2973 128.802 70.1171 128.625 70.0887L128.626 70.0894Z" fill="#444444"/>
<path d="M124.678 70.1336C124.542 70.1156 124.454 70.1762 124.428 70.6623C124.398 71.2045 124.542 71.2958 124.663 71.2883C124.784 71.28 124.902 71.1103 124.885 70.7236C124.87 70.3377 124.855 70.1567 124.677 70.1336H124.678Z" fill="#444444"/>
<path d="M132.505 78.9106C132.415 78.9106 132.341 78.8411 132.336 78.7506L132.091 73.8931C132.087 73.8004 132.159 73.7211 132.251 73.7166C132.358 73.7017 132.424 73.7839 132.429 73.8767L132.674 78.7341C132.679 78.8269 132.607 78.9061 132.514 78.9106C132.511 78.9106 132.508 78.9106 132.505 78.9106H132.505Z" fill="#444444"/>
<path d="M126.405 78.0071C125.501 78.0071 124.559 77.8995 123.976 77.0125C123.379 76.1038 123.375 74.9184 123.371 73.8736C123.371 73.6455 123.37 73.4212 123.363 73.205C123.341 72.4938 123.453 67.9265 123.458 67.732C123.46 67.6393 123.533 67.5742 123.631 67.5675C123.724 67.5697 123.798 67.6468 123.795 67.7403C123.795 67.7874 123.679 72.4923 123.701 73.1945C123.708 73.4137 123.709 73.641 123.709 73.8721C123.712 74.9192 123.716 76.0021 124.258 76.827C124.833 77.7028 125.851 77.6818 126.836 77.6639C126.961 77.6616 127.087 77.6586 127.209 77.6586C128.046 77.6549 128.725 77.5876 129.349 77.447C129.446 77.4268 129.53 77.4844 129.551 77.5749C129.572 77.6654 129.515 77.7559 129.424 77.7768C128.775 77.9226 128.073 77.9929 127.212 77.9967C127.09 77.9974 126.967 77.9997 126.842 78.0019C126.699 78.0049 126.552 78.0079 126.404 78.0079L126.405 78.0071Z" fill="#444444"/>
<path d="M133.109 74.2431C132.637 74.2431 132.165 74.0913 131.767 73.7854C131.693 73.7286 131.678 73.6231 131.735 73.5491C131.792 73.4751 131.899 73.4608 131.972 73.5177C132.666 74.0494 133.623 74.033 134.298 73.478C134.684 73.1609 134.924 72.713 134.973 72.2171C135.021 71.7205 134.874 71.2352 134.556 70.85C134.238 70.4648 133.79 70.2255 133.293 70.1769C132.795 70.1276 132.308 70.2756 131.923 70.5927C131.67 70.7999 131.475 71.0691 131.361 71.3728C131.328 71.4603 131.228 71.5029 131.143 71.4707C131.056 71.4378 131.011 71.3406 131.045 71.2531C131.181 70.8949 131.41 70.5763 131.708 70.3317C132.164 69.9578 132.74 69.7835 133.326 69.8411C133.913 69.8987 134.443 70.1807 134.818 70.6354C135.192 71.0901 135.367 71.6637 135.309 72.25C135.252 72.8364 134.969 73.3651 134.513 73.7391C134.104 74.0749 133.607 74.2431 133.109 74.2431Z" fill="#444444"/>
<path d="M123.658 69.5135C123.634 69.5135 123.61 69.5083 123.587 69.4978C123.503 69.4582 123.466 69.358 123.505 69.2735C123.508 69.2652 123.915 68.4209 125.116 68.7343C125.206 68.7574 125.26 68.8502 125.237 68.9399C125.213 69.0297 125.123 69.0843 125.031 69.0603C124.104 68.8195 123.815 69.4096 123.812 69.4156C123.783 69.4769 123.722 69.5128 123.658 69.5128V69.5135Z" fill="#444444"/>
<path d="M129.482 69.6085C129.431 69.6085 129.382 69.5861 129.348 69.5442C128.564 68.5435 127.779 69.0155 127.746 69.0349C127.667 69.0835 127.564 69.0611 127.513 68.9826C127.463 68.904 127.486 68.8008 127.564 68.7507C127.575 68.7432 128.636 68.0881 129.614 69.3363C129.672 69.4096 129.658 69.5158 129.585 69.5734C129.554 69.5973 129.518 69.6093 129.481 69.6093L129.482 69.6085Z" fill="#444444"/>
<path d="M125.962 78.8784C125.869 78.8784 125.794 78.8029 125.794 78.7102V77.8292C125.794 77.7357 125.869 77.6609 125.962 77.6609C126.055 77.6609 126.131 77.7364 126.131 77.8292V78.7102C126.131 78.8036 126.055 78.8784 125.962 78.8784Z" fill="#444444"/>
<path d="M134.562 70.6525C134.495 70.6525 134.431 70.6122 134.405 70.5456C134.371 70.4588 134.414 70.3609 134.501 70.3265C134.497 70.3265 135.012 69.969 135.318 67.2594C135.508 65.5774 134.495 64.6299 133.766 64.4033C132.374 63.9702 130.595 64.1662 130.577 64.1677C130.513 64.1744 130.439 64.1393 130.407 64.0764C129.45 62.1866 128.212 61.4865 127.342 61.2315C126.362 60.9443 125.336 61.073 124.451 61.5927C123.526 62.1365 122.953 62.8275 122.75 63.6479C122.421 64.9672 123.158 66.1832 123.165 66.1952C123.204 66.258 123.198 66.3388 123.149 66.3941C123.1 66.4502 123.022 66.4682 122.953 66.4375C122.714 66.335 122.527 66.6641 122.475 66.7681C122.103 67.5152 122.216 68.993 123.642 69.7932C123.723 69.8389 123.752 69.9421 123.706 70.0228C123.66 70.1051 123.556 70.132 123.476 70.0872C121.859 69.18 121.743 67.4808 122.173 66.6177C122.316 66.3306 122.517 66.1488 122.732 66.0957C122.513 65.632 122.153 64.6418 122.421 63.5656C122.648 62.654 123.272 61.8926 124.279 61.3011C125.245 60.7334 126.366 60.5928 127.437 60.9069C128.355 61.1754 129.651 61.9001 130.656 63.8199C131.087 63.7818 132.599 63.6861 133.866 64.0794C134.899 64.401 135.844 65.6089 135.653 67.2961C135.322 70.224 134.737 70.595 134.623 70.6391C134.602 70.6466 134.581 70.6503 134.561 70.6503L134.562 70.6525Z" fill="#444444"/>
<path d="M126.451 73.6463C126.34 73.6463 125.358 73.6359 125.027 73.2836C124.939 73.1901 124.897 73.0764 124.906 72.9553C124.918 72.7728 125.013 72.5223 125.134 72.2044C125.396 71.5171 125.754 70.5763 125.532 69.6818C125.51 69.5913 125.565 69.5001 125.656 69.4776C125.744 69.4545 125.838 69.5106 125.86 69.601C126.107 70.5972 125.712 71.6368 125.45 72.3241C125.344 72.6038 125.252 72.8453 125.243 72.977C125.242 72.9972 125.244 73.0203 125.274 73.0525C125.44 73.229 126.062 73.309 126.451 73.309C126.544 73.309 126.62 73.3846 126.62 73.4773C126.62 73.57 126.544 73.6456 126.451 73.6456L126.451 73.6463Z" fill="#444444"/>
<path d="M133.757 73.2626C133.731 73.2626 133.706 73.2574 133.682 73.2454L132.097 72.4624C132.048 72.4385 132.015 72.3928 132.006 72.3397C131.996 72.2866 132.014 72.232 132.051 72.1932L133.492 70.7228C133.557 70.6563 133.664 70.6555 133.731 70.7198C133.798 70.7849 133.799 70.8918 133.733 70.9584L132.455 72.2627L133.832 72.9425C133.915 72.9837 133.95 73.0854 133.908 73.1684C133.879 73.2275 133.819 73.2619 133.757 73.2619V73.2626Z" fill="#444444"/>
<path d="M130.001 65.3292C129.976 65.3292 129.951 65.324 129.927 65.3127C129.844 65.2724 129.808 65.1714 129.848 65.0876L130.405 63.9277C130.446 63.8432 130.545 63.808 130.631 63.8484C130.715 63.8888 130.751 63.9897 130.71 64.0735L130.153 65.2335C130.124 65.294 130.063 65.3292 130.001 65.3292Z" fill="#444444"/>
<path d="M146.192 123.006C146.141 123.006 146.091 122.982 146.059 122.941C146.042 122.919 144.303 120.677 142.252 117.028C142.206 116.947 142.235 116.844 142.316 116.798C142.398 116.753 142.501 116.782 142.546 116.863C144.382 120.132 145.965 122.259 146.272 122.663C149.39 122.463 153.154 119.669 153.773 119.194C153.162 117.011 152.557 114.826 151.957 112.64C150.074 105.792 148.484 99.6352 147.095 93.8152C146.963 93.2632 146.846 92.6993 146.728 92.131C146.273 89.9442 145.804 87.6833 144.449 85.9116C142.278 83.0704 138.191 81.0048 134.512 80.8866C134.419 80.8836 134.345 80.8058 134.348 80.7131C134.351 80.6218 134.426 80.55 134.517 80.55C138.296 80.6712 142.489 82.7914 144.718 85.7067C146.119 87.5397 146.597 89.8387 147.059 92.0621C147.177 92.6275 147.294 93.1885 147.424 93.7366C148.812 99.5536 150.401 105.707 152.283 112.55C152.893 114.772 153.508 116.993 154.13 119.212C154.148 119.277 154.126 119.346 154.073 119.389C153.897 119.529 149.716 122.834 146.201 123.005H146.193L146.192 123.006Z" fill="#444444"/>
<path d="M106.998 108.498C106.96 108.498 106.921 108.485 106.889 108.459C103.075 105.269 105.033 100.372 107.163 96.4633C107.471 95.8994 107.811 95.1515 108.204 94.2862C110.44 89.363 114.604 80.2 124.838 80.2C124.931 80.2 125.007 80.2755 125.007 80.3682C125.007 80.461 124.931 80.5365 124.838 80.5365C114.822 80.5365 110.872 89.2298 108.511 94.4246C108.116 95.2966 107.773 96.049 107.46 96.6241C105.39 100.42 103.48 105.167 107.106 108.199C107.177 108.259 107.187 108.365 107.127 108.437C107.093 108.476 107.046 108.497 106.997 108.497L106.998 108.498Z" fill="#444444"/>
<path d="M131.563 70.8777C131.543 70.8777 131.522 70.8739 131.501 70.8664C129.904 70.2472 129.455 67.4367 129.345 66.4323C128.637 67.0567 126.535 68.5862 123.589 67.8996C123.497 67.8779 123.441 67.7874 123.463 67.6969C123.484 67.6064 123.572 67.5496 123.666 67.5705C127.113 68.3738 129.335 65.9806 129.357 65.9559C129.403 65.9058 129.473 65.8871 129.538 65.9103C129.602 65.9327 129.646 65.991 129.65 66.0591C129.652 66.0972 129.912 69.8882 131.624 70.5523C131.711 70.586 131.755 70.684 131.72 70.7707C131.694 70.8373 131.63 70.8784 131.563 70.8784V70.8777Z" fill="#444444"/>
<path d="M142.86 123.432C142.757 123.426 142.685 123.347 142.691 123.253C142.887 119.983 142.944 118.803 142.958 118.386L142.926 118.383C142.951 118.106 142.962 117.969 143.139 117.979C143.208 117.984 143.254 117.987 143.272 118.19C143.284 118.209 143.28 118.234 143.277 118.263C143.301 118.727 143.227 119.961 143.029 123.273C143.024 123.362 142.949 123.431 142.861 123.431L142.86 123.432Z" fill="#444444"/>
<path d="M130.522 89.5844C130.463 89.5844 130.408 89.5537 130.378 89.5021L127.395 84.5227L124.739 88.203C124.695 88.2621 124.617 88.2868 124.55 88.2651C124.48 88.2427 124.433 88.1776 124.433 88.1043V80.719C124.433 80.6854 124.443 80.6525 124.462 80.6248L125.822 78.616C125.859 78.5614 125.927 78.5352 125.991 78.5442C126.056 78.5554 126.109 78.6033 126.125 78.6676L127.493 83.8758L132.464 78.539C132.496 78.5046 132.54 78.4851 132.587 78.4851C132.634 78.4851 132.679 78.5046 132.711 78.539L134.641 80.6038C134.688 80.654 134.699 80.7272 134.671 80.7893L130.677 89.4857C130.65 89.5425 130.595 89.5806 130.532 89.5844H130.523H130.522ZM127.618 84.2378L130.503 89.0541L134.316 80.7512L132.587 78.9017L127.619 84.2378H127.618ZM124.771 80.7706V87.5816L127.224 84.1817L125.893 79.1133L124.771 80.7706Z" fill="#444444"/>
<path d="M126.886 97.9105C126.874 97.9105 126.862 97.9098 126.849 97.9068C126.758 97.8866 126.701 97.7969 126.72 97.7056C127.695 93.2647 129.73 88.3713 129.75 88.322C129.786 88.236 129.885 88.1956 129.971 88.2315C130.056 88.2674 130.098 88.3661 130.062 88.4521C130.041 88.5 128.019 93.3672 127.05 97.7782C127.033 97.8567 126.963 97.9105 126.885 97.9105H126.886Z" fill="#444444"/>
<path d="M124.174 99.8984C124.084 99.8984 124.009 99.8281 124.005 99.7376C123.689 92.7307 124.664 87.7925 124.673 87.7431C124.691 87.6519 124.778 87.5891 124.872 87.6115C124.963 87.6294 125.023 87.7184 125.004 87.8097C124.994 87.8583 124.028 92.7592 124.342 99.7226C124.346 99.8154 124.274 99.8939 124.181 99.8984H124.174Z" fill="#444444"/>
<path d="M127.711 89.5844C127.695 89.5844 125.771 89.4011 125.771 89.4011C125.689 89.3929 125.625 89.3279 125.618 89.2463L125.417 86.7544C125.409 86.6617 125.478 86.5801 125.572 86.5727C125.666 86.5629 125.746 86.634 125.754 86.7275L125.943 89.0788L127.63 89.2389L129.11 87.1889C129.164 87.1134 129.27 87.0962 129.346 87.1508C129.422 87.2054 129.439 87.3108 129.384 87.3864L127.847 89.5148C127.815 89.559 127.764 89.5851 127.71 89.5851L127.711 89.5844Z" fill="#444444"/>
<path d="M128.027 93.7171C127.939 93.7171 127.865 93.6498 127.858 93.5616L127.542 89.4288C127.535 89.336 127.604 89.2545 127.697 89.2478C127.799 89.2336 127.872 89.3106 127.878 89.4026L128.195 93.5354C128.201 93.6281 128.132 93.7096 128.04 93.7164C128.035 93.7164 128.031 93.7164 128.027 93.7164V93.7171Z" fill="#444444"/>
<path d="M124.415 92.1488C124.39 92.1488 124.363 92.1436 124.34 92.1316C124.256 92.0897 124.222 91.988 124.264 91.905L125.635 89.1573C125.678 89.0735 125.78 89.0399 125.862 89.081C125.946 89.1229 125.98 89.2246 125.939 89.3076L124.566 92.0553C124.536 92.1144 124.476 92.1488 124.415 92.1488Z" fill="#444444"/>
<path d="M116.827 98.9666C116.734 98.9666 116.659 98.891 116.659 98.7983C116.659 92.0203 119.228 86.5996 119.254 86.5458C119.294 86.462 119.394 86.4276 119.479 86.4665C119.563 86.5069 119.599 86.6079 119.559 86.6916C119.533 86.7447 116.997 92.1003 116.997 98.7983C116.997 98.891 116.921 98.9666 116.828 98.9666H116.827Z" fill="#444444"/>
<path d="M127.438 75.4382C127.262 75.4382 127.066 75.4031 126.854 75.332C126.765 75.3021 126.717 75.2071 126.746 75.1189C126.776 75.0306 126.872 74.9828 126.96 75.012C127.358 75.1436 127.661 75.1279 127.862 74.9633C128.232 74.659 128.222 73.8804 128.186 73.6059C128.174 73.5139 128.24 73.4294 128.332 73.4175C128.429 73.4025 128.509 73.4706 128.521 73.5626C128.528 73.6104 128.668 74.7375 128.077 75.2236C127.903 75.3664 127.69 75.4382 127.438 75.4382Z" fill="#444444"/>
</g>
<path d="M109.997 65.5739L70.6813 65.4614C67.6963 65.4531 65.8125 62.2525 67.2615 59.6503L87.0059 24.1764C88.5037 21.4846 92.388 21.4969 93.8722 24.1967L113.444 59.7831C114.88 62.3939 112.982 65.5837 109.995 65.5753L109.997 65.5739Z" fill="#48F0AC"/>
<path d="M109.817 67.2817L70.8047 67.1993C68.8858 67.1946 67.1614 66.1994 66.1908 64.5336C65.22 62.8692 65.1983 60.8678 66.1308 59.1795L85.75 23.6534C86.7146 21.9073 88.4744 20.8681 90.458 20.8723C92.4417 20.8766 94.1946 21.9242 95.1475 23.6734L114.541 59.2819C115.462 60.9738 115.427 62.9764 114.447 64.6363C113.466 66.2961 111.736 67.2864 109.817 67.2817ZM90.4483 23.8421C89.5558 23.8402 88.7625 24.3075 88.3299 25.094L68.7106 60.6201C68.2908 61.3805 68.3013 62.2812 68.7375 63.0296C69.1736 63.7794 69.9506 64.2272 70.8145 64.2295L109.827 64.312C110.691 64.3143 111.47 63.8685 111.911 63.1207C112.353 62.3729 112.369 61.473 111.954 60.7113L92.5606 25.1027C92.1322 24.3156 91.3423 23.844 90.4498 23.8422L90.4483 23.8421Z" fill="#2CA473"/>
<path d="M86.7983 58.0765C86.8 57.5748 86.8897 57.1108 87.0703 56.6862C87.2494 56.2615 87.503 55.8929 87.8309 55.5818C88.1573 55.2706 88.5496 55.0282 89.0093 54.8548C89.4674 54.6813 89.9838 54.5954 90.5586 54.5958C91.1332 54.5977 91.6524 54.6864 92.1177 54.862C92.5829 55.0377 92.9777 55.2824 93.3024 55.5946C93.627 55.9068 93.8777 56.2772 94.0563 56.7029C94.2333 57.1285 94.3217 57.5929 94.32 58.0947C94.3183 58.5964 94.2275 59.0558 94.0474 59.4744C93.8673 59.893 93.6141 60.2571 93.2878 60.5668C92.9614 60.878 92.5647 61.12 92.0975 61.2943C91.6319 61.4672 91.1109 61.5541 90.5362 61.5523C89.9616 61.5504 89.4454 61.462 88.9891 61.2871C88.5313 61.112 88.1409 60.8678 87.8149 60.5539C87.4902 60.2417 87.2391 59.8758 87.0614 59.4577C86.8837 59.0395 86.7966 58.5782 86.7983 58.0765ZM93.3606 51.6013L87.7723 51.5889L87.0371 32.4228L94.2088 32.4391L93.3606 51.6013Z" fill="#2CA473"/>
</svg>
