<svg width="200" height="140" viewBox="0 0 200 140" fill="none" xmlns="http://www.w3.org/2000/svg">
<mask id="mask0_434_4636" style="mask-type:alpha" maskUnits="userSpaceOnUse" x="0" y="0" width="200" height="140">
<rect width="200" height="140" fill="#D9D9D9"/>
</mask>
<g mask="url(#mask0_434_4636)">
<path d="M190.961 123.37C192.222 120.252 192.874 116.891 192.961 113.473C193.134 106.109 190.715 98.483 186.266 92.4399C177.013 79.8938 161.782 72.8196 148.27 65.9187C134.609 58.9176 122.804 48.3118 114.401 35.4517V35.4436C106.667 24.9758 93.6579 15.485 81.1929 12.9005C67.5155 10.0698 52.6988 13.3552 41.4949 21.6904C30.3018 30.0284 22.9138 43.2917 21.7095 57.2019C21.2142 62.9635 21.7257 68.7927 21.041 74.5354C20.3564 80.2808 18.7786 86.5133 15.1225 91.2844C12.0022 96.2287 8.23778 100.867 6.86841 106.507C5.40433 112.509 6.80346 118.255 9.68021 123.37H190.961Z" fill="#ECFFF7"/>
<path d="M122.247 22.6476H81.9837C81.8619 22.6476 81.7618 22.5501 81.7618 22.4284C81.7374 20.0983 83.2015 17.7953 85.3205 16.8291C87.3339 15.909 89.8697 16.2256 91.6152 17.5842C92.8222 13.5519 96.6489 10.4018 100.849 10.0364C105.09 9.66568 109.439 12.1581 111.295 15.9794C113.322 14.9591 115.969 14.9699 118.269 16.0227C120.385 16.9915 121.839 18.6748 122.253 20.6395C122.345 21.0752 122.464 22.3499 122.469 22.404C122.475 22.4662 122.453 22.5285 122.412 22.5745C122.372 22.6205 122.31 22.6476 122.247 22.6476ZM82.2083 22.2037H122.001C121.96 21.8059 121.879 21.0346 121.817 20.7342C121.43 18.9075 120.069 17.3406 118.082 16.4286C115.828 15.3975 113.23 15.4165 111.298 16.48C111.244 16.5098 111.179 16.5152 111.122 16.4963C111.062 16.4773 111.016 16.434 110.989 16.3772C109.271 12.602 105.025 10.123 100.887 10.4803C96.7517 10.8402 92.9954 14.0146 91.9508 18.0307C91.9319 18.1065 91.875 18.166 91.802 18.1877C91.7289 18.2093 91.6477 18.1931 91.5909 18.1417C89.9725 16.71 87.472 16.3393 85.5072 17.2351C83.6101 18.1011 82.2787 20.1226 82.211 22.2064L82.2083 22.2037Z" fill="#48F0AC" fill-opacity="0.6"/>
<path d="M182.845 70.2818H148.492C148.414 70.2818 148.34 70.2385 148.3 70.1708C148.259 70.1031 148.259 70.0165 148.3 69.9489C150.189 66.677 155.258 65.148 158.676 66.7636C160.299 63.0209 163.452 60.4905 167.363 59.8032C171.555 59.0671 175.936 61.1969 177.649 64.7772C178.964 64.3605 180.374 64.5932 181.454 65.4186C182.596 66.29 183.256 67.7785 183.132 69.2128L183.064 70.0788C183.056 70.1952 182.959 70.2845 182.842 70.2845L182.845 70.2818ZM148.893 69.8379H182.639L182.691 69.1749C182.802 67.8867 182.212 66.5525 181.186 65.7704C180.174 64.9992 178.837 64.807 177.611 65.2617C177.503 65.3023 177.379 65.2508 177.333 65.1426C175.763 61.6326 171.511 59.5271 167.444 60.2416C163.609 60.9154 160.532 63.4349 158.998 67.1533C158.973 67.2102 158.927 67.2562 158.868 67.2778C158.808 67.2995 158.743 67.2941 158.689 67.267C155.58 65.6405 150.863 66.9179 148.898 69.8379H148.893Z" fill="#48F0AC" fill-opacity="0.6"/>
<path d="M39.0629 100.015C39.0196 99.9903 38.9763 99.9659 38.9357 99.9497C38.8735 99.9172 38.7923 99.8793 38.7111 99.8604C38.4919 99.7846 38.2537 99.7467 38.0075 99.7467C37.5285 99.7467 36.9926 99.8875 36.3675 100.174C34.3351 101.105 32.5625 102.918 31.1065 105.562C30.8197 106.082 30.5464 106.637 30.2676 107.257C28.9821 110.133 28.0972 113.254 27.5695 116.769C27.4342 115.695 27.2718 114.628 27.0851 113.595C26.4599 110.187 25.5127 107.024 24.2651 104.196C23.9187 103.416 23.5588 102.667 23.1745 101.942C21.5914 98.943 19.8296 96.8483 17.7864 95.5358C17.191 95.1542 16.5604 94.8376 15.9109 94.5994C15.5131 94.4533 14.9854 94.2855 14.4387 94.2855C14.3765 94.2855 14.3116 94.2855 14.2493 94.2909C13.9868 94.3072 13.7297 94.3721 13.4916 94.475C13.4158 94.502 13.3373 94.5399 13.2642 94.5832C12.8394 94.8159 12.4794 95.1894 12.225 95.6576C11.1967 97.5303 11.6621 99.744 12.225 101.849C12.9422 104.534 14.0247 107.389 15.5321 110.583C16.0679 111.716 16.666 112.915 17.4589 114.434C16.9177 114.084 16.2925 113.765 15.6999 113.54C15.4049 113.432 15.1045 113.34 14.823 113.259L14.777 113.246C14.2845 113.097 13.7757 112.942 13.3265 112.68C12.6201 112.271 12.0356 111.6 11.47 110.953C10.6798 110.044 9.85977 109.105 8.69879 108.853C8.49312 108.81 8.28203 108.788 8.05741 108.788C7.53511 108.788 7.03716 108.902 6.52297 109.021C6.04667 109.129 5.59473 109.229 5.14008 109.229C4.89922 109.229 4.6746 109.2 4.4581 109.143C4.27678 109.094 4.09546 109.037 3.91956 108.978C3.58127 108.87 3.23487 108.759 2.87494 108.704C2.75587 108.688 2.62867 108.68 2.49878 108.68C1.67607 108.68 0.631463 109.013 0.0685626 109.349L-0.237244 109.535L0.0848001 109.695C0.869613 110.093 2.34452 111.316 3.02108 112.685C3.21052 113.07 3.35124 113.489 3.51362 113.995C3.74636 114.707 3.98721 115.443 4.48787 116.014C5.23479 116.866 6.34436 117.099 7.32673 117.305C8.1386 117.475 8.98024 117.651 9.64327 118.147C10.6094 118.866 11.0262 120.09 11.4646 121.389C11.6973 122.065 11.9355 122.766 12.271 123.407L12.2954 123.456H12.7501L12.677 123.324C12.3279 122.685 12.0816 121.96 11.8462 121.261C11.4078 119.968 10.9531 118.631 9.88142 117.83C9.15074 117.281 8.26309 117.097 7.4025 116.915C6.39307 116.701 5.44047 116.498 4.78556 115.754C4.33361 115.232 4.11441 114.555 3.87626 113.817C3.73553 113.378 3.58939 112.926 3.38101 112.512C2.78293 111.311 1.61924 110.201 0.709944 109.606C0.915619 109.573 1.124 109.557 1.33779 109.557C2.80999 109.557 4.20101 110.358 5.11031 111.032C5.6705 111.446 6.20904 111.914 6.73135 112.366C7.57029 113.094 8.43899 113.844 9.42136 114.406C10.1115 114.799 10.8611 115.08 11.5864 115.354C12.3441 115.638 13.1289 115.933 13.8271 116.352C15.2236 117.194 17.7512 119.229 19.0015 123.397L19.0204 123.459H19.4372L19.4047 123.345C18.1247 119.007 15.4915 116.888 14.0382 116.009C13.3075 115.567 12.5038 115.267 11.7298 114.978C11.0208 114.712 10.2874 114.436 9.62433 114.06C8.67714 113.519 7.82467 112.78 6.99927 112.066C6.47155 111.608 5.92489 111.135 5.35387 110.712C4.47704 110.063 3.16451 109.3 1.73291 109.178C2.00894 109.121 2.27145 109.091 2.50419 109.091C2.61514 109.091 2.72339 109.097 2.82353 109.113C3.14016 109.159 3.4622 109.262 3.79777 109.367C3.98721 109.43 4.17394 109.489 4.36338 109.538C4.61506 109.606 4.87216 109.638 5.1509 109.638C5.6705 109.638 6.16845 109.524 6.67993 109.408C7.15623 109.3 7.60547 109.197 8.06012 109.197C8.25768 109.197 8.43899 109.216 8.62031 109.254C9.65139 109.478 10.3929 110.328 11.175 111.224C11.7623 111.898 12.3712 112.593 13.1343 113.037C13.6215 113.319 14.1573 113.481 14.6715 113.635L14.8284 113.681C15.072 113.754 15.3237 113.83 15.5645 113.922C16.2249 114.171 17.1829 114.653 17.8973 115.248C18.0814 115.402 18.2464 115.562 18.398 115.741L18.4657 115.684L18.4251 115.779C18.5955 115.992 18.7363 116.252 18.8445 116.544L18.8499 116.642H18.8743C18.9636 116.904 19.0285 117.18 19.0989 117.47L19.1233 117.57C19.2451 118.101 19.3641 118.577 19.5779 119.01C19.8025 119.478 20.13 119.897 20.4196 120.266L20.4683 120.33C20.6794 120.604 20.8986 120.885 21.0961 121.221C21.1475 121.307 21.1908 121.394 21.2477 121.51C21.475 122 21.6455 122.647 21.7429 123.378L21.7537 123.456H22.157L22.1434 123.356C22.1056 123.061 22.0623 122.807 22.0135 122.579C21.908 122.098 21.7754 121.684 21.6184 121.348C21.6076 121.324 21.5995 121.305 21.5751 121.256C21.5399 121.188 21.5048 121.121 21.4561 121.037C21.4479 121.018 21.4371 120.996 21.4263 120.985C21.2206 120.636 20.9662 120.309 20.7389 120.019C20.6469 119.9 20.5522 119.781 20.4629 119.659C20.2301 119.356 20.0623 119.094 19.9351 118.837C19.854 118.669 19.7917 118.501 19.7403 118.322C19.651 118.06 19.586 117.781 19.5157 117.483L19.4291 117.502L19.4967 117.41C19.3533 116.802 19.172 116.044 18.6876 115.462C18.5495 115.297 18.3818 115.134 18.214 115.002C17.8324 114.287 17.4589 113.562 17.0909 112.84C15.4915 109.695 14.3467 107.07 13.4834 104.577C12.9693 103.089 12.5687 101.693 12.2602 100.31C12.0194 99.2326 11.9652 98.326 12.087 97.4518C12.2304 96.4099 12.5714 95.6414 13.1019 95.1705C13.2128 95.0758 13.3238 94.9946 13.4456 94.9269C17.2397 98.648 20.2599 103.203 22.1895 108.101C23.3125 110.948 24.119 113.9 24.8253 116.666C25.4126 118.967 25.9051 121.229 26.2921 123.383L26.3057 123.456H26.7116L26.6926 123.351C26.3544 121.467 25.943 119.521 25.464 117.567C24.8199 114.942 24.0135 111.857 22.9066 108.853C21.954 106.263 20.7281 103.784 19.264 101.481C17.7241 99.0593 15.9055 96.7996 13.8569 94.7645C14.0328 94.7185 14.225 94.6942 14.4252 94.6942C14.8285 94.6942 15.2912 94.7889 15.7946 94.9783C18.0435 95.8091 20.0705 97.6277 21.8187 100.391C22.1705 100.943 22.5169 101.541 22.8471 102.166C25.2069 106.672 26.6845 111.982 27.3611 118.406C27.3963 118.75 27.4315 119.094 27.4639 119.448L27.5451 120.385C27.6101 121.256 27.6696 122.203 27.7264 123.37L27.7318 123.453H28.0431L28.1351 123.429L28.1297 123.334C28.035 121.481 27.9132 119.843 27.7562 118.355C28.1324 115.08 28.7954 112.182 29.7805 109.497C30.0457 108.777 30.3298 108.087 30.6221 107.441C31.8589 104.686 33.2878 102.729 34.9927 101.454C35.4717 101.097 35.9724 100.797 36.4785 100.559C36.9466 100.339 37.4554 100.136 38.0129 100.136C38.1293 100.136 38.2429 100.147 38.3566 100.172C35.1795 103.752 32.7141 108.028 31.2229 112.545C30.3434 115.213 29.7615 118.006 29.2636 120.625C29.1093 121.437 28.9524 122.328 28.79 123.348L28.7738 123.451H29.1716L29.1824 123.375C29.2717 122.828 29.3637 122.284 29.4611 121.74C29.8941 119.337 30.4489 116.507 31.2662 113.746C31.9671 111.359 32.9333 109.035 34.1348 106.843C35.4257 104.491 36.9818 102.293 38.7625 100.315C39.1576 100.51 39.4959 100.862 39.7422 101.335C40.6461 103.097 40.1833 105.2 39.7747 107.056L39.7611 107.113C39.2307 109.503 38.4378 111.968 37.2687 114.869C36.2971 117.278 35.1876 119.676 34.1132 121.995L33.442 123.448H33.875L34.5002 122.098C35.3283 120.309 36.1862 118.458 36.9737 116.615C38.3025 113.497 39.2118 110.918 39.8396 108.499C40.1454 107.316 40.4756 105.92 40.6244 104.54C40.7219 103.638 40.6434 102.729 40.3998 101.909C40.2104 101.278 39.8261 100.437 39.0656 100.004L39.0629 100.015Z" fill="#48F0AC" fill-opacity="0.6"/>
<path d="M199.16 109.34C198.624 109.018 197.579 108.685 196.759 108.685C196.629 108.685 196.502 108.694 196.383 108.71C196.026 108.764 195.68 108.875 195.339 108.983C195.163 109.04 194.981 109.097 194.8 109.146C194.581 109.205 194.359 109.232 194.118 109.232C193.661 109.232 193.211 109.129 192.703 109.016C192.221 108.905 191.723 108.791 191.201 108.791C190.973 108.791 190.765 108.813 190.559 108.856C189.396 109.108 188.578 110.047 187.788 110.956C187.223 111.606 186.638 112.274 185.932 112.683C185.485 112.945 184.974 113.099 184.481 113.246L184.435 113.259C184.154 113.34 183.851 113.432 183.558 113.54C182.966 113.765 182.343 114.084 181.802 114.434C182.595 112.915 183.193 111.716 183.729 110.583C185.236 107.392 186.319 104.537 187.036 101.849C187.599 99.744 188.064 97.5303 187.036 95.6576C186.781 95.1867 186.421 94.8159 185.999 94.5832C185.929 94.5399 185.85 94.502 185.775 94.475C185.531 94.3694 185.274 94.3072 185.012 94.2909C184.947 94.2855 184.884 94.2855 184.822 94.2855C184.273 94.2855 183.748 94.4533 183.347 94.5994C182.7 94.8403 182.07 95.1542 181.472 95.5358C179.429 96.8483 177.664 98.943 176.097 101.92L176.07 101.955L176.065 101.966C175.697 102.667 175.337 103.414 174.99 104.193C173.745 107.021 172.796 110.185 172.17 113.592C171.984 114.626 171.821 115.692 171.686 116.766C171.161 113.251 170.276 110.131 168.991 107.254C168.712 106.637 168.438 106.082 168.152 105.56C166.693 102.916 164.923 101.103 162.891 100.172C162.263 99.8848 161.727 99.744 161.251 99.744C161.002 99.744 160.766 99.7819 160.552 99.855C160.485 99.8712 160.414 99.901 160.328 99.9443C160.279 99.9632 160.236 99.9876 160.192 100.012C159.432 100.445 159.048 101.287 158.858 101.917C158.612 102.737 158.536 103.646 158.634 104.548C158.783 105.922 159.099 107.262 159.419 108.507C160.046 110.926 160.956 113.505 162.284 116.623C163.072 118.466 163.93 120.317 164.761 122.108L165.383 123.453H165.816L165.145 122.003C164.071 119.684 162.961 117.286 161.989 114.875C160.82 111.974 160.027 109.508 159.497 107.119L159.486 107.062C159.078 105.205 158.612 103.1 159.516 101.338C159.762 100.864 160.098 100.513 160.496 100.318C162.276 102.296 163.832 104.493 165.123 106.845C166.325 109.037 167.288 111.359 167.992 113.752C168.812 116.509 169.364 119.34 169.797 121.743C169.894 122.287 169.986 122.831 170.076 123.378L170.087 123.453H170.484L170.468 123.351C170.306 122.339 170.152 121.448 169.995 120.628C169.499 118.011 168.917 115.218 168.038 112.547C166.547 108.031 164.084 103.755 160.904 100.174C161.018 100.15 161.137 100.139 161.264 100.139C161.805 100.139 162.314 100.342 162.782 100.561C163.288 100.799 163.789 101.103 164.268 101.457C165.973 102.732 167.402 104.688 168.639 107.443C168.931 108.09 169.215 108.78 169.48 109.5C170.468 112.185 171.131 115.08 171.505 118.339C171.348 119.846 171.226 121.481 171.131 123.361L171.126 123.456H171.532L171.537 123.372C171.594 122.217 171.651 121.267 171.718 120.387L171.8 119.446C171.832 119.094 171.867 118.75 171.902 118.398C172.579 111.982 174.057 106.675 176.416 102.169C176.747 101.544 177.09 100.946 177.445 100.394C179.193 97.6332 181.223 95.8118 183.472 94.981C183.978 94.7916 184.438 94.6969 184.841 94.6969C185.041 94.6969 185.231 94.7212 185.409 94.7672C183.358 96.8023 181.539 99.0621 180.002 101.484C178.538 103.784 177.312 106.263 176.36 108.853C175.253 111.857 174.446 114.945 173.802 117.567C173.323 119.524 172.912 121.47 172.574 123.351L172.555 123.456H172.961L172.974 123.383C173.358 121.232 173.854 118.972 174.438 116.666C175.145 113.9 175.951 110.948 177.074 108.101C179.004 103.203 182.027 98.648 185.818 94.9269C185.94 94.9946 186.051 95.073 186.162 95.1678C186.692 95.6414 187.033 96.4072 187.177 97.4518C187.298 98.326 187.244 99.2326 187.003 100.31C186.695 101.693 186.294 103.089 185.78 104.577C184.917 107.073 183.769 109.698 182.173 112.84C181.805 113.562 181.431 114.287 181.071 114.975C180.879 115.134 180.714 115.297 180.576 115.462C180.089 116.044 179.91 116.799 179.759 117.44L179.742 117.511C179.68 117.781 179.613 118.06 179.523 118.325C179.472 118.501 179.41 118.669 179.328 118.834C179.201 119.094 179.033 119.356 178.798 119.659C178.709 119.778 178.617 119.897 178.525 120.017C178.3 120.303 178.046 120.631 177.845 120.972C177.829 120.994 177.816 121.018 177.797 121.056C177.756 121.126 177.715 121.205 177.669 121.291C177.661 121.307 177.653 121.326 177.648 121.343C177.488 121.681 177.356 122.098 177.25 122.579C177.199 122.812 177.155 123.066 177.12 123.356L177.107 123.456H177.51L177.521 123.378C177.615 122.647 177.789 122 178.029 121.483C178.073 121.391 178.116 121.307 178.165 121.224L178.189 121.183C178.362 120.885 178.581 120.604 178.793 120.33L178.844 120.263C179.134 119.895 179.461 119.475 179.686 119.007C179.899 118.571 180.018 118.098 180.138 117.576L180.162 117.47C180.232 117.172 180.3 116.894 180.389 116.626L180.411 116.566C180.527 116.244 180.665 115.984 180.836 115.77L180.879 115.716C181.02 115.554 181.182 115.394 181.366 115.243C182.081 114.645 183.041 114.166 183.702 113.917C183.943 113.825 184.194 113.749 184.438 113.676L184.597 113.627C185.112 113.47 185.647 113.31 186.135 113.029C186.898 112.585 187.507 111.89 188.094 111.216C188.879 110.317 189.618 109.47 190.649 109.246C190.827 109.208 191.011 109.189 191.209 109.189C191.663 109.189 192.113 109.292 192.619 109.405C193.1 109.516 193.598 109.63 194.118 109.63C194.397 109.63 194.654 109.597 194.906 109.53C195.095 109.481 195.282 109.422 195.496 109.351C195.807 109.254 196.129 109.151 196.445 109.105C196.546 109.089 196.654 109.083 196.765 109.083C196.998 109.083 197.26 109.113 197.533 109.17C196.102 109.292 194.789 110.055 193.912 110.704C193.341 111.127 192.795 111.6 192.264 112.06C191.439 112.775 190.586 113.513 189.639 114.055C188.979 114.431 188.245 114.707 187.536 114.972C186.76 115.262 185.959 115.562 185.228 116.003C183.772 116.88 181.142 119.002 179.862 123.34L179.826 123.453H180.243L180.262 123.391C181.512 119.224 184.04 117.189 185.436 116.347C186.132 115.927 186.917 115.632 187.68 115.348C188.402 115.078 189.152 114.796 189.842 114.404C190.825 113.844 191.693 113.091 192.532 112.363C193.054 111.911 193.593 111.443 194.153 111.029C195.063 110.355 196.456 109.554 197.926 109.554C198.137 109.554 198.348 109.57 198.554 109.603C197.644 110.198 196.481 111.308 195.885 112.509C195.677 112.926 195.531 113.381 195.382 113.838C195.149 114.555 194.93 115.232 194.481 115.754C193.826 116.498 192.873 116.701 191.858 116.915C191 117.094 190.115 117.281 189.385 117.83C188.313 118.634 187.858 119.971 187.42 121.261C187.182 121.962 186.936 122.688 186.587 123.324L186.513 123.456H186.968L186.992 123.407C187.325 122.769 187.566 122.068 187.802 121.386C188.24 120.092 188.654 118.869 189.623 118.149C190.286 117.654 191.125 117.478 191.94 117.308C192.922 117.102 194.031 116.869 194.778 116.017C195.279 115.446 195.52 114.712 195.75 114.003L195.763 113.96C195.912 113.492 196.053 113.072 196.242 112.688C196.922 111.319 198.397 110.093 199.179 109.698L199.501 109.538L199.165 109.338L199.16 109.34Z" fill="#48F0AC" fill-opacity="0.6"/>
<path d="M199.628 123.37C199.628 123.47 199.55 123.549 199.455 123.549H-0.198321C-0.29304 123.549 -0.371521 123.468 -0.371521 123.37C-0.371521 123.322 -0.352577 123.276 -0.320102 123.243C-0.287627 123.211 -0.244327 123.192 -0.198321 123.192H199.455C199.55 123.192 199.628 123.273 199.628 123.37Z" fill="#48F0AC" fill-opacity="0.6"/>
<path d="M58.8828 74.2792L62.6999 72.077C62.2998 70.5773 61.7039 69.1581 60.9411 67.8483L56.6922 68.9883L53.5084 65.8045L54.6426 61.5671C53.3299 60.8071 51.9079 60.2113 50.4052 59.8169L48.2146 63.6109H43.7095L41.5304 59.837C40.0277 60.2401 38.6057 60.8388 37.2901 61.6074L38.4157 65.8045L35.2319 68.9883L31.0492 67.8685C30.2835 69.184 29.6876 70.6118 29.2904 72.1173L33.0384 74.2821V78.7872L29.2875 80.9462C29.6847 82.4546 30.2835 83.8795 31.0492 85.195L35.229 84.0752L38.4128 87.259L37.2901 91.4532C38.6028 92.2218 40.0248 92.8206 41.5304 93.2236L43.7066 89.4526H48.2117L50.3995 93.2409C51.9021 92.8465 53.3242 92.2506 54.6397 91.4906L53.5055 87.259L56.6893 84.0752L60.9353 85.2123C61.6982 83.9025 62.2969 82.4834 62.697 80.9836L58.8828 78.7814V74.2763V74.2792ZM45.9923 85.8715C40.8337 85.8715 36.6482 81.6888 36.6482 76.5274C36.6482 71.366 40.8308 67.1833 45.9923 67.1833C51.1537 67.1833 55.3363 71.366 55.3363 76.5274C55.3363 81.6888 51.1537 85.8715 45.9923 85.8715Z" fill="#8FFBCE"/>
<path d="M58.7838 76.5294V72.2374C58.7838 70.2655 60.6721 68.6678 62.9981 68.6678H106.676L109.724 63.3337C110.101 62.6745 110.893 62.2542 111.759 62.2542H122.01C123.26 62.2542 124.27 63.112 124.27 64.1685V119.709C124.221 120.239 124.002 121.865 122.675 123.247C120.839 125.161 118.363 125.046 117.992 125.023H58.7838V76.5294Z" fill="#07BE87"/>
<path d="M107.742 74.1121L101.401 67.4135L100.58 71.1845L93.8701 64.3334L92.4308 67.8539L87.4479 61.7109L83.1702 64.0685L79.4539 57.6491L75.3921 60.8876L70.0753 54.9259C74.1629 45.9647 79.0509 39.2373 82.8823 34.6948C96.1356 40.1124 109.389 45.53 122.642 50.9477C118.782 57.6002 114.775 65.4071 111.07 74.3338L107.745 74.1121H107.742Z" fill="#ADFCDB"/>
<path d="M79.7668 59.0338L83.4832 65.4532L87.7608 63.0956L92.7438 69.2386L94.1831 65.718L100.893 72.5692L101.714 68.7982L108.055 75.4968L111.38 75.7184C111.331 75.8393 111.279 75.9545 111.23 76.0754C107.275 85.6555 104.474 94.5879 102.462 102.467L62.7022 86.214C63.206 79.5413 64.7057 69.7971 69.2483 58.9158C69.6196 58.0263 69.9996 57.1598 70.3853 56.3135L75.7022 62.2752L79.7639 59.0367L79.7668 59.0338Z" fill="#ADFCDB"/>
<path d="M111.069 74.3347L107.744 74.1131L101.403 67.4116L100.582 71.1855L93.8722 64.3343L92.4328 67.8549L87.4499 61.709" stroke="#C5C5C5" stroke-width="0.27" stroke-linecap="round" stroke-linejoin="round"/>
<path d="M111.378 75.7153L108.054 75.4966L101.712 68.7951L100.892 72.569L94.1814 65.7178L92.7421 69.2355L87.7592 63.0925" stroke="#C5C5C5" stroke-width="0.27" stroke-linecap="round" stroke-linejoin="round"/>
<path d="M43.0907 42.2732C42.0429 42.4948 41.3721 43.5225 41.5938 44.5704C44.0262 51.6259 46.3781 59.6832 48.3039 68.6589C50.3564 78.2275 51.5395 87.0592 52.1901 94.8891C52.216 95.0157 52.3714 95.6836 53.0278 96.1125C53.4423 96.3831 53.9633 96.4954 54.4844 96.386L91.1295 88.6683C92.1774 88.4467 92.8481 87.419 92.6264 86.3712C92.163 79.0968 91.0921 70.648 88.9072 61.4104C87.4132 55.1004 85.6313 49.395 83.7775 44.3429C79.5401 41.6888 75.3027 39.0376 71.0654 36.3835L43.0907 42.2732Z" fill="#F5F5F5"/>
<path d="M52 59C56.5 57.6667 67.9 54.6 77.5 53" stroke="#EAEAEA"/>
<path d="M53 65C57.5 63.6667 68.9 60.6 78.5 59" stroke="#EAEAEA"/>
<path d="M55 71C59.5 69.6667 70.9 66.6 80.5 65" stroke="#EAEAEA"/>
<path d="M74.4505 46.3102L83.7802 44.347L71.0681 36.3875L72.9507 45.3343C73.0946 46.0195 73.7682 46.457 74.4505 46.3131V46.3102Z" fill="#DADADA"/>
<path d="M71.064 36.3835L72.9467 45.3303C73.0906 46.0154 73.7642 46.453 74.4464 46.3091L83.7761 44.3458" stroke="#C5C5C5" stroke-width="0.4" stroke-linecap="round" stroke-linejoin="round"/>
<path d="M43.0907 42.2732C42.0429 42.4948 41.3721 43.5225 41.5938 44.5704C44.0262 51.6259 46.3781 59.6832 48.3039 68.6589C50.3564 78.2275 51.5395 87.0592 52.1901 94.8891C52.216 95.0157 52.3714 95.6836 53.0278 96.1125C53.4423 96.3831 53.9633 96.4954 54.4844 96.386L91.1295 88.6683C92.1774 88.4467 92.8481 87.419 92.6264 86.3712C92.163 79.0968 91.0921 70.648 88.9072 61.4104C87.4132 55.1004 85.6313 49.395 83.7775 44.3429C79.5401 41.6888 75.3027 39.0376 71.0654 36.3835L43.0907 42.2732Z" stroke="#C5C5C5" stroke-width="0.27" stroke-linecap="round" stroke-linejoin="round"/>
<path d="M46.7815 76.5283H111.099C112.777 76.5283 114.378 77.8899 114.672 79.5682L122.075 121.979C122.369 123.658 121.243 125.019 119.565 125.019H55.2476C53.5694 125.019 51.9689 123.658 51.6752 121.979L44.2714 79.5682C43.9777 77.8899 45.1033 76.5283 46.7815 76.5283Z" fill="#48F0AC"/>
<path d="M90.2951 89L82.5 96.7951L74.7049 89L70 93.7049L77.7951 101.5L70 109.295L74.7049 114L82.5 106.205L90.2951 114L95 109.295L87.2049 101.5L95 93.7049L90.2951 89Z" fill="#2CA473"/>
<path d="M126.494 121.631V129H115.531L115.778 127.137L115.833 127.102C115.933 127.041 116.077 126.952 116.25 126.844C116.597 126.628 117.066 126.334 117.553 126.024C118.039 125.715 118.545 125.389 118.964 125.108C119.377 124.831 119.724 124.587 119.881 124.445C120.183 124.173 120.487 123.78 120.727 123.425C120.965 123.072 121.158 122.729 121.229 122.55C121.274 122.434 121.291 122.296 121.297 122.172C121.303 122.044 121.299 121.909 121.291 121.788C121.287 121.733 121.283 121.68 121.278 121.631H126.494Z" fill="white" stroke="#444444" stroke-width="0.5"/>
<path d="M127.217 124.808C127.078 124.77 126.871 124.736 126.65 124.799C126.074 124.963 125.924 125.628 125.677 125.982L119.234 126.054C119.249 125.729 119.26 125.401 119.274 125.075C118.941 124.966 118.604 124.857 118.27 124.75C117.567 125.533 116.885 125.988 116.367 126.264C115.575 126.688 114.545 127.021 114.127 127.735C113.923 128.081 113.914 128.435 113.912 128.498C113.909 128.68 113.903 128.936 114.087 129.103C114.222 129.229 114.398 129.247 114.479 129.25C118.635 129.224 122.795 129.198 126.952 129.172C127.099 129.172 127.217 129.054 127.217 128.907V124.808Z" fill="#444444"/>
<path d="M126.721 129.975H114.464C114.191 129.975 113.969 129.753 113.969 129.48V128.93H127.216V129.48C127.216 129.753 126.995 129.975 126.721 129.975Z" fill="#A8A8A8"/>
<path d="M144.457 118.16L148.536 114.459L153.62 119.309L145.28 126.871L145.28 126.224H145.28L145.28 126.221L145.03 126.224L145.28 126.221L145.28 126.221L145.28 126.22L145.28 126.218L145.28 126.208L145.28 126.17L145.278 126.026C145.276 125.902 145.274 125.723 145.272 125.506C145.268 125.072 145.263 124.486 145.261 123.878C145.256 122.649 145.263 121.361 145.304 121.016L145.308 120.985L145.304 120.954C145.24 120.474 145.208 120.076 145.182 119.749C145.178 119.7 145.174 119.653 145.17 119.607C145.156 119.433 145.142 119.278 145.123 119.147C145.105 119.019 145.08 118.896 145.037 118.794C144.989 118.679 144.903 118.572 144.822 118.486C144.737 118.395 144.639 118.308 144.549 118.234C144.517 118.208 144.486 118.183 144.457 118.16Z" fill="white" stroke="#444444" stroke-width="0.5"/>
<path d="M151.188 116.201C151.064 116.27 150.892 116.388 150.774 116.59C150.477 117.108 150.834 117.689 150.903 118.115L146.34 122.664C146.122 122.422 145.903 122.177 145.684 121.935C145.367 122.091 145.051 122.246 144.737 122.405C144.78 123.455 144.61 124.258 144.432 124.817C144.158 125.672 143.655 126.631 143.856 127.434C143.954 127.822 144.19 128.084 144.236 128.13C144.36 128.263 144.536 128.447 144.783 128.441C144.967 128.435 145.106 128.329 145.166 128.274C148.125 125.352 151.084 122.431 154.044 119.512C154.147 119.411 154.15 119.244 154.049 119.137L151.188 116.201Z" fill="#444444"/>
<path d="M154.437 120.241L145.661 128.798C145.465 128.988 145.151 128.984 144.96 128.789L144.577 128.395L154.063 119.148L154.446 119.541C154.637 119.737 154.633 120.051 154.437 120.241Z" fill="#A8A8A8"/>
<path d="M129.581 91.4697C129.581 91.4697 125.971 105.244 125.752 108.808C125.533 112.372 124.563 122.168 124.563 122.168H127.157L130.796 103.502L129.578 91.4697H129.581Z" fill="#1E54CB"/>
<path d="M123.606 81.8229C123.606 81.8229 118.589 98.5133 118.295 100.92C118.001 103.326 120.261 122.167 120.261 122.167H127.158L130.797 103.502C130.797 103.502 131.266 106.847 133.497 109.196C135.728 111.545 143.886 119.645 143.886 119.645L149.05 114.596L142.83 103.208C142.478 100.787 142.291 98.7407 142.188 97.2035C142.021 94.774 141.94 93.5592 142.061 92.1198C142.311 89.198 142.965 88.6971 142.913 86.708C142.881 85.4903 142.585 83.7574 141.338 81.6675C135.429 81.7193 129.519 81.7711 123.606 81.8229Z" fill="#444444"/>
<path d="M132.371 107.718C131.853 106.791 131.177 105.357 130.797 103.501C130.719 103.124 130.687 102.885 130.471 100.665C130.184 97.6944 129.962 95.262 129.95 95.1238C129.867 94.2084 129.74 92.818 129.582 91.0937C129.582 91.0937 129.363 87.6825 129.251 85.9236" stroke="white" stroke-width="0.5" stroke-linecap="round" stroke-linejoin="round"/>
<path d="M136.974 81.6675C136.974 81.6675 137.832 98.2255 138.229 100.206C138.626 102.186 139.634 106.542 141.341 108.787C143.048 111.033 146.914 116.683 146.914 116.683" stroke="white" stroke-width="0.5" stroke-linecap="round" stroke-linejoin="round"/>
<path d="M129.512 91.7261C129.512 91.7261 126.216 105.215 125.983 107.012C125.749 108.805 124.563 122.165 124.563 122.165" stroke="white" stroke-width="0.5" stroke-linecap="round" stroke-linejoin="round"/>
<path d="M128.76 47.8654H128.698L128.654 47.9092L126.959 49.5986L125.61 49.8674L124.24 47.3164L127.45 46.2896L131.64 47.4947L131.573 47.8654H128.76Z" fill="#FAFAFA" stroke="#444444" stroke-width="0.3"/>
<path d="M127.134 46.7487C127.88 46.3371 129.774 45.4274 132.02 45.8678C132.71 46.0031 133.974 46.2536 134.769 47.3187C135.195 47.8915 135.313 48.4644 135.408 48.948C135.675 50.3326 135.218 50.8853 135.209 53.194C135.209 54.0576 135.27 54.3915 135.474 54.711C135.868 55.33 136.363 55.2234 137.213 55.8107C137.331 55.8913 138.525 56.7434 139.018 58.1856C139.369 59.219 139.003 59.5126 139.415 60.0768C140.048 60.9519 141.153 60.5748 141.703 61.3089C142.345 62.1639 141.62 63.7068 141.528 63.9054C139.772 67.6506 128.689 69.4497 123.905 64.6107C123.738 64.4409 120.991 61.6054 121.792 59.6393C122.252 58.5051 123.729 58.0589 123.729 56.7347C123.729 56.1619 123.453 56.1302 123.312 55.1515C123.211 54.452 123.076 53.5106 123.553 52.7536C124.109 51.8727 125.027 51.9878 125.186 51.2797C125.312 50.7241 124.8 50.4276 124.702 49.8346C124.596 49.1927 124.978 48.2168 127.14 46.7487H127.134Z" fill="#444444"/>
<path d="M134.561 47.2233C135.174 47.8192 135.891 48.726 136.046 49.9177C136.262 51.5902 135.18 52.3588 135.649 53.5391C136.081 54.6214 137.109 54.2587 138.464 55.7931C138.888 56.2709 139.814 57.3159 140.004 58.807C140.163 60.0535 139.705 60.799 140.223 61.2711C140.223 61.2711 139.777 61.7793 141.277 62.0586" stroke="#444444" stroke-width="0.3" stroke-linecap="round" stroke-linejoin="round"/>
<path d="M124.58 51.9189C123.846 52.2471 122.911 52.8113 122.623 53.7699C122.277 54.9185 123.216 55.4741 123.02 56.7839C122.761 58.511 120.801 58.6406 120.841 60.2613C120.864 61.0961 121.14 61.8042 122.073 63.0334C122.841 64.0467 123.711 64.5159 123.898 64.6167C124.217 64.7865 124.502 64.8988 124.713 64.9678" stroke="#444444" stroke-width="0.5" stroke-linecap="round" stroke-linejoin="round"/>
<path d="M124.578 46.4612C117.617 46.4929 112.525 49.4377 112.105 52.6129C111.682 55.7995 115.956 59.3028 117.738 60.7623C119.638 62.3197 121.463 63.261 122.733 63.8165L128.11 58.0967L119.632 53.5945L125.753 50.8569L124.581 46.4583L124.578 46.4612Z" fill="#48F0AC"/>
<path d="M131.96 58.0993H128.109C127.046 58.7268 125.512 59.8294 124.283 61.6458C122.858 63.7501 122.484 65.8601 122.222 68.6927C121.934 71.8333 121.81 76.3989 122.288 81.8193L141.658 81.6639V71.6261C141.563 69.0928 141.267 67.0116 140.985 65.4917C140.53 63.0391 140.156 62.2733 139.753 61.6775C138.607 59.9791 136.972 59.2479 136.232 58.9197C134.502 58.1482 132.916 58.0676 131.966 58.1022L131.96 58.0993Z" fill="#DF0ADB"/>
<path d="M130.038 59.6624C131.12 59.6653 132.001 58.7931 132.007 57.7078L132.024 53.4877L128.1 53.4733L128.083 57.6934C128.08 58.7758 128.952 59.6567 130.038 59.6624Z" fill="white"/>
<path d="M128.085 56.5112L130.638 55.1985C130.612 55.4202 130.468 56.4565 129.556 57.1704C128.974 57.6281 128.361 57.7318 128.079 57.7605V56.5083L128.085 56.5112Z" fill="#DADADA"/>
<path d="M132.116 52.1788C132.128 52.1154 132.298 52.0176 132.349 51.9859C132.436 51.9312 132.531 51.8851 132.629 51.8535C132.819 51.793 133.032 51.7786 133.227 51.8218C133.619 51.911 133.964 52.2392 134.03 52.6422C134.068 52.8754 134.013 53.1172 133.915 53.3331C133.766 53.6555 133.509 53.9261 133.201 54.1046C132.945 54.2514 132.654 54.3349 132.361 54.3521C132.303 54.355 131.699 54.3406 131.705 54.3176C131.843 53.6037 131.981 52.8898 132.119 52.1759L132.116 52.1788Z" fill="white"/>
<path d="M132.652 52.2212C132.606 52.5349 132.33 54.1959 130.833 55.3704C130.557 55.5863 128.723 57.0227 127.045 56.3232C124.889 55.4222 125.125 51.8815 125.139 51.6886C125.191 51.0409 125.341 49.1324 126.924 48.1133C128.214 47.2814 129.613 47.5865 129.811 47.6355C130.021 47.6844 131.351 48.0212 132.166 49.3252C132.906 50.5084 132.73 51.7059 132.652 52.2212Z" fill="white"/>
<path d="M126.363 51.689C126.328 51.9654 126.115 52.1669 125.888 52.1381C125.66 52.1093 125.502 51.8618 125.537 51.5854C125.571 51.3091 125.784 51.1076 126.012 51.1363C126.239 51.1651 126.397 51.4127 126.363 51.689Z" fill="#444444"/>
<path d="M128.857 52.0024C128.822 52.2787 128.609 52.4803 128.382 52.4515C128.155 52.4227 127.996 52.1751 128.031 51.8988C128.065 51.6224 128.278 51.4209 128.506 51.4497C128.733 51.4785 128.892 51.726 128.857 52.0024Z" fill="#444444"/>
<path d="M127.113 52.1061L126.73 52.6214C126.661 52.7164 126.687 52.8517 126.788 52.9122L127.139 53.1252" stroke="#444444" stroke-width="0.4" stroke-linecap="round" stroke-linejoin="round"/>
<path d="M129.689 53.3051C129.649 53.616 129.366 53.8348 129.056 53.7974C128.745 53.7571 128.526 53.475 128.563 53.1641C128.601 52.8532 128.886 52.6344 129.197 52.6718C129.508 52.7093 129.726 52.9942 129.689 53.3051Z" fill="#DF0ADB"/>
<path d="M132.38 53.5999C132.38 53.5365 132.374 53.1163 132.711 52.814C132.976 52.5751 133.284 52.5607 133.367 52.5578" stroke="#444444" stroke-width="0.71" stroke-linecap="round" stroke-linejoin="round"/>
<path d="M132.677 52.8955C132.697 52.8926 132.922 52.861 133.08 53.0337C133.21 53.1747 133.198 53.3474 133.195 53.3762" stroke="#444444" stroke-width="0.71" stroke-linecap="round" stroke-linejoin="round"/>
<path d="M125.435 52.4089C125.329 52.3945 125.225 52.4147 125.133 52.455C125.145 52.7601 125.173 53.1286 125.24 53.5172C125.257 53.5201 125.274 53.5287 125.294 53.5287C125.605 53.569 125.887 53.3473 125.928 53.0364C125.968 52.7255 125.746 52.4434 125.435 52.4031V52.4089Z" fill="#DF0ADB"/>
<path d="M124.75 49.3209C124.675 49.5598 124.655 49.8218 124.744 50.0549C124.834 50.2881 125.032 50.4752 125.268 50.553C125.571 50.6508 125.936 50.5731 126.123 50.3054C126.123 50.3054 126.215 50.4867 126.469 50.5443C126.722 50.6019 127.01 50.3083 127.013 50.3054C127.001 50.3169 127.246 50.4896 127.272 50.4983C127.35 50.5213 127.433 50.5069 127.508 50.4781C127.548 50.4608 127.848 50.3371 127.848 50.2824C127.848 50.4781 128.248 50.3831 128.325 50.3284C128.374 50.2939 128.559 50.1586 128.559 50.0924C128.559 50.0924 128.55 50.4551 128.78 50.4954C129.011 50.5357 129.365 50.1816 129.365 50.1816C129.365 50.1816 129.514 50.527 129.653 50.5357C129.794 50.5443 130.122 50.2565 130.122 50.2565C130.122 50.2565 130.153 50.3054 130.32 50.4551C130.484 50.6048 130.807 50.2565 130.807 50.2565L132.076 52.4673C132.076 52.4673 132.059 52.1592 132.249 52.0239C132.439 51.8886 132.695 51.8311 132.695 51.8311C132.761 51.762 132.773 51.5202 132.787 51.4281C132.81 51.2813 132.825 51.1316 132.828 50.9819C132.831 50.7113 132.796 50.4378 132.715 50.1787C132.56 49.6692 132.246 49.223 131.892 48.8344C131.147 48.014 130.165 47.3663 129.074 47.1187C128.694 47.0324 128.302 46.9921 127.914 47.0065C127.353 47.0266 126.834 47.2224 126.351 47.5045C125.648 47.9132 125.001 48.5206 124.744 49.3209H124.75Z" fill="#444444"/>
<path d="M127.098 54.356L128.362 54.0537C128.284 53.6968 127.944 53.4694 127.613 53.527C127.253 53.5874 126.997 53.9703 127.095 54.356H127.098Z" fill="white" stroke="#444444" stroke-width="0.4"/>
<path d="M136.535 68.6327C133.547 73.322 130.334 75.5242 127.979 76.6641C123.083 79.0332 114.087 80.5819 113.016 81.1807C112.636 81.3937 112.417 81.4196 111.977 81.4714C111.822 81.4887 111.571 81.5089 111.358 81.362C111.301 81.3217 111.197 81.2527 111.168 81.1346C111.116 80.9274 111.303 80.6597 111.303 80.6597C111.26 80.6942 111.113 80.795 110.906 80.7921C110.846 80.7921 110.636 80.7777 110.495 80.6251C110.33 80.4495 110.313 80.1444 110.463 79.8824C110.175 80.1501 109.783 80.1473 109.596 79.9573C109.475 79.8335 109.409 79.6032 109.498 79.4046C109.559 79.2664 109.674 79.1944 109.72 79.1685C109.614 79.1973 109.326 79.2635 109.049 79.1196C108.972 79.0793 108.842 79.0102 108.782 78.8663C108.692 78.6532 108.825 78.4316 108.848 78.3913C108.977 78.1725 109.199 78.0948 109.582 77.971C110.365 77.7177 111.211 77.4759 111.211 77.4759L109.683 76.8541C109.481 76.6583 109.395 76.3877 109.473 76.1776C109.588 75.8753 110.051 75.6854 110.486 75.907C111.476 76.1488 112.466 76.3906 113.454 76.6324C113.454 76.6324 114.43 76.8339 115.247 76.7015C116.065 76.5691 122.127 73.1003 123.325 72.182C124.522 71.2638 129.701 66.4046 129.701 66.4046L136.535 68.6298V68.6327Z" fill="#FAFAFA" stroke="#444444" stroke-width="0.3"/>
<path opacity="0.2" d="M125.056 77.586L125.128 80.4013C125.954 79.9897 126.789 79.5694 127.629 79.1347C128.461 78.7058 129.279 78.2769 130.082 77.8451V75.5681L125.056 77.5831V77.586Z" fill="black"/>
<path d="M109.524 76.6504C109.637 76.7281 109.783 76.8202 109.962 76.921C110.276 77.0966 110.555 77.2175 110.756 77.2923C111.027 77.396 111.378 77.5054 111.798 77.5831" stroke="#444444" stroke-width="0.5" stroke-linecap="round" stroke-linejoin="round"/>
<path d="M109.191 79.1789C109.191 79.1789 109.332 79.2538 109.715 79.1732C110.097 79.0897 110.498 78.868 110.498 78.868" stroke="#444444" stroke-width="0.5" stroke-linecap="round" stroke-linejoin="round"/>
<path d="M110.021 80.0905C110.021 80.0905 110.168 80.056 110.533 79.889C110.896 79.722 111.233 79.4946 111.233 79.4946" stroke="#444444" stroke-width="0.5" stroke-linecap="round" stroke-linejoin="round"/>
<path d="M111.058 80.7761C111.058 80.7761 111.366 80.6494 111.542 80.5458C111.717 80.4421 111.916 80.2637 111.916 80.2637" stroke="#444444" stroke-width="0.5" stroke-linecap="round" stroke-linejoin="round"/>
<path d="M128.108 58.0998C128.108 58.0998 125.929 66.1312 125.528 69.0789C125.128 72.0267 125.122 83.0289 125.122 83.0289H121.343C121.196 81.365 120.445 72.3376 122.117 65.78C122.94 62.5588 124.095 60.9266 125.301 59.8385C126.34 58.9001 127.402 58.3819 128.102 58.0998H128.108Z" fill="#48F0AC"/>
<path opacity="0.2" d="M121.181 80.7767C121.769 80.8544 122.543 80.8976 123.435 80.7853C124.097 80.7018 124.665 80.555 125.125 80.4025C125.137 79.6943 125.148 78.9862 125.163 78.278L121.052 79.8757L121.184 80.7767H121.181Z" fill="black"/>
<path d="M144.493 84.0437C143.272 74.8177 141.913 67.8283 140.995 64.4833C140.635 63.1707 140.016 61.2333 138.303 59.8775C137.256 59.0485 136.087 58.6627 135.646 58.5217C134.118 58.0323 132.782 58.0381 131.959 58.1014C131.959 58.1014 130.332 62.2207 130.304 63.804C128.922 65.8708 126.841 68.4472 123.807 70.8423C120.473 73.4762 117.226 74.9184 114.961 75.7158L116.06 81.6631C116.06 81.6631 125.278 78.4966 130.102 76.1534C130.042 80.0021 129.99 83.2492 129.99 83.2492L144.487 84.0409L144.493 84.0437Z" fill="#48F0AC"/>
<path opacity="0.2" d="M130.084 77.8472L130.11 76.1545C133.509 74.4072 135.464 72.3202 136.474 71.0507C137.868 69.2976 138.924 67.2653 139.367 66.4075C139.966 65.2531 140.404 64.2513 140.703 63.5115C140.988 64.5968 141.276 65.682 141.561 66.7673C140.887 68.3505 139.566 70.9097 137.067 73.3594C134.445 75.9329 131.713 77.2196 130.081 77.8472H130.084Z" fill="black"/>
<path d="M135.144 58.3765C134.738 58.3995 134.128 58.4974 133.535 58.8745C132.827 59.3264 132.53 59.9367 132.084 60.7657C131.701 61.4768 131.117 62.5188 130.308 63.8027C129.533 64.8563 126.292 69.1858 122.308 71.955C120.661 73.0979 119.219 73.8434 119.219 73.8434C117.293 74.8366 114.965 75.7146 114.965 75.7146" stroke="#444444" stroke-width="0.3" stroke-linecap="round" stroke-linejoin="round"/>
<path d="M123.268 62.5757C123.268 62.5757 122.703 63.6062 122.346 64.9678C121.99 66.3294 121.699 67.7544 121.699 67.7544" stroke="#444444" stroke-width="0.3" stroke-linecap="round" stroke-linejoin="round"/>
<path d="M128.109 58.1026L118.488 52.9728" stroke="#444444" stroke-width="0.3" stroke-linecap="round" stroke-linejoin="round"/>
<path d="M118.005 49.1032C117.335 49.1838 115.616 49.489 114.352 50.9081C113.996 51.3083 113.403 51.9761 113.296 52.9721C113.097 54.849 114.807 56.1876 114.968 56.3085" stroke="#444444" stroke-width="0.3" stroke-linecap="round" stroke-linejoin="round"/>
<path d="M141.063 70.2905L142.448 80.8523" stroke="#444444" stroke-width="0.3" stroke-linecap="round" stroke-linejoin="round"/>
<path d="M140.622 63.8208C140.622 63.8208 138.768 67.9315 137.084 70.3438C135.901 72.0393 133.852 74.2616 130.109 76.1558C128.074 77.0741 125.935 77.9837 123.699 78.8704C121.07 79.9124 118.523 80.8394 116.067 81.6655" stroke="#444444" stroke-width="0.3" stroke-linecap="round" stroke-linejoin="round"/>
</g>
</svg>
