<svg width="200" height="140" viewBox="0 0 200 140" fill="none" xmlns="http://www.w3.org/2000/svg">
<mask id="mask0_184_1138" style="mask-type:alpha" maskUnits="userSpaceOnUse" x="0" y="0" width="200" height="140">
<rect width="200" height="140" fill="#D9D9D9"/>
</mask>
<g mask="url(#mask0_184_1138)">
<path d="M190.961 123.37C192.222 120.252 192.874 116.891 192.961 113.473C193.134 106.109 190.715 98.483 186.266 92.4399C177.013 79.8938 161.782 72.8196 148.27 65.9187C134.609 58.9176 122.804 48.3118 114.401 35.4517V35.4436C106.667 24.9758 93.6579 15.485 81.1929 12.9005C67.5155 10.0698 52.6988 13.3552 41.4949 21.6904C30.3019 30.0284 22.9138 43.2917 21.7096 57.2019C21.2143 62.9635 21.7258 68.7927 21.0411 74.5354C20.3564 80.2808 18.7787 86.5133 15.1225 91.2844C12.0022 96.2287 8.23784 100.867 6.86847 106.507C5.40439 112.509 6.80352 118.255 9.68027 123.37H190.961Z" fill="#ECFFF7"/>
<path d="M47.9858 36.8142H7.72221C7.60043 36.8142 7.5003 36.7168 7.5003 36.595C7.47594 34.265 8.94002 31.9619 11.059 30.9958C13.0725 30.0757 15.6082 30.3923 17.3538 31.7509C18.5607 27.7185 22.3874 24.5685 26.5875 24.2031C30.8282 23.8324 35.1771 26.3248 37.0336 30.146C39.0606 29.1258 41.7073 29.1366 44.0076 30.1893C46.1239 31.1582 47.5772 32.8415 47.9912 34.8062C48.0832 35.2419 48.2023 36.5166 48.2077 36.5707C48.2131 36.6329 48.1915 36.6952 48.1509 36.7412C48.1103 36.7872 48.048 36.8142 47.9858 36.8142ZM7.94683 36.3704H47.7395C47.6989 35.9726 47.6177 35.2013 47.5555 34.9009C47.1685 33.0742 45.8073 31.5073 43.8209 30.5953C41.5666 29.5642 38.9686 29.5831 37.0363 30.6467C36.9822 30.6765 36.9172 30.6819 36.8604 30.6629C36.8009 30.644 36.7549 30.6007 36.7278 30.5439C35.0093 26.7686 30.7632 24.2897 26.6254 24.6469C22.4902 25.0069 18.7339 28.1813 17.6893 32.1974C17.6704 32.2732 17.6136 32.3327 17.5405 32.3543C17.4674 32.376 17.3862 32.3598 17.3294 32.3083C15.7111 30.8767 13.2105 30.506 11.2457 31.4017C9.34867 32.2677 8.01719 34.2893 7.94954 36.3731L7.94683 36.3704Z" fill="#48F0AC" fill-opacity="0.6"/>
<path d="M176.242 69.7902H141.889C141.811 69.7902 141.738 69.7469 141.697 69.6793C141.657 69.6116 141.657 69.525 141.697 69.4574C143.586 66.1855 148.655 64.6565 152.073 66.2721C153.697 62.5294 156.849 59.999 160.76 59.3116C164.952 58.5755 169.333 60.7054 171.046 64.2857C172.362 63.869 173.772 64.1017 174.851 64.9271C175.994 65.7985 176.654 67.287 176.529 68.7213L176.462 69.5873C176.454 69.7036 176.356 69.7929 176.24 69.7929L176.242 69.7902ZM142.29 69.3464H176.037L176.088 68.6834C176.199 67.3952 175.609 66.061 174.584 65.2789C173.571 64.5076 172.235 64.3155 171.009 64.7701C170.9 64.8107 170.776 64.7593 170.73 64.6511C169.16 61.1411 164.909 59.0356 160.841 59.75C157.006 60.4239 153.929 62.9434 152.395 66.6618C152.371 66.7186 152.325 66.7646 152.265 66.7863C152.206 66.8079 152.141 66.8025 152.086 66.7755C148.977 65.149 144.26 66.4264 142.295 69.3464H142.29Z" fill="#48F0AC" fill-opacity="0.6"/>
<path d="M39.063 100.015C39.0197 99.9903 38.9764 99.9659 38.9358 99.9497C38.8735 99.9172 38.7924 99.8793 38.7112 99.8604C38.492 99.7846 38.2538 99.7467 38.0075 99.7467C37.5285 99.7467 36.9927 99.8875 36.3676 100.174C34.3352 101.105 32.5626 102.918 31.1066 105.562C30.8197 106.082 30.5464 106.637 30.2677 107.257C28.9822 110.133 28.0973 113.254 27.5695 116.769C27.4342 115.695 27.2718 114.628 27.0851 113.595C26.46 110.187 25.5128 107.024 24.2652 104.196C23.9188 103.416 23.5589 102.667 23.1746 101.942C21.5914 98.943 19.8297 96.8483 17.7864 95.5358C17.1911 95.1542 16.5605 94.8376 15.911 94.5994C15.5132 94.4533 14.9855 94.2855 14.4388 94.2855C14.3766 94.2855 14.3116 94.2855 14.2494 94.2909C13.9869 94.3072 13.7298 94.3721 13.4916 94.475C13.4158 94.502 13.3374 94.5399 13.2643 94.5832C12.8394 94.8159 12.4795 95.1894 12.2251 95.6576C11.1967 97.5303 11.6622 99.744 12.2251 101.849C12.9423 104.534 14.0248 107.389 15.5321 110.583C16.068 111.716 16.6661 112.915 17.459 114.434C16.9177 114.084 16.2926 113.765 15.6999 113.54C15.4049 113.432 15.1045 113.34 14.8231 113.259L14.7771 113.246C14.2846 113.097 13.7758 112.942 13.3265 112.68C12.6202 112.271 12.0357 111.6 11.4701 110.953C10.6798 110.044 9.85984 109.105 8.69885 108.853C8.49318 108.81 8.28209 108.788 8.05747 108.788C7.53517 108.788 7.03722 108.902 6.52303 109.021C6.04673 109.129 5.59479 109.229 5.14014 109.229C4.89928 109.229 4.67466 109.2 4.45816 109.143C4.27684 109.094 4.09552 109.037 3.91962 108.978C3.58134 108.87 3.23494 108.759 2.875 108.704C2.75593 108.688 2.62874 108.68 2.49884 108.68C1.67614 108.68 0.631524 109.013 0.0686236 109.349L-0.237183 109.535L0.0848611 109.695C0.869674 110.093 2.34458 111.316 3.02114 112.685C3.21058 113.07 3.3513 113.489 3.51368 113.995C3.74642 114.707 3.98727 115.443 4.48793 116.014C5.23485 116.866 6.34442 117.099 7.32679 117.305C8.13866 117.475 8.9803 117.651 9.64334 118.147C10.6095 118.866 11.0262 120.09 11.4646 121.389C11.6974 122.065 11.9355 122.766 12.2711 123.407L12.2955 123.456H12.7501L12.677 123.324C12.3279 122.685 12.0817 121.96 11.8462 121.261C11.4078 119.968 10.9532 118.631 9.88149 117.83C9.1508 117.281 8.26315 117.097 7.40256 116.915C6.39313 116.701 5.44053 116.498 4.78562 115.754C4.33367 115.232 4.11447 114.555 3.87632 113.817C3.73559 113.378 3.58945 112.926 3.38107 112.512C2.78299 111.311 1.6193 110.201 0.710005 109.606C0.91568 109.573 1.12406 109.557 1.33785 109.557C2.81005 109.557 4.20107 110.358 5.11037 111.032C5.67056 111.446 6.20911 111.914 6.73141 112.366C7.57035 113.094 8.43905 113.844 9.42142 114.406C10.1115 114.799 10.8611 115.08 11.5864 115.354C12.3442 115.638 13.129 115.933 13.8272 116.352C15.2236 117.194 17.7513 119.229 19.0015 123.397L19.0205 123.459H19.4373L19.4048 123.345C18.1247 119.007 15.4915 116.888 14.0383 116.009C13.3076 115.567 12.5038 115.267 11.7299 114.978C11.0208 114.712 10.2874 114.436 9.62439 114.06C8.6772 113.519 7.82474 112.78 6.99933 112.066C6.47161 111.608 5.92495 111.135 5.35393 110.712C4.4771 110.063 3.16457 109.3 1.73297 109.178C2.009 109.121 2.27151 109.091 2.50425 109.091C2.6152 109.091 2.72345 109.097 2.82359 109.113C3.14022 109.159 3.46226 109.262 3.79784 109.367C3.98727 109.43 4.17401 109.489 4.36344 109.538C4.61512 109.606 4.87222 109.638 5.15096 109.638C5.67056 109.638 6.16851 109.524 6.67999 109.408C7.15629 109.3 7.60553 109.197 8.06018 109.197C8.25774 109.197 8.43905 109.216 8.62037 109.254C9.65145 109.478 10.393 110.328 11.1751 111.224C11.7623 111.898 12.3712 112.593 13.1344 113.037C13.6215 113.319 14.1574 113.481 14.6715 113.635L14.8285 113.681C15.0721 113.754 15.3238 113.83 15.5646 113.922C16.2249 114.171 17.1829 114.653 17.8974 115.248C18.0814 115.402 18.2465 115.562 18.3981 115.741L18.4657 115.684L18.4251 115.779C18.5956 115.992 18.7363 116.252 18.8446 116.544L18.85 116.642H18.8744C18.9637 116.904 19.0286 117.18 19.099 117.47L19.1233 117.57C19.2451 118.101 19.3642 118.577 19.578 119.01C19.8026 119.478 20.1301 119.897 20.4196 120.266L20.4683 120.33C20.6794 120.604 20.8986 120.885 21.0962 121.221C21.1476 121.307 21.1909 121.394 21.2477 121.51C21.4751 122 21.6456 122.647 21.743 123.378L21.7538 123.456H22.157L22.1435 123.356C22.1056 123.061 22.0623 122.807 22.0136 122.579C21.9081 122.098 21.7755 121.684 21.6185 121.348C21.6077 121.324 21.5995 121.305 21.5752 121.256C21.54 121.188 21.5048 121.121 21.4561 121.037C21.448 121.018 21.4372 120.996 21.4263 120.985C21.2207 120.636 20.9663 120.309 20.739 120.019C20.6469 119.9 20.5522 119.781 20.4629 119.659C20.2302 119.356 20.0624 119.094 19.9352 118.837C19.854 118.669 19.7918 118.501 19.7404 118.322C19.651 118.06 19.5861 117.781 19.5157 117.483L19.4291 117.502L19.4968 117.41C19.3534 116.802 19.172 116.044 18.6876 115.462C18.5496 115.297 18.3818 115.134 18.214 115.002C17.8324 114.287 17.459 113.562 17.0909 112.84C15.4915 109.695 14.3468 107.07 13.4835 104.577C12.9693 103.089 12.5688 101.693 12.2603 100.31C12.0194 99.2326 11.9653 98.326 12.0871 97.4518C12.2305 96.4099 12.5715 95.6414 13.1019 95.1705C13.2129 95.0758 13.3238 94.9946 13.4456 94.9269C17.2398 98.648 20.26 103.203 22.1895 108.101C23.3126 110.948 24.1191 113.9 24.8254 116.666C25.4127 118.967 25.9052 121.229 26.2922 123.383L26.3057 123.456H26.7117L26.6927 123.351C26.3544 121.467 25.9431 119.521 25.4641 117.567C24.82 114.942 24.0135 111.857 22.9067 108.853C21.9541 106.263 20.7281 103.784 19.2641 101.481C17.7242 99.0593 15.9056 96.7996 13.857 94.7645C14.0329 94.7185 14.225 94.6942 14.4253 94.6942C14.8285 94.6942 15.2913 94.7889 15.7946 94.9783C18.0435 95.8091 20.0705 97.6277 21.8188 100.391C22.1706 100.943 22.517 101.541 22.8471 102.166C25.207 106.672 26.6846 111.982 27.3612 118.406C27.3963 118.75 27.4315 119.094 27.464 119.448L27.5452 120.385C27.6101 121.256 27.6697 122.203 27.7265 123.37L27.7319 123.453H28.0431L28.1351 123.429L28.1297 123.334C28.035 121.481 27.9132 119.843 27.7563 118.355C28.1324 115.08 28.7955 112.182 29.7805 109.497C30.0458 108.777 30.3299 108.087 30.6222 107.441C31.8589 104.686 33.2878 102.729 34.9928 101.454C35.4718 101.097 35.9724 100.797 36.4785 100.559C36.9467 100.339 37.4555 100.136 38.013 100.136C38.1293 100.136 38.243 100.147 38.3566 100.172C35.1795 103.752 32.7141 108.028 31.223 112.545C30.3434 115.213 29.7616 118.006 29.2636 120.625C29.1094 121.437 28.9524 122.328 28.7901 123.348L28.7738 123.451H29.1716L29.1825 123.375C29.2718 122.828 29.3638 122.284 29.4612 121.74C29.8942 119.337 30.449 116.507 31.2663 113.746C31.9672 111.359 32.9333 109.035 34.1349 106.843C35.4258 104.491 36.9819 102.293 38.7626 100.315C39.1577 100.51 39.496 100.862 39.7422 101.335C40.6461 103.097 40.1834 105.2 39.7747 107.056L39.7612 107.113C39.2308 109.503 38.4378 111.968 37.2687 114.869C36.2972 117.278 35.1876 119.676 34.1132 121.995L33.4421 123.448H33.8751L34.5002 122.098C35.3284 120.309 36.1862 118.458 36.9738 116.615C38.3025 113.497 39.2118 110.918 39.8397 108.499C40.1455 107.316 40.4756 105.92 40.6245 104.54C40.7219 103.638 40.6434 102.729 40.3999 101.909C40.2104 101.278 39.8261 100.437 39.0657 100.004L39.063 100.015Z" fill="#48F0AC" fill-opacity="0.6"/>
<path d="M199.16 109.34C198.624 109.018 197.579 108.685 196.759 108.685C196.629 108.685 196.502 108.694 196.383 108.71C196.026 108.764 195.68 108.875 195.339 108.983C195.163 109.04 194.981 109.097 194.8 109.146C194.581 109.205 194.359 109.232 194.118 109.232C193.661 109.232 193.211 109.129 192.703 109.016C192.221 108.905 191.723 108.791 191.201 108.791C190.973 108.791 190.765 108.813 190.559 108.856C189.396 109.108 188.578 110.047 187.788 110.956C187.223 111.606 186.638 112.274 185.932 112.683C185.485 112.945 184.974 113.099 184.481 113.246L184.435 113.259C184.154 113.34 183.851 113.432 183.558 113.54C182.966 113.765 182.343 114.084 181.802 114.434C182.595 112.915 183.193 111.716 183.729 110.583C185.236 107.392 186.319 104.537 187.036 101.849C187.599 99.744 188.064 97.5303 187.036 95.6576C186.781 95.1867 186.421 94.8159 185.999 94.5832C185.929 94.5399 185.85 94.502 185.775 94.475C185.531 94.3694 185.274 94.3072 185.012 94.2909C184.947 94.2855 184.884 94.2855 184.822 94.2855C184.273 94.2855 183.748 94.4533 183.347 94.5994C182.7 94.8403 182.07 95.1542 181.472 95.5358C179.429 96.8483 177.664 98.943 176.097 101.92L176.07 101.955L176.065 101.966C175.697 102.667 175.337 103.414 174.99 104.193C173.745 107.021 172.796 110.185 172.17 113.592C171.984 114.626 171.821 115.692 171.686 116.766C171.161 113.251 170.276 110.131 168.991 107.254C168.712 106.637 168.438 106.082 168.152 105.56C166.693 102.916 164.923 101.103 162.891 100.172C162.263 99.8848 161.727 99.744 161.251 99.744C161.002 99.744 160.766 99.7819 160.552 99.855C160.485 99.8712 160.414 99.901 160.328 99.9443C160.279 99.9632 160.236 99.9876 160.192 100.012C159.432 100.445 159.048 101.287 158.858 101.917C158.612 102.737 158.536 103.646 158.634 104.548C158.783 105.922 159.099 107.262 159.419 108.507C160.046 110.926 160.956 113.505 162.284 116.623C163.072 118.466 163.93 120.317 164.761 122.108L165.383 123.453H165.816L165.145 122.003C164.071 119.684 162.961 117.286 161.989 114.875C160.82 111.974 160.027 109.508 159.497 107.119L159.486 107.062C159.078 105.205 158.612 103.1 159.516 101.338C159.762 100.864 160.098 100.513 160.496 100.318C162.276 102.296 163.832 104.493 165.123 106.845C166.325 109.037 167.288 111.359 167.992 113.752C168.812 116.509 169.364 119.34 169.797 121.743C169.894 122.287 169.986 122.831 170.076 123.378L170.087 123.453H170.484L170.468 123.351C170.306 122.339 170.152 121.448 169.995 120.628C169.499 118.011 168.917 115.218 168.038 112.547C166.547 108.031 164.084 103.755 160.904 100.174C161.018 100.15 161.137 100.139 161.264 100.139C161.805 100.139 162.314 100.342 162.782 100.561C163.288 100.799 163.789 101.103 164.268 101.457C165.973 102.732 167.402 104.688 168.639 107.443C168.931 108.09 169.215 108.78 169.48 109.5C170.468 112.185 171.131 115.08 171.505 118.339C171.348 119.846 171.226 121.481 171.131 123.361L171.126 123.456H171.532L171.537 123.372C171.594 122.217 171.651 121.267 171.718 120.387L171.8 119.446C171.832 119.094 171.867 118.75 171.902 118.398C172.579 111.982 174.057 106.675 176.416 102.169C176.747 101.544 177.09 100.946 177.445 100.394C179.193 97.6332 181.223 95.8118 183.472 94.981C183.978 94.7916 184.438 94.6969 184.841 94.6969C185.041 94.6969 185.231 94.7212 185.409 94.7672C183.358 96.8023 181.539 99.0621 180.002 101.484C178.538 103.784 177.312 106.263 176.36 108.853C175.253 111.857 174.446 114.945 173.802 117.567C173.323 119.524 172.912 121.47 172.574 123.351L172.555 123.456H172.961L172.974 123.383C173.358 121.232 173.854 118.972 174.438 116.666C175.145 113.9 175.951 110.948 177.074 108.101C179.004 103.203 182.027 98.648 185.818 94.9269C185.94 94.9946 186.051 95.073 186.162 95.1678C186.692 95.6414 187.033 96.4072 187.177 97.4518C187.298 98.326 187.244 99.2326 187.003 100.31C186.695 101.693 186.294 103.089 185.78 104.577C184.917 107.073 183.769 109.698 182.173 112.84C181.805 113.562 181.431 114.287 181.071 114.975C180.879 115.134 180.714 115.297 180.576 115.462C180.089 116.044 179.91 116.799 179.759 117.44L179.742 117.511C179.68 117.781 179.613 118.06 179.523 118.325C179.472 118.501 179.41 118.669 179.328 118.834C179.201 119.094 179.033 119.356 178.798 119.659C178.709 119.778 178.617 119.897 178.525 120.017C178.3 120.303 178.046 120.631 177.845 120.972C177.829 120.994 177.816 121.018 177.797 121.056C177.756 121.126 177.715 121.205 177.669 121.291C177.661 121.307 177.653 121.326 177.648 121.343C177.488 121.681 177.356 122.098 177.25 122.579C177.199 122.812 177.155 123.066 177.12 123.356L177.107 123.456H177.51L177.521 123.378C177.615 122.647 177.789 122 178.029 121.483C178.073 121.391 178.116 121.307 178.165 121.224L178.189 121.183C178.362 120.885 178.581 120.604 178.793 120.33L178.844 120.263C179.134 119.895 179.461 119.475 179.686 119.007C179.899 118.571 180.018 118.098 180.138 117.576L180.162 117.47C180.232 117.172 180.3 116.894 180.389 116.626L180.411 116.566C180.527 116.244 180.665 115.984 180.836 115.77L180.879 115.716C181.02 115.554 181.182 115.394 181.366 115.243C182.081 114.645 183.041 114.166 183.702 113.917C183.943 113.825 184.194 113.749 184.438 113.676L184.597 113.627C185.112 113.47 185.647 113.31 186.135 113.029C186.898 112.585 187.507 111.89 188.094 111.216C188.879 110.317 189.618 109.47 190.649 109.246C190.827 109.208 191.011 109.189 191.209 109.189C191.663 109.189 192.113 109.292 192.619 109.405C193.1 109.516 193.598 109.63 194.118 109.63C194.397 109.63 194.654 109.597 194.906 109.53C195.095 109.481 195.282 109.422 195.496 109.351C195.807 109.254 196.129 109.151 196.445 109.105C196.546 109.089 196.654 109.083 196.765 109.083C196.998 109.083 197.26 109.113 197.533 109.17C196.102 109.292 194.789 110.055 193.912 110.704C193.341 111.127 192.795 111.6 192.264 112.06C191.439 112.775 190.586 113.513 189.639 114.055C188.979 114.431 188.245 114.707 187.536 114.972C186.76 115.262 185.959 115.562 185.228 116.003C183.772 116.88 181.142 119.002 179.862 123.34L179.826 123.453H180.243L180.262 123.391C181.512 119.224 184.04 117.189 185.436 116.347C186.132 115.927 186.917 115.632 187.68 115.348C188.402 115.078 189.152 114.796 189.842 114.404C190.825 113.844 191.693 113.091 192.532 112.363C193.054 111.911 193.593 111.443 194.153 111.029C195.063 110.355 196.456 109.554 197.926 109.554C198.137 109.554 198.348 109.57 198.554 109.603C197.644 110.198 196.481 111.308 195.885 112.509C195.677 112.926 195.531 113.381 195.382 113.838C195.149 114.555 194.93 115.232 194.481 115.754C193.826 116.498 192.873 116.701 191.858 116.915C191 117.094 190.115 117.281 189.385 117.83C188.313 118.634 187.858 119.971 187.42 121.261C187.182 121.962 186.936 122.688 186.587 123.324L186.513 123.456H186.968L186.992 123.407C187.325 122.769 187.566 122.068 187.802 121.386C188.24 120.092 188.654 118.869 189.623 118.149C190.286 117.654 191.125 117.478 191.94 117.308C192.922 117.102 194.031 116.869 194.778 116.017C195.279 115.446 195.52 114.712 195.75 114.003L195.763 113.96C195.912 113.492 196.053 113.072 196.242 112.688C196.922 111.319 198.397 110.093 199.179 109.698L199.501 109.538L199.165 109.338L199.16 109.34Z" fill="#48F0AC" fill-opacity="0.6"/>
<path d="M199.629 123.37C199.629 123.47 199.55 123.549 199.455 123.549H-0.19826C-0.292979 123.549 -0.37146 123.468 -0.37146 123.37C-0.37146 123.322 -0.352516 123.276 -0.320041 123.243C-0.287566 123.211 -0.244266 123.192 -0.19826 123.192H199.455C199.55 123.192 199.629 123.273 199.629 123.37Z" fill="#48F0AC" fill-opacity="0.6"/>
<path d="M138.474 110.067L62.7961 103.852C57.0503 103.381 53.9118 96.9317 57.0986 92.1426L100.524 26.8569C103.819 21.9028 111.295 22.5191 113.741 27.9435L145.993 99.4437C148.359 104.69 144.219 110.541 138.47 110.069L138.474 110.067Z" fill="#48F0AC"/>
<path d="M137.866 113.328L62.7685 107.218C59.0748 106.916 55.9066 104.737 54.292 101.381C52.6768 98.029 52.9403 94.1723 54.9933 91.0641L98.186 25.6587C100.31 22.4442 103.856 20.7118 107.675 21.0227C111.493 21.3335 114.708 23.6179 116.276 27.1309L148.181 98.6466C149.697 102.045 149.323 105.895 147.184 108.941C145.042 111.987 141.56 113.63 137.866 113.328ZM107.203 26.7388C105.485 26.5991 103.886 27.3778 102.933 28.8259L59.7405 94.2314C58.8162 95.6311 58.699 97.3669 59.4247 98.8743C60.1499 100.385 61.5775 101.365 63.2403 101.501L138.338 107.612C140.001 107.748 141.569 107.009 142.533 105.636C143.497 104.264 143.666 102.534 142.982 101.004L111.077 29.4881C110.373 27.9074 108.924 26.879 107.206 26.7393L107.203 26.7388Z" fill="#2CA473"/>
<path d="M94.9529 92.0934C95.0327 91.1277 95.2762 90.2481 95.6887 89.4582C96.0983 88.6679 96.6428 87.9969 97.3215 87.448C97.9975 86.8986 98.7897 86.4918 99.7012 86.228C100.61 85.9638 101.617 85.8773 102.724 85.9657C103.83 86.057 104.816 86.307 105.685 86.7162C106.554 87.1253 107.276 87.6567 107.854 88.3073C108.431 88.9579 108.857 89.7092 109.136 90.5561C109.412 91.4025 109.511 92.3102 109.432 93.2759C109.352 94.2416 109.107 95.1122 108.696 95.8907C108.286 96.6691 107.743 97.3316 107.067 97.8781C106.391 98.4275 105.591 98.8329 104.664 99.0971C103.742 99.359 102.725 99.4469 101.619 99.3556C100.513 99.2644 99.5329 99.0153 98.681 98.609C97.8263 98.2022 97.1119 97.6723 96.5322 97.0183C95.9548 96.3677 95.5271 95.6249 95.2488 94.7928C94.9704 93.9606 94.873 93.0591 94.9529 92.0934ZM108.575 80.6279L97.8179 79.7515L99.3264 42.7388L113.131 43.8643L108.575 80.6279Z" fill="#2CA473"/>
<path d="M50.774 124.602V124.69L50.8498 124.733L57.6207 128.588V129.826L45.6288 129.634V121.793H50.774V124.602Z" fill="white" stroke="#444444" stroke-width="0.3"/>
<path d="M58.2059 129.979V129.276C58.2059 128.558 57.8121 127.899 57.1826 127.559L51.999 124.758C50.4447 125.183 49.2453 125.124 48.4241 124.984C47.0615 124.753 45.7585 124.133 45.3207 124.652C45.1964 124.799 45.1808 124.994 45.186 125.129V129.432C45.186 129.732 45.4295 129.979 45.7326 129.979H58.2085H58.2059Z" fill="#EDF719"/>
<path d="M58.2058 129.509H45.1833" stroke="#1E54CB" stroke-width="0.73" stroke-linecap="round" stroke-linejoin="round"/>
<path d="M55.3382 126.623L54.6077 127.588" stroke="#1E54CB" stroke-width="0.73" stroke-linecap="round" stroke-linejoin="round"/>
<path d="M54.8019 126.319L54.074 127.284" stroke="#1E54CB" stroke-width="0.73" stroke-linecap="round" stroke-linejoin="round"/>
<path d="M54.2449 126.039L53.5144 127.004" stroke="#1E54CB" stroke-width="0.73" stroke-linecap="round" stroke-linejoin="round"/>
<path d="M53.4211 125.528C52.5378 125.865 51.0793 126.299 49.2401 126.288C47.4656 126.278 46.0538 125.86 45.1833 125.528" stroke="#1E54CB" stroke-width="0.73" stroke-linecap="round" stroke-linejoin="round"/>
<path d="M66.2911 124.602V124.69L66.3669 124.733L73.1403 128.588V129.826L61.1484 129.634V121.793H66.2911V124.602Z" fill="white" stroke="#444444" stroke-width="0.3"/>
<path d="M73.7255 129.979V129.276C73.7255 128.558 73.3318 127.899 72.7023 127.559L67.5187 124.758C65.9644 125.183 64.765 125.124 63.9438 124.984C62.5812 124.753 61.2782 124.133 60.8404 124.652C60.716 124.799 60.7005 124.994 60.7057 125.129V129.432C60.7057 129.732 60.9492 129.979 61.2523 129.979H73.7281H73.7255Z" fill="#EDF719"/>
<path d="M73.7256 129.509H60.7031" stroke="#1E54CB" stroke-width="0.73" stroke-linecap="round" stroke-linejoin="round"/>
<path d="M70.8552 126.623L70.1273 127.588" stroke="#1E54CB" stroke-width="0.73" stroke-linecap="round" stroke-linejoin="round"/>
<path d="M70.3216 126.319L69.5911 127.284" stroke="#1E54CB" stroke-width="0.73" stroke-linecap="round" stroke-linejoin="round"/>
<path d="M69.7621 126.039L69.0342 127.004" stroke="#1E54CB" stroke-width="0.73" stroke-linecap="round" stroke-linejoin="round"/>
<path d="M68.9409 125.528C68.0576 125.865 66.5991 126.299 64.7598 126.288C62.9854 126.278 61.5735 125.86 60.7031 125.528" stroke="#1E54CB" stroke-width="0.73" stroke-linecap="round" stroke-linejoin="round"/>
<path d="M63.3143 82.4574C63.3143 82.4574 67.7985 96.7115 68.4876 98.6851C69.1766 100.659 69.8165 103.421 69.6688 105.838C69.5212 108.255 67.2053 123.15 67.2053 123.15H60.457C60.457 123.15 59.9804 107.415 59.7498 106.183C59.5193 104.951 57.5505 97.9745 57.5505 97.9745C57.5505 97.9745 56.9106 106.134 56.3692 108.302C55.8278 110.473 51.4913 123.394 51.4913 123.394H45.186L47.8465 82.4548H63.3143V82.4574Z" fill="#444444"/>
<path d="M73.6038 73.7664C73.6038 73.7664 75.7435 71.9483 76.2849 70.7579C76.7486 69.7412 77.3963 67.9517 77.575 67.4563C77.6009 67.3811 77.6786 67.3396 77.7563 67.3578L77.8859 67.3889C78.2822 67.4822 78.5283 67.8817 78.4324 68.2811L78.2174 69.1732L80.4789 67.6871C80.6732 67.5601 80.9349 67.6223 81.0489 67.8246C81.1499 68.0035 81.1007 68.2292 80.9375 68.3485L79.4453 69.4378L81.9244 68.2733C82.1161 68.1825 82.3441 68.2551 82.4503 68.4393V68.4444C82.5643 68.639 82.4969 68.8879 82.3027 68.9995L82.3312 68.9917C82.5462 68.9294 82.7741 69.0332 82.8674 69.2381C82.9762 69.4741 82.8674 69.7516 82.6265 69.8501L82.4684 69.915C82.6731 69.8501 82.8907 69.9798 82.9321 70.1899C82.9943 70.4985 82.8441 70.8098 82.5669 70.955C81.9011 71.3025 81.4659 71.3933 80.8338 71.8679C80.3313 72.244 80.5074 72.4826 79.9738 73.1699C79.321 74.005 78.7666 74.0283 77.6449 74.8557C77.2175 75.1695 76.6295 75.6597 76.0077 76.3859L73.6089 73.7664H73.6038Z" fill="white" stroke="#444444" stroke-width="0.3"/>
<path d="M81.0851 67.9128C81.0851 67.9128 81.1991 68.1436 80.9841 68.307C80.7691 68.4704 79.0826 69.7205 79.0826 69.7205" stroke="#262626" stroke-width="0.41" stroke-linecap="round" stroke-linejoin="round"/>
<path d="M82.3001 68.9995L79.9816 70.0784" stroke="#262626" stroke-width="0.41" stroke-linecap="round" stroke-linejoin="round"/>
<path d="M82.5409 69.8994L80.2069 70.9757" stroke="#262626" stroke-width="0.41" stroke-linecap="round" stroke-linejoin="round"/>
<path d="M78.0464 67.4511C78.0464 67.4511 78.4531 67.7105 78.4428 67.9958C78.4324 68.281 78.0205 70.1225 78.0205 70.1225" stroke="#262626" stroke-width="0.41" stroke-linecap="round" stroke-linejoin="round"/>
<path d="M56.6309 107.314L58.2758 89.4858" stroke="white" stroke-width="0.41" stroke-linecap="round" stroke-linejoin="round"/>
<path d="M67.4643 121.778H60.4052L60.457 123.147H67.2052L67.4643 121.778Z" fill="#262626"/>
<path d="M51.8979 122.172H45.2637L45.1833 123.394H51.4912L51.8979 122.172Z" fill="#262626"/>
<path d="M67.8762 100.093C68.7699 102.91 68.9124 105.96 68.2829 108.847" stroke="white" stroke-width="0.41" stroke-linecap="round" stroke-linejoin="round"/>
<path d="M50.4166 56.2501L52.3253 55.7491C52.3253 55.7491 52.5378 54.8362 52.8253 54.6416C53.1128 54.4471 54.6438 53.8532 54.6438 53.8532L54.8666 54.0607C54.8666 54.0607 53.6698 55.1552 53.4211 55.6402C53.1724 56.1252 53.1258 57.479 53.1258 57.479L51.9549 58.9936L50.8333 59.5834L50.4166 56.6667V56.2501Z" fill="white" stroke="#444444" stroke-width="0.3" stroke-linejoin="round"/>
<path d="M75.3827 71.9315C75.3827 71.9315 74.2403 72.8133 72.9373 73.0415C71.4115 73.3086 70.0877 72.4061 69.7328 72.1623C68.7666 71.5009 68.4091 70.7177 67.7692 69.7996C65.8756 67.0841 64.6969 65.3983 63.0494 64.4413C62.1971 63.9486 60.7749 63.3909 58.5289 63.5621C58.0264 63.3806 57.2233 63.5258 56.6845 63.5258H55.3426C54.4619 63.6321 47.9701 64.3869 46.8665 63.3728C46.4313 62.9734 46.4235 62.5792 46.4235 62.5792C46.4184 62.2524 46.623 61.9152 47.1618 61.5054C48.4752 60.5043 50.887 59.7548 51.6952 59.5162L51.203 55.8334H50.1202C49.0374 55.8334 45.1931 56.474 43.1258 57.1976C40.2245 58.2117 38.6702 58.9534 37.9034 60.6366C36.9423 62.7452 37.9656 65.0119 38.2324 65.6006C39.5639 68.5495 42.5171 69.7451 44.3019 70.4661C45.8744 71.1015 47.2758 71.3583 48.2498 71.4698L47.4131 84.8862L62.8162 85.7239H65.1295C65.3057 83.675 64.4197 77.3053 64.5363 75.2253C66.5025 77.964 69.7613 79.349 72.8518 78.7551C76.2739 78.0963 77.9965 75.3005 78.2763 74.831C77.0821 72.4709 75.3853 71.9367 75.3853 71.9367L75.3827 71.9315Z" fill="#07BE87"/>
<path d="M56.0972 64.4763H57.0686V70.0576C57.0686 70.5115 56.7008 70.8798 56.2474 70.8798H56.0998V64.4763H56.0972Z" fill="white"/>
<path opacity="0.1" d="M65.151 84.9342C64.6199 85.0327 57.3303 86.2569 52.1778 80.8104C47.8309 76.2147 48.3438 70.4 48.4345 69.5415C48.1651 73.5745 47.8931 77.6074 47.6237 81.643H47.6081L47.4113 84.8045L49.8256 84.9368V84.9186C53.4238 85.2039 57.1412 85.4166 60.9673 85.5436C62.3688 85.5903 63.7547 85.624 65.1277 85.6448C65.1354 85.4088 65.1432 85.1728 65.151 84.9368V84.9342Z" fill="black"/>
<path d="M61.0657 58.5994C61.33 57.243 61.2885 56.1822 61.2108 55.5053C61.1538 54.9892 61.0631 54.6001 60.7885 54.2293C60.7316 54.1515 60.2756 53.5523 59.4959 53.3967C58.5633 53.21 58.3276 53.8869 57.0012 54.0529C55.8562 54.1955 55.6309 53.7391 54.8615 54.0659C54.0222 54.4238 53.6051 55.2563 53.4807 55.5079C53.4263 55.6194 53.1518 56.1822 53.1233 56.9758C53.1025 57.6035 53.245 58.0755 53.302 58.2674C53.5403 59.0792 53.8201 60.3137 54.1646 62.29C54.3434 62.2822 54.5221 62.277 54.7009 62.2692C56.8199 61.0477 58.9415 59.8235 61.0631 58.602L61.0657 58.5994Z" fill="#262626"/>
<path d="M56.5298 65.27C55.5273 65.2726 54.7138 64.4634 54.7087 63.4597L54.6931 59.5512L58.3224 59.5383L58.3379 63.4467C58.3405 64.4504 57.5323 65.2648 56.5298 65.27Z" fill="white"/>
<path opacity="0.25" d="M58.3327 62.3522L55.9702 61.1359C55.9935 61.3408 56.1282 62.3004 56.9701 62.9617C57.509 63.3845 58.0737 63.4804 58.3353 63.509V62.3496L58.3327 62.3522Z" fill="#444444"/>
<path d="M54.6051 58.34C54.5947 58.2804 54.4393 58.1922 54.3901 58.1611C54.3098 58.1092 54.2217 58.0677 54.131 58.0392C53.9549 57.9821 53.7606 57.9692 53.5767 58.0106C53.214 58.0936 52.8953 58.3971 52.8332 58.7706C52.7969 58.9858 52.8487 59.2115 52.942 59.4086C53.0819 59.7068 53.3176 59.9584 53.6026 60.1218C53.8383 60.2592 54.1077 60.3345 54.3797 60.3526C54.4341 60.3552 54.9911 60.3422 54.9885 60.3215C54.8615 59.6601 54.732 58.9988 54.6051 58.34Z" fill="white"/>
<path d="M54.1077 58.3789C54.1517 58.6694 54.4056 60.2074 55.7915 61.2967C56.0454 61.4964 57.7422 62.8268 59.2939 62.1785C61.2886 61.3433 61.071 58.0651 61.0554 57.8887C61.0088 57.2896 60.8689 55.5208 59.4053 54.5768C58.211 53.8065 56.9184 54.0892 56.7345 54.1333C56.5402 54.18 55.3097 54.4886 54.5559 55.6972C53.872 56.7943 54.0352 57.9017 54.1051 58.3789H54.1077Z" fill="white"/>
<path d="M59.9259 57.8888C59.957 58.1455 60.1539 58.3297 60.3663 58.3038C60.5762 58.2778 60.7212 58.047 60.6901 57.7928C60.6591 57.5361 60.4622 57.3519 60.2498 57.3779C60.0399 57.4038 59.8949 57.6346 59.9259 57.8888Z" fill="#262626"/>
<path d="M57.623 58.1766C57.6541 58.4334 57.8509 58.6175 58.0634 58.5916C58.2732 58.5657 58.4183 58.3348 58.3872 58.0807C58.3561 57.8239 58.1592 57.6398 57.9468 57.6657C57.737 57.6916 57.5919 57.9225 57.623 58.1766Z" fill="#262626"/>
<path d="M59.2291 58.27L59.5814 58.7472C59.6462 58.8354 59.6229 58.9599 59.5296 59.017L59.2058 59.2141" stroke="#262626" stroke-width="0.3" stroke-linecap="round" stroke-linejoin="round"/>
<path d="M56.8484 59.3826C56.8847 59.6705 57.1464 59.8728 57.4339 59.8365C57.7214 59.8002 57.9235 59.5383 57.8872 59.2504C57.851 58.9625 57.5893 58.7602 57.3018 58.7965C57.0142 58.8328 56.8122 59.0948 56.8484 59.3826Z" fill="#DF0ADB"/>
<path d="M54.3616 59.655C54.3616 59.5979 54.3693 59.2063 54.0559 58.9262C53.8098 58.7057 53.5248 58.6902 53.4497 58.6902" stroke="#262626" stroke-width="0.3" stroke-linecap="round" stroke-linejoin="round"/>
<path d="M54.087 59.0014C54.0688 58.9988 53.859 58.9703 53.7139 59.1285C53.5948 59.2582 53.6051 59.419 53.6077 59.4475" stroke="#262626" stroke-width="0.3" stroke-linecap="round" stroke-linejoin="round"/>
<path d="M54.0637 58.021C54.0637 58.021 54.3227 58.0444 54.517 58.2363C54.7113 58.4282 54.7812 58.7602 54.7812 58.7602C55.2786 58.7005 56.4158 58.4904 57.4468 57.5931C58.0064 57.1081 58.3483 56.5816 58.5478 56.2029C58.7369 56.3715 59.0581 56.6257 59.5115 56.8228C60.1047 57.0796 60.843 57.2015 60.9414 57.0018C60.9596 56.9654 60.9414 56.8591 60.9 56.6438C60.8844 56.566 60.8689 56.4519 60.8326 56.343C60.7601 56.1277 60.6642 55.9228 60.5503 55.7257C60.3223 55.3341 60.0192 54.9866 59.6617 54.7065C59.4286 54.5249 59.1747 54.3745 58.9053 54.2578C58.0452 53.8921 56.851 53.8921 55.8226 54.4393C55.8226 54.4393 54.675 55.0514 54.1699 56.2522C53.9963 56.6646 53.9523 57.077 53.9419 57.2196C53.9212 57.5023 53.9523 57.6864 53.9937 57.8291C54.017 57.9095 54.0455 57.9743 54.0662 58.0184L54.0637 58.021Z" fill="#262626"/>
<path d="M60.786 58.5553C60.8844 58.5423 60.9803 58.5605 61.0658 58.5994C61.0554 58.8821 61.0295 59.2218 60.9673 59.5849C60.9518 59.5875 60.9337 59.5953 60.9181 59.5953C60.6306 59.6316 60.3689 59.4267 60.3327 59.1414C60.2964 58.8562 60.501 58.5916 60.786 58.5553Z" fill="#DF0ADB"/>
<path d="M56.9443 54.1981C56.7733 54.1307 56.5246 54.0399 56.2163 53.9517C55.5428 53.7572 55.206 53.6613 54.8978 53.7002C53.9989 53.8169 53.4833 54.9995 53.2683 55.4975C53.1051 55.8736 52.8357 56.5116 52.9782 57.3104C53.0404 57.6657 53.1673 57.9458 53.2657 58.1273" stroke="#262626" stroke-width="0.25" stroke-linecap="round" stroke-linejoin="round"/>
<path d="M56.9442 54.0892C57.2473 53.9569 57.5737 53.848 57.8638 53.6976C58.1721 53.5368 58.4389 53.3293 58.7679 53.2074C59.1125 53.0777 59.4984 53.0258 59.8508 53.1348C60.1538 53.2281 60.4155 53.4304 60.6279 53.6638C60.9154 53.9803 61.1356 54.3615 61.2522 54.7739C61.4724 55.5701 61.2755 56.3974 61.146 57.1911" stroke="#262626" stroke-width="0.25" stroke-linecap="round" stroke-linejoin="round"/>
<path d="M59.4702 60.3111C59.4702 60.4625 59.3137 60.628 59.0581 60.628C58.8031 60.628 58.646 60.4604 58.646 60.3111C58.646 60.1618 58.8031 59.9943 59.0581 59.9943C59.3131 59.9943 59.4702 60.1618 59.4702 60.3111Z" fill="white" stroke="#444444" stroke-width="0.3"/>
<path d="M48.4345 70.1225L47.8905 77.1328" stroke="#444444" stroke-width="0.41" stroke-linecap="round" stroke-linejoin="round"/>
<path d="M64.265 70.6957L64.6821 78.4322" stroke="#444444" stroke-width="0.41" stroke-linecap="round" stroke-linejoin="round"/>
<path d="M40.3366 59.655C40.119 59.8287 38.9999 60.7546 38.8186 62.3937C38.6217 64.1781 39.6942 65.4022 39.8626 65.5864" stroke="#444444" stroke-width="0.41" stroke-linecap="round" stroke-linejoin="round"/>
<path d="M66.9487 75.6571C67.2363 75.9787 68.358 77.1458 70.2387 77.4C72.0235 77.6412 73.355 76.9072 73.7384 76.6764" stroke="#444444" stroke-width="0.41" stroke-linecap="round" stroke-linejoin="round"/>
<path d="M53.3343 50.8248L52.6927 51.222L48.8789 45.9484L50.5139 44.9395L53.3343 50.8248Z" fill="#DADADA"/>
<path d="M54.6888 50.1969L53.9329 50.1773L53.6234 43.676L55.5422 43.7259L54.6888 50.1969Z" fill="#DADADA"/>
<path d="M51.7379 51.7008L51.5224 52.4228L45.1718 51.024L45.7251 49.1824L51.7379 51.7008Z" fill="#DADADA"/>
<path d="M56 61.5C56.8707 62.0952 62 64 61 57M53.4999 58C52.5 58 52.5001 60 54.5 60.5L54.5 64" stroke="#444444" stroke-width="0.3" stroke-linecap="round"/>
</g>
</svg>
