<svg width="200" height="140" viewBox="0 0 200 140" fill="none" xmlns="http://www.w3.org/2000/svg">
<mask id="mask0_177_636" style="mask-type:alpha" maskUnits="userSpaceOnUse" x="0" y="0" width="200" height="140">
<rect width="200" height="140" fill="#D9D9D9"/>
</mask>
<g mask="url(#mask0_177_636)">
<path d="M190.961 123.37C192.222 120.252 192.874 116.891 192.961 113.473C193.134 106.109 190.715 98.483 186.266 92.4399C177.013 79.8938 161.782 72.8196 148.27 65.9187C134.609 58.9176 122.804 48.3118 114.401 35.4517V35.4436C106.667 24.9758 93.6579 15.485 81.1929 12.9005C67.5155 10.0698 52.6988 13.3552 41.4949 21.6904C30.3019 30.0284 22.9138 43.2917 21.7096 57.2019C21.2143 62.9635 21.7258 68.7927 21.0411 74.5354C20.3564 80.2808 18.7787 86.5133 15.1225 91.2844C12.0022 96.2287 8.23784 100.867 6.86847 106.507C5.40439 112.509 6.80352 118.255 9.68027 123.37H190.961Z" fill="#ECFFF7"/>
<path d="M122.247 22.6476H81.9837C81.8619 22.6476 81.7618 22.5501 81.7618 22.4284C81.7374 20.0983 83.2015 17.7953 85.3205 16.8291C87.3339 15.909 89.8697 16.2256 91.6152 17.5842C92.8222 13.5519 96.6489 10.4018 100.849 10.0364C105.09 9.66568 109.439 12.1581 111.295 15.9794C113.322 14.9591 115.969 14.9699 118.269 16.0227C120.385 16.9915 121.839 18.6748 122.253 20.6395C122.345 21.0752 122.464 22.3499 122.469 22.404C122.475 22.4662 122.453 22.5285 122.412 22.5745C122.372 22.6205 122.31 22.6476 122.247 22.6476ZM82.2083 22.2037H122.001C121.96 21.8059 121.879 21.0346 121.817 20.7342C121.43 18.9075 120.069 17.3406 118.082 16.4286C115.828 15.3975 113.23 15.4165 111.298 16.48C111.244 16.5098 111.179 16.5152 111.122 16.4963C111.062 16.4773 111.016 16.434 110.989 16.3772C109.271 12.602 105.025 10.123 100.887 10.4803C96.7517 10.8402 92.9954 14.0146 91.9508 18.0307C91.9319 18.1065 91.875 18.166 91.802 18.1877C91.7289 18.2093 91.6477 18.1931 91.5909 18.1417C89.9725 16.71 87.472 16.3393 85.5072 17.2351C83.6101 18.1011 82.2787 20.1226 82.211 22.2064L82.2083 22.2037Z" fill="#48F0AC" fill-opacity="0.6"/>
<path d="M182.845 70.2818H148.492C148.414 70.2818 148.341 70.2385 148.3 70.1708C148.259 70.1031 148.259 70.0165 148.3 69.9489C150.189 66.677 155.258 65.148 158.676 66.7636C160.299 63.0209 163.452 60.4905 167.363 59.8032C171.555 59.0671 175.936 61.1969 177.649 64.7772C178.964 64.3605 180.374 64.5932 181.454 65.4186C182.596 66.29 183.257 67.7785 183.132 69.2128L183.064 70.0788C183.056 70.1952 182.959 70.2845 182.843 70.2845L182.845 70.2818ZM148.893 69.8379H182.64L182.691 69.1749C182.802 67.8867 182.212 66.5525 181.186 65.7704C180.174 64.9992 178.837 64.807 177.611 65.2617C177.503 65.3023 177.379 65.2508 177.333 65.1426C175.763 61.6326 171.511 59.5271 167.444 60.2416C163.609 60.9154 160.532 63.4349 158.998 67.1533C158.973 67.2102 158.927 67.2562 158.868 67.2778C158.808 67.2995 158.743 67.2941 158.689 67.267C155.58 65.6405 150.863 66.9179 148.898 69.8379H148.893Z" fill="#48F0AC" fill-opacity="0.6"/>
<path d="M39.063 100.015C39.0197 99.9903 38.9764 99.9659 38.9358 99.9497C38.8735 99.9172 38.7924 99.8793 38.7112 99.8604C38.492 99.7846 38.2538 99.7467 38.0075 99.7467C37.5285 99.7467 36.9927 99.8875 36.3676 100.174C34.3352 101.105 32.5626 102.918 31.1066 105.562C30.8197 106.082 30.5464 106.637 30.2677 107.257C28.9822 110.133 28.0973 113.254 27.5695 116.769C27.4342 115.695 27.2718 114.628 27.0851 113.595C26.46 110.187 25.5128 107.024 24.2652 104.196C23.9188 103.416 23.5589 102.667 23.1746 101.942C21.5914 98.943 19.8297 96.8483 17.7864 95.5358C17.1911 95.1542 16.5605 94.8376 15.911 94.5994C15.5132 94.4533 14.9855 94.2855 14.4388 94.2855C14.3766 94.2855 14.3116 94.2855 14.2494 94.2909C13.9869 94.3072 13.7298 94.3721 13.4916 94.475C13.4158 94.502 13.3374 94.5399 13.2643 94.5832C12.8394 94.8159 12.4795 95.1894 12.2251 95.6576C11.1967 97.5303 11.6622 99.744 12.2251 101.849C12.9423 104.534 14.0248 107.389 15.5321 110.583C16.068 111.716 16.6661 112.915 17.459 114.434C16.9177 114.084 16.2926 113.765 15.6999 113.54C15.4049 113.432 15.1045 113.34 14.8231 113.259L14.7771 113.246C14.2846 113.097 13.7758 112.942 13.3265 112.68C12.6202 112.271 12.0357 111.6 11.4701 110.953C10.6798 110.044 9.85984 109.105 8.69885 108.853C8.49318 108.81 8.28209 108.788 8.05747 108.788C7.53517 108.788 7.03722 108.902 6.52303 109.021C6.04673 109.129 5.59479 109.229 5.14014 109.229C4.89928 109.229 4.67466 109.2 4.45816 109.143C4.27684 109.094 4.09552 109.037 3.91962 108.978C3.58134 108.87 3.23494 108.759 2.875 108.704C2.75593 108.688 2.62874 108.68 2.49884 108.68C1.67614 108.68 0.631524 109.013 0.0686236 109.349L-0.237183 109.535L0.0848611 109.695C0.869674 110.093 2.34458 111.316 3.02114 112.685C3.21058 113.07 3.3513 113.489 3.51368 113.995C3.74642 114.707 3.98727 115.443 4.48793 116.014C5.23485 116.866 6.34442 117.099 7.32679 117.305C8.13866 117.475 8.9803 117.651 9.64334 118.147C10.6095 118.866 11.0262 120.09 11.4646 121.389C11.6974 122.065 11.9355 122.766 12.2711 123.407L12.2955 123.456H12.7501L12.677 123.324C12.3279 122.685 12.0817 121.96 11.8462 121.261C11.4078 119.968 10.9532 118.631 9.88149 117.83C9.1508 117.281 8.26315 117.097 7.40256 116.915C6.39313 116.701 5.44053 116.498 4.78562 115.754C4.33367 115.232 4.11447 114.555 3.87632 113.817C3.73559 113.378 3.58945 112.926 3.38107 112.512C2.78299 111.311 1.6193 110.201 0.710005 109.606C0.91568 109.573 1.12406 109.557 1.33785 109.557C2.81005 109.557 4.20107 110.358 5.11037 111.032C5.67056 111.446 6.20911 111.914 6.73141 112.366C7.57035 113.094 8.43905 113.844 9.42142 114.406C10.1115 114.799 10.8611 115.08 11.5864 115.354C12.3442 115.638 13.129 115.933 13.8272 116.352C15.2236 117.194 17.7513 119.229 19.0015 123.397L19.0205 123.459H19.4373L19.4048 123.345C18.1247 119.007 15.4915 116.888 14.0383 116.009C13.3076 115.567 12.5038 115.267 11.7299 114.978C11.0208 114.712 10.2874 114.436 9.62439 114.06C8.6772 113.519 7.82474 112.78 6.99933 112.066C6.47161 111.608 5.92495 111.135 5.35393 110.712C4.4771 110.063 3.16457 109.3 1.73297 109.178C2.009 109.121 2.27151 109.091 2.50425 109.091C2.6152 109.091 2.72345 109.097 2.82359 109.113C3.14022 109.159 3.46226 109.262 3.79784 109.367C3.98727 109.43 4.17401 109.489 4.36344 109.538C4.61512 109.606 4.87222 109.638 5.15096 109.638C5.67056 109.638 6.16851 109.524 6.67999 109.408C7.15629 109.3 7.60553 109.197 8.06018 109.197C8.25774 109.197 8.43905 109.216 8.62037 109.254C9.65145 109.478 10.393 110.328 11.1751 111.224C11.7623 111.898 12.3712 112.593 13.1344 113.037C13.6215 113.319 14.1574 113.481 14.6715 113.635L14.8285 113.681C15.0721 113.754 15.3238 113.83 15.5646 113.922C16.2249 114.171 17.1829 114.653 17.8974 115.248C18.0814 115.402 18.2465 115.562 18.3981 115.741L18.4657 115.684L18.4251 115.779C18.5956 115.992 18.7363 116.252 18.8446 116.544L18.85 116.642H18.8744C18.9637 116.904 19.0286 117.18 19.099 117.47L19.1233 117.57C19.2451 118.101 19.3642 118.577 19.578 119.01C19.8026 119.478 20.1301 119.897 20.4196 120.266L20.4683 120.33C20.6794 120.604 20.8986 120.885 21.0962 121.221C21.1476 121.307 21.1909 121.394 21.2477 121.51C21.4751 122 21.6456 122.647 21.743 123.378L21.7538 123.456H22.157L22.1435 123.356C22.1056 123.061 22.0623 122.807 22.0136 122.579C21.9081 122.098 21.7755 121.684 21.6185 121.348C21.6077 121.324 21.5995 121.305 21.5752 121.256C21.54 121.188 21.5048 121.121 21.4561 121.037C21.448 121.018 21.4372 120.996 21.4263 120.985C21.2207 120.636 20.9663 120.309 20.739 120.019C20.6469 119.9 20.5522 119.781 20.4629 119.659C20.2302 119.356 20.0624 119.094 19.9352 118.837C19.854 118.669 19.7918 118.501 19.7404 118.322C19.651 118.06 19.5861 117.781 19.5157 117.483L19.4291 117.502L19.4968 117.41C19.3534 116.802 19.172 116.044 18.6876 115.462C18.5496 115.297 18.3818 115.134 18.214 115.002C17.8324 114.287 17.459 113.562 17.0909 112.84C15.4915 109.695 14.3468 107.07 13.4835 104.577C12.9693 103.089 12.5688 101.693 12.2603 100.31C12.0194 99.2326 11.9653 98.326 12.0871 97.4518C12.2305 96.4099 12.5715 95.6414 13.1019 95.1705C13.2129 95.0758 13.3238 94.9946 13.4456 94.9269C17.2398 98.648 20.26 103.203 22.1895 108.101C23.3126 110.948 24.1191 113.9 24.8254 116.666C25.4127 118.967 25.9052 121.229 26.2922 123.383L26.3057 123.456H26.7117L26.6927 123.351C26.3544 121.467 25.9431 119.521 25.4641 117.567C24.82 114.942 24.0135 111.857 22.9067 108.853C21.9541 106.263 20.7281 103.784 19.2641 101.481C17.7242 99.0593 15.9056 96.7996 13.857 94.7645C14.0329 94.7185 14.225 94.6942 14.4253 94.6942C14.8285 94.6942 15.2913 94.7889 15.7946 94.9783C18.0435 95.8091 20.0705 97.6277 21.8188 100.391C22.1706 100.943 22.517 101.541 22.8471 102.166C25.207 106.672 26.6846 111.982 27.3612 118.406C27.3963 118.75 27.4315 119.094 27.464 119.448L27.5452 120.385C27.6101 121.256 27.6697 122.203 27.7265 123.37L27.7319 123.453H28.0431L28.1351 123.429L28.1297 123.334C28.035 121.481 27.9132 119.843 27.7563 118.355C28.1324 115.08 28.7955 112.182 29.7805 109.497C30.0458 108.777 30.3299 108.087 30.6222 107.441C31.8589 104.686 33.2878 102.729 34.9928 101.454C35.4718 101.097 35.9724 100.797 36.4785 100.559C36.9467 100.339 37.4555 100.136 38.013 100.136C38.1293 100.136 38.243 100.147 38.3566 100.172C35.1795 103.752 32.7141 108.028 31.223 112.545C30.3434 115.213 29.7616 118.006 29.2636 120.625C29.1094 121.437 28.9524 122.328 28.7901 123.348L28.7738 123.451H29.1716L29.1825 123.375C29.2718 122.828 29.3638 122.284 29.4612 121.74C29.8942 119.337 30.449 116.507 31.2663 113.746C31.9672 111.359 32.9333 109.035 34.1349 106.843C35.4258 104.491 36.9819 102.293 38.7626 100.315C39.1577 100.51 39.496 100.862 39.7422 101.335C40.6461 103.097 40.1834 105.2 39.7747 107.056L39.7612 107.113C39.2308 109.503 38.4378 111.968 37.2687 114.869C36.2972 117.278 35.1876 119.676 34.1132 121.995L33.4421 123.448H33.8751L34.5002 122.098C35.3284 120.309 36.1862 118.458 36.9738 116.615C38.3025 113.497 39.2118 110.918 39.8397 108.499C40.1455 107.316 40.4756 105.92 40.6245 104.54C40.7219 103.638 40.6434 102.729 40.3999 101.909C40.2104 101.278 39.8261 100.437 39.0657 100.004L39.063 100.015Z" fill="#48F0AC" fill-opacity="0.6"/>
<path d="M199.16 109.34C198.624 109.018 197.579 108.685 196.759 108.685C196.629 108.685 196.502 108.694 196.383 108.71C196.026 108.764 195.68 108.875 195.339 108.983C195.163 109.04 194.981 109.097 194.8 109.146C194.581 109.205 194.359 109.232 194.118 109.232C193.661 109.232 193.211 109.129 192.703 109.016C192.221 108.905 191.723 108.791 191.201 108.791C190.973 108.791 190.765 108.813 190.559 108.856C189.396 109.108 188.578 110.047 187.788 110.956C187.223 111.606 186.638 112.274 185.932 112.683C185.485 112.945 184.974 113.099 184.481 113.246L184.435 113.259C184.154 113.34 183.851 113.432 183.558 113.54C182.966 113.765 182.343 114.084 181.802 114.434C182.595 112.915 183.193 111.716 183.729 110.583C185.236 107.392 186.319 104.537 187.036 101.849C187.599 99.744 188.064 97.5303 187.036 95.6576C186.781 95.1867 186.421 94.8159 185.999 94.5832C185.929 94.5399 185.85 94.502 185.775 94.475C185.531 94.3694 185.274 94.3072 185.012 94.2909C184.947 94.2855 184.884 94.2855 184.822 94.2855C184.273 94.2855 183.748 94.4533 183.347 94.5994C182.7 94.8403 182.07 95.1542 181.472 95.5358C179.429 96.8483 177.664 98.943 176.097 101.92L176.07 101.955L176.065 101.966C175.697 102.667 175.337 103.414 174.99 104.193C173.745 107.021 172.796 110.185 172.17 113.592C171.984 114.626 171.821 115.692 171.686 116.766C171.161 113.251 170.276 110.131 168.991 107.254C168.712 106.637 168.438 106.082 168.152 105.56C166.693 102.916 164.923 101.103 162.891 100.172C162.263 99.8848 161.727 99.744 161.251 99.744C161.002 99.744 160.766 99.7819 160.552 99.855C160.485 99.8712 160.414 99.901 160.328 99.9443C160.279 99.9632 160.236 99.9876 160.192 100.012C159.432 100.445 159.048 101.287 158.858 101.917C158.612 102.737 158.536 103.646 158.634 104.548C158.783 105.922 159.099 107.262 159.419 108.507C160.046 110.926 160.956 113.505 162.284 116.623C163.072 118.466 163.93 120.317 164.761 122.108L165.383 123.453H165.816L165.145 122.003C164.071 119.684 162.961 117.286 161.989 114.875C160.82 111.974 160.027 109.508 159.497 107.119L159.486 107.062C159.078 105.205 158.612 103.1 159.516 101.338C159.762 100.864 160.098 100.513 160.496 100.318C162.276 102.296 163.832 104.493 165.123 106.845C166.325 109.037 167.288 111.359 167.992 113.752C168.812 116.509 169.364 119.34 169.797 121.743C169.894 122.287 169.986 122.831 170.076 123.378L170.087 123.453H170.484L170.468 123.351C170.306 122.339 170.152 121.448 169.995 120.628C169.499 118.011 168.917 115.218 168.038 112.547C166.547 108.031 164.084 103.755 160.904 100.174C161.018 100.15 161.137 100.139 161.264 100.139C161.805 100.139 162.314 100.342 162.782 100.561C163.288 100.799 163.789 101.103 164.268 101.457C165.973 102.732 167.402 104.688 168.639 107.443C168.931 108.09 169.215 108.78 169.48 109.5C170.468 112.185 171.131 115.08 171.505 118.339C171.348 119.846 171.226 121.481 171.131 123.361L171.126 123.456H171.532L171.537 123.372C171.594 122.217 171.651 121.267 171.718 120.387L171.8 119.446C171.832 119.094 171.867 118.75 171.902 118.398C172.579 111.982 174.057 106.675 176.416 102.169C176.747 101.544 177.09 100.946 177.445 100.394C179.193 97.6332 181.223 95.8118 183.472 94.981C183.978 94.7916 184.438 94.6969 184.841 94.6969C185.041 94.6969 185.231 94.7212 185.409 94.7672C183.358 96.8023 181.539 99.0621 180.002 101.484C178.538 103.784 177.312 106.263 176.36 108.853C175.253 111.857 174.446 114.945 173.802 117.567C173.323 119.524 172.912 121.47 172.574 123.351L172.555 123.456H172.961L172.974 123.383C173.358 121.232 173.854 118.972 174.438 116.666C175.145 113.9 175.951 110.948 177.074 108.101C179.004 103.203 182.027 98.648 185.818 94.9269C185.94 94.9946 186.051 95.073 186.162 95.1678C186.692 95.6414 187.033 96.4072 187.177 97.4518C187.298 98.326 187.244 99.2326 187.003 100.31C186.695 101.693 186.294 103.089 185.78 104.577C184.917 107.073 183.769 109.698 182.173 112.84C181.805 113.562 181.431 114.287 181.071 114.975C180.879 115.134 180.714 115.297 180.576 115.462C180.089 116.044 179.91 116.799 179.759 117.44L179.742 117.511C179.68 117.781 179.613 118.06 179.523 118.325C179.472 118.501 179.41 118.669 179.328 118.834C179.201 119.094 179.033 119.356 178.798 119.659C178.709 119.778 178.617 119.897 178.525 120.017C178.3 120.303 178.046 120.631 177.845 120.972C177.829 120.994 177.816 121.018 177.797 121.056C177.756 121.126 177.715 121.205 177.669 121.291C177.661 121.307 177.653 121.326 177.648 121.343C177.488 121.681 177.356 122.098 177.25 122.579C177.199 122.812 177.155 123.066 177.12 123.356L177.107 123.456H177.51L177.521 123.378C177.615 122.647 177.789 122 178.029 121.483C178.073 121.391 178.116 121.307 178.165 121.224L178.189 121.183C178.362 120.885 178.581 120.604 178.793 120.33L178.844 120.263C179.134 119.895 179.461 119.475 179.686 119.007C179.899 118.571 180.018 118.098 180.138 117.576L180.162 117.47C180.232 117.172 180.3 116.894 180.389 116.626L180.411 116.566C180.527 116.244 180.665 115.984 180.836 115.77L180.879 115.716C181.02 115.554 181.182 115.394 181.366 115.243C182.081 114.645 183.041 114.166 183.702 113.917C183.943 113.825 184.194 113.749 184.438 113.676L184.597 113.627C185.112 113.47 185.647 113.31 186.135 113.029C186.898 112.585 187.507 111.89 188.094 111.216C188.879 110.317 189.618 109.47 190.649 109.246C190.827 109.208 191.011 109.189 191.209 109.189C191.663 109.189 192.113 109.292 192.619 109.405C193.1 109.516 193.598 109.63 194.118 109.63C194.397 109.63 194.654 109.597 194.906 109.53C195.095 109.481 195.282 109.422 195.496 109.351C195.807 109.254 196.129 109.151 196.445 109.105C196.546 109.089 196.654 109.083 196.765 109.083C196.998 109.083 197.26 109.113 197.533 109.17C196.102 109.292 194.789 110.055 193.912 110.704C193.341 111.127 192.795 111.6 192.264 112.06C191.439 112.775 190.586 113.513 189.639 114.055C188.979 114.431 188.245 114.707 187.536 114.972C186.76 115.262 185.959 115.562 185.228 116.003C183.772 116.88 181.142 119.002 179.862 123.34L179.826 123.453H180.243L180.262 123.391C181.512 119.224 184.04 117.189 185.436 116.347C186.132 115.927 186.917 115.632 187.68 115.348C188.402 115.078 189.152 114.796 189.842 114.404C190.825 113.844 191.693 113.091 192.532 112.363C193.054 111.911 193.593 111.443 194.153 111.029C195.063 110.355 196.456 109.554 197.926 109.554C198.137 109.554 198.348 109.57 198.554 109.603C197.644 110.198 196.481 111.308 195.885 112.509C195.677 112.926 195.531 113.381 195.382 113.838C195.149 114.555 194.93 115.232 194.481 115.754C193.826 116.498 192.873 116.701 191.858 116.915C191 117.094 190.115 117.281 189.385 117.83C188.313 118.634 187.858 119.971 187.42 121.261C187.182 121.962 186.936 122.688 186.587 123.324L186.513 123.456H186.968L186.992 123.407C187.325 122.769 187.566 122.068 187.802 121.386C188.24 120.092 188.654 118.869 189.623 118.149C190.286 117.654 191.125 117.478 191.94 117.308C192.922 117.102 194.031 116.869 194.778 116.017C195.279 115.446 195.52 114.712 195.75 114.003L195.763 113.96C195.912 113.492 196.053 113.072 196.242 112.688C196.922 111.319 198.397 110.093 199.179 109.698L199.501 109.538L199.165 109.338L199.16 109.34Z" fill="#48F0AC" fill-opacity="0.6"/>
<path d="M199.629 123.37C199.629 123.471 199.55 123.549 199.455 123.549H-0.19826C-0.292979 123.549 -0.37146 123.468 -0.37146 123.37C-0.37146 123.322 -0.352516 123.276 -0.320041 123.243C-0.287566 123.211 -0.244266 123.192 -0.19826 123.192H199.455C199.55 123.192 199.629 123.273 199.629 123.37Z" fill="#48F0AC" fill-opacity="0.6"/>
<path d="M58.883 74.2792L62.7 72.077C62.2999 70.5773 61.704 69.1581 60.9412 67.8483L56.6923 68.9883L53.5085 65.8045L54.6427 61.5671C53.33 60.8071 51.908 60.2113 50.4053 59.8169L48.2147 63.6109H43.7096L41.5305 59.837C40.0278 60.2401 38.6058 60.8388 37.2902 61.6074L38.4158 65.8045L35.232 68.9883L31.0493 67.8685C30.2836 69.184 29.6877 70.6118 29.2905 72.1173L33.0385 74.2821V78.7872L29.2876 80.9462C29.6849 82.4546 30.2836 83.8795 31.0493 85.195L35.2291 84.0752L38.4129 87.259L37.2902 91.4532C38.6029 92.2218 40.0249 92.8206 41.5305 93.2236L43.7067 89.4526H48.2118L50.3996 93.2409C51.9022 92.8465 53.3243 92.2506 54.6398 91.4906L53.5056 87.259L56.6894 84.0752L60.9354 85.2123C61.6983 83.9025 62.297 82.4834 62.6972 80.9836L58.883 78.7814V74.2763V74.2792ZM45.9924 85.8715C40.8338 85.8715 36.6483 81.6888 36.6483 76.5274C36.6483 71.366 40.831 67.1833 45.9924 67.1833C51.1538 67.1833 55.3365 71.366 55.3365 76.5274C55.3365 81.6888 51.1538 85.8715 45.9924 85.8715Z" fill="#8FFBCE"/>
<path d="M58.7838 76.5294V72.2373C58.7838 70.2654 60.6722 68.6678 62.9982 68.6678H106.676L109.724 63.3336C110.101 62.6744 110.893 62.2542 111.76 62.2542H122.01C123.26 62.2542 124.27 63.112 124.27 64.1685V119.709C124.221 120.239 124.002 121.865 122.675 123.247C120.839 125.161 118.363 125.046 117.992 125.023H58.7838V76.5294Z" fill="#07BE87"/>
<path d="M107.742 74.1121L101.401 67.4135L100.58 71.1845L93.8702 64.3334L92.4309 67.8539L87.4479 61.7109L83.1703 64.0685L79.4539 57.6491L75.3922 60.8876L70.0753 54.9259C74.163 45.9647 79.0509 39.2373 82.8824 34.6948C96.1357 40.1124 109.389 45.53 122.642 50.9477C118.782 57.6002 114.775 65.4071 111.07 74.3338L107.745 74.1121H107.742Z" fill="#ADFCDB"/>
<path d="M79.7669 59.0338L83.4832 65.4532L87.7609 63.0956L92.7438 69.2386L94.1831 65.718L100.893 72.5692L101.714 68.7982L108.055 75.4968L111.38 75.7184C111.331 75.8393 111.279 75.9545 111.23 76.0754C107.275 85.6555 104.474 94.5879 102.462 102.467L62.7023 86.214C63.206 79.5413 64.7058 69.7971 69.2483 58.9158C69.6197 58.0263 69.9996 57.1598 70.3854 56.3135L75.7022 62.2752L79.764 59.0367L79.7669 59.0338Z" fill="#ADFCDB"/>
<path d="M111.069 74.3347L107.745 74.1131L101.403 67.4116L100.582 71.1855L93.8723 64.3343L92.433 67.8549L87.4501 61.709" stroke="#C5C5C5" stroke-width="0.27" stroke-linecap="round" stroke-linejoin="round"/>
<path d="M111.379 75.7153L108.054 75.4965L101.712 68.795L100.892 72.5689L94.1815 65.7177L92.7422 69.2354L87.7593 63.0924" stroke="#C5C5C5" stroke-width="0.27" stroke-linecap="round" stroke-linejoin="round"/>
<path d="M43.0909 42.2731C42.043 42.4948 41.3723 43.5225 41.594 44.5703C44.0264 51.6259 46.3783 59.6832 48.3041 68.6588C50.3566 78.2274 51.5397 87.0591 52.1903 94.889C52.2162 95.0157 52.3716 95.6835 53.028 96.1124C53.4425 96.383 53.9635 96.4953 54.4845 96.3859L91.1297 88.6683C92.1775 88.4466 92.8483 87.4189 92.6266 86.3711C92.1631 79.0968 91.0923 70.6479 88.9074 61.4104C87.4134 55.1004 85.6315 49.3949 83.7776 44.3429C79.5403 41.6888 75.3029 39.0375 71.0655 36.3834L43.0909 42.2731Z" fill="#F5F5F5"/>
<path d="M74.4506 46.3101L83.7803 44.3469L71.0682 36.3875L72.9509 45.3343C73.0948 46.0194 73.7684 46.457 74.4506 46.313V46.3101Z" fill="#DADADA"/>
<path d="M71.0641 36.3834L72.9467 45.3303C73.0907 46.0154 73.7643 46.4529 74.4465 46.309L83.7762 44.3458" stroke="#C5C5C5" stroke-width="0.4" stroke-linecap="round" stroke-linejoin="round"/>
<path d="M67.2859 71.3371C67.0153 70.0561 66.8973 69.0025 66.9261 68.1792C66.9577 67.3559 67.1851 66.5585 67.6141 65.787C67.8587 65.3265 68.1552 64.9119 68.5093 64.5435C68.8634 64.175 69.18 63.795 69.4621 63.4064C69.7443 63.0178 69.963 62.6033 70.1185 62.1628C70.2739 61.7224 70.2883 61.187 70.1559 60.5565C69.9314 59.4914 69.4823 58.8092 68.8058 58.5098C68.1293 58.2104 67.3895 58.1442 66.5864 58.3141C65.4349 58.5559 64.7095 59.0452 64.4101 59.7764C64.1107 60.5105 64.0215 61.4288 64.1395 62.5399L59.9338 63.4265C59.7093 62.3615 59.6805 61.3597 59.8446 60.4155C60.0087 59.4742 60.3483 58.6307 60.8607 57.888C61.3731 57.1453 62.0468 56.5149 62.8787 55.9996C63.7106 55.4844 64.6721 55.1101 65.7573 54.8827C68.1034 54.3876 70.058 54.4768 71.6154 55.1476C73.1756 55.8183 74.1802 57.2288 74.6351 59.3792C74.7819 60.0758 74.8395 60.6976 74.8078 61.2503C74.7761 61.803 74.6639 62.3183 74.471 62.8019C74.2781 63.2855 74.0133 63.7547 73.6794 64.2124C73.3454 64.6701 72.9568 65.148 72.5193 65.6489C72.1191 66.1181 71.8054 66.5441 71.5779 66.9183C71.3505 67.2954 71.198 67.6726 71.1202 68.0525C71.0425 68.4325 71.0195 68.8183 71.0569 69.2069C71.0943 69.5955 71.1634 70.0302 71.2642 70.508L67.2888 71.3457L67.2859 71.3371ZM68.4805 77.6557L67.5824 73.3867L71.981 72.4597L72.8791 76.7288L68.4805 77.6557Z" fill="#DADADA"/>
<path d="M43.0909 42.2731C42.043 42.4948 41.3723 43.5225 41.594 44.5703C44.0264 51.6259 46.3783 59.6832 48.3041 68.6588C50.3566 78.2274 51.5397 87.0591 52.1903 94.889C52.2162 95.0157 52.3716 95.6835 53.028 96.1124C53.4425 96.383 53.9635 96.4953 54.4845 96.3859L91.1297 88.6683C92.1775 88.4466 92.8483 87.4189 92.6266 86.3711C92.1631 79.0968 91.0923 70.6479 88.9074 61.4104C87.4134 55.1004 85.6315 49.3949 83.7777 44.3429C79.5403 41.6888 75.3029 39.0375 71.0655 36.3834L43.0909 42.2731Z" stroke="#C5C5C5" stroke-width="0.27" stroke-linecap="round" stroke-linejoin="round"/>
<path d="M46.7817 76.5283H111.099C112.778 76.5283 114.378 77.8899 114.672 79.5682L122.076 121.979C122.369 123.658 121.244 125.019 119.565 125.019H55.2478C53.5696 125.019 51.969 123.658 51.6754 121.979L44.2715 79.5682C43.9779 77.8899 45.1035 76.5283 46.7817 76.5283Z" fill="#48F0AC"/>
<path d="M126.494 121.631V129H115.531L115.778 127.137L115.834 127.102C115.934 127.041 116.077 126.952 116.25 126.844C116.598 126.628 117.066 126.334 117.553 126.024C118.04 125.715 118.545 125.389 118.964 125.108C119.377 124.831 119.724 124.587 119.881 124.445C120.184 124.173 120.487 123.78 120.727 123.425C120.965 123.072 121.158 122.729 121.229 122.55C121.274 122.434 121.291 122.296 121.297 122.172C121.303 122.044 121.299 121.909 121.291 121.788C121.287 121.733 121.283 121.68 121.278 121.631H126.494Z" fill="white" stroke="#444444" stroke-width="0.5"/>
<path d="M127.217 124.808C127.079 124.77 126.871 124.736 126.65 124.799C126.074 124.963 125.924 125.628 125.677 125.982L119.234 126.054C119.249 125.729 119.26 125.401 119.275 125.075C118.941 124.966 118.604 124.857 118.27 124.75C117.567 125.533 116.885 125.988 116.367 126.264C115.575 126.687 114.545 127.021 114.128 127.735C113.923 128.081 113.914 128.435 113.912 128.498C113.909 128.679 113.903 128.936 114.087 129.103C114.223 129.229 114.398 129.247 114.479 129.249C118.635 129.224 122.795 129.198 126.952 129.172C127.099 129.172 127.217 129.054 127.217 128.907V124.808Z" fill="#444444"/>
<path d="M126.721 129.975H114.464C114.191 129.975 113.969 129.753 113.969 129.48V128.93H127.216V129.48C127.216 129.753 126.995 129.975 126.721 129.975Z" fill="#A8A8A8"/>
<path d="M144.457 118.16L148.536 114.459L153.62 119.309L145.28 126.871L145.28 126.224H145.28L145.28 126.221L145.03 126.224L145.28 126.221L145.28 126.221L145.28 126.22L145.28 126.218L145.28 126.208L145.28 126.17L145.278 126.026C145.276 125.902 145.274 125.723 145.272 125.506C145.268 125.072 145.263 124.486 145.261 123.878C145.256 122.649 145.263 121.361 145.304 121.016L145.308 120.985L145.304 120.954C145.24 120.474 145.208 120.076 145.182 119.749C145.178 119.7 145.174 119.653 145.17 119.607C145.156 119.433 145.142 119.278 145.123 119.147C145.105 119.019 145.08 118.896 145.037 118.794C144.989 118.679 144.903 118.572 144.822 118.486C144.737 118.395 144.639 118.308 144.549 118.234C144.517 118.208 144.486 118.183 144.457 118.16Z" fill="white" stroke="#444444" stroke-width="0.5"/>
<path d="M151.188 116.201C151.064 116.27 150.892 116.388 150.774 116.59C150.477 117.108 150.834 117.689 150.903 118.115L146.341 122.664C146.122 122.422 145.903 122.177 145.684 121.935C145.368 122.091 145.051 122.246 144.737 122.405C144.78 123.455 144.611 124.258 144.432 124.817C144.159 125.672 143.655 126.631 143.856 127.434C143.954 127.822 144.19 128.084 144.236 128.13C144.36 128.263 144.536 128.447 144.783 128.441C144.967 128.435 145.106 128.329 145.166 128.274C148.125 125.352 151.085 122.431 154.044 119.512C154.147 119.411 154.15 119.244 154.05 119.137L151.188 116.201Z" fill="#444444"/>
<path d="M154.438 120.241L145.661 128.797C145.465 128.988 145.151 128.984 144.96 128.789L144.577 128.395L154.063 119.148L154.446 119.541C154.637 119.737 154.633 120.05 154.438 120.241Z" fill="#A8A8A8"/>
<path d="M129.581 91.4697C129.581 91.4697 125.971 105.244 125.752 108.808C125.534 112.372 124.563 122.168 124.563 122.168H127.157L130.796 103.502L129.578 91.4697H129.581Z" fill="#1E54CB"/>
<path d="M141.884 45.0283C142.013 43.9948 142.197 43.1715 142.433 42.5613C142.67 41.951 143.05 41.4098 143.571 40.9406C143.873 40.6585 144.204 40.4253 144.567 40.2382C144.929 40.0511 145.266 39.8496 145.577 39.6308C145.888 39.412 146.161 39.1558 146.394 38.8651C146.628 38.5743 146.774 38.1742 146.838 37.6647C146.944 36.8068 146.783 36.1764 146.354 35.7734C145.925 35.3704 145.384 35.1315 144.736 35.048C143.807 34.93 143.136 35.1084 142.718 35.5834C142.304 36.0555 141.996 36.7262 141.797 37.5927L138.406 37.1667C138.513 36.3088 138.752 35.546 139.12 34.8782C139.489 34.2132 139.964 33.6662 140.542 33.2402C141.121 32.8142 141.792 32.5148 142.552 32.3449C143.311 32.1722 144.129 32.1434 145.007 32.2528C146.901 32.4918 148.346 33.0646 149.345 33.9743C150.344 34.8839 150.735 36.2052 150.517 37.941C150.448 38.5024 150.327 38.986 150.16 39.3919C149.993 39.7978 149.774 40.1576 149.503 40.4714C149.233 40.7851 148.91 41.0701 148.542 41.3263C148.171 41.5825 147.756 41.8416 147.296 42.1036C146.872 42.354 146.527 42.59 146.259 42.8146C145.991 43.0391 145.776 43.2838 145.62 43.5486C145.462 43.8135 145.347 44.0985 145.272 44.4007C145.197 44.703 145.137 45.0484 145.088 45.4341L141.881 45.0311L141.884 45.0283ZM141.141 50.0889L141.573 46.6432L145.122 47.0894L144.69 50.5351L141.141 50.0889Z" fill="#DADADA"/>
<path d="M129.209 38.2887C129.076 37.5546 129.024 36.9558 129.053 36.4866C129.082 36.0174 129.226 35.5683 129.482 35.1365C129.629 34.8803 129.804 34.6472 130.012 34.4428C130.219 34.2384 130.403 34.0283 130.57 33.8124C130.737 33.5965 130.867 33.3633 130.962 33.1157C131.057 32.8682 131.074 32.563 131.008 32.2032C130.895 31.5958 130.651 31.1986 130.271 31.0172C129.891 30.8358 129.471 30.7869 129.013 30.8704C128.354 30.9913 127.933 31.2561 127.752 31.6678C127.571 32.0794 127.504 32.6005 127.556 33.2338L125.153 33.6713C125.04 33.0639 125.04 32.4911 125.15 31.9585C125.259 31.426 125.463 30.951 125.766 30.5365C126.068 30.1219 126.462 29.7736 126.943 29.4944C127.424 29.2152 127.977 29.0165 128.598 28.9043C129.94 28.6596 131.048 28.7402 131.926 29.1461C132.801 29.552 133.351 30.3695 133.575 31.5987C133.647 31.9959 133.67 32.3529 133.645 32.6638C133.619 32.9776 133.547 33.2683 133.429 33.5418C133.311 33.8124 133.152 34.0772 132.957 34.3305C132.758 34.5838 132.531 34.8516 132.274 35.1279C132.038 35.3899 131.854 35.6259 131.719 35.8361C131.583 36.0462 131.491 36.2592 131.44 36.4751C131.388 36.691 131.37 36.9069 131.385 37.1286C131.399 37.3502 131.431 37.5978 131.483 37.8713L129.209 38.2858V38.2887ZM129.79 41.8985L129.344 39.4574L131.86 38.9997L132.306 41.4408L129.79 41.8985Z" fill="#DADADA"/>
<path d="M123.606 81.8229C123.606 81.8229 118.589 98.5133 118.295 100.92C118.001 103.326 120.261 122.167 120.261 122.167H127.158L130.797 103.502C130.797 103.502 131.266 106.847 133.497 109.196C135.728 111.545 143.886 119.645 143.886 119.645L149.05 114.596L142.83 103.208C142.478 100.787 142.291 98.7407 142.188 97.2035C142.021 94.774 141.94 93.5592 142.061 92.1198C142.312 89.198 142.965 88.6971 142.913 86.708C142.882 85.4903 142.585 83.7574 141.339 81.6675C135.429 81.7193 129.519 81.7711 123.606 81.8229Z" fill="#444444"/>
<path d="M132.371 107.718C131.853 106.791 131.177 105.357 130.797 103.501C130.719 103.123 130.687 102.885 130.472 100.665C130.184 97.6944 129.962 95.2619 129.95 95.1237C129.867 94.2083 129.74 92.8179 129.582 91.0936C129.582 91.0936 129.363 87.6824 129.251 85.9236" stroke="white" stroke-width="0.5" stroke-linecap="round" stroke-linejoin="round"/>
<path d="M136.974 81.6675C136.974 81.6675 137.832 98.2255 138.229 100.206C138.626 102.186 139.634 106.542 141.341 108.787C143.048 111.033 146.914 116.683 146.914 116.683" stroke="white" stroke-width="0.5" stroke-linecap="round" stroke-linejoin="round"/>
<path d="M129.512 91.7261C129.512 91.7261 126.216 105.215 125.983 107.012C125.749 108.805 124.563 122.165 124.563 122.165" stroke="white" stroke-width="0.5" stroke-linecap="round" stroke-linejoin="round"/>
<path d="M128.76 47.8654H128.698L128.654 47.9092L126.959 49.5986L125.61 49.8674L124.24 47.3164L127.45 46.2896L131.64 47.4947L131.574 47.8654H128.76Z" fill="#FAFAFA" stroke="#444444" stroke-width="0.3"/>
<path d="M127.135 46.7486C127.88 46.337 129.774 45.4273 132.02 45.8678C132.711 46.0031 133.974 46.2535 134.769 47.3186C135.195 47.8915 135.313 48.4643 135.408 48.9479C135.676 50.3326 135.218 50.8853 135.209 53.1939C135.209 54.0575 135.27 54.3915 135.474 54.711C135.868 55.3299 136.364 55.2234 137.213 55.8106C137.331 55.8912 138.525 56.7433 139.018 58.1855C139.369 59.2189 139.003 59.5126 139.415 60.0768C140.048 60.9519 141.154 60.5748 141.703 61.3088C142.345 62.1638 141.62 63.7067 141.528 63.9054C139.772 67.6505 128.689 69.4496 123.905 64.6106C123.738 64.4408 120.992 61.6053 121.792 59.6392C122.252 58.505 123.729 58.0588 123.729 56.7347C123.729 56.1618 123.453 56.1302 123.312 55.1514C123.211 54.4519 123.076 53.5106 123.554 52.7535C124.109 51.8726 125.027 51.9878 125.186 51.2796C125.312 50.7241 124.8 50.4276 124.702 49.8346C124.596 49.1926 124.979 48.2168 127.14 46.7486H127.135Z" fill="#444444"/>
<path d="M134.561 47.2233C135.174 47.8191 135.891 48.7259 136.046 49.9177C136.262 51.5902 135.18 52.3588 135.649 53.539C136.081 54.6214 137.109 54.2587 138.464 55.793C138.888 56.2708 139.815 57.3158 140.005 58.8069C140.163 60.0534 139.705 60.799 140.223 61.2711C140.223 61.2711 139.777 61.7793 141.277 62.0585" stroke="#444444" stroke-width="0.3" stroke-linecap="round" stroke-linejoin="round"/>
<path d="M124.58 51.9189C123.846 52.2471 122.911 52.8113 122.623 53.7699C122.277 54.9185 123.216 55.4741 123.02 56.7839C122.761 58.511 120.801 58.6406 120.841 60.2613C120.864 61.0961 121.14 61.8042 122.073 63.0334C122.842 64.0467 123.711 64.5159 123.898 64.6167C124.218 64.7865 124.503 64.8988 124.713 64.9678" stroke="#444444" stroke-width="0.5" stroke-linecap="round" stroke-linejoin="round"/>
<path d="M124.578 46.4611C117.618 46.4928 112.525 49.4376 112.105 52.6128C111.682 55.7995 115.957 59.3028 117.738 60.7622C119.638 62.3196 121.463 63.2609 122.733 63.8165L128.11 58.0966L119.633 53.5944L125.753 50.8568L124.581 46.4583L124.578 46.4611Z" fill="#48F0AC"/>
<path d="M131.96 58.0993H128.109C127.046 58.7268 125.512 59.8294 124.283 61.6458C122.858 63.7501 122.484 65.8601 122.222 68.6927C121.934 71.8333 121.81 76.3989 122.288 81.8193L141.658 81.6639V71.6261C141.563 69.0928 141.267 67.0116 140.985 65.4917C140.53 63.0391 140.156 62.2733 139.753 61.6775C138.607 59.9791 136.972 59.2479 136.232 58.9197C134.502 58.1482 132.916 58.0676 131.966 58.1022L131.96 58.0993Z" fill="#DF0ADB"/>
<path d="M130.038 59.6624C131.12 59.6652 132.001 58.793 132.007 57.7078L132.024 53.4877L128.1 53.4733L128.083 57.6934C128.08 58.7757 128.952 59.6566 130.038 59.6624Z" fill="white"/>
<path d="M128.085 56.5111L130.638 55.1985C130.612 55.4201 130.468 56.4565 129.556 57.1704C128.974 57.6281 128.361 57.7317 128.079 57.7605V56.5083L128.085 56.5111Z" fill="#DADADA"/>
<path d="M132.116 52.1788C132.128 52.1154 132.298 52.0176 132.349 51.9859C132.436 51.9312 132.531 51.8851 132.629 51.8535C132.819 51.793 133.032 51.7786 133.227 51.8218C133.619 51.911 133.964 52.2392 134.031 52.6422C134.068 52.8754 134.013 53.1172 133.915 53.3331C133.766 53.6555 133.51 53.9261 133.202 54.1046C132.945 54.2514 132.655 54.3349 132.361 54.3521C132.303 54.355 131.699 54.3406 131.705 54.3176C131.843 53.6037 131.981 52.8898 132.119 52.1759L132.116 52.1788Z" fill="white"/>
<path d="M132.653 52.2211C132.607 52.5349 132.33 54.1958 130.833 55.3703C130.557 55.5862 128.723 57.0227 127.045 56.3232C124.889 55.4221 125.125 51.8814 125.139 51.6885C125.191 51.0408 125.341 49.1323 126.924 48.1133C128.214 47.2813 129.613 47.5865 129.811 47.6354C130.022 47.6843 131.351 48.0211 132.166 49.3252C132.906 50.5083 132.73 51.7058 132.653 52.2211Z" fill="white"/>
<path d="M126.363 51.689C126.328 51.9653 126.115 52.1668 125.888 52.1381C125.66 52.1093 125.502 51.8617 125.537 51.5854C125.571 51.309 125.784 51.1075 126.012 51.1363C126.239 51.1651 126.397 51.4126 126.363 51.689Z" fill="#444444"/>
<path d="M128.857 52.0023C128.823 52.2787 128.61 52.4802 128.382 52.4514C128.155 52.4226 127.996 52.1751 128.031 51.8987C128.066 51.6224 128.279 51.4209 128.506 51.4496C128.733 51.4784 128.892 51.726 128.857 52.0023Z" fill="#444444"/>
<path d="M127.113 52.1061L126.73 52.6214C126.661 52.7164 126.687 52.8516 126.788 52.9121L127.139 53.1251" stroke="#444444" stroke-width="0.4" stroke-linecap="round" stroke-linejoin="round"/>
<path d="M129.689 53.3051C129.649 53.616 129.367 53.8347 129.056 53.7973C128.745 53.757 128.526 53.4749 128.563 53.164C128.601 52.8531 128.886 52.6343 129.197 52.6718C129.508 52.7092 129.726 52.9942 129.689 53.3051Z" fill="#DF0ADB"/>
<path d="M132.38 53.5998C132.38 53.5365 132.374 53.1162 132.711 52.8139C132.976 52.575 133.284 52.5606 133.367 52.5577" stroke="#444444" stroke-width="0.71" stroke-linecap="round" stroke-linejoin="round"/>
<path d="M132.677 52.8954C132.697 52.8926 132.922 52.8609 133.08 53.0336C133.21 53.1747 133.198 53.3474 133.195 53.3762" stroke="#444444" stroke-width="0.71" stroke-linecap="round" stroke-linejoin="round"/>
<path d="M125.435 52.4088C125.329 52.3944 125.225 52.4146 125.133 52.4549C125.145 52.76 125.173 53.1285 125.24 53.5171C125.257 53.52 125.274 53.5286 125.294 53.5286C125.605 53.5689 125.887 53.3473 125.928 53.0364C125.968 52.7255 125.746 52.4434 125.435 52.4031V52.4088Z" fill="#DF0ADB"/>
<path d="M124.75 49.3208C124.675 49.5598 124.655 49.8217 124.745 50.0549C124.834 50.2881 125.032 50.4752 125.268 50.5529C125.571 50.6508 125.936 50.573 126.123 50.3053C126.123 50.3053 126.216 50.4867 126.469 50.5443C126.722 50.6018 127.01 50.3082 127.013 50.3053C127.001 50.3168 127.246 50.4896 127.272 50.4982C127.35 50.5212 127.433 50.5068 127.508 50.478C127.548 50.4608 127.848 50.337 127.848 50.2823C127.848 50.478 128.248 50.3831 128.326 50.3284C128.375 50.2938 128.559 50.1585 128.559 50.0923C128.559 50.0923 128.55 50.455 128.78 50.4953C129.011 50.5356 129.365 50.1815 129.365 50.1815C129.365 50.1815 129.514 50.527 129.653 50.5356C129.794 50.5443 130.122 50.2564 130.122 50.2564C130.122 50.2564 130.154 50.3053 130.321 50.455C130.485 50.6047 130.807 50.2564 130.807 50.2564L132.076 52.4672C132.076 52.4672 132.059 52.1592 132.249 52.0239C132.439 51.8886 132.695 51.831 132.695 51.831C132.762 51.7619 132.773 51.5201 132.788 51.428C132.811 51.2812 132.825 51.1315 132.828 50.9818C132.831 50.7112 132.796 50.4377 132.716 50.1787C132.56 49.6691 132.246 49.223 131.892 48.8343C131.147 48.0139 130.165 47.3662 129.074 47.1187C128.694 47.0323 128.303 46.992 127.914 47.0064C127.353 47.0266 126.834 47.2223 126.351 47.5044C125.648 47.9132 125.001 48.5206 124.745 49.3208H124.75Z" fill="#444444"/>
<path d="M127.098 54.356L128.362 54.0537C128.284 53.6968 127.944 53.4694 127.613 53.527C127.253 53.5874 126.997 53.9703 127.095 54.356H127.098Z" fill="white" stroke="#444444" stroke-width="0.4"/>
<path d="M136.535 68.6326C133.547 73.3219 130.334 75.5241 127.98 76.664C123.083 79.0332 114.087 80.5819 113.016 81.1806C112.636 81.3937 112.418 81.4196 111.977 81.4714C111.822 81.4886 111.571 81.5088 111.358 81.362C111.301 81.3217 111.197 81.2526 111.168 81.1346C111.116 80.9273 111.304 80.6596 111.304 80.6596C111.26 80.6941 111.114 80.7949 110.906 80.792C110.846 80.792 110.636 80.7776 110.495 80.6251C110.331 80.4495 110.313 80.1443 110.463 79.8824C110.175 80.1501 109.784 80.1472 109.597 79.9572C109.476 79.8334 109.409 79.6031 109.499 79.4045C109.559 79.2663 109.674 79.1944 109.72 79.1685C109.614 79.1972 109.326 79.2635 109.05 79.1195C108.972 79.0792 108.842 79.0101 108.782 78.8662C108.693 78.6532 108.825 78.4315 108.848 78.3912C108.978 78.1724 109.199 78.0947 109.582 77.9709C110.365 77.7176 111.211 77.4758 111.211 77.4758L109.683 76.854C109.481 76.6583 109.395 76.3877 109.473 76.1775C109.588 75.8753 110.051 75.6853 110.486 75.9069C111.476 76.1488 112.467 76.3906 113.454 76.6324C113.454 76.6324 114.43 76.8339 115.247 76.7015C116.065 76.569 122.127 73.1003 123.325 72.182C124.522 71.2637 129.701 66.4045 129.701 66.4045L136.535 68.6297V68.6326Z" fill="#FAFAFA" stroke="#444444" stroke-width="0.3"/>
<path opacity="0.2" d="M125.056 77.5859L125.128 80.4012C125.954 79.9896 126.789 79.5693 127.629 79.1346C128.461 78.7057 129.279 78.2768 130.082 77.845V75.568L125.056 77.583V77.5859Z" fill="black"/>
<path d="M109.524 76.6504C109.637 76.7281 109.783 76.8202 109.962 76.921C110.276 77.0966 110.555 77.2175 110.756 77.2923C111.027 77.396 111.378 77.5054 111.799 77.5831" stroke="#444444" stroke-width="0.5" stroke-linecap="round" stroke-linejoin="round"/>
<path d="M109.191 79.1788C109.191 79.1788 109.332 79.2537 109.715 79.1731C110.098 79.0896 110.498 78.8679 110.498 78.8679" stroke="#444444" stroke-width="0.5" stroke-linecap="round" stroke-linejoin="round"/>
<path d="M110.021 80.0905C110.021 80.0905 110.168 80.056 110.533 79.889C110.896 79.722 111.233 79.4946 111.233 79.4946" stroke="#444444" stroke-width="0.5" stroke-linecap="round" stroke-linejoin="round"/>
<path d="M111.058 80.7761C111.058 80.7761 111.366 80.6494 111.542 80.5458C111.718 80.4421 111.916 80.2637 111.916 80.2637" stroke="#444444" stroke-width="0.5" stroke-linecap="round" stroke-linejoin="round"/>
<path d="M128.108 58.0997C128.108 58.0997 125.929 66.1312 125.528 69.0789C125.128 72.0266 125.123 83.0288 125.123 83.0288H121.343C121.196 81.365 120.445 72.3375 122.117 65.78C122.941 62.5588 124.095 60.9266 125.301 59.8384C126.34 58.9 127.402 58.3818 128.102 58.0997H128.108Z" fill="#48F0AC"/>
<path opacity="0.2" d="M121.181 80.7766C121.769 80.8543 122.543 80.8975 123.435 80.7853C124.097 80.7018 124.665 80.555 125.125 80.4024C125.137 79.6942 125.148 78.9861 125.163 78.278L121.052 79.8756L121.184 80.7766H121.181Z" fill="black"/>
<path d="M144.493 84.0437C143.272 74.8177 141.913 67.8283 140.995 64.4833C140.635 63.1707 140.016 61.2333 138.304 59.8775C137.256 59.0485 136.087 58.6627 135.647 58.5217C134.118 58.0323 132.782 58.0381 131.959 58.1014C131.959 58.1014 130.333 62.2207 130.304 63.804C128.922 65.8708 126.841 68.4472 123.807 70.8423C120.473 73.4762 117.226 74.9184 114.961 75.7158L116.06 81.6631C116.06 81.6631 125.278 78.4966 130.102 76.1534C130.042 80.0021 129.99 83.2492 129.99 83.2492L144.487 84.0409L144.493 84.0437Z" fill="#48F0AC"/>
<path opacity="0.2" d="M130.084 77.8471L130.11 76.1545C133.51 74.4071 135.464 72.3201 136.475 71.0506C137.868 69.2976 138.924 67.2652 139.368 66.4074C139.966 65.2531 140.404 64.2513 140.703 63.5115C140.988 64.5967 141.276 65.682 141.561 66.7672C140.887 68.3505 139.566 70.9096 137.068 73.3593C134.445 75.9328 131.713 77.2196 130.081 77.8471H130.084Z" fill="black"/>
<path d="M135.144 58.3765C134.738 58.3995 134.128 58.4974 133.535 58.8745C132.827 59.3264 132.53 59.9367 132.084 60.7657C131.701 61.4768 131.117 62.5188 130.308 63.8027C129.534 64.8563 126.292 69.1858 122.308 71.955C120.662 73.0979 119.219 73.8434 119.219 73.8434C117.294 74.8366 114.965 75.7146 114.965 75.7146" stroke="#444444" stroke-width="0.3" stroke-linecap="round" stroke-linejoin="round"/>
<path d="M123.268 62.5757C123.268 62.5757 122.703 63.6062 122.347 64.9678C121.99 66.3294 121.699 67.7544 121.699 67.7544" stroke="#444444" stroke-width="0.3" stroke-linecap="round" stroke-linejoin="round"/>
<path d="M128.109 58.1025L118.488 52.9728" stroke="#444444" stroke-width="0.3" stroke-linecap="round" stroke-linejoin="round"/>
<path d="M118.006 49.1031C117.335 49.1838 115.616 49.4889 114.353 50.9081C113.996 51.3082 113.403 51.976 113.296 52.972C113.098 54.8489 114.807 56.1875 114.969 56.3084" stroke="#444444" stroke-width="0.3" stroke-linecap="round" stroke-linejoin="round"/>
<path d="M141.063 70.2905L142.448 80.8523" stroke="#444444" stroke-width="0.3" stroke-linecap="round" stroke-linejoin="round"/>
<path d="M140.622 63.8208C140.622 63.8208 138.768 67.9315 137.084 70.3438C135.901 72.0393 133.852 74.2616 130.109 76.1558C128.074 77.0741 125.935 77.9837 123.699 78.8704C121.07 79.9124 118.523 80.8394 116.067 81.6655" stroke="#444444" stroke-width="0.3" stroke-linecap="round" stroke-linejoin="round"/>
<g clip-path="url(#clip0_177_636)">
<path d="M95.6699 99.6205L85.5508 89.3348C85.2291 89.0089 84.7471 88.9096 84.3255 89.0871C83.905 89.2628 83.6316 89.6814 83.6316 90.1429V94.7188C77.1622 94.9883 71.518 99.4286 69.7102 105.791C68.9279 108.55 68.9883 110.791 69.0108 111.636L69.0152 111.857C69.0152 112.372 69.3534 112.823 69.8403 112.959C69.9402 112.986 70.0402 113 70.1395 113C70.5288 113 70.8993 112.793 71.1052 112.443C75.5586 104.833 81.4592 104.617 83.6316 104.832V110.714C83.6316 111.176 83.905 111.594 84.3255 111.77C84.7471 111.949 85.2297 111.849 85.5508 111.522L95.6699 101.237C96.1096 100.79 96.1096 100.068 95.6699 99.6205Z" fill="#2CA473"/>
</g>
</g>
<defs>
<clipPath id="clip0_177_636">
<rect width="27" height="24" fill="white" transform="translate(69 89)"/>
</clipPath>
</defs>
</svg>
